G04 start of page 7 for group -4079 idx -4079 *
G04 Title: Ultim809, topsilk *
G04 Creator: pcb 20091103 *
G04 CreationDate: Tue Apr  5 07:19:05 2011 UTC *
G04 For: matt *
G04 Format: Gerber/RS-274X *
G04 PCB-Dimensions: 900000 650000 *
G04 PCB-Coordinate-Origin: lower left *
%MOIN*%
%FSLAX25Y25*%
%LNFRONTSILK*%
%ADD11C,0.0200*%
%ADD12C,0.0100*%
%ADD38C,0.0150*%
%ADD55C,0.0132*%
G54D12*X900000Y0D02*Y650000D01*
X867500Y523500D02*X878500D01*
X867500Y533500D02*X883500D01*
X836500Y483500D02*X842500D01*
X840000Y493500D02*X842500D01*
X867500Y513500D02*X875500D01*
X867500Y503500D02*X879000D01*
X836000Y473500D02*X842500D01*
X830500Y463500D02*X843000D01*
X867500Y453500D02*X880000D01*
X831000D02*X843000D01*
X855000Y80000D02*Y132500D01*
X897500Y650000D02*X900000Y647500D01*
X67500Y537500D02*X72500D01*
X70000Y550000D02*Y540000D01*
X65000D02*X75000D01*
X31000Y638500D02*X34000D01*
G54D38*X32500Y635000D02*Y630000D01*
Y627500D02*Y622500D01*
G54D12*Y620500D02*Y618000D01*
Y640000D02*Y637000D01*
X190000Y550000D02*Y542500D01*
Y550000D02*Y540000D01*
X185000D02*X195000D01*
X187500Y537500D02*X192500D01*
X225000Y600000D02*X235000D01*
X227500Y597500D02*X232500D01*
X230000Y610000D02*Y600000D01*
X0Y650000D02*X897500D01*
X267500Y22500D02*X262500D01*
X265000Y25000D02*Y20000D01*
X35000Y25000D02*Y20000D01*
X32500Y22500D02*X37500D01*
X305000Y25000D02*Y20000D01*
X307500Y22500D02*X302500D01*
X102500Y470000D02*Y465000D01*
X100000Y467500D02*X105000D01*
X7500D02*X2500D01*
X900000Y0D02*X0D01*
X597500Y132500D02*Y80000D01*
X855000D01*
Y132500D02*X597500D01*
X0Y0D02*Y650000D01*
G54D38*X30000Y630000D02*G75*G03X32500Y627500I2500J0D01*G01*
G75*G03X35000Y630000I0J2500D01*G01*
G54D12*X749000Y370000D02*X751500Y367500D01*
X753000D01*
Y370000D02*Y367500D01*
X751000Y366299D02*X753000Y364299D01*
X751000Y366299D02*Y363799D01*
X749000Y364299D02*X753000D01*
X749000Y362598D02*X753000D01*
X749000Y360098D02*X753000D01*
X751000Y362598D02*Y360098D01*
X749000Y358397D02*Y356897D01*
X749500Y358897D02*X749000Y358397D01*
X749500Y358897D02*X752500D01*
X753000Y358397D01*
Y356897D01*
X752500Y355696D02*X753000Y355196D01*
Y353696D01*
X752500Y353196D01*
X751500D02*X752500D01*
X749000Y355696D02*X751500Y353196D01*
X749000Y355696D02*Y353196D01*
X751000Y351995D02*X753000Y349995D01*
X751000Y351995D02*Y349495D01*
X749000Y349995D02*X753000D01*
Y348294D02*Y346294D01*
X751000Y348294D02*X753000D01*
X751000D02*X751500Y347794D01*
Y346794D01*
X751000Y346294D01*
X749500D02*X751000D01*
X749000Y346794D02*X749500Y346294D01*
X749000Y347794D02*Y346794D01*
X749500Y348294D02*X749000Y347794D01*
Y490000D02*X751500Y487500D01*
X753000D01*
Y490000D02*Y487500D01*
X751000Y486299D02*X753000Y484299D01*
X751000Y486299D02*Y483799D01*
X749000Y484299D02*X753000D01*
X749000Y482598D02*X753000D01*
X749000Y480098D02*X753000D01*
X751000Y482598D02*Y480098D01*
X749000Y478397D02*Y476897D01*
X749500Y478897D02*X749000Y478397D01*
X749500Y478897D02*X752500D01*
X753000Y478397D01*
Y476897D01*
Y475696D02*Y473696D01*
X751000Y475696D02*X753000D01*
X751000D02*X751500Y475196D01*
Y474196D01*
X751000Y473696D01*
X749500D02*X751000D01*
X749000Y474196D02*X749500Y473696D01*
X749000Y475196D02*Y474196D01*
X749500Y475696D02*X749000Y475196D01*
X751000Y472495D02*X753000Y470495D01*
X751000Y472495D02*Y469995D01*
X749000Y470495D02*X753000D01*
X749000Y468294D02*Y467294D01*
Y467794D02*X753000D01*
X752000Y468794D02*X753000Y467794D01*
X659000Y447500D02*X661500Y445000D01*
X663000D01*
Y447500D02*Y445000D01*
X661000Y443799D02*X663000Y441799D01*
X661000Y443799D02*Y441299D01*
X659000Y441799D02*X663000D01*
X659000Y440098D02*X663000D01*
X659000Y437598D02*X663000D01*
X661000Y440098D02*Y437598D01*
X659000Y435897D02*Y434397D01*
X659500Y436397D02*X659000Y435897D01*
X659500Y436397D02*X662500D01*
X663000Y435897D01*
Y434397D01*
Y433196D02*Y431196D01*
X661000Y433196D02*X663000D01*
X661000D02*X661500Y432696D01*
Y431696D01*
X661000Y431196D01*
X659500D02*X661000D01*
X659000Y431696D02*X659500Y431196D01*
X659000Y432696D02*Y431696D01*
X659500Y433196D02*X659000Y432696D01*
Y429995D02*X661500Y427495D01*
X663000D01*
Y429995D02*Y427495D01*
X661000Y426294D02*X663000Y424294D01*
X661000Y426294D02*Y423794D01*
X659000Y424294D02*X663000D01*
X662500Y330000D02*X663000D01*
X662500D02*X661500Y329000D01*
X662500Y328000D01*
X663000D01*
X659000Y329000D02*X661500D01*
X659000Y326799D02*X663000D01*
X661500Y325299D01*
X663000Y323799D01*
X659000D02*X663000D01*
X662500Y322598D02*X663000Y322098D01*
Y320598D01*
X662500Y320098D01*
X661500D02*X662500D01*
X659000Y322598D02*X661500Y320098D01*
X659000Y322598D02*Y320098D01*
Y318397D02*Y317397D01*
Y317897D02*X663000D01*
X662000Y318897D02*X663000Y317897D01*
X661000Y316196D02*X663000Y314196D01*
X661000Y316196D02*Y313696D01*
X659000Y314196D02*X663000D01*
X659000Y312495D02*X661000Y310495D01*
X662500D01*
X663000Y310995D02*X662500Y310495D01*
X663000Y311995D02*Y310995D01*
X662500Y312495D02*X663000Y311995D01*
X661500Y312495D02*X662500D01*
X661500D02*X661000Y311995D01*
Y310495D01*
X569000Y330000D02*X571500Y327500D01*
X573000D01*
Y330000D02*Y327500D01*
X571000Y326299D02*X573000Y324299D01*
X571000Y326299D02*Y323799D01*
X569000Y324299D02*X573000D01*
X569000Y322598D02*X573000D01*
X569000Y320098D02*X573000D01*
X571000Y322598D02*Y320098D01*
X569000Y318397D02*Y316897D01*
X569500Y318897D02*X569000Y318397D01*
X569500Y318897D02*X572500D01*
X573000Y318397D01*
Y316897D01*
X569000Y315196D02*Y314196D01*
Y314696D02*X573000D01*
X572000Y315696D02*X573000Y314696D01*
X572500Y312995D02*X573000Y312495D01*
Y311495D01*
X572500Y310995D01*
X569500D02*X572500D01*
X569000Y311495D02*X569500Y310995D01*
X569000Y312495D02*Y311495D01*
X569500Y312995D02*X569000Y312495D01*
X571000D02*Y310995D01*
X569000Y309794D02*X571000Y307794D01*
X572500D01*
X573000Y308294D02*X572500Y307794D01*
X573000Y309294D02*Y308294D01*
X572500Y309794D02*X573000Y309294D01*
X571500Y309794D02*X572500D01*
X571500D02*X571000Y309294D01*
Y307794D01*
X569000Y230000D02*X571500Y227500D01*
X573000D01*
Y230000D02*Y227500D01*
X571000Y226299D02*X573000Y224299D01*
X571000Y226299D02*Y223799D01*
X569000Y224299D02*X573000D01*
X569000Y222598D02*X573000D01*
X569000Y220098D02*X573000D01*
X571000Y222598D02*Y220098D01*
X569000Y218397D02*Y216897D01*
X569500Y218897D02*X569000Y218397D01*
X569500Y218897D02*X572500D01*
X573000Y218397D01*
Y216897D01*
X569500Y215696D02*X569000Y215196D01*
X569500Y215696D02*X572500D01*
X573000Y215196D01*
Y214196D01*
X572500Y213696D01*
X569500D02*X572500D01*
X569000Y214196D02*X569500Y213696D01*
X569000Y215196D02*Y214196D01*
X570000Y215696D02*X572000Y213696D01*
X572500Y212495D02*X573000Y211995D01*
Y210495D01*
X572500Y209995D01*
X571500D02*X572500D01*
X569000Y212495D02*X571500Y209995D01*
X569000Y212495D02*Y209995D01*
X509000Y230000D02*X511500Y227500D01*
X513000D01*
Y230000D02*Y227500D01*
X511000Y226299D02*X513000Y224299D01*
X511000Y226299D02*Y223799D01*
X509000Y224299D02*X513000D01*
X509000Y222598D02*X513000D01*
X509000Y220098D02*X513000D01*
X511000Y222598D02*Y220098D01*
X509000Y218397D02*Y216897D01*
X509500Y218897D02*X509000Y218397D01*
X509500Y218897D02*X512500D01*
X513000Y218397D01*
Y216897D01*
X509000Y215696D02*X511500Y213196D01*
X513000D01*
Y215696D02*Y213196D01*
X511000Y211995D02*X513000Y209995D01*
X511000Y211995D02*Y209495D01*
X509000Y209995D02*X513000D01*
X509000Y332500D02*X511500Y330000D01*
X513000D01*
Y332500D02*Y330000D01*
X511000Y328799D02*X513000Y326799D01*
X511000Y328799D02*Y326299D01*
X509000Y326799D02*X513000D01*
X509000Y325098D02*X513000D01*
X509000Y322598D02*X513000D01*
X511000Y325098D02*Y322598D01*
X509000Y320897D02*Y319397D01*
X509500Y321397D02*X509000Y320897D01*
X509500Y321397D02*X512500D01*
X513000Y320897D01*
Y319397D01*
X509000Y318196D02*X511500Y315696D01*
X513000D01*
Y318196D02*Y315696D01*
X512500Y314495D02*X513000Y313995D01*
Y312995D01*
X512500Y312495D01*
X509500D02*X512500D01*
X509000Y312995D02*X509500Y312495D01*
X509000Y313995D02*Y312995D01*
X509500Y314495D02*X509000Y313995D01*
X511000D02*Y312495D01*
X419000Y332500D02*X423000D01*
X421500Y331000D01*
X423000Y329500D01*
X419000D02*X423000D01*
X419000Y327799D02*Y326299D01*
X419500Y328299D02*X419000Y327799D01*
X419500Y328299D02*X422500D01*
X423000Y327799D01*
Y326299D01*
Y323598D02*X422500Y323098D01*
X423000Y324598D02*Y323598D01*
X422500Y325098D02*X423000Y324598D01*
X419500Y325098D02*X422500D01*
X419500D02*X419000Y324598D01*
X421000Y323598D02*X420500Y323098D01*
X421000Y325098D02*Y323598D01*
X419000Y324598D02*Y323598D01*
X419500Y323098D01*
X420500D01*
X419500Y321897D02*X419000Y321397D01*
X419500Y321897D02*X420500D01*
X421000Y321397D01*
Y320397D01*
X420500Y319897D01*
X419500D02*X420500D01*
X419000Y320397D02*X419500Y319897D01*
X419000Y321397D02*Y320397D01*
X421500Y321897D02*X421000Y321397D01*
X421500Y321897D02*X422500D01*
X423000Y321397D01*
Y320397D01*
X422500Y319897D01*
X421500D02*X422500D01*
X421000Y320397D02*X421500Y319897D01*
X419000Y318696D02*Y316696D01*
X419500Y316196D01*
X420500D01*
X421000Y316696D02*X420500Y316196D01*
X421000Y318196D02*Y316696D01*
X419000Y318196D02*X423000D01*
Y318696D02*Y316696D01*
X422500Y316196D01*
X421500D02*X422500D01*
X421000Y316696D02*X421500Y316196D01*
X419500Y314995D02*X419000Y314495D01*
X419500Y314995D02*X422500D01*
X423000Y314495D01*
Y313495D01*
X422500Y312995D01*
X419500D02*X422500D01*
X419000Y313495D02*X419500Y312995D01*
X419000Y314495D02*Y313495D01*
X420000Y314995D02*X422000Y312995D01*
X419000Y311794D02*X421000Y309794D01*
X422500D01*
X423000Y310294D02*X422500Y309794D01*
X423000Y311294D02*Y310294D01*
X422500Y311794D02*X423000Y311294D01*
X421500Y311794D02*X422500D01*
X421500D02*X421000Y311294D01*
Y309794D01*
Y308593D02*Y307093D01*
X419000Y308593D02*Y306593D01*
Y308593D02*X423000D01*
Y306593D01*
G54D55*X602500Y126690D02*Y115105D01*
X604155Y113450D01*
X607465D01*
X609120Y115105D01*
Y126690D02*Y115105D01*
X613095Y126690D02*Y113450D01*
X619715D01*
X623690Y126690D02*X630310D01*
X627000D02*Y113450D01*
X634285Y126690D02*X637595D01*
X635940D02*Y113450D01*
X634285D02*X637595D01*
X641571Y126690D02*Y113450D01*
Y126690D02*X646536Y121725D01*
X651501Y126690D01*
Y113450D01*
X655476Y115105D02*X657131Y113450D01*
X655476Y118415D02*Y115105D01*
Y118415D02*X657131Y120070D01*
X660441D01*
X662096Y118415D01*
Y115105D01*
X660441Y113450D02*X662096Y115105D01*
X657131Y113450D02*X660441D01*
X655476Y121725D02*X657131Y120070D01*
X655476Y125035D02*Y121725D01*
Y125035D02*X657131Y126690D01*
X660441D01*
X662096Y125035D01*
Y121725D01*
X660441Y120070D02*X662096Y121725D01*
X666071Y115105D02*X667726Y113450D01*
X666071Y125035D02*Y115105D01*
Y125035D02*X667726Y126690D01*
X671036D01*
X672691Y125035D01*
Y115105D01*
X671036Y113450D02*X672691Y115105D01*
X667726Y113450D02*X671036D01*
X666071Y116760D02*X672691Y123380D01*
X676667Y113450D02*X683287Y120070D01*
Y125035D02*Y120070D01*
X681632Y126690D02*X683287Y125035D01*
X678322Y126690D02*X681632D01*
X676667Y125035D02*X678322Y126690D01*
X676667Y125035D02*Y121725D01*
X678322Y120070D01*
X683287D01*
G54D12*X602500Y95510D02*X606480D01*
X607475Y94515D01*
Y92525D01*
X606480Y91530D02*X607475Y92525D01*
X603495Y91530D02*X606480D01*
X603495Y95510D02*Y87550D01*
Y91530D02*X607475Y87550D01*
X610859D02*X613844D01*
X609864Y88545D02*X610859Y87550D01*
X609864Y90535D02*Y88545D01*
Y90535D02*X610859Y91530D01*
X612849D01*
X613844Y90535D01*
X609864Y89540D02*X613844D01*
Y90535D02*Y89540D01*
X616234Y91530D02*Y89540D01*
X618224Y87550D01*
X620214Y89540D01*
Y91530D02*Y89540D01*
X626186Y88545D02*X627181Y87550D01*
X626186Y94515D02*Y88545D01*
Y94515D02*X627181Y95510D01*
X629171D01*
X630166Y94515D01*
Y88545D01*
X629171Y87550D02*X630166Y88545D01*
X627181Y87550D02*X629171D01*
X626186Y89540D02*X630166Y93520D01*
X636138Y91530D02*X640118D01*
X646090Y94515D02*Y87550D01*
Y94515D02*X647085Y95510D01*
X650070D01*
X651065Y94515D01*
Y87550D01*
X646090Y91530D02*X651065D01*
X654450Y90535D02*Y84565D01*
X653455Y91530D02*X654450Y90535D01*
X655445Y91530D01*
X657435D01*
X658430Y90535D01*
Y88545D01*
X657435Y87550D02*X658430Y88545D01*
X655445Y87550D02*X657435D01*
X654450Y88545D02*X655445Y87550D01*
X661815Y90535D02*Y87550D01*
Y90535D02*X662810Y91530D01*
X664800D01*
X660820D02*X661815Y90535D01*
X667190Y93520D02*Y92525D01*
Y90535D02*Y87550D01*
X669182Y95510D02*Y88545D01*
X670177Y87550D01*
X675751Y91530D02*X679731Y95510D01*
X675751Y91530D02*X680726D01*
X679731Y95510D02*Y87550D01*
X683116Y85560D02*X685106Y87550D01*
X691078Y94515D02*X692073Y95510D01*
X695058D01*
X696053Y94515D01*
Y92525D01*
X691078Y87550D02*X696053Y92525D01*
X691078Y87550D02*X696053D01*
X698443Y88545D02*X699438Y87550D01*
X698443Y94515D02*Y88545D01*
Y94515D02*X699438Y95510D01*
X701428D01*
X702423Y94515D01*
Y88545D01*
X701428Y87550D02*X702423Y88545D01*
X699438Y87550D02*X701428D01*
X698443Y89540D02*X702423Y93520D01*
X705808Y87550D02*X707798D01*
X706803Y95510D02*Y87550D01*
X704813Y93520D02*X706803Y95510D01*
X711183Y87550D02*X713173D01*
X712178Y95510D02*Y87550D01*
X710188Y93520D02*X712178Y95510D01*
X765000D02*Y87550D01*
Y90535D02*X765995Y91530D01*
X767985D01*
X768980Y90535D01*
Y87550D01*
X772364Y95510D02*Y88545D01*
X773359Y87550D01*
X771369Y92525D02*X773359D01*
X776346Y95510D02*Y88545D01*
X777341Y87550D01*
X775351Y92525D02*X777341D01*
X780328Y90535D02*Y84565D01*
X779333Y91530D02*X780328Y90535D01*
X781323Y91530D01*
X783313D01*
X784308Y90535D01*
Y88545D01*
X783313Y87550D02*X784308Y88545D01*
X781323Y87550D02*X783313D01*
X780328Y88545D02*X781323Y87550D01*
X786698Y92525D02*X787693D01*
X786698Y90535D02*X787693D01*
X790083Y88545D02*X796053Y94515D01*
X798443Y88545D02*X804413Y94515D01*
X807798Y90535D02*Y84565D01*
X806803Y91530D02*X807798Y90535D01*
X808793Y91530D01*
X810783D01*
X811778Y90535D01*
Y88545D01*
X810783Y87550D02*X811778Y88545D01*
X808793Y87550D02*X810783D01*
X807798Y88545D02*X808793Y87550D01*
X815163D02*X818148D01*
X819143Y88545D01*
X818148Y89540D02*X819143Y88545D01*
X815163Y89540D02*X818148D01*
X814168Y90535D02*X815163Y89540D01*
X814168Y90535D02*X815163Y91530D01*
X818148D01*
X819143Y90535D01*
X814168Y88545D02*X815163Y87550D01*
X821533Y95510D02*Y87550D01*
Y90535D02*X822528Y91530D01*
X824518D01*
X825513Y90535D01*
Y87550D01*
X828898D02*X831883D01*
X832878Y88545D01*
X831883Y89540D02*X832878Y88545D01*
X828898Y89540D02*X831883D01*
X827903Y90535D02*X828898Y89540D01*
X827903Y90535D02*X828898Y91530D01*
X831883D01*
X832878Y90535D01*
X827903Y88545D02*X828898Y87550D01*
X835268D02*X836263D01*
X839648Y91530D02*X842633D01*
X838653Y90535D02*X839648Y91530D01*
X838653Y90535D02*Y88545D01*
X839648Y87550D01*
X842633D01*
X846018Y91530D02*X849003D01*
X845023Y90535D02*X846018Y91530D01*
X845023Y90535D02*Y88545D01*
X846018Y87550D01*
X849003D01*
X602500Y108010D02*Y100050D01*
X607475Y108010D02*Y100050D01*
X602500Y104030D02*X607475D01*
X609864Y103035D02*Y101045D01*
Y103035D02*X610859Y104030D01*
X612849D01*
X613844Y103035D01*
Y101045D01*
X612849Y100050D02*X613844Y101045D01*
X610859Y100050D02*X612849D01*
X609864Y101045D02*X610859Y100050D01*
X617229Y103035D02*Y100050D01*
Y103035D02*X618224Y104030D01*
X619219D01*
X620214Y103035D01*
Y100050D01*
Y103035D02*X621209Y104030D01*
X622204D01*
X623199Y103035D01*
Y100050D01*
X616234Y104030D02*X617229Y103035D01*
X626584Y100050D02*X629569D01*
X625589Y101045D02*X626584Y100050D01*
X625589Y103035D02*Y101045D01*
Y103035D02*X626584Y104030D01*
X628574D01*
X629569Y103035D01*
X625589Y102040D02*X629569D01*
Y103035D02*Y102040D01*
X631959Y108010D02*Y100050D01*
Y101045D02*X632954Y100050D01*
X634944D01*
X635939Y101045D01*
Y103035D02*Y101045D01*
X634944Y104030D02*X635939Y103035D01*
X632954Y104030D02*X634944D01*
X631959Y103035D02*X632954Y104030D01*
X639324Y103035D02*Y100050D01*
Y103035D02*X640319Y104030D01*
X642309D01*
X638329D02*X639324Y103035D01*
X645694Y100050D02*X648679D01*
X644699Y101045D02*X645694Y100050D01*
X644699Y103035D02*Y101045D01*
Y103035D02*X645694Y104030D01*
X647684D01*
X648679Y103035D01*
X644699Y102040D02*X648679D01*
Y103035D02*Y102040D01*
X651069Y104030D02*Y101045D01*
X652064Y100050D01*
X653059D01*
X654054Y101045D01*
Y104030D02*Y101045D01*
X655049Y100050D01*
X656044D01*
X657039Y101045D01*
Y104030D02*Y101045D01*
X663011D02*X664006Y100050D01*
X663011Y103035D02*Y101045D01*
Y103035D02*X664006Y104030D01*
X665996D01*
X666991Y103035D01*
Y101045D01*
X665996Y100050D02*X666991Y101045D01*
X664006Y100050D02*X665996D01*
X663011Y105025D02*X664006Y104030D01*
X663011Y107015D02*Y105025D01*
Y107015D02*X664006Y108010D01*
X665996D01*
X666991Y107015D01*
Y105025D01*
X665996Y104030D02*X666991Y105025D01*
X669381Y104030D02*X673361D01*
X675751Y100050D02*X679731D01*
X680726Y101045D01*
Y103035D02*Y101045D01*
X679731Y104030D02*X680726Y103035D01*
X676746Y104030D02*X679731D01*
X676746Y108010D02*Y100050D01*
X675751Y108010D02*X679731D01*
X680726Y107015D01*
Y105025D01*
X679731Y104030D02*X680726Y105025D01*
X683116Y106020D02*Y105025D01*
Y103035D02*Y100050D01*
X686103Y108010D02*Y101045D01*
X687098Y100050D01*
X685108Y105025D02*X687098D01*
X693667Y100050D02*X696652D01*
X692672Y101045D02*X693667Y100050D01*
X692672Y107015D02*Y101045D01*
Y107015D02*X693667Y108010D01*
X696652D01*
X699042Y103035D02*Y101045D01*
Y103035D02*X700037Y104030D01*
X702027D01*
X703022Y103035D01*
Y101045D01*
X702027Y100050D02*X703022Y101045D01*
X700037Y100050D02*X702027D01*
X699042Y101045D02*X700037Y100050D01*
X706407Y103035D02*Y100050D01*
Y103035D02*X707402Y104030D01*
X708397D01*
X709392Y103035D01*
Y100050D01*
Y103035D02*X710387Y104030D01*
X711382D01*
X712377Y103035D01*
Y100050D01*
X705412Y104030D02*X706407Y103035D01*
X715762D02*Y97065D01*
X714767Y104030D02*X715762Y103035D01*
X716757Y104030D01*
X718747D01*
X719742Y103035D01*
Y101045D01*
X718747Y100050D02*X719742Y101045D01*
X716757Y100050D02*X718747D01*
X715762Y101045D02*X716757Y100050D01*
X722132Y104030D02*Y101045D01*
X723127Y100050D01*
X725117D01*
X726112Y101045D01*
Y104030D02*Y101045D01*
X729497Y108010D02*Y101045D01*
X730492Y100050D01*
X728502Y105025D02*X730492D01*
X733479Y100050D02*X736464D01*
X732484Y101045D02*X733479Y100050D01*
X732484Y103035D02*Y101045D01*
Y103035D02*X733479Y104030D01*
X735469D01*
X736464Y103035D01*
X732484Y102040D02*X736464D01*
Y103035D02*Y102040D01*
X739849Y103035D02*Y100050D01*
Y103035D02*X740844Y104030D01*
X742834D01*
X738854D02*X739849Y103035D01*
X748806Y108010D02*Y100050D01*
Y101045D02*X749801Y100050D01*
X751791D01*
X752786Y101045D01*
Y103035D02*Y101045D01*
X751791Y104030D02*X752786Y103035D01*
X749801Y104030D02*X751791D01*
X748806Y103035D02*X749801Y104030D01*
X755176D02*Y101045D01*
X756171Y100050D01*
X759156Y104030D02*Y98060D01*
X758161Y97065D02*X759156Y98060D01*
X756171Y97065D02*X758161D01*
X755176Y98060D02*X756171Y97065D01*
Y100050D02*X758161D01*
X759156Y101045D01*
X765128Y108010D02*Y100050D01*
Y108010D02*X768113Y105025D01*
X771098Y108010D01*
Y100050D01*
X776473Y104030D02*X777468Y103035D01*
X774483Y104030D02*X776473D01*
X773488Y103035D02*X774483Y104030D01*
X773488Y103035D02*Y101045D01*
X774483Y100050D01*
X777468Y104030D02*Y101045D01*
X778463Y100050D01*
X774483D02*X776473D01*
X777468Y101045D01*
X781848Y108010D02*Y101045D01*
X782843Y100050D01*
X780853Y105025D02*X782843D01*
X785830Y108010D02*Y101045D01*
X786825Y100050D01*
X784835Y105025D02*X786825D01*
X796379Y108010D02*X797374Y107015D01*
X793394Y108010D02*X796379D01*
X792399Y107015D02*X793394Y108010D01*
X792399Y107015D02*Y105025D01*
X793394Y104030D01*
X796379D01*
X797374Y103035D01*
Y101045D01*
X796379Y100050D02*X797374Y101045D01*
X793394Y100050D02*X796379D01*
X792399Y101045D02*X793394Y100050D01*
X802749Y104030D02*X803744Y103035D01*
X800759Y104030D02*X802749D01*
X799764Y103035D02*X800759Y104030D01*
X799764Y103035D02*Y101045D01*
X800759Y100050D01*
X803744Y104030D02*Y101045D01*
X804739Y100050D01*
X800759D02*X802749D01*
X803744Y101045D01*
X808124Y103035D02*Y100050D01*
Y103035D02*X809119Y104030D01*
X811109D01*
X807129D02*X808124Y103035D01*
X814494D02*Y100050D01*
Y103035D02*X815489Y104030D01*
X816484D01*
X817479Y103035D01*
Y100050D01*
X813499Y104030D02*X814494Y103035D01*
X819869D02*Y101045D01*
Y103035D02*X820864Y104030D01*
X822854D01*
X823849Y103035D01*
Y101045D01*
X822854Y100050D02*X823849Y101045D01*
X820864Y100050D02*X822854D01*
X819869Y101045D02*X820864Y100050D01*
X827234Y107015D02*Y100050D01*
Y107015D02*X828229Y108010D01*
X829224D01*
X826239Y104030D02*X828229D01*
X832211Y107015D02*Y100050D01*
Y107015D02*X833206Y108010D01*
X834201D01*
X831216Y104030D02*X833206D01*
X625775Y59750D02*X628100D01*
X625000Y60525D02*X625775Y59750D01*
X625000Y65175D02*Y60525D01*
Y65175D02*X625775Y65950D01*
X628100D01*
X629961Y65175D02*Y60525D01*
Y65175D02*X630736Y65950D01*
X632286D01*
X633061Y65175D01*
Y60525D01*
X632286Y59750D02*X633061Y60525D01*
X630736Y59750D02*X632286D01*
X629961Y60525D02*X630736Y59750D01*
X634923Y65950D02*Y59750D01*
Y65950D02*Y65175D01*
X638798Y61300D01*
Y65950D02*Y59750D01*
X640659Y65950D02*X643759D01*
X642209D02*Y59750D01*
X645621Y65950D02*X648721D01*
X649496Y65175D01*
Y63625D01*
X648721Y62850D02*X649496Y63625D01*
X646396Y62850D02*X648721D01*
X646396Y65950D02*Y59750D01*
Y62850D02*X649496Y59750D01*
X651357Y65175D02*Y60525D01*
Y65175D02*X652132Y65950D01*
X653682D01*
X654457Y65175D01*
Y60525D01*
X653682Y59750D02*X654457Y60525D01*
X652132Y59750D02*X653682D01*
X651357Y60525D02*X652132Y59750D01*
X656319Y65950D02*Y59750D01*
X659419D01*
X661280Y65950D02*Y59750D01*
X664380D01*
X666242Y62850D02*X668567D01*
X666242Y59750D02*X669342D01*
X666242Y65950D02*Y59750D01*
Y65950D02*X669342D01*
X671203D02*X674303D01*
X675078Y65175D01*
Y63625D01*
X674303Y62850D02*X675078Y63625D01*
X671978Y62850D02*X674303D01*
X671978Y65950D02*Y59750D01*
Y62850D02*X675078Y59750D01*
X680505D02*X682055D01*
X681280Y65950D02*Y59750D01*
X679730Y64400D02*X681280Y65950D01*
X773275Y59750D02*X775600D01*
X772500Y60525D02*X773275Y59750D01*
X772500Y65175D02*Y60525D01*
Y65175D02*X773275Y65950D01*
X775600D01*
X777461Y65175D02*Y60525D01*
Y65175D02*X778236Y65950D01*
X779786D01*
X780561Y65175D01*
Y60525D01*
X779786Y59750D02*X780561Y60525D01*
X778236Y59750D02*X779786D01*
X777461Y60525D02*X778236Y59750D01*
X782423Y65950D02*Y59750D01*
Y65950D02*Y65175D01*
X786298Y61300D01*
Y65950D02*Y59750D01*
X788159Y65950D02*X791259D01*
X789709D02*Y59750D01*
X793121Y65950D02*X796221D01*
X796996Y65175D01*
Y63625D01*
X796221Y62850D02*X796996Y63625D01*
X793896Y62850D02*X796221D01*
X793896Y65950D02*Y59750D01*
Y62850D02*X796996Y59750D01*
X798857Y65175D02*Y60525D01*
Y65175D02*X799632Y65950D01*
X801182D01*
X801957Y65175D01*
Y60525D01*
X801182Y59750D02*X801957Y60525D01*
X799632Y59750D02*X801182D01*
X798857Y60525D02*X799632Y59750D01*
X803819Y65950D02*Y59750D01*
X806919D01*
X808780Y65950D02*Y59750D01*
X811880D01*
X813742Y62850D02*X816067D01*
X813742Y59750D02*X816842D01*
X813742Y65950D02*Y59750D01*
Y65950D02*X816842D01*
X818703D02*X821803D01*
X822578Y65175D01*
Y63625D01*
X821803Y62850D02*X822578Y63625D01*
X819478Y62850D02*X821803D01*
X819478Y65950D02*Y59750D01*
Y62850D02*X822578Y59750D01*
X827230Y65175D02*X828005Y65950D01*
X830330D01*
X831105Y65175D01*
Y63625D01*
X827230Y59750D02*X831105Y63625D01*
X827230Y59750D02*X831105D01*
X749000Y610000D02*X751500Y607500D01*
X753000D01*
Y610000D02*Y607500D01*
X751000Y606299D02*X753000Y604299D01*
X751000Y606299D02*Y603799D01*
X749000Y604299D02*X753000D01*
X749000Y602598D02*X753000D01*
X749000Y600098D02*X753000D01*
X751000Y602598D02*Y600098D01*
X749000Y598397D02*Y596897D01*
X749500Y598897D02*X749000Y598397D01*
X749500Y598897D02*X752500D01*
X753000Y598397D01*
Y596897D01*
Y595696D02*Y593696D01*
X751000Y595696D02*X753000D01*
X751000D02*X751500Y595196D01*
Y594196D01*
X751000Y593696D01*
X749500D02*X751000D01*
X749000Y594196D02*X749500Y593696D01*
X749000Y595196D02*Y594196D01*
X749500Y595696D02*X749000Y595196D01*
X751000Y592495D02*X753000Y590495D01*
X751000Y592495D02*Y589995D01*
X749000Y590495D02*X753000D01*
X749000Y588294D02*Y587294D01*
Y587794D02*X753000D01*
X752000Y588794D02*X753000Y587794D01*
X837000Y611000D02*Y607500D01*
Y611000D02*X837500Y611500D01*
X839000D01*
X839500Y611000D01*
Y607500D01*
X837000Y609500D02*X839500D01*
X841201Y607500D02*X842201D01*
X841701Y611500D02*Y607500D01*
X840701Y610500D02*X841701Y611500D01*
X837000Y621000D02*Y617500D01*
Y621000D02*X837500Y621500D01*
X839000D01*
X839500Y621000D01*
Y617500D01*
X837000Y619500D02*X839500D01*
X840701Y618000D02*X841201Y617500D01*
X840701Y621000D02*Y618000D01*
Y621000D02*X841201Y621500D01*
X842201D01*
X842701Y621000D01*
Y618000D01*
X842201Y617500D02*X842701Y618000D01*
X841201Y617500D02*X842201D01*
X840701Y618500D02*X842701Y620500D01*
X837000Y591000D02*Y587500D01*
Y591000D02*X837500Y591500D01*
X839000D01*
X839500Y591000D01*
Y587500D01*
X837000Y589500D02*X839500D01*
X840701Y591000D02*X841201Y591500D01*
X842201D01*
X842701Y591000D01*
Y588000D01*
X842201Y587500D02*X842701Y588000D01*
X841201Y587500D02*X842201D01*
X840701Y588000D02*X841201Y587500D01*
Y589500D02*X842701D01*
X663000Y608500D02*X662500Y608000D01*
X663000Y609500D02*Y608500D01*
X662500Y610000D02*X663000Y609500D01*
X659500Y610000D02*X662500D01*
X659500D02*X659000Y609500D01*
X661000Y608500D02*X660500Y608000D01*
X661000Y610000D02*Y608500D01*
X659000Y609500D02*Y608500D01*
X659500Y608000D01*
X660500D01*
X662500Y606799D02*X663000Y606299D01*
Y604799D01*
X662500Y604299D01*
X661500D02*X662500D01*
X659000Y606799D02*X661500Y604299D01*
X659000Y606799D02*Y604299D01*
X662500Y603098D02*X663000Y602598D01*
Y601098D01*
X662500Y600598D01*
X661500D02*X662500D01*
X659000Y603098D02*X661500Y600598D01*
X659000Y603098D02*Y600598D01*
X663000Y599397D02*Y597397D01*
X661000Y599397D02*X663000D01*
X661000D02*X661500Y598897D01*
Y597897D01*
X661000Y597397D01*
X659500D02*X661000D01*
X659000Y597897D02*X659500Y597397D01*
X659000Y598897D02*Y597897D01*
X659500Y599397D02*X659000Y598897D01*
X663000Y594696D02*X662500Y594196D01*
X663000Y595696D02*Y594696D01*
X662500Y596196D02*X663000Y595696D01*
X659500Y596196D02*X662500D01*
X659500D02*X659000Y595696D01*
X661000Y594696D02*X660500Y594196D01*
X661000Y596196D02*Y594696D01*
X659000Y595696D02*Y594696D01*
X659500Y594196D01*
X660500D01*
X468500Y506000D02*X470500D01*
X471000Y506500D01*
Y507500D02*Y506500D01*
X470500Y508000D02*X471000Y507500D01*
X469000Y508000D02*X470500D01*
X469000Y510000D02*Y506000D01*
X468500Y510000D02*X470500D01*
X471000Y509500D01*
Y508500D01*
X470500Y508000D02*X471000Y508500D01*
X459000Y508000D02*X460500D01*
X459000Y506000D02*X461000D01*
X459000Y510000D02*Y506000D01*
Y510000D02*X461000D01*
X479500Y506000D02*X481000D01*
X479000Y506500D02*X479500Y506000D01*
X479000Y509500D02*Y506500D01*
Y509500D02*X479500Y510000D01*
X481000D01*
X445000Y593450D02*Y588800D01*
X446550Y587250D01*
X448100Y588800D01*
Y593450D02*Y588800D01*
X449961Y593450D02*X451511D01*
X450736D02*Y587250D01*
X449961D02*X451511D01*
X454148Y593450D02*Y587250D01*
X456473Y593450D02*X457248Y592675D01*
Y588025D01*
X456473Y587250D02*X457248Y588025D01*
X453373Y587250D02*X456473D01*
X453373Y593450D02*X456473D01*
X459109Y590350D02*X461434D01*
X459109Y587250D02*X462209D01*
X459109Y593450D02*Y587250D01*
Y593450D02*X462209D01*
X464071Y592675D02*Y588025D01*
Y592675D02*X464846Y593450D01*
X466396D01*
X467171Y592675D01*
Y588025D01*
X466396Y587250D02*X467171Y588025D01*
X464846Y587250D02*X466396D01*
X464071Y588025D02*X464846Y587250D01*
X471822Y592675D02*Y588025D01*
Y592675D02*X472597Y593450D01*
X474147D01*
X474922Y592675D01*
Y588025D01*
X474147Y587250D02*X474922Y588025D01*
X472597Y587250D02*X474147D01*
X471822Y588025D02*X472597Y587250D01*
X476784Y593450D02*Y588025D01*
X477559Y587250D01*
X479109D01*
X479884Y588025D01*
Y593450D02*Y588025D01*
X481745Y593450D02*X484845D01*
X483295D02*Y587250D01*
X832275Y418450D02*Y412250D01*
X831500Y418450D02*X834600D01*
X835375Y417675D01*
Y416125D01*
X834600Y415350D02*X835375Y416125D01*
X832275Y415350D02*X834600D01*
X837236D02*X839561D01*
X837236Y412250D02*X840336D01*
X837236Y418450D02*Y412250D01*
Y418450D02*X840336D01*
X842198D02*X845298D01*
X846073Y417675D01*
Y416125D01*
X845298Y415350D02*X846073Y416125D01*
X842973Y415350D02*X845298D01*
X842973Y418450D02*Y412250D01*
Y415350D02*X846073Y412250D01*
X847934Y418450D02*X849484D01*
X848709D02*Y412250D01*
X847934D02*X849484D01*
X852121Y418450D02*Y412250D01*
X851346Y418450D02*X854446D01*
X855221Y417675D01*
Y416125D01*
X854446Y415350D02*X855221Y416125D01*
X852121Y415350D02*X854446D01*
X857082Y418450D02*Y412250D01*
X860957Y418450D02*Y412250D01*
X857082Y415350D02*X860957D01*
X862819D02*X865144D01*
X862819Y412250D02*X865919D01*
X862819Y418450D02*Y412250D01*
Y418450D02*X865919D01*
X867780D02*X870880D01*
X871655Y417675D01*
Y416125D01*
X870880Y415350D02*X871655Y416125D01*
X868555Y415350D02*X870880D01*
X868555Y418450D02*Y412250D01*
Y415350D02*X871655Y412250D01*
X873517Y417675D02*Y412250D01*
Y417675D02*X874292Y418450D01*
X876617D01*
X877392Y417675D01*
Y412250D01*
X873517Y415350D02*X877392D01*
X879253Y418450D02*Y412250D01*
X882353D01*
X869000Y431500D02*X869500Y431000D01*
X867500Y431500D02*X869000D01*
X867000Y431000D02*X867500Y431500D01*
X867000Y431000D02*Y428000D01*
X867500Y427500D01*
X869000D01*
X869500Y428000D01*
Y429000D02*Y428000D01*
X869000Y429500D02*X869500Y429000D01*
X868000Y429500D02*X869000D01*
X870701Y431500D02*Y427500D01*
Y431500D02*Y431000D01*
X873201Y428500D01*
Y431500D02*Y427500D01*
X874902Y431500D02*Y427500D01*
X876402Y431500D02*X876902Y431000D01*
Y428000D01*
X876402Y427500D02*X876902Y428000D01*
X874402Y427500D02*X876402D01*
X874402Y431500D02*X876402D01*
X835000D02*X835500Y431000D01*
X833500Y431500D02*X835000D01*
X833000Y431000D02*X833500Y431500D01*
X833000Y431000D02*Y428000D01*
X833500Y427500D01*
X835000D01*
X835500Y428000D01*
Y429000D02*Y428000D01*
X835000Y429500D02*X835500Y429000D01*
X834000Y429500D02*X835000D01*
X836701Y431500D02*Y427500D01*
Y431500D02*Y431000D01*
X839201Y428500D01*
Y431500D02*Y427500D01*
X840902Y431500D02*Y427500D01*
X842402Y431500D02*X842902Y431000D01*
Y428000D01*
X842402Y427500D02*X842902Y428000D01*
X840402Y427500D02*X842402D01*
X840402Y431500D02*X842402D01*
X834000Y405350D02*X836325D01*
X834000Y402250D02*X837100D01*
X834000Y408450D02*Y402250D01*
Y408450D02*X837100D01*
X838961D02*Y407675D01*
X842836Y403800D01*
Y402250D01*
X838961Y403800D02*Y402250D01*
Y403800D02*X842836Y407675D01*
Y408450D02*Y407675D01*
X845473Y408450D02*Y402250D01*
X844698Y408450D02*X847798D01*
X848573Y407675D01*
Y406125D01*
X847798Y405350D02*X848573Y406125D01*
X845473Y405350D02*X847798D01*
X850434Y407675D02*Y402250D01*
Y407675D02*X851209Y408450D01*
X853534D01*
X854309Y407675D01*
Y402250D01*
X850434Y405350D02*X854309D01*
X856171Y408450D02*Y402250D01*
Y408450D02*Y407675D01*
X860046Y403800D01*
Y408450D02*Y402250D01*
X865007Y408450D02*X865782Y407675D01*
X862682Y408450D02*X865007D01*
X861907Y407675D02*X862682Y408450D01*
X861907Y407675D02*Y406125D01*
X862682Y405350D01*
X865007D01*
X865782Y404575D01*
Y403025D01*
X865007Y402250D02*X865782Y403025D01*
X862682Y402250D02*X865007D01*
X861907Y403025D02*X862682Y402250D01*
X867644Y408450D02*X869194D01*
X868419D02*Y402250D01*
X867644D02*X869194D01*
X871055Y407675D02*Y403025D01*
Y407675D02*X871830Y408450D01*
X873380D01*
X874155Y407675D01*
Y403025D01*
X873380Y402250D02*X874155Y403025D01*
X871830Y402250D02*X873380D01*
X871055Y403025D02*X871830Y402250D01*
X876017Y408450D02*Y402250D01*
Y408450D02*Y407675D01*
X879892Y403800D01*
Y408450D02*Y402250D01*
X868000Y541500D02*Y537500D01*
X869500Y541500D02*X870000Y541000D01*
Y538000D01*
X869500Y537500D02*X870000Y538000D01*
X867500Y537500D02*X869500D01*
X867500Y541500D02*X869500D01*
X871201Y537500D02*X873701Y540000D01*
Y541500D02*Y540000D01*
X871201Y541500D02*X873701D01*
X868000Y551500D02*Y547500D01*
X869500Y551500D02*X870000Y551000D01*
Y548000D01*
X869500Y547500D02*X870000Y548000D01*
X867500Y547500D02*X869500D01*
X867500Y551500D02*X869500D01*
X872701D02*X873201Y551000D01*
X871701Y551500D02*X872701D01*
X871201Y551000D02*X871701Y551500D01*
X871201Y551000D02*Y548000D01*
X871701Y547500D01*
X872701Y549500D02*X873201Y549000D01*
X871201Y549500D02*X872701D01*
X871701Y547500D02*X872701D01*
X873201Y548000D01*
Y549000D02*Y548000D01*
X868000Y561500D02*Y557500D01*
X869500Y561500D02*X870000Y561000D01*
Y558000D01*
X869500Y557500D02*X870000Y558000D01*
X867500Y557500D02*X869500D01*
X867500Y561500D02*X869500D01*
X871201D02*X873201D01*
X871201D02*Y559500D01*
X871701Y560000D01*
X872701D01*
X873201Y559500D01*
Y558000D01*
X872701Y557500D02*X873201Y558000D01*
X871701Y557500D02*X872701D01*
X871201Y558000D02*X871701Y557500D01*
X837000Y541000D02*Y537500D01*
Y541000D02*X837500Y541500D01*
X839000D01*
X839500Y541000D01*
Y537500D01*
X837000Y539500D02*X839500D01*
X840701Y538000D02*X841201Y537500D01*
X840701Y539000D02*Y538000D01*
Y539000D02*X841201Y539500D01*
X842201D01*
X842701Y539000D01*
Y538000D01*
X842201Y537500D02*X842701Y538000D01*
X841201Y537500D02*X842201D01*
X840701Y540000D02*X841201Y539500D01*
X840701Y541000D02*Y540000D01*
Y541000D02*X841201Y541500D01*
X842201D01*
X842701Y541000D01*
Y540000D01*
X842201Y539500D02*X842701Y540000D01*
X837000Y551000D02*Y547500D01*
Y551000D02*X837500Y551500D01*
X839000D01*
X839500Y551000D01*
Y547500D01*
X837000Y549500D02*X839500D01*
X840701Y547500D02*X843201Y550000D01*
Y551500D02*Y550000D01*
X840701Y551500D02*X843201D01*
X837000Y561000D02*Y557500D01*
Y561000D02*X837500Y561500D01*
X839000D01*
X839500Y561000D01*
Y557500D01*
X837000Y559500D02*X839500D01*
X842201Y561500D02*X842701Y561000D01*
X841201Y561500D02*X842201D01*
X840701Y561000D02*X841201Y561500D01*
X840701Y561000D02*Y558000D01*
X841201Y557500D01*
X842201Y559500D02*X842701Y559000D01*
X840701Y559500D02*X842201D01*
X841201Y557500D02*X842201D01*
X842701Y558000D01*
Y559000D02*Y558000D01*
X868000Y601500D02*Y597500D01*
X869500Y601500D02*X870000Y601000D01*
Y598000D01*
X869500Y597500D02*X870000Y598000D01*
X867500Y597500D02*X869500D01*
X867500Y601500D02*X869500D01*
X871701Y597500D02*X872701D01*
X872201Y601500D02*Y597500D01*
X871201Y600500D02*X872201Y601500D01*
X868000Y611500D02*Y607500D01*
X869500Y611500D02*X870000Y611000D01*
Y608000D01*
X869500Y607500D02*X870000Y608000D01*
X867500Y607500D02*X869500D01*
X867500Y611500D02*X869500D01*
X871201Y608000D02*X871701Y607500D01*
X871201Y611000D02*Y608000D01*
Y611000D02*X871701Y611500D01*
X872701D01*
X873201Y611000D01*
Y608000D01*
X872701Y607500D02*X873201Y608000D01*
X871701Y607500D02*X872701D01*
X871201Y608500D02*X873201Y610500D01*
X867500Y619500D02*X869500D01*
X868500Y620500D02*Y618500D01*
X870701Y621500D02*X872701D01*
X870701D02*Y619500D01*
X871201Y620000D01*
X872201D01*
X872701Y619500D01*
Y618000D01*
X872201Y617500D02*X872701Y618000D01*
X871201Y617500D02*X872201D01*
X870701Y618000D02*X871201Y617500D01*
X873902Y621500D02*Y618500D01*
X874902Y617500D01*
X875902Y618500D01*
Y621500D02*Y618500D01*
X868000Y571500D02*Y567500D01*
X869500Y571500D02*X870000Y571000D01*
Y568000D01*
X869500Y567500D02*X870000Y568000D01*
X867500Y567500D02*X869500D01*
X867500Y571500D02*X869500D01*
X871201Y569500D02*X873201Y571500D01*
X871201Y569500D02*X873701D01*
X873201Y571500D02*Y567500D01*
X868000Y581500D02*Y577500D01*
X869500Y581500D02*X870000Y581000D01*
Y578000D01*
X869500Y577500D02*X870000Y578000D01*
X867500Y577500D02*X869500D01*
X867500Y581500D02*X869500D01*
X871201Y581000D02*X871701Y581500D01*
X872701D01*
X873201Y581000D01*
Y578000D01*
X872701Y577500D02*X873201Y578000D01*
X871701Y577500D02*X872701D01*
X871201Y578000D02*X871701Y577500D01*
Y579500D02*X873201D01*
X868000Y591500D02*Y587500D01*
X869500Y591500D02*X870000Y591000D01*
Y588000D01*
X869500Y587500D02*X870000Y588000D01*
X867500Y587500D02*X869500D01*
X867500Y591500D02*X869500D01*
X871201Y591000D02*X871701Y591500D01*
X873201D01*
X873701Y591000D01*
Y590000D01*
X871201Y587500D02*X873701Y590000D01*
X871201Y587500D02*X873701D01*
X837000Y571000D02*Y567500D01*
Y571000D02*X837500Y571500D01*
X839000D01*
X839500Y571000D01*
Y567500D01*
X837000Y569500D02*X839500D01*
X840701Y571500D02*X842701D01*
X840701D02*Y569500D01*
X841201Y570000D01*
X842201D01*
X842701Y569500D01*
Y568000D01*
X842201Y567500D02*X842701Y568000D01*
X841201Y567500D02*X842201D01*
X840701Y568000D02*X841201Y567500D01*
X837000Y581000D02*Y577500D01*
Y581000D02*X837500Y581500D01*
X839000D01*
X839500Y581000D01*
Y577500D01*
X837000Y579500D02*X839500D01*
X840701D02*X842701Y581500D01*
X840701Y579500D02*X843201D01*
X842701Y581500D02*Y577500D01*
X837000Y601000D02*Y597500D01*
Y601000D02*X837500Y601500D01*
X839000D01*
X839500Y601000D01*
Y597500D01*
X837000Y599500D02*X839500D01*
X840701Y601000D02*X841201Y601500D01*
X842701D01*
X843201Y601000D01*
Y600000D01*
X840701Y597500D02*X843201Y600000D01*
X840701Y597500D02*X843201D01*
X867500Y511500D02*X868500D01*
X868000D02*Y507500D01*
X867500D02*X868500D01*
X869701Y511500D02*X871701D01*
X872201Y511000D01*
Y510000D01*
X871701Y509500D02*X872201Y510000D01*
X870201Y509500D02*X871701D01*
X870201Y511500D02*Y507500D01*
Y509500D02*X872201Y507500D01*
X873402Y511000D02*Y508000D01*
Y511000D02*X873902Y511500D01*
X874902D01*
X875402Y511000D01*
Y508000D01*
X874902Y507500D02*X875402Y508000D01*
X873902Y507500D02*X874902D01*
X873402Y508000D02*X873902Y507500D01*
X874402Y508500D02*X875402Y507500D01*
X840500Y499500D02*X842000D01*
X840500Y497500D02*X842500D01*
X840500Y501500D02*Y497500D01*
Y501500D02*X842500D01*
X834500Y511000D02*Y507500D01*
Y511000D02*X835000Y511500D01*
X836500D01*
X837000Y511000D01*
Y507500D01*
X834500Y509500D02*X837000D01*
X838701Y507500D02*X839701D01*
X839201Y511500D02*Y507500D01*
X838201Y510500D02*X839201Y511500D01*
X841402Y507500D02*X842402D01*
X841902Y511500D02*Y507500D01*
X840902Y510500D02*X841902Y511500D01*
X834500Y521000D02*Y517500D01*
Y521000D02*X835000Y521500D01*
X836500D01*
X837000Y521000D01*
Y517500D01*
X834500Y519500D02*X837000D01*
X838701Y517500D02*X839701D01*
X839201Y521500D02*Y517500D01*
X838201Y520500D02*X839201Y521500D01*
X840902Y518000D02*X841402Y517500D01*
X840902Y521000D02*Y518000D01*
Y521000D02*X841402Y521500D01*
X842402D01*
X842902Y521000D01*
Y518000D01*
X842402Y517500D02*X842902Y518000D01*
X841402Y517500D02*X842402D01*
X840902Y518500D02*X842902Y520500D01*
X869500Y501500D02*X870000Y501000D01*
X868000Y501500D02*X869500D01*
X867500Y501000D02*X868000Y501500D01*
X867500Y501000D02*Y500000D01*
X868000Y499500D01*
X869500D01*
X870000Y499000D01*
Y498000D01*
X869500Y497500D02*X870000Y498000D01*
X868000Y497500D02*X869500D01*
X867500Y498000D02*X868000Y497500D01*
X871201Y499500D02*X872701D01*
X871201Y497500D02*X873201D01*
X871201Y501500D02*Y497500D01*
Y501500D02*X873201D01*
X874402D02*Y497500D01*
X876402D01*
X878103D02*X879103D01*
X878603Y501500D02*Y497500D01*
X877603Y500500D02*X878603Y501500D01*
X867500Y521500D02*Y517500D01*
Y521500D02*X869500D01*
X867500Y519500D02*X869000D01*
X870701Y521500D02*X871701D01*
X871201D02*Y517500D01*
X870701D02*X871701D01*
X872902Y521500D02*X874902D01*
X875402Y521000D01*
Y520000D01*
X874902Y519500D02*X875402Y520000D01*
X873402Y519500D02*X874902D01*
X873402Y521500D02*Y517500D01*
Y519500D02*X875402Y517500D01*
X876603Y521000D02*Y518000D01*
Y521000D02*X877103Y521500D01*
X878103D01*
X878603Y521000D01*
Y518000D01*
X878103Y517500D02*X878603Y518000D01*
X877103Y517500D02*X878103D01*
X876603Y518000D02*X877103Y517500D01*
X877603Y518500D02*X878603Y517500D01*
X867500Y531500D02*X869500D01*
X870000Y531000D01*
Y530000D01*
X869500Y529500D02*X870000Y530000D01*
X868000Y529500D02*X869500D01*
X868000Y531500D02*Y527500D01*
Y529500D02*X870000Y527500D01*
X871201Y529500D02*X872701D01*
X871201Y527500D02*X873201D01*
X871201Y531500D02*Y527500D01*
Y531500D02*X873201D01*
X876402D02*X876902Y531000D01*
X874902Y531500D02*X876402D01*
X874402Y531000D02*X874902Y531500D01*
X874402Y531000D02*Y530000D01*
X874902Y529500D01*
X876402D01*
X876902Y529000D01*
Y528000D01*
X876402Y527500D02*X876902Y528000D01*
X874902Y527500D02*X876402D01*
X874402Y528000D02*X874902Y527500D01*
X878103Y529500D02*X879603D01*
X878103Y527500D02*X880103D01*
X878103Y531500D02*Y527500D01*
Y531500D02*X880103D01*
X881304D02*X883304D01*
X882304D02*Y527500D01*
X867500Y489500D02*X869500D01*
X868500Y490500D02*Y488500D01*
X870701Y491000D02*X871201Y491500D01*
X872201D01*
X872701Y491000D01*
Y488000D01*
X872201Y487500D02*X872701Y488000D01*
X871201Y487500D02*X872201D01*
X870701Y488000D02*X871201Y487500D01*
Y489500D02*X872701D01*
X873902Y487500D02*X874402D01*
X875603Y491000D02*X876103Y491500D01*
X877103D01*
X877603Y491000D01*
Y488000D01*
X877103Y487500D02*X877603Y488000D01*
X876103Y487500D02*X877103D01*
X875603Y488000D02*X876103Y487500D01*
Y489500D02*X877603D01*
X878804Y491500D02*Y488500D01*
X879804Y487500D01*
X880804Y488500D01*
Y491500D02*Y488500D01*
X836000Y471500D02*Y467500D01*
X837500Y469000D01*
X839000Y467500D01*
Y471500D02*Y467500D01*
X840201Y471500D02*X842201D01*
X842701Y471000D01*
Y470000D01*
X842201Y469500D02*X842701Y470000D01*
X840701Y469500D02*X842201D01*
X840701Y471500D02*Y467500D01*
Y469500D02*X842701Y467500D01*
X836500Y481500D02*X838500D01*
X839000Y481000D01*
Y480000D01*
X838500Y479500D02*X839000Y480000D01*
X837000Y479500D02*X838500D01*
X837000Y481500D02*Y477500D01*
Y479500D02*X839000Y477500D01*
X840701Y481500D02*Y477500D01*
X842201Y481500D02*X842701Y481000D01*
Y478000D01*
X842201Y477500D02*X842701Y478000D01*
X840201Y477500D02*X842201D01*
X840201Y481500D02*X842201D01*
X832000Y491500D02*X834000D01*
X834500Y491000D01*
Y490000D01*
X834000Y489500D02*X834500Y490000D01*
X832500Y489500D02*X834000D01*
X832500Y491500D02*Y487500D01*
Y489500D02*X834500Y487500D01*
X835701Y488000D02*X838701Y491000D01*
X839902Y491500D02*Y487500D01*
X841402Y489000D01*
X842902Y487500D01*
Y491500D02*Y487500D01*
X832500Y461500D02*X833000Y461000D01*
X831000Y461500D02*X832500D01*
X830500Y461000D02*X831000Y461500D01*
X830500Y461000D02*Y460000D01*
X831000Y459500D01*
X832500D01*
X833000Y459000D01*
Y458000D01*
X832500Y457500D02*X833000Y458000D01*
X831000Y457500D02*X832500D01*
X830500Y458000D02*X831000Y457500D01*
X834201Y459500D02*X835701D01*
X834201Y457500D02*X836201D01*
X834201Y461500D02*Y457500D01*
Y461500D02*X836201D01*
X837402D02*Y457500D01*
X839402D01*
X840603Y461000D02*X841103Y461500D01*
X842603D01*
X843103Y461000D01*
Y460000D01*
X840603Y457500D02*X843103Y460000D01*
X840603Y457500D02*X843103D01*
X833000Y451500D02*X833500Y451000D01*
X831500Y451500D02*X833000D01*
X831000Y451000D02*X831500Y451500D01*
X831000Y451000D02*Y450000D01*
X831500Y449500D01*
X833000D01*
X833500Y449000D01*
Y448000D01*
X833000Y447500D02*X833500Y448000D01*
X831500Y447500D02*X833000D01*
X831000Y448000D02*X831500Y447500D01*
X834701Y449500D02*X836201D01*
X834701Y447500D02*X836701D01*
X834701Y451500D02*Y447500D01*
Y451500D02*X836701D01*
X837902D02*Y447500D01*
X839902D01*
X841103Y451000D02*X841603Y451500D01*
X842603D01*
X843103Y451000D01*
Y448000D01*
X842603Y447500D02*X843103Y448000D01*
X841603Y447500D02*X842603D01*
X841103Y448000D02*X841603Y447500D01*
Y449500D02*X843103D01*
X837000Y531000D02*Y527500D01*
Y531000D02*X837500Y531500D01*
X839000D01*
X839500Y531000D01*
Y527500D01*
X837000Y529500D02*X839500D01*
X840701Y527500D02*X842701Y529500D01*
Y531000D02*Y529500D01*
X842201Y531500D02*X842701Y531000D01*
X841201Y531500D02*X842201D01*
X840701Y531000D02*X841201Y531500D01*
X840701Y531000D02*Y530000D01*
X841201Y529500D01*
X842701D01*
X867500Y461500D02*X868500D01*
X868000D02*Y457500D01*
X867500D02*X868500D01*
X869701Y461500D02*Y457500D01*
Y461500D02*Y461000D01*
X872201Y458500D01*
Y461500D02*Y457500D01*
X873402Y461000D02*X873902Y461500D01*
X875402D01*
X875902Y461000D01*
Y460000D01*
X873402Y457500D02*X875902Y460000D01*
X873402Y457500D02*X875902D01*
X867500Y481500D02*Y478500D01*
X868500Y477500D01*
X869500Y478500D01*
Y481500D02*Y478500D01*
X870701Y477500D02*X872701D01*
X873201Y478000D01*
Y479000D02*Y478000D01*
X872701Y479500D02*X873201Y479000D01*
X871201Y479500D02*X872701D01*
X871201Y481500D02*Y477500D01*
X870701Y481500D02*X872701D01*
X873201Y481000D01*
Y480000D01*
X872701Y479500D02*X873201Y480000D01*
X874402Y481000D02*Y477500D01*
Y481000D02*X874902Y481500D01*
X876402D01*
X876902Y481000D01*
Y477500D01*
X874402Y479500D02*X876902D01*
X878103Y481500D02*X880103D01*
X879103D02*Y477500D01*
X867500Y471500D02*X868500D01*
X868000D02*Y467500D01*
X867500D02*X868500D01*
X869701Y471500D02*Y467500D01*
Y471500D02*Y471000D01*
X872201Y468500D01*
Y471500D02*Y467500D01*
X873902D02*X874902D01*
X874402Y471500D02*Y467500D01*
X873402Y470500D02*X874402Y471500D01*
X869000Y441500D02*X869500Y441000D01*
X867500Y441500D02*X869000D01*
X867000Y441000D02*X867500Y441500D01*
X867000Y441000D02*Y438000D01*
X867500Y437500D01*
X869000D01*
X869500Y438000D01*
Y439000D02*Y438000D01*
X869000Y439500D02*X869500Y439000D01*
X868000Y439500D02*X869000D01*
X870701Y441500D02*Y437500D01*
Y441500D02*Y441000D01*
X873201Y438500D01*
Y441500D02*Y437500D01*
X874902Y441500D02*Y437500D01*
X876402Y441500D02*X876902Y441000D01*
Y438000D01*
X876402Y437500D02*X876902Y438000D01*
X874402Y437500D02*X876402D01*
X874402Y441500D02*X876402D01*
X869500Y451500D02*X870000Y451000D01*
X868000Y451500D02*X869500D01*
X867500Y451000D02*X868000Y451500D01*
X867500Y451000D02*Y450000D01*
X868000Y449500D01*
X869500D01*
X870000Y449000D01*
Y448000D01*
X869500Y447500D02*X870000Y448000D01*
X868000Y447500D02*X869500D01*
X867500Y448000D02*X868000Y447500D01*
X871201Y449500D02*X872701D01*
X871201Y447500D02*X873201D01*
X871201Y451500D02*Y447500D01*
Y451500D02*X873201D01*
X874402D02*Y447500D01*
X876402D01*
X877603Y449500D02*X879603Y451500D01*
X877603Y449500D02*X880103D01*
X879603Y451500D02*Y447500D01*
X835000Y441500D02*X835500Y441000D01*
X833500Y441500D02*X835000D01*
X833000Y441000D02*X833500Y441500D01*
X833000Y441000D02*Y438000D01*
X833500Y437500D01*
X835000D01*
X835500Y438000D01*
Y439000D02*Y438000D01*
X835000Y439500D02*X835500Y439000D01*
X834000Y439500D02*X835000D01*
X836701Y441500D02*Y437500D01*
Y441500D02*Y441000D01*
X839201Y438500D01*
Y441500D02*Y437500D01*
X840902Y441500D02*Y437500D01*
X842402Y441500D02*X842902Y441000D01*
Y438000D01*
X842402Y437500D02*X842902Y438000D01*
X840402Y437500D02*X842402D01*
X840402Y441500D02*X842402D01*
X192000Y130500D02*X191500Y130000D01*
X192000Y132000D02*Y130500D01*
X191500Y132500D02*X192000Y132000D01*
X188500Y132500D02*X191500D01*
X188500D02*X188000Y132000D01*
Y130500D01*
X188500Y130000D01*
X189500D01*
X190000Y130500D02*X189500Y130000D01*
X190000Y131500D02*Y130500D01*
X188000Y128799D02*X192000D01*
X191500D02*X192000D01*
X191500D02*X189000Y126299D01*
X188000D02*X192000D01*
X188000Y124598D02*X192000D01*
Y123098D02*X191500Y122598D01*
X188500D02*X191500D01*
X188000Y123098D02*X188500Y122598D01*
X188000Y125098D02*Y123098D01*
X192000Y125098D02*Y123098D01*
X198000Y132000D02*Y130500D01*
X198500Y132500D02*X198000Y132000D01*
X198500Y132500D02*X201500D01*
X202000Y132000D01*
Y130500D01*
X198000Y129299D02*X202000D01*
X198000D02*Y127299D01*
Y126098D02*X202000D01*
X200000D02*X202000Y124098D01*
X200000Y126098D02*X198000Y124098D01*
X209000Y132500D02*X212000D01*
X209000D02*X208000Y131500D01*
X209000Y130500D01*
X212000D01*
X208000Y128799D02*Y127299D01*
X208500Y129299D02*X208000Y128799D01*
X208500Y129299D02*X211500D01*
X212000Y128799D01*
Y127299D01*
X208000Y125598D02*Y124098D01*
X208500Y126098D02*X208000Y125598D01*
X208500Y126098D02*X211500D01*
X212000Y125598D01*
Y124098D01*
X218000Y132000D02*X222000D01*
Y130500D02*X221500Y130000D01*
X218500D02*X221500D01*
X218000Y130500D02*X218500Y130000D01*
X218000Y132500D02*Y130500D01*
X222000Y132500D02*Y130500D01*
Y128799D02*Y127799D01*
X218000Y128299D02*X222000D01*
X218000Y128799D02*Y127799D01*
X228000Y132000D02*Y130500D01*
X228500Y132500D02*X228000Y132000D01*
X228500Y132500D02*X231500D01*
X232000Y132000D01*
Y130500D01*
Y127299D02*X231500Y126799D01*
X232000Y128799D02*Y127299D01*
X231500Y129299D02*X232000Y128799D01*
X230500Y129299D02*X231500D01*
X230500D02*X230000Y128799D01*
Y127299D01*
X229500Y126799D01*
X228500D02*X229500D01*
X228000Y127299D02*X228500Y126799D01*
X228000Y128799D02*Y127299D01*
X228500Y129299D02*X228000Y128799D01*
X78100Y15950D02*X78875Y15175D01*
X75775Y15950D02*X78100D01*
X75000Y15175D02*X75775Y15950D01*
X75000Y15175D02*Y13625D01*
X75775Y12850D01*
X78100D01*
X78875Y12075D01*
Y10525D01*
X78100Y9750D02*X78875Y10525D01*
X75775Y9750D02*X78100D01*
X75000Y10525D02*X75775Y9750D01*
X80736Y15950D02*X83836D01*
X82286D02*Y9750D01*
X85698Y15175D02*Y9750D01*
Y15175D02*X86473Y15950D01*
X88798D01*
X89573Y15175D01*
Y9750D01*
X85698Y12850D02*X89573D01*
X91434Y15950D02*X94534D01*
X92984D02*Y9750D01*
X96396Y15950D02*Y10525D01*
X97171Y9750D01*
X98721D01*
X99496Y10525D01*
Y15950D02*Y10525D01*
X104457Y15950D02*X105232Y15175D01*
X102132Y15950D02*X104457D01*
X101357Y15175D02*X102132Y15950D01*
X101357Y15175D02*Y13625D01*
X102132Y12850D01*
X104457D01*
X105232Y12075D01*
Y10525D01*
X104457Y9750D02*X105232Y10525D01*
X102132Y9750D02*X104457D01*
X101357Y10525D02*X102132Y9750D01*
X165600Y15950D02*X166375Y15175D01*
X163275Y15950D02*X165600D01*
X162500Y15175D02*X163275Y15950D01*
X162500Y15175D02*Y13625D01*
X163275Y12850D01*
X165600D01*
X166375Y12075D01*
Y10525D01*
X165600Y9750D02*X166375Y10525D01*
X163275Y9750D02*X165600D01*
X162500Y10525D02*X163275Y9750D01*
X169011Y15950D02*Y9750D01*
X171336Y15950D02*X172111Y15175D01*
Y10525D01*
X171336Y9750D02*X172111Y10525D01*
X168236Y9750D02*X171336D01*
X168236Y15950D02*X171336D01*
X177538Y9750D02*X179863D01*
X176763Y10525D02*X177538Y9750D01*
X176763Y15175D02*Y10525D01*
Y15175D02*X177538Y15950D01*
X179863D01*
X181724Y15175D02*Y9750D01*
Y15175D02*X182499Y15950D01*
X184824D01*
X185599Y15175D01*
Y9750D01*
X181724Y12850D02*X185599D01*
X187461Y15950D02*X190561D01*
X191336Y15175D01*
Y13625D01*
X190561Y12850D02*X191336Y13625D01*
X188236Y12850D02*X190561D01*
X188236Y15950D02*Y9750D01*
Y12850D02*X191336Y9750D01*
X193972Y15950D02*Y9750D01*
X196297Y15950D02*X197072Y15175D01*
Y10525D01*
X196297Y9750D02*X197072Y10525D01*
X193197Y9750D02*X196297D01*
X193197Y15950D02*X196297D01*
X30775D02*Y9750D01*
X30000Y15950D02*X33100D01*
X33875Y15175D01*
Y13625D01*
X33100Y12850D02*X33875Y13625D01*
X30775Y12850D02*X33100D01*
X35736Y15175D02*Y10525D01*
Y15175D02*X36511Y15950D01*
X38061D01*
X38836Y15175D01*
Y10525D01*
X38061Y9750D02*X38836Y10525D01*
X36511Y9750D02*X38061D01*
X35736Y10525D02*X36511Y9750D01*
X40698Y15950D02*Y9750D01*
X43023Y12075D01*
X45348Y9750D01*
Y15950D02*Y9750D01*
X47209Y12850D02*X49534D01*
X47209Y9750D02*X50309D01*
X47209Y15950D02*Y9750D01*
Y15950D02*X50309D01*
X52171D02*X55271D01*
X56046Y15175D01*
Y13625D01*
X55271Y12850D02*X56046Y13625D01*
X52946Y12850D02*X55271D01*
X52946Y15950D02*Y9750D01*
Y12850D02*X56046Y9750D01*
X128000Y132000D02*Y130500D01*
X128500Y132500D02*X128000Y132000D01*
X128500Y132500D02*X131500D01*
X132000Y132000D01*
Y130500D01*
X128500Y129299D02*X131500D01*
X132000Y128799D01*
Y127799D01*
X131500Y127299D01*
X128500D02*X131500D01*
X128000Y127799D02*X128500Y127299D01*
X128000Y128799D02*Y127799D01*
X128500Y129299D02*X128000Y128799D01*
Y126098D02*X132000D01*
X130500Y124598D01*
X132000Y123098D01*
X128000D02*X132000D01*
X178000Y132000D02*X182000D01*
Y130500D02*X181500Y130000D01*
X178500D02*X181500D01*
X178000Y130500D02*X178500Y130000D01*
X178000Y132500D02*Y130500D01*
X182000Y132500D02*Y130500D01*
X178500Y128799D02*X181500D01*
X182000Y128299D01*
Y127299D01*
X181500Y126799D01*
X178500D02*X181500D01*
X178000Y127299D02*X178500Y126799D01*
X178000Y128299D02*Y127299D01*
X178500Y128799D02*X178000Y128299D01*
X172000Y132500D02*Y131500D01*
X168000Y132000D02*X172000D01*
X168000Y132500D02*Y131500D01*
X172000Y130299D02*Y128299D01*
X171500Y127799D01*
X170500D02*X171500D01*
X170000Y128299D02*X170500Y127799D01*
X170000Y129799D02*Y128299D01*
X168000Y129799D02*X172000D01*
X170000D02*X168000Y127799D01*
X168500Y126598D02*X171500D01*
X172000Y126098D01*
Y125098D01*
X171500Y124598D01*
X168500D02*X171500D01*
X168000Y125098D02*X168500Y124598D01*
X168000Y126098D02*Y125098D01*
X168500Y126598D02*X168000Y126098D01*
X169000Y125598D02*X168000Y124598D01*
X158000Y132000D02*X162000D01*
Y132500D02*Y130500D01*
X161500Y130000D01*
X160500D02*X161500D01*
X160000Y130500D02*X160500Y130000D01*
X160000Y132000D02*Y130500D01*
X158000Y128799D02*X160000Y126799D01*
X161500D01*
X162000Y127299D02*X161500Y126799D01*
X162000Y128299D02*Y127299D01*
X161500Y128799D02*X162000Y128299D01*
X160500Y128799D02*X161500D01*
X160500D02*X160000Y128299D01*
Y126799D01*
X148000Y132000D02*Y130500D01*
X148500Y132500D02*X148000Y132000D01*
X148500Y132500D02*X151500D01*
X152000Y132000D01*
Y130500D01*
X148000Y128799D02*X152000D01*
Y127299D02*X151500Y126799D01*
X148500D02*X151500D01*
X148000Y127299D02*X148500Y126799D01*
X148000Y129299D02*Y127299D01*
X152000Y129299D02*Y127299D01*
X138000Y132500D02*X142000D01*
X138000D02*X139500Y131000D01*
X138000Y129500D01*
X142000D01*
X138000Y127799D02*X142000D01*
Y128299D02*Y126299D01*
X141500Y125799D01*
X140500D02*X141500D01*
X140000Y126299D02*X140500Y125799D01*
X140000Y127799D02*Y126299D01*
X599000Y570000D02*X601500Y567500D01*
X603000D01*
Y570000D02*Y567500D01*
X601000Y566299D02*X603000Y564299D01*
X601000Y566299D02*Y563799D01*
X599000Y564299D02*X603000D01*
X599000Y562598D02*X603000D01*
X599000Y560098D02*X603000D01*
X601000Y562598D02*Y560098D01*
X599000Y558397D02*Y556897D01*
X599500Y558897D02*X599000Y558397D01*
X599500Y558897D02*X602500D01*
X603000Y558397D01*
Y556897D01*
Y555696D02*Y553696D01*
X601000Y555696D02*X603000D01*
X601000D02*X601500Y555196D01*
Y554196D01*
X601000Y553696D01*
X599500D02*X601000D01*
X599000Y554196D02*X599500Y553696D01*
X599000Y555196D02*Y554196D01*
X599500Y555696D02*X599000Y555196D01*
Y552495D02*X601500Y549995D01*
X603000D01*
Y552495D02*Y549995D01*
X601000Y548794D02*X603000Y546794D01*
X601000Y548794D02*Y546294D01*
X599000Y546794D02*X603000D01*
X599000Y447500D02*X601500Y445000D01*
X603000D01*
Y447500D02*Y445000D01*
X601000Y443799D02*X603000Y441799D01*
X601000Y443799D02*Y441299D01*
X599000Y441799D02*X603000D01*
X599000Y440098D02*X603000D01*
X599000Y437598D02*X603000D01*
X601000Y440098D02*Y437598D01*
X599000Y435897D02*Y434397D01*
X599500Y436397D02*X599000Y435897D01*
X599500Y436397D02*X602500D01*
X603000Y435897D01*
Y434397D01*
Y433196D02*Y431196D01*
X601000Y433196D02*X603000D01*
X601000D02*X601500Y432696D01*
Y431696D01*
X601000Y431196D01*
X599500D02*X601000D01*
X599000Y431696D02*X599500Y431196D01*
X599000Y432696D02*Y431696D01*
X599500Y433196D02*X599000Y432696D01*
Y429995D02*X601500Y427495D01*
X603000D01*
Y429995D02*Y427495D01*
X601000Y426294D02*X603000Y424294D01*
X601000Y426294D02*Y423794D01*
X599000Y424294D02*X603000D01*
X513000Y610000D02*Y608000D01*
X509000Y609000D02*X513000D01*
X509000Y606799D02*X513000D01*
X511500Y605299D01*
X513000Y603799D01*
X509000D02*X513000D01*
Y600598D02*X512500Y600098D01*
X513000Y602098D02*Y600598D01*
X512500Y602598D02*X513000Y602098D01*
X511500Y602598D02*X512500D01*
X511500D02*X511000Y602098D01*
Y600598D01*
X510500Y600098D01*
X509500D02*X510500D01*
X509000Y600598D02*X509500Y600098D01*
X509000Y602098D02*Y600598D01*
X509500Y602598D02*X509000Y602098D01*
Y598897D02*X511000Y596897D01*
X512500D01*
X513000Y597397D02*X512500Y596897D01*
X513000Y598397D02*Y597397D01*
X512500Y598897D02*X513000Y598397D01*
X511500Y598897D02*X512500D01*
X511500D02*X511000Y598397D01*
Y596897D01*
X509000Y595696D02*X511000Y593696D01*
X512500D01*
X513000Y594196D02*X512500Y593696D01*
X513000Y595196D02*Y594196D01*
X512500Y595696D02*X513000Y595196D01*
X511500Y595696D02*X512500D01*
X511500D02*X511000Y595196D01*
Y593696D01*
X509000Y591995D02*Y590995D01*
Y591495D02*X513000D01*
X512000Y592495D02*X513000Y591495D01*
X509500Y589794D02*X509000Y589294D01*
X509500Y589794D02*X510500D01*
X511000Y589294D01*
Y588294D01*
X510500Y587794D01*
X509500D02*X510500D01*
X509000Y588294D02*X509500Y587794D01*
X509000Y589294D02*Y588294D01*
X511500Y589794D02*X511000Y589294D01*
X511500Y589794D02*X512500D01*
X513000Y589294D01*
Y588294D01*
X512500Y587794D01*
X511500D02*X512500D01*
X511000Y588294D02*X511500Y587794D01*
X509000Y586593D02*X512500D01*
X513000Y586093D01*
Y584593D01*
X512500Y584093D01*
X509000D02*X512500D01*
X511000Y586593D02*Y584093D01*
X312500Y170950D02*X315600D01*
X316375Y170175D01*
Y168625D01*
X315600Y167850D02*X316375Y168625D01*
X313275Y167850D02*X315600D01*
X313275Y170950D02*Y164750D01*
Y167850D02*X316375Y164750D01*
X318236Y170175D02*Y164750D01*
Y170175D02*X319011Y170950D01*
X321336D01*
X322111Y170175D01*
Y164750D01*
X318236Y167850D02*X322111D01*
X323973Y170950D02*Y164750D01*
Y170950D02*X326298Y168625D01*
X328623Y170950D01*
Y164750D01*
X333274Y167850D02*X335599D01*
X333274Y164750D02*X336374D01*
X333274Y170950D02*Y164750D01*
Y170950D02*X336374D01*
X338236D02*Y170175D01*
X342111Y166300D01*
Y164750D01*
X338236Y166300D02*Y164750D01*
Y166300D02*X342111Y170175D01*
Y170950D02*Y170175D01*
X344747Y170950D02*Y164750D01*
X343972Y170950D02*X347072D01*
X347847Y170175D01*
Y168625D01*
X347072Y167850D02*X347847Y168625D01*
X344747Y167850D02*X347072D01*
X349709Y170175D02*Y164750D01*
Y170175D02*X350484Y170950D01*
X352809D01*
X353584Y170175D01*
Y164750D01*
X349709Y167850D02*X353584D01*
X355445Y170950D02*Y164750D01*
Y170950D02*Y170175D01*
X359320Y166300D01*
Y170950D02*Y164750D01*
X364282Y170950D02*X365057Y170175D01*
X361957Y170950D02*X364282D01*
X361182Y170175D02*X361957Y170950D01*
X361182Y170175D02*Y168625D01*
X361957Y167850D01*
X364282D01*
X365057Y167075D01*
Y165525D01*
X364282Y164750D02*X365057Y165525D01*
X361957Y164750D02*X364282D01*
X361182Y165525D02*X361957Y164750D01*
X366918Y170950D02*X368468D01*
X367693D02*Y164750D01*
X366918D02*X368468D01*
X370330Y170175D02*Y165525D01*
Y170175D02*X371105Y170950D01*
X372655D01*
X373430Y170175D01*
Y165525D01*
X372655Y164750D02*X373430Y165525D01*
X371105Y164750D02*X372655D01*
X370330Y165525D02*X371105Y164750D01*
X375292Y170950D02*Y164750D01*
Y170950D02*Y170175D01*
X379167Y166300D01*
Y170950D02*Y164750D01*
X278500Y132850D02*X280825D01*
X278500Y129750D02*X281600D01*
X278500Y135950D02*Y129750D01*
Y135950D02*X281600D01*
X283461Y132850D02*X285786D01*
X283461Y129750D02*X286561D01*
X283461Y135950D02*Y129750D01*
Y135950D02*X286561D01*
X289198D02*Y129750D01*
X288423Y135950D02*X291523D01*
X292298Y135175D01*
Y133625D01*
X291523Y132850D02*X292298Y133625D01*
X289198Y132850D02*X291523D01*
X294159Y135950D02*X297259D01*
X298034Y135175D01*
Y133625D01*
X297259Y132850D02*X298034Y133625D01*
X294934Y132850D02*X297259D01*
X294934Y135950D02*Y129750D01*
Y132850D02*X298034Y129750D01*
X299896Y135175D02*Y130525D01*
Y135175D02*X300671Y135950D01*
X302221D01*
X302996Y135175D01*
Y130525D01*
X302221Y129750D02*X302996Y130525D01*
X300671Y129750D02*X302221D01*
X299896Y130525D02*X300671Y129750D01*
X304857Y135950D02*Y129750D01*
Y135950D02*X307182Y133625D01*
X309507Y135950D01*
Y129750D01*
X262500Y125950D02*Y119750D01*
X264825Y122075D01*
X267150Y119750D01*
Y125950D02*Y119750D01*
X269011Y125950D02*X272111D01*
X272886Y125175D01*
Y123625D01*
X272111Y122850D02*X272886Y123625D01*
X269786Y122850D02*X272111D01*
X269786Y125950D02*Y119750D01*
Y122850D02*X272886Y119750D01*
X274748Y125950D02*X276298D01*
X275523D02*Y119750D01*
X274748D02*X276298D01*
X278159Y125950D02*X281259D01*
X279709D02*Y119750D01*
X283121Y122850D02*X285446D01*
X283121Y119750D02*X286221D01*
X283121Y125950D02*Y119750D01*
Y125950D02*X286221D01*
X291647D02*Y119750D01*
X290872Y125950D02*X293972D01*
X294747Y125175D01*
Y123625D01*
X293972Y122850D02*X294747Y123625D01*
X291647Y122850D02*X293972D01*
X296609Y125950D02*X299709D01*
X300484Y125175D01*
Y123625D01*
X299709Y122850D02*X300484Y123625D01*
X297384Y122850D02*X299709D01*
X297384Y125950D02*Y119750D01*
Y122850D02*X300484Y119750D01*
X302345Y125175D02*Y120525D01*
Y125175D02*X303120Y125950D01*
X304670D01*
X305445Y125175D01*
Y120525D01*
X304670Y119750D02*X305445Y120525D01*
X303120Y119750D02*X304670D01*
X302345Y120525D02*X303120Y119750D01*
X307307Y125950D02*X310407D01*
X308857D02*Y119750D01*
X312268Y122850D02*X314593D01*
X312268Y119750D02*X315368D01*
X312268Y125950D02*Y119750D01*
Y125950D02*X315368D01*
X318005Y119750D02*X320330D01*
X317230Y120525D02*X318005Y119750D01*
X317230Y125175D02*Y120525D01*
Y125175D02*X318005Y125950D01*
X320330D01*
X322192D02*X325292D01*
X323742D02*Y119750D01*
X302500Y100505D02*Y96515D01*
Y100505D02*X303165Y101170D01*
X304495D01*
X305160Y100505D01*
Y96515D01*
X304495Y95850D02*X305160Y96515D01*
X303165Y95850D02*X304495D01*
X302500Y96515D02*X303165Y95850D01*
X306757Y101170D02*Y95850D01*
Y101170D02*X309417D01*
X306757Y98510D02*X308752D01*
X311014Y101170D02*Y95850D01*
Y101170D02*X313674D01*
X311014Y98510D02*X313009D01*
X275000Y100505D02*Y96515D01*
Y100505D02*X275665Y101170D01*
X276995D01*
X277660Y100505D01*
Y96515D01*
X276995Y95850D02*X277660Y96515D01*
X275665Y95850D02*X276995D01*
X275000Y96515D02*X275665Y95850D01*
X279257Y101170D02*Y95850D01*
Y101170D02*Y100505D01*
X282582Y97180D01*
Y101170D02*Y95850D01*
X404409Y15950D02*X407509D01*
X408284Y15175D01*
Y13625D01*
X407509Y12850D02*X408284Y13625D01*
X405184Y12850D02*X407509D01*
X405184Y15950D02*Y9750D01*
Y12850D02*X408284Y9750D01*
X410145Y12850D02*X412470D01*
X410145Y9750D02*X413245D01*
X410145Y15950D02*Y9750D01*
Y15950D02*X413245D01*
X418207D02*X418982Y15175D01*
X415882Y15950D02*X418207D01*
X415107Y15175D02*X415882Y15950D01*
X415107Y15175D02*Y13625D01*
X415882Y12850D01*
X418207D01*
X418982Y12075D01*
Y10525D01*
X418207Y9750D02*X418982Y10525D01*
X415882Y9750D02*X418207D01*
X415107Y10525D02*X415882Y9750D01*
X420843Y12850D02*X423168D01*
X420843Y9750D02*X423943D01*
X420843Y15950D02*Y9750D01*
Y15950D02*X423943D01*
X425805D02*X428905D01*
X427355D02*Y9750D01*
X352500Y15950D02*X355600D01*
X356375Y15175D01*
Y13625D01*
X355600Y12850D02*X356375Y13625D01*
X353275Y12850D02*X355600D01*
X353275Y15950D02*Y9750D01*
Y12850D02*X356375Y9750D01*
X358236Y15950D02*Y10525D01*
X359011Y9750D01*
X360561D01*
X361336Y10525D01*
Y15950D02*Y10525D01*
X363198Y15950D02*Y9750D01*
Y15950D02*Y15175D01*
X367073Y11300D01*
Y15950D02*Y9750D01*
X350200Y65950D02*Y59750D01*
X354075Y65950D02*Y59750D01*
X350200Y62850D02*X354075D01*
X355936Y65175D02*Y59750D01*
Y65175D02*X356711Y65950D01*
X359036D01*
X359811Y65175D01*
Y59750D01*
X355936Y62850D02*X359811D01*
X361673Y65950D02*Y59750D01*
X364773D01*
X366634Y65950D02*X369734D01*
X368184D02*Y59750D01*
X275000Y9750D02*X278100D01*
X278875Y10525D01*
Y12075D02*Y10525D01*
X278100Y12850D02*X278875Y12075D01*
X275775Y12850D02*X278100D01*
X275775Y15950D02*Y9750D01*
X275000Y15950D02*X278100D01*
X278875Y15175D01*
Y13625D01*
X278100Y12850D02*X278875Y13625D01*
X280736Y15950D02*Y10525D01*
X281511Y9750D01*
X283061D01*
X283836Y10525D01*
Y15950D02*Y10525D01*
X288798Y15950D02*X289573Y15175D01*
X286473Y15950D02*X288798D01*
X285698Y15175D02*X286473Y15950D01*
X285698Y15175D02*Y13625D01*
X286473Y12850D01*
X288798D01*
X289573Y12075D01*
Y10525D01*
X288798Y9750D02*X289573Y10525D01*
X286473Y9750D02*X288798D01*
X285698Y10525D02*X286473Y9750D01*
X297324Y15950D02*X298099Y15175D01*
X294999Y15950D02*X297324D01*
X294224Y15175D02*X294999Y15950D01*
X294224Y15175D02*Y13625D01*
X294999Y12850D01*
X297324D01*
X298099Y12075D01*
Y10525D01*
X297324Y9750D02*X298099Y10525D01*
X294999Y9750D02*X297324D01*
X294224Y10525D02*X294999Y9750D01*
X299961Y15950D02*X303061D01*
X301511D02*Y9750D01*
X304922Y15175D02*Y9750D01*
Y15175D02*X305697Y15950D01*
X308022D01*
X308797Y15175D01*
Y9750D01*
X304922Y12850D02*X308797D01*
X310659Y15950D02*X313759D01*
X312209D02*Y9750D01*
X315620Y12850D02*X317945D01*
X315620Y9750D02*X318720D01*
X315620Y15950D02*Y9750D01*
Y15950D02*X318720D01*
X311000Y43900D02*X313440D01*
X314050Y44510D01*
Y45730D02*Y44510D01*
X313440Y46340D02*X314050Y45730D01*
X311610Y46340D02*X313440D01*
X311610Y48780D02*Y43900D01*
X311000Y48780D02*X313440D01*
X314050Y48170D01*
Y46950D01*
X313440Y46340D02*X314050Y46950D01*
X317955Y48780D02*X318565Y48170D01*
X316125Y48780D02*X317955D01*
X315515Y48170D02*X316125Y48780D01*
X315515Y48170D02*Y46950D01*
X316125Y46340D01*
X317955D01*
X318565Y45730D01*
Y44510D01*
X317955Y43900D02*X318565Y44510D01*
X316125Y43900D02*X317955D01*
X315515Y44510D02*X316125Y43900D01*
X469409Y15950D02*X470959D01*
X470184D02*Y9750D01*
X469409D02*X470959D01*
X472820Y15950D02*Y9750D01*
Y15950D02*Y15175D01*
X476695Y11300D01*
Y15950D02*Y9750D01*
X478557Y15950D02*X481657D01*
X480107D02*Y9750D01*
X483518Y12850D02*X485843D01*
X483518Y9750D02*X486618D01*
X483518Y15950D02*Y9750D01*
Y15950D02*X486618D01*
X488480D02*X491580D01*
X492355Y15175D01*
Y13625D01*
X491580Y12850D02*X492355Y13625D01*
X489255Y12850D02*X491580D01*
X489255Y15950D02*Y9750D01*
Y12850D02*X492355Y9750D01*
X494216Y15950D02*X497316D01*
X498091Y15175D01*
Y13625D01*
X497316Y12850D02*X498091Y13625D01*
X494991Y12850D02*X497316D01*
X494991Y15950D02*Y9750D01*
Y12850D02*X498091Y9750D01*
X499953Y15950D02*Y10525D01*
X500728Y9750D01*
X502278D01*
X503053Y10525D01*
Y15950D02*Y10525D01*
X505689Y15950D02*Y9750D01*
X504914Y15950D02*X508014D01*
X508789Y15175D01*
Y13625D01*
X508014Y12850D02*X508789Y13625D01*
X505689Y12850D02*X508014D01*
X510651Y15950D02*X513751D01*
X512201D02*Y9750D01*
X271000Y43900D02*X273440D01*
X274050Y44510D01*
Y45730D02*Y44510D01*
X273440Y46340D02*X274050Y45730D01*
X271610Y46340D02*X273440D01*
X271610Y48780D02*Y43900D01*
X271000Y48780D02*X273440D01*
X274050Y48170D01*
Y46950D01*
X273440Y46340D02*X274050Y46950D01*
X275515Y48170D02*Y43900D01*
Y48170D02*X276125Y48780D01*
X277955D01*
X278565Y48170D01*
Y43900D01*
X275515Y46340D02*X278565D01*
X327500Y161280D02*X329940D01*
X330550Y160670D01*
Y159450D01*
X329940Y158840D02*X330550Y159450D01*
X328110Y158840D02*X329940D01*
X328110Y161280D02*Y156400D01*
Y158840D02*X330550Y156400D01*
X332015Y158840D02*X333845D01*
X332015Y156400D02*X334455D01*
X332015Y161280D02*Y156400D01*
Y161280D02*X334455D01*
X335920D02*Y156400D01*
Y161280D02*X337750Y159450D01*
X339580Y161280D01*
Y156400D01*
X341045Y160670D02*Y157010D01*
Y160670D02*X341655Y161280D01*
X342875D01*
X343485Y160670D01*
Y157010D01*
X342875Y156400D02*X343485Y157010D01*
X341655Y156400D02*X342875D01*
X341045Y157010D02*X341655Y156400D01*
X344950Y161280D02*Y157620D01*
X346170Y156400D01*
X347390Y157620D01*
Y161280D02*Y157620D01*
X348856Y158840D02*X350686D01*
X348856Y156400D02*X351296D01*
X348856Y161280D02*Y156400D01*
Y161280D02*X351296D01*
X354957D02*Y157010D01*
X355567Y156400D01*
X356787D01*
X357397Y157010D01*
Y161280D02*Y157010D01*
X358862D02*X359472Y156400D01*
X358862Y158230D02*Y157010D01*
Y158230D02*X359472Y158840D01*
X360692D01*
X361302Y158230D01*
Y157010D01*
X360692Y156400D02*X361302Y157010D01*
X359472Y156400D02*X360692D01*
X358862Y159450D02*X359472Y158840D01*
X358862Y160670D02*Y159450D01*
Y160670D02*X359472Y161280D01*
X360692D01*
X361302Y160670D01*
Y159450D01*
X360692Y158840D02*X361302Y159450D01*
X325000Y153780D02*Y148900D01*
X326830Y150730D01*
X328660Y148900D01*
Y153780D02*Y148900D01*
X330125Y153780D02*Y148900D01*
X333175Y153780D02*Y148900D01*
X330125Y151340D02*X333175D01*
X334640D02*X336470D01*
X334640Y148900D02*X337080D01*
X334640Y153780D02*Y148900D01*
Y153780D02*X337080D01*
X338545D02*Y148900D01*
Y153780D02*Y153170D01*
X341595Y150120D01*
Y153780D02*Y148900D01*
X345256Y153780D02*X346476D01*
X345866D02*Y148900D01*
X345256D02*X346476D01*
X347942Y153780D02*Y148900D01*
Y153780D02*Y153170D01*
X350992Y150120D01*
Y153780D02*Y148900D01*
X354653Y153780D02*Y149510D01*
X355263Y148900D01*
X356483D01*
X357093Y149510D01*
Y153780D02*Y149510D01*
X360998Y153780D02*X361608Y153170D01*
X359168Y153780D02*X360998D01*
X358558Y153170D02*X359168Y153780D01*
X358558Y153170D02*Y151950D01*
X359168Y151340D01*
X360998D01*
X361608Y150730D01*
Y149510D01*
X360998Y148900D02*X361608Y149510D01*
X359168Y148900D02*X360998D01*
X358558Y149510D02*X359168Y148900D01*
X363073Y151340D02*X364903D01*
X363073Y148900D02*X365513D01*
X363073Y153780D02*Y148900D01*
Y153780D02*X365513D01*
X449000Y477500D02*X451500Y475000D01*
X453000D01*
Y477500D02*Y475000D01*
X451000Y473799D02*X453000Y471799D01*
X451000Y473799D02*Y471299D01*
X449000Y471799D02*X453000D01*
X449000Y470098D02*X453000D01*
X449000Y467598D02*X453000D01*
X451000Y470098D02*Y467598D01*
X449000Y465897D02*Y464397D01*
X449500Y466397D02*X449000Y465897D01*
X449500Y466397D02*X452500D01*
X453000Y465897D01*
Y464397D01*
X449500Y463196D02*X449000Y462696D01*
X449500Y463196D02*X452500D01*
X453000Y462696D01*
Y461696D01*
X452500Y461196D01*
X449500D02*X452500D01*
X449000Y461696D02*X449500Y461196D01*
X449000Y462696D02*Y461696D01*
X450000Y463196D02*X452000Y461196D01*
X451000Y459995D02*X453000Y457995D01*
X451000Y459995D02*Y457495D01*
X449000Y457995D02*X453000D01*
X389000Y432500D02*X391500Y430000D01*
X393000D01*
Y432500D02*Y430000D01*
X391000Y428799D02*X393000Y426799D01*
X391000Y428799D02*Y426299D01*
X389000Y426799D02*X393000D01*
X389000Y425098D02*X393000D01*
X389000Y422598D02*X393000D01*
X391000Y425098D02*Y422598D01*
X389000Y420897D02*Y419397D01*
X389500Y421397D02*X389000Y420897D01*
X389500Y421397D02*X392500D01*
X393000Y420897D01*
Y419397D01*
X389000Y417696D02*Y416696D01*
Y417196D02*X393000D01*
X392000Y418196D02*X393000Y417196D01*
X392500Y415495D02*X393000Y414995D01*
Y413995D01*
X392500Y413495D01*
X389500D02*X392500D01*
X389000Y413995D02*X389500Y413495D01*
X389000Y414995D02*Y413995D01*
X389500Y415495D02*X389000Y414995D01*
X391000D02*Y413495D01*
X389500Y412294D02*X389000Y411794D01*
X389500Y412294D02*X390500D01*
X391000Y411794D01*
Y410794D01*
X390500Y410294D01*
X389500D02*X390500D01*
X389000Y410794D02*X389500Y410294D01*
X389000Y411794D02*Y410794D01*
X391500Y412294D02*X391000Y411794D01*
X391500Y412294D02*X392500D01*
X393000Y411794D01*
Y410794D01*
X392500Y410294D01*
X391500D02*X392500D01*
X391000Y410794D02*X391500Y410294D01*
X389000Y522500D02*X391500Y520000D01*
X393000D01*
Y522500D02*Y520000D01*
X391000Y518799D02*X393000Y516799D01*
X391000Y518799D02*Y516299D01*
X389000Y516799D02*X393000D01*
X389000Y515098D02*X393000D01*
X389000Y512598D02*X393000D01*
X391000Y515098D02*Y512598D01*
X389000Y510897D02*Y509397D01*
X389500Y511397D02*X389000Y510897D01*
X389500Y511397D02*X392500D01*
X393000Y510897D01*
Y509397D01*
X389000Y507696D02*Y506696D01*
Y507196D02*X393000D01*
X392000Y508196D02*X393000Y507196D01*
X391000Y505495D02*X393000Y503495D01*
X391000Y505495D02*Y502995D01*
X389000Y503495D02*X393000D01*
X329000Y522500D02*X331500Y520000D01*
X333000D01*
Y522500D02*Y520000D01*
X331000Y518799D02*X333000Y516799D01*
X331000Y518799D02*Y516299D01*
X329000Y516799D02*X333000D01*
X329000Y515098D02*X333000D01*
X329000Y512598D02*X333000D01*
X331000Y515098D02*Y512598D01*
X329000Y510897D02*Y509397D01*
X329500Y511397D02*X329000Y510897D01*
X329500Y511397D02*X332500D01*
X333000Y510897D01*
Y509397D01*
X329500Y508196D02*X329000Y507696D01*
X329500Y508196D02*X332500D01*
X333000Y507696D01*
Y506696D01*
X332500Y506196D01*
X329500D02*X332500D01*
X329000Y506696D02*X329500Y506196D01*
X329000Y507696D02*Y506696D01*
X330000Y508196D02*X332000Y506196D01*
X329500Y504995D02*X329000Y504495D01*
X329500Y504995D02*X332500D01*
X333000Y504495D01*
Y503495D01*
X332500Y502995D01*
X329500D02*X332500D01*
X329000Y503495D02*X329500Y502995D01*
X329000Y504495D02*Y503495D01*
X330000Y504995D02*X332000Y502995D01*
X342500Y592675D02*Y587250D01*
Y592675D02*X343275Y593450D01*
X345600D01*
X346375Y592675D01*
Y587250D01*
X342500Y590350D02*X346375D01*
X348236Y593450D02*Y588025D01*
X349011Y587250D01*
X350561D01*
X351336Y588025D01*
Y593450D02*Y588025D01*
X353973Y593450D02*Y587250D01*
X356298Y593450D02*X357073Y592675D01*
Y588025D01*
X356298Y587250D02*X357073Y588025D01*
X353198Y587250D02*X356298D01*
X353198Y593450D02*X356298D01*
X358934D02*X360484D01*
X359709D02*Y587250D01*
X358934D02*X360484D01*
X362346Y592675D02*Y588025D01*
Y592675D02*X363121Y593450D01*
X364671D01*
X365446Y592675D01*
Y588025D01*
X364671Y587250D02*X365446Y588025D01*
X363121Y587250D02*X364671D01*
X362346Y588025D02*X363121Y587250D01*
X370097Y592675D02*Y588025D01*
Y592675D02*X370872Y593450D01*
X372422D01*
X373197Y592675D01*
Y588025D01*
X372422Y587250D02*X373197Y588025D01*
X370872Y587250D02*X372422D01*
X370097Y588025D02*X370872Y587250D01*
X375059Y593450D02*Y588025D01*
X375834Y587250D01*
X377384D01*
X378159Y588025D01*
Y593450D02*Y588025D01*
X380020Y593450D02*X383120D01*
X381570D02*Y587250D01*
X243000Y331000D02*X242500Y330500D01*
X243000Y332000D02*Y331000D01*
X242500Y332500D02*X243000Y332000D01*
X239500Y332500D02*X242500D01*
X239500D02*X239000Y332000D01*
X241000Y331000D02*X240500Y330500D01*
X241000Y332500D02*Y331000D01*
X239000Y332000D02*Y331000D01*
X239500Y330500D01*
X240500D01*
X242500Y329299D02*X243000Y328799D01*
Y327299D01*
X242500Y326799D01*
X241500D02*X242500D01*
X239000Y329299D02*X241500Y326799D01*
X239000Y329299D02*Y326799D01*
X239500Y325598D02*X239000Y325098D01*
X239500Y325598D02*X240500D01*
X241000Y325098D01*
Y324098D01*
X240500Y323598D01*
X239500D02*X240500D01*
X239000Y324098D02*X239500Y323598D01*
X239000Y325098D02*Y324098D01*
X241500Y325598D02*X241000Y325098D01*
X241500Y325598D02*X242500D01*
X243000Y325098D01*
Y324098D01*
X242500Y323598D01*
X241500D02*X242500D01*
X241000Y324098D02*X241500Y323598D01*
X243000Y322397D02*Y320397D01*
X241000Y322397D02*X243000D01*
X241000D02*X241500Y321897D01*
Y320897D01*
X241000Y320397D01*
X239500D02*X241000D01*
X239000Y320897D02*X239500Y320397D01*
X239000Y321897D02*Y320897D01*
X239500Y322397D02*X239000Y321897D01*
Y318696D02*Y317696D01*
Y318196D02*X243000D01*
X242000Y319196D02*X243000Y318196D01*
X242500Y316495D02*X243000Y315995D01*
Y314495D01*
X242500Y313995D01*
X241500D02*X242500D01*
X239000Y316495D02*X241500Y313995D01*
X239000Y316495D02*Y313995D01*
X77000Y329500D02*Y328500D01*
Y329000D02*X81000D01*
X80000Y330000D02*X81000Y329000D01*
Y325799D02*X80500Y325299D01*
X81000Y326799D02*Y325799D01*
X80500Y327299D02*X81000Y326799D01*
X77500Y327299D02*X80500D01*
X77500D02*X77000Y326799D01*
X79000Y325799D02*X78500Y325299D01*
X79000Y327299D02*Y325799D01*
X77000Y326799D02*Y325799D01*
X77500Y325299D01*
X78500D01*
X81000Y324098D02*Y322098D01*
X79000Y324098D02*X81000D01*
X79000D02*X79500Y323598D01*
Y322598D01*
X79000Y322098D01*
X77500D02*X79000D01*
X77000Y322598D02*X77500Y322098D01*
X77000Y323598D02*Y322598D01*
X77500Y324098D02*X77000Y323598D01*
X81000Y320897D02*Y318897D01*
X79000Y320897D02*X81000D01*
X79000D02*X79500Y320397D01*
Y319397D01*
X79000Y318897D01*
X77500D02*X79000D01*
X77000Y319397D02*X77500Y318897D01*
X77000Y320397D02*Y319397D01*
X77500Y320897D02*X77000Y320397D01*
X77500Y317696D02*X77000Y317196D01*
X77500Y317696D02*X80500D01*
X81000Y317196D01*
Y316196D01*
X80500Y315696D01*
X77500D02*X80500D01*
X77000Y316196D02*X77500Y315696D01*
X77000Y317196D02*Y316196D01*
X78000Y317696D02*X80000Y315696D01*
X149000Y312500D02*X152500D01*
X153000Y312000D01*
Y310500D01*
X152500Y310000D01*
X149000D02*X152500D01*
X151000Y312500D02*Y310000D01*
X153000Y308799D02*Y306799D01*
X149000Y307799D02*X153000D01*
X152500Y305598D02*X153000Y305098D01*
Y303598D01*
X152500Y303098D01*
X151500D02*X152500D01*
X149000Y305598D02*X151500Y303098D01*
X149000Y305598D02*Y303098D01*
X149500Y301897D02*X149000Y301397D01*
X149500Y301897D02*X150500D01*
X151000Y301397D01*
Y300397D01*
X150500Y299897D01*
X149500D02*X150500D01*
X149000Y300397D02*X149500Y299897D01*
X149000Y301397D02*Y300397D01*
X151500Y301897D02*X151000Y301397D01*
X151500Y301897D02*X152500D01*
X153000Y301397D01*
Y300397D01*
X152500Y299897D01*
X151500D02*X152500D01*
X151000Y300397D02*X151500Y299897D01*
X149000Y298196D02*Y296696D01*
X149500Y298696D02*X149000Y298196D01*
X149500Y298696D02*X152500D01*
X153000Y298196D01*
Y296696D01*
Y293995D02*X152500Y293495D01*
X153000Y294995D02*Y293995D01*
X152500Y295495D02*X153000Y294995D01*
X149500Y295495D02*X152500D01*
X149500D02*X149000Y294995D01*
X151000Y293995D02*X150500Y293495D01*
X151000Y295495D02*Y293995D01*
X149000Y294995D02*Y293995D01*
X149500Y293495D01*
X150500D01*
X151000Y292294D02*X153000Y290294D01*
X151000Y292294D02*Y289794D01*
X149000Y290294D02*X153000D01*
X149000Y288593D02*Y286593D01*
X149500Y286093D01*
X150500D01*
X151000Y286593D02*X150500Y286093D01*
X151000Y288093D02*Y286593D01*
X149000Y288093D02*X153000D01*
Y288593D02*Y286593D01*
X152500Y286093D01*
X151500D02*X152500D01*
X151000Y286593D02*X151500Y286093D01*
X89000Y330000D02*X91500Y327500D01*
X93000D01*
Y330000D02*Y327500D01*
X91000Y326299D02*X93000Y324299D01*
X91000Y326299D02*Y323799D01*
X89000Y324299D02*X93000D01*
X89000Y322598D02*X93000D01*
X89000Y320098D02*X93000D01*
X91000Y322598D02*Y320098D01*
X89000Y318397D02*Y316897D01*
X89500Y318897D02*X89000Y318397D01*
X89500Y318897D02*X92500D01*
X93000Y318397D01*
Y316897D01*
X89000Y315196D02*Y314196D01*
Y314696D02*X93000D01*
X92000Y315696D02*X93000Y314696D01*
Y312995D02*Y310995D01*
X91000Y312995D02*X93000D01*
X91000D02*X91500Y312495D01*
Y311495D01*
X91000Y310995D01*
X89500D02*X91000D01*
X89000Y311495D02*X89500Y310995D01*
X89000Y312495D02*Y311495D01*
X89500Y312995D02*X89000Y312495D01*
Y309794D02*X91500Y307294D01*
X93000D01*
Y309794D02*Y307294D01*
X89000Y240000D02*X91500Y237500D01*
X93000D01*
Y240000D02*Y237500D01*
X91000Y236299D02*X93000Y234299D01*
X91000Y236299D02*Y233799D01*
X89000Y234299D02*X93000D01*
X89000Y232598D02*X93000D01*
X89000Y230098D02*X93000D01*
X91000Y232598D02*Y230098D01*
X89000Y228397D02*Y226897D01*
X89500Y228897D02*X89000Y228397D01*
X89500Y228897D02*X92500D01*
X93000Y228397D01*
Y226897D01*
X89500Y225696D02*X89000Y225196D01*
X89500Y225696D02*X92500D01*
X93000Y225196D01*
Y224196D01*
X92500Y223696D01*
X89500D02*X92500D01*
X89000Y224196D02*X89500Y223696D01*
X89000Y225196D02*Y224196D01*
X90000Y225696D02*X92000Y223696D01*
X89500Y222495D02*X89000Y221995D01*
X89500Y222495D02*X90500D01*
X91000Y221995D01*
Y220995D01*
X90500Y220495D01*
X89500D02*X90500D01*
X89000Y220995D02*X89500Y220495D01*
X89000Y221995D02*Y220995D01*
X91500Y222495D02*X91000Y221995D01*
X91500Y222495D02*X92500D01*
X93000Y221995D01*
Y220995D01*
X92500Y220495D01*
X91500D02*X92500D01*
X91000Y220995D02*X91500Y220495D01*
X329000Y432500D02*X331500Y430000D01*
X333000D01*
Y432500D02*Y430000D01*
X331000Y428799D02*X333000Y426799D01*
X331000Y428799D02*Y426299D01*
X329000Y426799D02*X333000D01*
X329000Y425098D02*X333000D01*
X329000Y422598D02*X333000D01*
X331000Y425098D02*Y422598D01*
X329000Y420897D02*Y419397D01*
X329500Y421397D02*X329000Y420897D01*
X329500Y421397D02*X332500D01*
X333000Y420897D01*
Y419397D01*
X329000Y417696D02*Y416696D01*
Y417196D02*X333000D01*
X332000Y418196D02*X333000Y417196D01*
X332500Y415495D02*X333000Y414995D01*
Y413995D01*
X332500Y413495D01*
X329500D02*X332500D01*
X329000Y413995D02*X329500Y413495D01*
X329000Y414995D02*Y413995D01*
X329500Y415495D02*X329000Y414995D01*
X331000D02*Y413495D01*
X329000Y412294D02*X331000Y410294D01*
X332500D01*
X333000Y410794D02*X332500Y410294D01*
X333000Y411794D02*Y410794D01*
X332500Y412294D02*X333000Y411794D01*
X331500Y412294D02*X332500D01*
X331500D02*X331000Y411794D01*
Y410294D01*
X149000Y430000D02*X151500Y427500D01*
X153000D01*
Y430000D02*Y427500D01*
X151000Y426299D02*X153000Y424299D01*
X151000Y426299D02*Y423799D01*
X149000Y424299D02*X153000D01*
X149000Y422598D02*X153000D01*
X149000Y420098D02*X153000D01*
X151000Y422598D02*Y420098D01*
X149000Y418397D02*Y416897D01*
X149500Y418897D02*X149000Y418397D01*
X149500Y418897D02*X152500D01*
X153000Y418397D01*
Y416897D01*
Y415696D02*Y413696D01*
X151000Y415696D02*X153000D01*
X151000D02*X151500Y415196D01*
Y414196D01*
X151000Y413696D01*
X149500D02*X151000D01*
X149000Y414196D02*X149500Y413696D01*
X149000Y415196D02*Y414196D01*
X149500Y415696D02*X149000Y415196D01*
Y412495D02*X151000Y410495D01*
X152500D01*
X153000Y410995D02*X152500Y410495D01*
X153000Y411995D02*Y410995D01*
X152500Y412495D02*X153000Y411995D01*
X151500Y412495D02*X152500D01*
X151500D02*X151000Y411995D01*
Y410495D01*
X153000Y409294D02*Y407294D01*
X151000Y409294D02*X153000D01*
X151000D02*X151500Y408794D01*
Y407794D01*
X151000Y407294D01*
X149500D02*X151000D01*
X149000Y407794D02*X149500Y407294D01*
X149000Y408794D02*Y407794D01*
X149500Y409294D02*X149000Y408794D01*
X170000Y494500D02*X174000D01*
Y493000D02*X173500Y492500D01*
X170500D02*X173500D01*
X170000Y493000D02*X170500Y492500D01*
X170000Y495000D02*Y493000D01*
X174000Y495000D02*Y493000D01*
Y489299D02*X173500Y488799D01*
X174000Y490799D02*Y489299D01*
X173500Y491299D02*X174000Y490799D01*
X172500Y491299D02*X173500D01*
X172500D02*X172000Y490799D01*
Y489299D01*
X171500Y488799D01*
X170500D02*X171500D01*
X170000Y489299D02*X170500Y488799D01*
X170000Y490799D02*Y489299D01*
X170500Y491299D02*X170000Y490799D01*
Y487098D02*Y486098D01*
Y486598D02*X174000D01*
X173000Y487598D02*X174000Y486598D01*
X173500Y484897D02*X174000Y484397D01*
Y483397D01*
X173500Y482897D01*
X170500D02*X173500D01*
X170000Y483397D02*X170500Y482897D01*
X170000Y484397D02*Y483397D01*
X170500Y484897D02*X170000Y484397D01*
X172000D02*Y482897D01*
X170500Y481696D02*X170000Y481196D01*
X170500Y481696D02*X173500D01*
X174000Y481196D01*
Y480196D01*
X173500Y479696D01*
X170500D02*X173500D01*
X170000Y480196D02*X170500Y479696D01*
X170000Y481196D02*Y480196D01*
X171000Y481696D02*X173000Y479696D01*
X170000Y478495D02*X172500Y475995D01*
X174000D01*
Y478495D02*Y475995D01*
X45500Y430000D02*X47000D01*
X45000Y430500D02*X45500Y430000D01*
X45000Y433500D02*Y430500D01*
Y433500D02*X45500Y434000D01*
X47000D01*
X48201D02*X50201D01*
X50701Y433500D01*
Y432500D01*
X50201Y432000D02*X50701Y432500D01*
X48701Y432000D02*X50201D01*
X48701Y434000D02*Y430000D01*
Y432000D02*X50701Y430000D01*
X51902Y433500D02*X52402Y434000D01*
X53902D01*
X54402Y433500D01*
Y432500D01*
X51902Y430000D02*X54402Y432500D01*
X51902Y430000D02*X54402D01*
X55603Y430500D02*X56103Y430000D01*
X55603Y433500D02*Y430500D01*
Y433500D02*X56103Y434000D01*
X57103D01*
X57603Y433500D01*
Y430500D01*
X57103Y430000D02*X57603Y430500D01*
X56103Y430000D02*X57103D01*
X55603Y431000D02*X57603Y433000D01*
X58804Y433500D02*X59304Y434000D01*
X60304D01*
X60804Y433500D01*
Y430500D01*
X60304Y430000D02*X60804Y430500D01*
X59304Y430000D02*X60304D01*
X58804Y430500D02*X59304Y430000D01*
Y432000D02*X60804D01*
X62005Y433500D02*X62505Y434000D01*
X64005D01*
X64505Y433500D01*
Y432500D01*
X62005Y430000D02*X64505Y432500D01*
X62005Y430000D02*X64505D01*
X42500Y579750D02*X45600Y582850D01*
Y585175D02*Y582850D01*
X44825Y585950D02*X45600Y585175D01*
X43275Y585950D02*X44825D01*
X42500Y585175D02*X43275Y585950D01*
X42500Y585175D02*Y583625D01*
X43275Y582850D01*
X45600D01*
X47461D02*X50561D01*
X53198Y579750D02*X54748D01*
X53973Y585950D02*Y579750D01*
X52423Y584400D02*X53973Y585950D01*
X56609Y585175D02*X57384Y585950D01*
X59709D01*
X60484Y585175D01*
Y583625D01*
X56609Y579750D02*X60484Y583625D01*
X56609Y579750D02*X60484D01*
X62346Y585950D02*Y581300D01*
X63896Y579750D01*
X65446Y581300D01*
Y585950D02*Y581300D01*
X68082Y585950D02*Y579750D01*
X70407Y585950D02*X71182Y585175D01*
Y580525D01*
X70407Y579750D02*X71182Y580525D01*
X67307Y579750D02*X70407D01*
X67307Y585950D02*X70407D01*
X73819Y579750D02*X76144D01*
X73044Y580525D02*X73819Y579750D01*
X73044Y585175D02*Y580525D01*
Y585175D02*X73819Y585950D01*
X76144D01*
X77500Y565000D02*X80000Y567500D01*
Y569000D02*Y567500D01*
X77500Y569000D02*X80000D01*
X81201Y565500D02*X81701Y565000D01*
X81201Y566500D02*Y565500D01*
Y566500D02*X81701Y567000D01*
X82701D01*
X83201Y566500D01*
Y565500D01*
X82701Y565000D02*X83201Y565500D01*
X81701Y565000D02*X82701D01*
X81201Y567500D02*X81701Y567000D01*
X81201Y568500D02*Y567500D01*
Y568500D02*X81701Y569000D01*
X82701D01*
X83201Y568500D01*
Y567500D01*
X82701Y567000D02*X83201Y567500D01*
X84402Y565500D02*X84902Y565000D01*
X84402Y568500D02*Y565500D01*
Y568500D02*X84902Y569000D01*
X85902D01*
X86402Y568500D01*
Y565500D01*
X85902Y565000D02*X86402Y565500D01*
X84902Y565000D02*X85902D01*
X84402Y566000D02*X86402Y568000D01*
X87603Y569000D02*X89603D01*
X87603D02*Y567000D01*
X88103Y567500D01*
X89103D01*
X89603Y567000D01*
Y565500D01*
X89103Y565000D02*X89603Y565500D01*
X88103Y565000D02*X89103D01*
X87603Y565500D02*X88103Y565000D01*
X123500Y514950D02*X125050D01*
X124275D02*Y508750D01*
X123500D02*X125050D01*
X126911Y514175D02*X127686Y514950D01*
X130011D01*
X130786Y514175D01*
Y512625D01*
X126911Y508750D02*X130786Y512625D01*
X126911Y508750D02*X130786D01*
X133423D02*X135748D01*
X132648Y509525D02*X133423Y508750D01*
X132648Y514175D02*Y509525D01*
Y514175D02*X133423Y514950D01*
X135748D01*
X114500Y482000D02*X115000Y481500D01*
X113000Y482000D02*X114500D01*
X112500Y481500D02*X113000Y482000D01*
X112500Y481500D02*Y480500D01*
X113000Y480000D01*
X114500D01*
X115000Y479500D01*
Y478500D01*
X114500Y478000D02*X115000Y478500D01*
X113000Y478000D02*X114500D01*
X112500Y478500D02*X113000Y478000D01*
X116701Y482000D02*Y478000D01*
X118201Y482000D02*X118701Y481500D01*
Y478500D01*
X118201Y478000D02*X118701Y478500D01*
X116201Y478000D02*X118201D01*
X116201Y482000D02*X118201D01*
X119902Y481500D02*Y478000D01*
Y481500D02*X120402Y482000D01*
X121902D01*
X122402Y481500D01*
Y478000D01*
X119902Y480000D02*X122402D01*
X115500Y492000D02*X116000Y491500D01*
X114000Y492000D02*X115500D01*
X113500Y491500D02*X114000Y492000D01*
X113500Y491500D02*Y490500D01*
X114000Y490000D01*
X115500D01*
X116000Y489500D01*
Y488500D01*
X115500Y488000D02*X116000Y488500D01*
X114000Y488000D02*X115500D01*
X113500Y488500D02*X114000Y488000D01*
X117701D02*X119201D01*
X117201Y488500D02*X117701Y488000D01*
X117201Y491500D02*Y488500D01*
Y491500D02*X117701Y492000D01*
X119201D01*
X120402D02*Y488000D01*
X122402D01*
X114000Y500000D02*X116000D01*
X115000Y501000D02*Y499000D01*
X117201Y502000D02*X119201D01*
X117201D02*Y500000D01*
X117701Y500500D01*
X118701D01*
X119201Y500000D01*
Y498500D01*
X118701Y498000D02*X119201Y498500D01*
X117701Y498000D02*X118701D01*
X117201Y498500D02*X117701Y498000D01*
X120402Y502000D02*Y499000D01*
X121402Y498000D01*
X122402Y499000D01*
Y502000D02*Y499000D01*
X114500Y472000D02*X115000Y471500D01*
X113000Y472000D02*X114500D01*
X112500Y471500D02*X113000Y472000D01*
X112500Y471500D02*Y468500D01*
X113000Y468000D01*
X114500D01*
X115000Y468500D01*
Y469500D02*Y468500D01*
X114500Y470000D02*X115000Y469500D01*
X113500Y470000D02*X114500D01*
X116201Y472000D02*Y468000D01*
Y472000D02*Y471500D01*
X118701Y469000D01*
Y472000D02*Y468000D01*
X120402Y472000D02*Y468000D01*
X121902Y472000D02*X122402Y471500D01*
Y468500D01*
X121902Y468000D02*X122402Y468500D01*
X119902Y468000D02*X121902D01*
X119902Y472000D02*X121902D01*
X95000Y585175D02*Y580525D01*
Y585175D02*X95775Y585950D01*
X97325D01*
X98100Y585175D01*
Y580525D01*
X97325Y579750D02*X98100Y580525D01*
X95775Y579750D02*X97325D01*
X95000Y580525D02*X95775Y579750D01*
X99961Y585950D02*Y579750D01*
Y585950D02*Y585175D01*
X103836Y581300D01*
Y585950D02*Y579750D01*
X105698Y580525D02*X110348Y585175D01*
X95000Y575175D02*Y570525D01*
Y575175D02*X95775Y575950D01*
X97325D01*
X98100Y575175D01*
Y570525D01*
X97325Y569750D02*X98100Y570525D01*
X95775Y569750D02*X97325D01*
X95000Y570525D02*X95775Y569750D01*
X99961Y575950D02*Y569750D01*
Y575950D02*X103061D01*
X99961Y572850D02*X102286D01*
X104923Y575950D02*Y569750D01*
Y575950D02*X108023D01*
X104923Y572850D02*X107248D01*
X239000Y550000D02*X243000D01*
X239000D02*X240500Y548500D01*
X239000Y547000D01*
X243000D01*
Y544299D02*X242500Y543799D01*
X243000Y545299D02*Y544299D01*
X242500Y545799D02*X243000Y545299D01*
X239500Y545799D02*X242500D01*
X239500D02*X239000Y545299D01*
X241000Y544299D02*X240500Y543799D01*
X241000Y545799D02*Y544299D01*
X239000Y545299D02*Y544299D01*
X239500Y543799D01*
X240500D01*
X243000Y542598D02*Y540598D01*
X241000Y542598D02*X243000D01*
X241000D02*X241500Y542098D01*
Y541098D01*
X241000Y540598D01*
X239500D02*X241000D01*
X239000Y541098D02*X239500Y540598D01*
X239000Y542098D02*Y541098D01*
X239500Y542598D02*X239000Y542098D01*
Y538897D02*Y537397D01*
X239500Y539397D02*X239000Y538897D01*
X239500Y539397D02*X242500D01*
X243000Y538897D01*
Y537397D01*
X242500Y536196D02*X243000Y535696D01*
Y534196D01*
X242500Y533696D01*
X241500D02*X242500D01*
X239000Y536196D02*X241500Y533696D01*
X239000Y536196D02*Y533696D01*
X242500Y532495D02*X243000Y531995D01*
Y530495D01*
X242500Y529995D01*
X241500D02*X242500D01*
X239000Y532495D02*X241500Y529995D01*
X239000Y532495D02*Y529995D01*
X243000Y526794D02*X242500Y526294D01*
X243000Y528294D02*Y526794D01*
X242500Y528794D02*X243000Y528294D01*
X241500Y528794D02*X242500D01*
X241500D02*X241000Y528294D01*
Y526794D01*
X240500Y526294D01*
X239500D02*X240500D01*
X239000Y526794D02*X239500Y526294D01*
X239000Y528294D02*Y526794D01*
X239500Y528794D02*X239000Y528294D01*
X190000Y569000D02*Y565000D01*
X192000D01*
X193201Y569000D02*Y565000D01*
Y569000D02*X194701Y567500D01*
X196201Y569000D01*
Y565000D01*
X197902D02*X198902D01*
X198402Y569000D02*Y565000D01*
X197402Y568000D02*X198402Y569000D01*
X200603Y565000D02*X201603D01*
X201103Y569000D02*Y565000D01*
X200103Y568000D02*X201103Y569000D01*
X203304Y565000D02*X204304D01*
X203804Y569000D02*Y565000D01*
X202804Y568000D02*X203804Y569000D01*
X205505Y565000D02*X208005Y567500D01*
Y569000D02*Y567500D01*
X205505Y569000D02*X208005D01*
X209206Y567000D02*X211206D01*
X212407Y568500D02*X212907Y569000D01*
X213907D01*
X214407Y568500D01*
Y565500D01*
X213907Y565000D02*X214407Y565500D01*
X212907Y565000D02*X213907D01*
X212407Y565500D02*X212907Y565000D01*
Y567000D02*X214407D01*
X215608Y565000D02*X216108D01*
X217309Y568500D02*X217809Y569000D01*
X218809D01*
X219309Y568500D01*
Y565500D01*
X218809Y565000D02*X219309Y565500D01*
X217809Y565000D02*X218809D01*
X217309Y565500D02*X217809Y565000D01*
Y567000D02*X219309D01*
X197000Y603000D02*X199000D01*
X198000D02*Y599000D01*
X200201Y603000D02*Y602500D01*
X202701Y600000D01*
Y599000D01*
X200201Y600000D02*Y599000D01*
Y600000D02*X202701Y602500D01*
Y603000D02*Y602500D01*
X186500Y603000D02*X188500D01*
X189000Y602500D01*
Y601500D01*
X188500Y601000D02*X189000Y601500D01*
X187000Y601000D02*X188500D01*
X187000Y603000D02*Y599000D01*
Y601000D02*X189000Y599000D01*
X190201Y603000D02*Y602500D01*
X192701Y600000D01*
Y599000D01*
X190201Y600000D02*Y599000D01*
Y600000D02*X192701Y602500D01*
Y603000D02*Y602500D01*
X195000Y578025D02*X195775Y577250D01*
X195000Y582675D02*X195775Y583450D01*
X195000Y582675D02*Y578025D01*
X197636Y583450D02*Y577250D01*
Y583450D02*X200736D01*
X197636Y580350D02*X199961D01*
X202598Y583450D02*X205698D01*
X204148D02*Y577250D01*
X208334Y583450D02*Y577250D01*
X210659Y583450D02*X211434Y582675D01*
Y578025D01*
X210659Y577250D02*X211434Y578025D01*
X207559Y577250D02*X210659D01*
X207559Y583450D02*X210659D01*
X213296D02*X214846D01*
X214071D02*Y577250D01*
X213296D02*X214846D01*
X216707Y583450D02*X217482Y582675D01*
Y578025D01*
X216707Y577250D02*X217482Y578025D01*
X172500Y593450D02*X175600D01*
X172500D02*Y590350D01*
X173275Y591125D01*
X174825D01*
X175600Y590350D01*
Y588025D01*
X174825Y587250D02*X175600Y588025D01*
X173275Y587250D02*X174825D01*
X172500Y588025D02*X173275Y587250D01*
X177461Y593450D02*Y588800D01*
X179011Y587250D01*
X180561Y588800D01*
Y593450D02*Y588800D01*
X188313Y593450D02*X189088Y592675D01*
X185988Y593450D02*X188313D01*
X185213Y592675D02*X185988Y593450D01*
X185213Y592675D02*Y591125D01*
X185988Y590350D01*
X188313D01*
X189088Y589575D01*
Y588025D01*
X188313Y587250D02*X189088Y588025D01*
X185988Y587250D02*X188313D01*
X185213Y588025D02*X185988Y587250D01*
X190949Y590350D02*X193274D01*
X190949Y587250D02*X194049D01*
X190949Y593450D02*Y587250D01*
Y593450D02*X194049D01*
X195911D02*X199011D01*
X199786Y592675D01*
Y591125D01*
X199011Y590350D02*X199786Y591125D01*
X196686Y590350D02*X199011D01*
X196686Y593450D02*Y587250D01*
Y590350D02*X199786Y587250D01*
X201647Y593450D02*X203197D01*
X202422D02*Y587250D01*
X201647D02*X203197D01*
X205059Y592675D02*Y587250D01*
Y592675D02*X205834Y593450D01*
X208159D01*
X208934Y592675D01*
Y587250D01*
X205059Y590350D02*X208934D01*
X210795Y593450D02*Y587250D01*
X213895D01*
X219322Y593450D02*Y587250D01*
X218547Y593450D02*X221647D01*
X222422Y592675D01*
Y591125D01*
X221647Y590350D02*X222422Y591125D01*
X219322Y590350D02*X221647D01*
X224283Y592675D02*Y588025D01*
Y592675D02*X225058Y593450D01*
X226608D01*
X227383Y592675D01*
Y588025D01*
X226608Y587250D02*X227383Y588025D01*
X225058Y587250D02*X226608D01*
X224283Y588025D02*X225058Y587250D01*
X229245Y593450D02*X232345D01*
X233120Y592675D01*
Y591125D01*
X232345Y590350D02*X233120Y591125D01*
X230020Y590350D02*X232345D01*
X230020Y593450D02*Y587250D01*
Y590350D02*X233120Y587250D01*
X234982Y593450D02*X238082D01*
X236532D02*Y587250D01*
X255775Y593450D02*Y587250D01*
X255000Y593450D02*X258100D01*
X258875Y592675D01*
Y591125D01*
X258100Y590350D02*X258875Y591125D01*
X255775Y590350D02*X258100D01*
X263836Y593450D02*X264611Y592675D01*
X261511Y593450D02*X263836D01*
X260736Y592675D02*X261511Y593450D01*
X260736Y592675D02*Y591125D01*
X261511Y590350D01*
X263836D01*
X264611Y589575D01*
Y588025D01*
X263836Y587250D02*X264611Y588025D01*
X261511Y587250D02*X263836D01*
X260736Y588025D02*X261511Y587250D01*
X266473Y588025D02*X271123Y592675D01*
X272984D02*X273759Y593450D01*
X276084D01*
X276859Y592675D01*
Y591125D01*
X272984Y587250D02*X276859Y591125D01*
X272984Y587250D02*X276859D01*
X281511Y593450D02*Y587250D01*
Y590350D02*X284611Y593450D01*
X281511Y590350D02*X284611Y587250D01*
X286472Y590350D02*X288797D01*
X286472Y587250D02*X289572D01*
X286472Y593450D02*Y587250D01*
Y593450D02*X289572D01*
X291434D02*Y592675D01*
X292984Y591125D01*
X294534Y592675D01*
Y593450D02*Y592675D01*
X292984Y591125D02*Y587250D01*
X296395D02*X299495D01*
X300270Y588025D01*
Y589575D02*Y588025D01*
X299495Y590350D02*X300270Y589575D01*
X297170Y590350D02*X299495D01*
X297170Y593450D02*Y587250D01*
X296395Y593450D02*X299495D01*
X300270Y592675D01*
Y591125D01*
X299495Y590350D02*X300270Y591125D01*
X302132Y592675D02*Y588025D01*
Y592675D02*X302907Y593450D01*
X304457D01*
X305232Y592675D01*
Y588025D01*
X304457Y587250D02*X305232Y588025D01*
X302907Y587250D02*X304457D01*
X302132Y588025D02*X302907Y587250D01*
X307093Y592675D02*Y587250D01*
Y592675D02*X307868Y593450D01*
X310193D01*
X310968Y592675D01*
Y587250D01*
X307093Y590350D02*X310968D01*
X312830Y593450D02*X315930D01*
X316705Y592675D01*
Y591125D01*
X315930Y590350D02*X316705Y591125D01*
X313605Y590350D02*X315930D01*
X313605Y593450D02*Y587250D01*
Y590350D02*X316705Y587250D01*
X319342Y593450D02*Y587250D01*
X321667Y593450D02*X322442Y592675D01*
Y588025D01*
X321667Y587250D02*X322442Y588025D01*
X318567Y587250D02*X321667D01*
X318567Y593450D02*X321667D01*
X690000Y485000D02*X700000D01*
X690000Y475000D02*X700000D01*
G75*G03X700000Y485000I0J5000D01*G01*
X690000D02*G75*G03X690000Y475000I0J-5000D01*G01*
X770000Y405000D02*X780000D01*
X770000Y395000D02*X780000D01*
G75*G03X780000Y405000I0J5000D01*G01*
X770000D02*G75*G03X770000Y395000I0J-5000D01*G01*
Y525000D02*X780000D01*
X770000Y515000D02*X780000D01*
G75*G03X780000Y525000I0J5000D01*G01*
X770000D02*G75*G03X770000Y515000I0J-5000D01*G01*
X705000Y625000D02*X735000D01*
X665000D02*X695000D01*
X735000Y485000D02*Y625000D01*
X665000Y485000D02*X735000D01*
X665000Y625000D02*Y485000D01*
X695000Y625000D02*G75*G03X705000Y625000I5000J0D01*G01*
X690000Y465000D02*X705000D01*
X665000D02*X680000D01*
X705000Y365000D02*Y465000D01*
X665000Y365000D02*X705000D01*
X665000Y465000D02*Y365000D01*
X680000Y465000D02*G75*G03X690000Y465000I5000J0D01*G01*
X755000Y625000D02*Y525000D01*
X795000D01*
Y625000D01*
X755000D02*X770000D01*
X780000D02*X795000D01*
X770000D02*G75*G03X780000Y625000I5000J0D01*G01*
X855000Y615000D02*Y625000D01*
X845000Y615000D02*X855000D01*
X865000Y625000D02*X845000D01*
X865000Y425000D02*Y625000D01*
X845000Y425000D02*X865000D01*
X845000Y625000D02*Y425000D01*
X755000Y505000D02*Y405000D01*
X795000D01*
Y505000D01*
X755000D02*X770000D01*
X780000D02*X795000D01*
X770000D02*G75*G03X780000Y505000I5000J0D01*G01*
X530000Y175000D02*X540000D01*
X530000Y165000D02*X540000D01*
G75*G03X540000Y175000I0J5000D01*G01*
X530000D02*G75*G03X530000Y165000I0J-5000D01*G01*
Y345000D02*X540000D01*
X530000Y355000D02*X540000D01*
X530000D02*G75*G03X530000Y345000I0J-5000D01*G01*
X540000D02*G75*G03X540000Y355000I0J5000D01*G01*
X515000Y345000D02*Y275000D01*
X555000D01*
Y345000D01*
X515000D02*X530000D01*
X540000D02*X555000D01*
X530000D02*G75*G03X540000Y345000I5000J0D01*G01*
X515000Y245000D02*Y175000D01*
X555000D01*
Y245000D01*
X515000D02*X530000D01*
X540000D02*X555000D01*
X530000D02*G75*G03X540000Y245000I5000J0D01*G01*
X590000Y175000D02*X600000D01*
X590000Y165000D02*X600000D01*
G75*G03X600000Y175000I0J5000D01*G01*
X590000D02*G75*G03X590000Y165000I0J-5000D01*G01*
X630000Y305000D02*G75*G03X630000Y305000I0J-10000D01*G01*
X590000Y355000D02*X600000D01*
X590000Y345000D02*X600000D01*
G75*G03X600000Y355000I0J5000D01*G01*
X590000D02*G75*G03X590000Y345000I0J-5000D01*G01*
X470000Y425000D02*X480000D01*
X470000Y415000D02*X480000D01*
G75*G03X480000Y425000I0J5000D01*G01*
X470000D02*G75*G03X470000Y415000I0J-5000D01*G01*
X540000Y400000D02*Y390000D01*
Y380000D02*Y370000D01*
Y390000D02*X545000Y380000D01*
X535000D02*X545000D01*
X535000D02*X540000Y390000D01*
X535000D02*X545000D01*
X550000Y400000D02*Y390000D01*
Y380000D02*Y370000D01*
Y390000D02*X555000Y380000D01*
X545000D02*X555000D01*
X545000D02*X550000Y390000D01*
X545000D02*X555000D01*
X575000Y345000D02*Y265000D01*
X615000D01*
Y345000D01*
X575000D02*X590000D01*
X600000D02*X615000D01*
X590000D02*G75*G03X600000Y345000I5000J0D01*G01*
X575000Y245000D02*Y175000D01*
X615000D01*
Y245000D01*
X575000D02*X590000D01*
X600000D02*X615000D01*
X590000D02*G75*G03X600000Y245000I5000J0D01*G01*
X627500Y332500D02*X632500D01*
X627500D02*Y317500D01*
X632500D01*
Y332500D02*Y317500D01*
X630000D02*Y310000D01*
Y340000D02*Y332500D01*
X680000Y365000D02*X690000D01*
X680000Y355000D02*X690000D01*
G75*G03X690000Y365000I0J5000D01*G01*
X680000D02*G75*G03X680000Y355000I0J-5000D01*G01*
X620000Y365000D02*X630000D01*
X620000Y355000D02*X630000D01*
G75*G03X630000Y365000I0J5000D01*G01*
X620000D02*G75*G03X620000Y355000I0J-5000D01*G01*
X647500Y332500D02*X652500D01*
X647500D02*Y317500D01*
X652500D01*
Y332500D02*Y317500D01*
X650000D02*Y310000D01*
Y340000D02*Y332500D01*
X637500D02*X642500D01*
X637500D02*Y317500D01*
X642500D01*
Y332500D02*Y317500D01*
X640000D02*Y310000D01*
Y340000D02*Y332500D01*
X770000Y285000D02*X780000D01*
X770000Y275000D02*X780000D01*
G75*G03X780000Y285000I0J5000D01*G01*
X770000D02*G75*G03X770000Y275000I0J-5000D01*G01*
X720000Y355000D02*X730000D01*
X720000Y345000D02*X730000D01*
G75*G03X730000Y355000I0J5000D01*G01*
X720000D02*G75*G03X720000Y345000I0J-5000D01*G01*
X665000D02*Y145000D01*
X735000D01*
Y345000D01*
X665000D02*X695000D01*
X705000D02*X735000D01*
X695000D02*G75*G03X705000Y345000I5000J0D01*G01*
X755000Y385000D02*Y285000D01*
X795000D01*
Y385000D01*
X755000D02*X770000D01*
X780000D02*X795000D01*
X770000D02*G75*G03X780000Y385000I5000J0D01*G01*
X647500Y292500D02*X652500D01*
X647500D02*Y277500D01*
X652500D01*
Y292500D02*Y277500D01*
X650000D02*Y270000D01*
Y300000D02*Y292500D01*
G54D11*X670100Y27900D02*Y14500D01*
X659300Y27900D02*Y14500D01*
X648500Y27900D02*Y14500D01*
X637700Y27900D02*Y14500D01*
X675500Y39100D02*Y14500D01*
X664700Y39100D02*Y14500D01*
X653900Y39100D02*Y14500D01*
X643100Y39100D02*Y14500D01*
X632300Y39100D02*Y14500D01*
G54D12*X616300Y4000D02*X691500D01*
G54D11*Y14500D02*Y4000D01*
X616300Y14500D02*X691500D01*
X616300D02*Y4000D01*
G54D12*X696500D02*Y1000D01*
X708500Y4000D02*Y1000D01*
X611300Y4000D02*Y1000D01*
X599300Y4000D02*Y1000D01*
X593300D02*X714500D01*
Y4000D02*Y1000D01*
X593300Y4000D02*X714500D01*
X593300D02*Y1000D01*
G54D11*X817300Y27900D02*Y14500D01*
X806500Y27900D02*Y14500D01*
X795700Y27900D02*Y14500D01*
X784900Y27900D02*Y14500D01*
X822700Y39100D02*Y14500D01*
X811900Y39100D02*Y14500D01*
X801100Y39100D02*Y14500D01*
X790300Y39100D02*Y14500D01*
X779500Y39100D02*Y14500D01*
G54D12*X763500Y4000D02*X838700D01*
G54D11*Y14500D02*Y4000D01*
X763500Y14500D02*X838700D01*
X763500D02*Y4000D01*
G54D12*X843700D02*Y1000D01*
X855700Y4000D02*Y1000D01*
X758500Y4000D02*Y1000D01*
X746500Y4000D02*Y1000D01*
X740500D02*X861700D01*
Y4000D02*Y1000D01*
X740500Y4000D02*X861700D01*
X740500D02*Y1000D01*
X487736Y36358D02*X491673D01*
X489705Y38327D02*Y34390D01*
X501516Y40295D02*Y32421D01*
X480846Y48169D02*X497579D01*
X480846Y24547D02*X497579D01*
X477894Y40295D02*Y32421D01*
X496594Y36358D02*G75*G03X489704Y43248I-6890J0D01*G01*
X489705Y29469D02*G75*G03X496594Y36358I0J6889D01*G01*
X482815D02*G75*G03X489704Y29469I6889J0D01*G01*
X489705Y43248D02*G75*G03X482815Y36358I0J-6890D01*G01*
X595000Y620000D02*Y600000D01*
X605000Y620000D02*Y600000D01*
X595000D02*G75*G03X605000Y600000I5000J0D01*G01*
Y620000D02*G75*G03X595000Y620000I-5000J0D01*G01*
X620000Y605000D02*X630000D01*
X620000Y595000D02*X630000D01*
G75*G03X630000Y605000I0J5000D01*G01*
X620000D02*G75*G03X620000Y595000I0J-5000D01*G01*
Y625000D02*X630000D01*
X620000Y615000D02*X630000D01*
G75*G03X630000Y625000I0J5000D01*G01*
X620000D02*G75*G03X620000Y615000I0J-5000D01*G01*
X480000Y535000D02*X490000D01*
X480000Y545000D02*X490000D01*
X480000D02*G75*G03X480000Y535000I0J-5000D01*G01*
X490000D02*G75*G03X490000Y545000I0J5000D01*G01*
X487500Y532500D02*Y527500D01*
X502500D01*
Y532500D02*Y527500D01*
X487500Y532500D02*X502500D01*
Y530000D02*X510000D01*
X480000D02*X487500D01*
X620000Y485000D02*X630000D01*
X620000Y475000D02*X630000D01*
G75*G03X630000Y485000I0J5000D01*G01*
X620000D02*G75*G03X620000Y475000I0J-5000D01*G01*
X630000Y585000D02*X645000D01*
X605000D02*X620000D01*
X645000Y485000D02*Y585000D01*
X605000Y485000D02*X645000D01*
X605000Y585000D02*Y485000D01*
X620000Y585000D02*G75*G03X630000Y585000I5000J0D01*G01*
Y465000D02*X645000D01*
X605000D02*X620000D01*
X645000Y365000D02*Y465000D01*
X605000Y365000D02*X645000D01*
X605000Y465000D02*Y365000D01*
X620000Y465000D02*G75*G03X630000Y465000I5000J0D01*G01*
X555000Y625000D02*X585000D01*
X515000D02*X545000D01*
X585000Y425000D02*Y625000D01*
X515000Y425000D02*X585000D01*
X515000Y625000D02*Y425000D01*
X545000Y625000D02*G75*G03X555000Y625000I5000J0D01*G01*
X467500Y547500D02*X472500D01*
Y562500D02*Y547500D01*
X467500Y562500D02*X472500D01*
X467500D02*Y547500D01*
X470000Y570000D02*Y562500D01*
Y547500D02*Y540000D01*
X395000Y335000D02*X405000D01*
G54D11*Y340000D02*Y290000D01*
X395000Y340000D02*Y290000D01*
G75*G03X405000Y290000I5000J0D01*G01*
Y340000D02*G75*G03X395000Y340000I-5000J0D01*G01*
G54D12*X380000Y305000D02*G75*G03X380000Y305000I0J10000D01*G01*
X410000Y365000D02*X420000D01*
X410000Y355000D02*X420000D01*
G75*G03X420000Y365000I0J5000D01*G01*
X410000D02*G75*G03X410000Y355000I0J-5000D01*G01*
X425000Y290000D02*Y280000D01*
X415000Y290000D02*Y280000D01*
G75*G03X425000Y280000I5000J0D01*G01*
Y290000D02*G75*G03X415000Y290000I-5000J0D01*G01*
X350000Y365000D02*X360000D01*
X350000Y355000D02*X360000D01*
G75*G03X360000Y365000I0J5000D01*G01*
X350000D02*G75*G03X350000Y355000I0J-5000D01*G01*
X285000Y345000D02*X315000D01*
X245000D02*X275000D01*
X315000D02*Y185000D01*
X245000D02*X315000D01*
X245000Y345000D02*Y185000D01*
X275000Y345000D02*G75*G03X285000Y345000I5000J0D01*G01*
X25000Y550000D02*G75*G03X25000Y550000I10000J0D01*G01*
X95500Y480000D02*G75*G03X95500Y480000I-42000J0D01*G01*
X77000Y562000D02*Y556000D01*
X63000Y562000D02*Y556000D01*
G54D11*X50000D02*Y562000D01*
X90000Y556000D02*X50000D01*
X90000Y562000D02*Y556000D01*
X50000Y562000D02*X90000D01*
X50000Y544000D02*Y562000D01*
X90000Y544000D02*X50000D01*
X90000Y562000D02*Y544000D01*
X50000Y562000D02*X90000D01*
G54D12*X225000Y505000D02*X235000D01*
G54D11*Y510000D02*Y460000D01*
X225000Y510000D02*Y460000D01*
G75*G03X235000Y460000I5000J0D01*G01*
Y510000D02*G75*G03X225000Y510000I-5000J0D01*G01*
G54D12*X205000Y520000D02*G75*G03X205000Y520000I-10000J0D01*G01*
X197500Y492500D02*X202500D01*
X197500D02*Y477500D01*
X202500D01*
Y492500D02*Y477500D01*
X200000D02*Y470000D01*
Y500000D02*Y492500D01*
X207500D02*X212500D01*
X207500D02*Y477500D01*
X212500D01*
Y492500D02*Y477500D01*
X210000D02*Y470000D01*
Y500000D02*Y492500D01*
X207000Y562000D02*Y556000D01*
X193000Y562000D02*Y556000D01*
G54D11*X180000D02*Y562000D01*
X220000Y556000D02*X180000D01*
X220000Y562000D02*Y556000D01*
X180000Y562000D02*X220000D01*
X180000Y544000D02*Y562000D01*
X220000Y544000D02*X180000D01*
X220000Y562000D02*Y544000D01*
X180000Y562000D02*X220000D01*
G54D12*X140000Y565000D02*X150000D01*
X140000Y575000D02*X150000D01*
X140000D02*G75*G03X140000Y565000I0J-5000D01*G01*
X150000D02*G75*G03X150000Y575000I0J5000D01*G01*
X30000Y565000D02*X40000D01*
X30000Y575000D02*X40000D01*
X30000D02*G75*G03X30000Y565000I0J-5000D01*G01*
X40000D02*G75*G03X40000Y575000I0J5000D01*G01*
X62000Y612000D02*X60000Y610000D01*
X62000Y612000D02*Y608000D01*
X60000Y610000D02*X62000Y608000D01*
X60000Y610000D02*X66000D01*
Y636000D02*Y610000D01*
X42000Y612000D02*X66000Y636000D01*
X61000Y604000D02*X58000Y601000D01*
Y607000D02*X61000Y604000D01*
X58000Y616000D02*Y607000D01*
X68000Y603000D02*X61000Y596000D01*
X68000Y603000D02*X72000D01*
Y621000D02*Y603000D01*
X68000Y621000D02*Y603000D01*
X41000Y593000D02*X79000D01*
X41000Y640000D02*X79000D01*
X41000Y650000D02*Y593000D01*
X79000Y650000D02*Y593000D01*
X41000Y650000D02*X79000D01*
X70000Y623000D02*G75*G03X68000Y621000I0J-2000D01*G01*
X72000D02*G75*G03X70000Y623000I-2000J0D01*G01*
X125000Y595000D02*X135000D01*
Y635000D02*Y595000D01*
X105000D02*X115000D01*
X105000Y635000D02*Y595000D01*
X117500Y640000D02*X122500D01*
X120000D02*Y635000D01*
X20000Y563300D02*Y550000D01*
Y590000D02*Y576700D01*
Y563300D02*X13400Y576700D01*
X26600D01*
X20000Y563300D01*
X13400D02*X26600D01*
X170000Y465000D02*X180000D01*
X170000Y455000D02*X180000D01*
G75*G03X180000Y465000I0J5000D01*G01*
X170000D02*G75*G03X170000Y455000I0J-5000D01*G01*
X155000Y500000D02*Y490000D01*
X145000Y500000D02*Y490000D01*
G75*G03X155000Y490000I5000J0D01*G01*
Y500000D02*G75*G03X145000Y500000I-5000J0D01*G01*
X125000Y475000D02*Y465000D01*
Y475000D02*X135000D01*
X125000Y465000D02*X135000D01*
X125000Y505000D02*Y465000D01*
Y505000D02*X135000D01*
Y465000D01*
X155000Y505000D02*Y465000D01*
X195000D01*
Y505000D02*Y465000D01*
X155000Y505000D02*X170000D01*
X180000D02*X195000D01*
X170000D02*G75*G03X180000Y505000I5000J0D01*G01*
X225000Y605000D02*X235000D01*
X225000Y615000D02*Y605000D01*
X235000Y615000D02*Y605000D01*
X175000D02*X235000D01*
X175000Y615000D02*Y605000D01*
Y615000D02*X235000D01*
X331500Y600000D02*X393500D01*
X331500Y640000D02*X393500D01*
X331500D02*Y600000D01*
X393500Y640000D02*Y600000D01*
X431500D02*X493500D01*
X431500Y640000D02*X493500D01*
X431500D02*Y600000D01*
X493500Y640000D02*Y600000D01*
G54D11*X259941Y598150D02*X315059D01*
Y648937D02*Y598150D01*
X259941Y648937D02*Y598150D01*
Y648937D02*X315059D01*
G54D12*X259941Y641063D02*X315059D01*
X475000Y560000D02*G75*G03X475000Y560000I10000J0D01*G01*
X425000Y550000D02*G75*G03X425000Y550000I0J20000D01*G01*
X450000Y547500D02*Y540000D01*
Y570000D02*Y562500D01*
X447500D02*Y547500D01*
Y562500D02*X452500D01*
Y547500D01*
X447500D02*X452500D01*
X457500D02*X462500D01*
Y562500D02*Y547500D01*
X457500Y562500D02*X462500D01*
X457500D02*Y547500D01*
X460000Y570000D02*Y562500D01*
Y547500D02*Y540000D01*
X377500Y552500D02*Y547500D01*
X392500D01*
Y552500D02*Y547500D01*
X377500Y552500D02*X392500D01*
Y550000D02*X400000D01*
X370000D02*X377500D01*
X362500Y542500D02*Y537500D01*
X347500Y542500D02*X362500D01*
X347500D02*Y537500D01*
X362500D01*
X340000Y540000D02*X347500D01*
X362500D02*X370000D01*
X392500Y562500D02*Y557500D01*
X377500Y562500D02*X392500D01*
X377500D02*Y557500D01*
X392500D01*
X370000Y560000D02*X377500D01*
X392500D02*X400000D01*
X515000Y510000D02*Y500000D01*
X505000Y510000D02*Y500000D01*
G75*G03X515000Y500000I5000J0D01*G01*
Y510000D02*G75*G03X505000Y510000I-5000J0D01*G01*
X365000Y560000D02*Y550000D01*
X355000Y560000D02*Y550000D01*
G75*G03X365000Y550000I5000J0D01*G01*
Y560000D02*G75*G03X355000Y560000I-5000J0D01*G01*
X350000Y465000D02*X360000D01*
X350000Y455000D02*X360000D01*
G75*G03X360000Y465000I0J5000D01*G01*
X350000D02*G75*G03X350000Y455000I0J-5000D01*G01*
X360000Y535000D02*X375000D01*
X335000D02*X350000D01*
X375000Y465000D02*Y535000D01*
X335000Y465000D02*X375000D01*
X335000Y535000D02*Y465000D01*
X350000Y535000D02*G75*G03X360000Y535000I5000J0D01*G01*
Y445000D02*X375000D01*
X335000D02*X350000D01*
X375000Y365000D02*Y445000D01*
X335000Y365000D02*X375000D01*
X335000Y445000D02*Y365000D01*
X350000Y445000D02*G75*G03X360000Y445000I5000J0D01*G01*
X285000Y565000D02*X315000D01*
X245000D02*X275000D01*
X315000Y365000D02*Y565000D01*
X245000Y365000D02*X315000D01*
X245000Y565000D02*Y365000D01*
X275000Y565000D02*G75*G03X285000Y565000I5000J0D01*G01*
X410000Y465000D02*X420000D01*
X410000Y455000D02*X420000D01*
G75*G03X420000Y465000I0J5000D01*G01*
X410000D02*G75*G03X410000Y455000I0J-5000D01*G01*
X395000Y535000D02*Y465000D01*
X435000D01*
Y535000D01*
X395000D02*X410000D01*
X420000D02*X435000D01*
X410000D02*G75*G03X420000Y535000I5000J0D01*G01*
Y445000D02*X435000D01*
X395000D02*X410000D01*
X435000Y365000D02*Y445000D01*
X395000Y365000D02*X435000D01*
X395000Y445000D02*Y365000D01*
X410000Y445000D02*G75*G03X420000Y445000I5000J0D01*G01*
X455000Y365000D02*X525000D01*
Y405000D02*Y365000D01*
X455000Y405000D02*X525000D01*
X455000Y380000D02*Y365000D01*
Y405000D02*Y390000D01*
Y380000D02*G75*G03X455000Y390000I0J5000D01*G01*
X480000Y495000D02*X495000D01*
X455000D02*X470000D01*
X495000Y425000D02*Y495000D01*
X455000Y425000D02*X495000D01*
X455000Y495000D02*Y425000D01*
X470000Y495000D02*G75*G03X480000Y495000I5000J0D01*G01*
X463000Y513000D02*X477000D01*
X477071Y512929D02*G75*G03X462928Y512928I-7071J7071D01*G01*
X135000Y550000D02*G75*G03X135000Y550000I10000J0D01*G01*
X120000Y255000D02*X135000D01*
X95000D02*X110000D01*
X135000Y185000D02*Y255000D01*
X95000Y185000D02*X135000D01*
X95000Y255000D02*Y185000D01*
X110000Y255000D02*G75*G03X120000Y255000I5000J0D01*G01*
X195000Y325000D02*X225000D01*
X155000D02*X185000D01*
X225000Y185000D02*Y325000D01*
X155000Y185000D02*X225000D01*
X155000Y325000D02*Y185000D01*
X185000Y325000D02*G75*G03X195000Y325000I5000J0D01*G01*
X120000Y345000D02*X135000D01*
X95000D02*X110000D01*
X135000Y265000D02*Y345000D01*
X95000Y265000D02*X135000D01*
X95000Y345000D02*Y265000D01*
X110000Y345000D02*G75*G03X120000Y345000I5000J0D01*G01*
X155000Y445000D02*Y365000D01*
X195000D01*
Y445000D01*
X155000D02*X170000D01*
X180000D02*X195000D01*
X170000D02*G75*G03X180000Y445000I5000J0D01*G01*
X207500Y397500D02*X212500D01*
Y412500D02*Y397500D01*
X207500Y412500D02*X212500D01*
X207500D02*Y397500D01*
X210000Y420000D02*Y412500D01*
Y397500D02*Y390000D01*
X207500Y437500D02*X212500D01*
Y452500D02*Y437500D01*
X207500Y452500D02*X212500D01*
X207500D02*Y437500D01*
X210000Y460000D02*Y452500D01*
Y437500D02*Y430000D01*
X225000Y435000D02*X235000D01*
G54D11*Y440000D02*Y390000D01*
X225000Y440000D02*Y390000D01*
G75*G03X235000Y390000I5000J0D01*G01*
Y440000D02*G75*G03X225000Y440000I-5000J0D01*G01*
G54D12*X245000Y380000D02*Y370000D01*
X235000Y380000D02*Y370000D01*
G75*G03X245000Y370000I5000J0D01*G01*
Y380000D02*G75*G03X235000Y380000I-5000J0D01*G01*
X170000Y365000D02*X180000D01*
X170000Y355000D02*X180000D01*
G75*G03X180000Y365000I0J5000D01*G01*
X170000D02*G75*G03X170000Y355000I0J-5000D01*G01*
X20000Y135000D02*X30000D01*
X20000Y145000D02*X30000D01*
X20000D02*G75*G03X20000Y135000I0J-5000D01*G01*
X30000D02*G75*G03X30000Y145000I0J5000D01*G01*
X55000Y120000D02*Y100000D01*
X45000Y120000D02*Y100000D01*
X55000Y120000D02*G75*G03X45000Y120000I-5000J0D01*G01*
Y100000D02*G75*G03X55000Y100000I5000J0D01*G01*
X17500Y102500D02*Y97500D01*
X32500D01*
Y102500D02*Y97500D01*
X17500Y102500D02*X32500D01*
Y100000D02*X40000D01*
X10000D02*X17500D01*
Y122500D02*Y117500D01*
X32500D01*
Y122500D02*Y117500D01*
X17500Y122500D02*X32500D01*
Y120000D02*X40000D01*
X10000D02*X17500D01*
X110000Y265000D02*X120000D01*
X110000Y255000D02*X120000D01*
G75*G03X120000Y265000I0J5000D01*G01*
X110000D02*G75*G03X110000Y255000I0J-5000D01*G01*
Y185000D02*X120000D01*
X110000Y175000D02*X120000D01*
G75*G03X120000Y185000I0J5000D01*G01*
X110000D02*G75*G03X110000Y175000I0J-5000D01*G01*
X5000Y345000D02*Y145000D01*
X75000D01*
Y345000D01*
X5000D02*X35000D01*
X45000D02*X75000D01*
X35000D02*G75*G03X45000Y345000I5000J0D01*G01*
G54D11*X130000Y145000D02*X230000D01*
X130000Y135000D02*X230000D01*
G54D12*X225000Y145000D02*Y135000D01*
G54D11*X230000D02*G75*G03X230000Y145000I0J5000D01*G01*
X130000D02*G75*G03X130000Y135000I0J-5000D01*G01*
G54D12*X123898Y113385D02*X236102D01*
X123898D02*Y102952D01*
Y93110D02*Y80118D01*
Y73425D02*Y43031D01*
Y34370D02*Y0D01*
X236102Y113385D02*Y102952D01*
Y93110D02*Y42125D01*
Y32283D02*Y0D01*
X123898D02*X140630D01*
X219370D02*X236102D01*
X219370D02*G75*G03X140630Y0I-39370J0D01*G01*
X287500Y57500D02*X292500D01*
Y72500D02*Y57500D01*
X287500Y72500D02*X292500D01*
X287500D02*Y57500D01*
X290000Y80000D02*Y72500D01*
Y57500D02*Y50000D01*
X297500Y57500D02*X302500D01*
Y72500D02*Y57500D01*
X297500Y72500D02*X302500D01*
X297500D02*Y57500D01*
X300000Y80000D02*Y72500D01*
Y57500D02*Y50000D01*
X280586Y35587D02*G75*G03X269413Y35586I-5586J-5586D01*G01*
X269413Y24414D02*G75*G03X280586Y24413I5586J5586D01*G01*
X279171Y34172D02*G75*G03X270828Y34171I-4171J-4171D01*G01*
X270828Y25829D02*G75*G03X279171Y25828I4171J4171D01*G01*
X320586Y35587D02*G75*G03X309413Y35586I-5586J-5586D01*G01*
X309413Y24414D02*G75*G03X320586Y24413I5586J5586D01*G01*
X319171Y34172D02*G75*G03X310828Y34171I-4171J-4171D01*G01*
X310828Y25829D02*G75*G03X319171Y25828I4171J4171D01*G01*
X355000Y52500D02*Y22500D01*
X365000D01*
Y52500D01*
X355000D01*
X280000Y115000D02*X310000D01*
X280000D02*Y105000D01*
X310000D01*
Y115000D02*Y105000D01*
X70000Y125000D02*X80000D01*
X70000Y115000D02*X80000D01*
G75*G03X80000Y125000I0J5000D01*G01*
X70000D02*G75*G03X70000Y115000I0J-5000D01*G01*
Y105000D02*X80000D01*
X70000Y95000D02*X80000D01*
G75*G03X80000Y105000I0J5000D01*G01*
X70000D02*G75*G03X70000Y95000I0J-5000D01*G01*
X57500Y47500D02*X62500D01*
Y62500D02*Y47500D01*
X57500Y62500D02*X62500D01*
X57500D02*Y47500D01*
X60000Y70000D02*Y62500D01*
Y47500D02*Y40000D01*
X77500Y62500D02*X82500D01*
X77500D02*Y47500D01*
X82500D01*
Y62500D02*Y47500D01*
X80000D02*Y40000D01*
Y70000D02*Y62500D01*
X97500D02*X102500D01*
X97500D02*Y47500D01*
X102500D01*
Y62500D02*Y47500D01*
X100000D02*Y40000D01*
Y70000D02*Y62500D01*
X50586Y35587D02*G75*G03X39413Y35586I-5586J-5586D01*G01*
X39413Y24414D02*G75*G03X50586Y24413I5586J5586D01*G01*
X49171Y34172D02*G75*G03X40828Y34171I-4171J-4171D01*G01*
X40828Y25829D02*G75*G03X49171Y25828I4171J4171D01*G01*
X95586Y35587D02*G75*G03X84413Y35586I-5586J-5586D01*G01*
X84413Y24414D02*G75*G03X95586Y24413I5586J5586D01*G01*
X94171Y34172D02*G75*G03X85828Y34171I-4171J-4171D01*G01*
X85828Y25829D02*G75*G03X94171Y25828I4171J4171D01*G01*
X415236Y36358D02*X419173D01*
X417205Y38327D02*Y34390D01*
X429016Y40295D02*Y32421D01*
X408346Y48169D02*X425079D01*
X408346Y24547D02*X425079D01*
X405394Y40295D02*Y32421D01*
X424094Y36358D02*G75*G03X417204Y43248I-6890J0D01*G01*
X417205Y29469D02*G75*G03X424094Y36358I0J6889D01*G01*
X410315D02*G75*G03X417204Y29469I6889J0D01*G01*
X417205Y43248D02*G75*G03X410315Y36358I0J-6890D01*G01*
X180000Y185000D02*X190000D01*
X180000Y175000D02*X190000D01*
G75*G03X190000Y185000I0J5000D01*G01*
X180000D02*G75*G03X180000Y175000I0J-5000D01*G01*
X270000Y185000D02*X280000D01*
X270000Y175000D02*X280000D01*
G75*G03X280000Y185000I0J5000D01*G01*
X270000D02*G75*G03X270000Y175000I0J-5000D01*G01*
X425000Y345000D02*Y145000D01*
X495000D01*
Y345000D01*
X425000D02*X455000D01*
X465000D02*X495000D01*
X455000D02*G75*G03X465000Y345000I5000J0D01*G01*
X345000Y335000D02*Y345000D01*
X335000Y335000D02*X345000D01*
X355000Y345000D02*X335000D01*
X355000Y175000D02*Y345000D01*
X335000Y175000D02*X355000D01*
X335000Y345000D02*Y175000D01*
X164000Y178500D02*X165500D01*
X163500Y179000D02*X164000Y178500D01*
X163500Y182000D02*Y179000D01*
Y182000D02*X164000Y182500D01*
X165500D01*
X166701Y182000D02*X167201Y182500D01*
X168701D01*
X169201Y182000D01*
Y181000D01*
X166701Y178500D02*X169201Y181000D01*
X166701Y178500D02*X169201D01*
X170402Y182000D02*X170902Y182500D01*
X172402D01*
X172902Y182000D01*
Y181000D01*
X170402Y178500D02*X172902Y181000D01*
X170402Y178500D02*X172902D01*
X89000Y118500D02*X90500D01*
X88500Y119000D02*X89000Y118500D01*
X88500Y122000D02*Y119000D01*
Y122000D02*X89000Y122500D01*
X90500D01*
X91701Y119000D02*X92201Y118500D01*
X91701Y120000D02*Y119000D01*
Y120000D02*X92201Y120500D01*
X93201D01*
X93701Y120000D01*
Y119000D01*
X93201Y118500D02*X93701Y119000D01*
X92201Y118500D02*X93201D01*
X91701Y121000D02*X92201Y120500D01*
X91701Y122000D02*Y121000D01*
Y122000D02*X92201Y122500D01*
X93201D01*
X93701Y122000D01*
Y121000D01*
X93201Y120500D02*X93701Y121000D01*
X89000Y98500D02*X90500D01*
X88500Y99000D02*X89000Y98500D01*
X88500Y102000D02*Y99000D01*
Y102000D02*X89000Y102500D01*
X90500D01*
X91701Y98500D02*X93701Y100500D01*
Y102000D02*Y100500D01*
X93201Y102500D02*X93701Y102000D01*
X92201Y102500D02*X93201D01*
X91701Y102000D02*X92201Y102500D01*
X91701Y102000D02*Y101000D01*
X92201Y100500D01*
X93701D01*
X94000Y178500D02*X95500D01*
X93500Y179000D02*X94000Y178500D01*
X93500Y182000D02*Y179000D01*
Y182000D02*X94000Y182500D01*
X95500D01*
X96701Y182000D02*X97201Y182500D01*
X98701D01*
X99201Y182000D01*
Y181000D01*
X96701Y178500D02*X99201Y181000D01*
X96701Y178500D02*X99201D01*
X101902Y182500D02*X102402Y182000D01*
X100902Y182500D02*X101902D01*
X100402Y182000D02*X100902Y182500D01*
X100402Y182000D02*Y179000D01*
X100902Y178500D01*
X101902Y180500D02*X102402Y180000D01*
X100402Y180500D02*X101902D01*
X100902Y178500D02*X101902D01*
X102402Y179000D01*
Y180000D02*Y179000D01*
X77000Y79500D02*X79000D01*
X79500Y79000D01*
Y78000D01*
X79000Y77500D02*X79500Y78000D01*
X77500Y77500D02*X79000D01*
X77500Y79500D02*Y75500D01*
Y77500D02*X79500Y75500D01*
X80701Y79000D02*X81201Y79500D01*
X82701D01*
X83201Y79000D01*
Y78000D01*
X80701Y75500D02*X83201Y78000D01*
X80701Y75500D02*X83201D01*
X97000Y79500D02*X99000D01*
X99500Y79000D01*
Y78000D01*
X99000Y77500D02*X99500Y78000D01*
X97500Y77500D02*X99000D01*
X97500Y79500D02*Y75500D01*
Y77500D02*X99500Y75500D01*
X101201D02*X102201D01*
X101701Y79500D02*Y75500D01*
X100701Y78500D02*X101701Y79500D01*
X254000Y178500D02*X255500D01*
X253500Y179000D02*X254000Y178500D01*
X253500Y182000D02*Y179000D01*
Y182000D02*X254000Y182500D01*
X255500D01*
X256701Y182000D02*X257201Y182500D01*
X258701D01*
X259201Y182000D01*
Y181000D01*
X256701Y178500D02*X259201Y181000D01*
X256701Y178500D02*X259201D01*
X260902D02*X261902D01*
X261402Y182500D02*Y178500D01*
X260402Y181500D02*X261402Y182500D01*
X228500Y152500D02*X230000D01*
Y149000D01*
X229500Y148500D02*X230000Y149000D01*
X229000Y148500D02*X229500D01*
X228500Y149000D02*X229000Y148500D01*
X231201D02*X233701Y151000D01*
Y152500D02*Y151000D01*
X231201Y152500D02*X233701D01*
X89500Y345000D02*X93000D01*
X89500D02*X89000Y344500D01*
Y343500D01*
X89500Y343000D01*
X93000D01*
X89000Y341299D02*Y340299D01*
Y340799D02*X93000D01*
X92000Y341799D02*X93000Y340799D01*
X92500Y339098D02*X93000Y338598D01*
Y337098D01*
X92500Y336598D01*
X91500D02*X92500D01*
X89000Y339098D02*X91500Y336598D01*
X89000Y339098D02*Y336598D01*
X239500Y345000D02*X243000D01*
X239500D02*X239000Y344500D01*
Y343500D01*
X239500Y343000D01*
X243000D01*
X239500Y341799D02*X239000Y341299D01*
X239500Y341799D02*X240500D01*
X241000Y341299D01*
Y340299D01*
X240500Y339799D01*
X239500D02*X240500D01*
X239000Y340299D02*X239500Y339799D01*
X239000Y341299D02*Y340299D01*
X241500Y341799D02*X241000Y341299D01*
X241500Y341799D02*X242500D01*
X243000Y341299D01*
Y340299D01*
X242500Y339799D01*
X241500D02*X242500D01*
X241000Y340299D02*X241500Y339799D01*
X77500Y345000D02*X81000D01*
X77500D02*X77000Y344500D01*
Y343500D01*
X77500Y343000D01*
X81000D01*
X77000Y341299D02*Y340299D01*
Y340799D02*X81000D01*
X80000Y341799D02*X81000Y340799D01*
Y337598D02*X80500Y337098D01*
X81000Y338598D02*Y337598D01*
X80500Y339098D02*X81000Y338598D01*
X77500Y339098D02*X80500D01*
X77500D02*X77000Y338598D01*
X79000Y337598D02*X78500Y337098D01*
X79000Y339098D02*Y337598D01*
X77000Y338598D02*Y337598D01*
X77500Y337098D01*
X78500D01*
X227500Y119000D02*X229000D01*
Y115500D01*
X228500Y115000D02*X229000Y115500D01*
X228000Y115000D02*X228500D01*
X227500Y115500D02*X228000Y115000D01*
X230201Y115500D02*X230701Y115000D01*
X230201Y116500D02*Y115500D01*
Y116500D02*X230701Y117000D01*
X231701D01*
X232201Y116500D01*
Y115500D01*
X231701Y115000D02*X232201Y115500D01*
X230701Y115000D02*X231701D01*
X230201Y117500D02*X230701Y117000D01*
X230201Y118500D02*Y117500D01*
Y118500D02*X230701Y119000D01*
X231701D01*
X232201Y118500D01*
Y117500D01*
X231701Y117000D02*X232201Y117500D01*
X287000Y89500D02*X289000D01*
X289500Y89000D01*
Y88000D01*
X289000Y87500D02*X289500Y88000D01*
X287500Y87500D02*X289000D01*
X287500Y89500D02*Y85500D01*
Y87500D02*X289500Y85500D01*
X290701Y87500D02*X292701Y89500D01*
X290701Y87500D02*X293201D01*
X292701Y89500D02*Y85500D01*
X297000Y89500D02*X299000D01*
X299500Y89000D01*
Y88000D01*
X299000Y87500D02*X299500Y88000D01*
X297500Y87500D02*X299000D01*
X297500Y89500D02*Y85500D01*
Y87500D02*X299500Y85500D01*
X300701Y89500D02*X302701D01*
X300701D02*Y87500D01*
X301201Y88000D01*
X302201D01*
X302701Y87500D01*
Y86000D01*
X302201Y85500D02*X302701Y86000D01*
X301201Y85500D02*X302201D01*
X300701Y86000D02*X301201Y85500D01*
X285500Y32000D02*Y28000D01*
X287000Y32000D02*X287500Y31500D01*
Y28500D01*
X287000Y28000D02*X287500Y28500D01*
X285000Y28000D02*X287000D01*
X285000Y32000D02*X287000D01*
X288701Y31500D02*X289201Y32000D01*
X290201D01*
X290701Y31500D01*
Y28500D01*
X290201Y28000D02*X290701Y28500D01*
X289201Y28000D02*X290201D01*
X288701Y28500D02*X289201Y28000D01*
Y30000D02*X290701D01*
X274500Y112500D02*X275000Y112000D01*
X273000Y112500D02*X274500D01*
X272500Y112000D02*X273000Y112500D01*
X272500Y112000D02*Y111000D01*
X273000Y110500D01*
X274500D01*
X275000Y110000D01*
Y109000D01*
X274500Y108500D02*X275000Y109000D01*
X273000Y108500D02*X274500D01*
X272500Y109000D02*X273000Y108500D01*
X276201Y110500D02*X278201Y112500D01*
X276201Y110500D02*X278701D01*
X278201Y112500D02*Y108500D01*
X154000Y358500D02*X155500D01*
X153500Y359000D02*X154000Y358500D01*
X153500Y362000D02*Y359000D01*
Y362000D02*X154000Y362500D01*
X155500D01*
X156701Y362000D02*X157201Y362500D01*
X158701D01*
X159201Y362000D01*
Y361000D01*
X156701Y358500D02*X159201Y361000D01*
X156701Y358500D02*X159201D01*
X160402D02*X162902Y361000D01*
Y362500D02*Y361000D01*
X160402Y362500D02*X162902D01*
X94000Y258500D02*X95500D01*
X93500Y259000D02*X94000Y258500D01*
X93500Y262000D02*Y259000D01*
Y262000D02*X94000Y262500D01*
X95500D01*
X96701Y262000D02*X97201Y262500D01*
X98701D01*
X99201Y262000D01*
Y261000D01*
X96701Y258500D02*X99201Y261000D01*
X96701Y258500D02*X99201D01*
X100402Y262500D02*X102402D01*
X100402D02*Y260500D01*
X100902Y261000D01*
X101902D01*
X102402Y260500D01*
Y259000D01*
X101902Y258500D02*X102402Y259000D01*
X100902Y258500D02*X101902D01*
X100402Y259000D02*X100902Y258500D01*
X149500Y325000D02*X153000D01*
X149500D02*X149000Y324500D01*
Y323500D01*
X149500Y323000D01*
X153000D01*
X149000Y321799D02*X151000Y319799D01*
X152500D01*
X153000Y320299D02*X152500Y319799D01*
X153000Y321299D02*Y320299D01*
X152500Y321799D02*X153000Y321299D01*
X151500Y321799D02*X152500D01*
X151500D02*X151000Y321299D01*
Y319799D01*
X89500Y255000D02*X93000D01*
X89500D02*X89000Y254500D01*
Y253500D01*
X89500Y253000D01*
X93000D01*
X89000Y251299D02*Y250299D01*
Y250799D02*X93000D01*
X92000Y251799D02*X93000Y250799D01*
X92500Y249098D02*X93000Y248598D01*
Y247598D01*
X92500Y247098D01*
X89500D02*X92500D01*
X89000Y247598D02*X89500Y247098D01*
X89000Y248598D02*Y247598D01*
X89500Y249098D02*X89000Y248598D01*
X91000D02*Y247098D01*
X4000Y138500D02*X5500D01*
X3500Y139000D02*X4000Y138500D01*
X3500Y142000D02*Y139000D01*
Y142000D02*X4000Y142500D01*
X5500D01*
X6701Y142000D02*X7201Y142500D01*
X8701D01*
X9201Y142000D01*
Y141000D01*
X6701Y138500D02*X9201Y141000D01*
X6701Y138500D02*X9201D01*
X10402D02*X12402Y140500D01*
Y142000D02*Y140500D01*
X11902Y142500D02*X12402Y142000D01*
X10902Y142500D02*X11902D01*
X10402Y142000D02*X10902Y142500D01*
X10402Y142000D02*Y141000D01*
X10902Y140500D01*
X12402D01*
X47500Y89500D02*Y89000D01*
X50000Y86500D01*
Y85500D01*
X47500Y86500D02*Y85500D01*
Y86500D02*X50000Y89000D01*
Y89500D02*Y89000D01*
X51201D02*X51701Y89500D01*
X53201D01*
X53701Y89000D01*
Y88000D01*
X51201Y85500D02*X53701Y88000D01*
X51201Y85500D02*X53701D01*
X57000Y79500D02*X59000D01*
X59500Y79000D01*
Y78000D01*
X59000Y77500D02*X59500Y78000D01*
X57500Y77500D02*X59000D01*
X57500Y79500D02*Y75500D01*
Y77500D02*X59500Y75500D01*
X60701Y79000D02*X61201Y79500D01*
X62201D01*
X62701Y79000D01*
Y76000D01*
X62201Y75500D02*X62701Y76000D01*
X61201Y75500D02*X62201D01*
X60701Y76000D02*X61201Y75500D01*
Y77500D02*X62701D01*
X55500Y32000D02*Y28000D01*
X57000Y32000D02*X57500Y31500D01*
Y28500D01*
X57000Y28000D02*X57500Y28500D01*
X55000Y28000D02*X57000D01*
X55000Y32000D02*X57000D01*
X58701Y31500D02*X59201Y32000D01*
X60701D01*
X61201Y31500D01*
Y30500D01*
X58701Y28000D02*X61201Y30500D01*
X58701Y28000D02*X61201D01*
X70500Y32000D02*Y28000D01*
X72000Y32000D02*X72500Y31500D01*
Y28500D01*
X72000Y28000D02*X72500Y28500D01*
X70000Y28000D02*X72000D01*
X70000Y32000D02*X72000D01*
X73701D02*X75701D01*
X73701D02*Y30000D01*
X74201Y30500D01*
X75201D01*
X75701Y30000D01*
Y28500D01*
X75201Y28000D02*X75701Y28500D01*
X74201Y28000D02*X75201D01*
X73701Y28500D02*X74201Y28000D01*
X584500Y38940D02*X586090D01*
Y35230D01*
X585560Y34700D02*X586090Y35230D01*
X585030Y34700D02*X585560D01*
X584500Y35230D02*X585030Y34700D01*
X587363D02*X589483Y36820D01*
Y38410D02*Y36820D01*
X588953Y38940D02*X589483Y38410D01*
X587893Y38940D02*X588953D01*
X587363Y38410D02*X587893Y38940D01*
X587363Y38410D02*Y37350D01*
X587893Y36820D01*
X589483D01*
X470818Y39434D02*X471318Y38934D01*
X469318Y39434D02*X470818D01*
X468818Y38934D02*X469318Y39434D01*
X468818Y38934D02*Y37934D01*
X469318Y37434D01*
X470818D01*
X471318Y36934D01*
Y35934D01*
X470818Y35434D02*X471318Y35934D01*
X469318Y35434D02*X470818D01*
X468818Y35934D02*X469318Y35434D01*
X472519Y38934D02*X473019Y39434D01*
X474019D01*
X474519Y38934D01*
Y35934D01*
X474019Y35434D02*X474519Y35934D01*
X473019Y35434D02*X474019D01*
X472519Y35934D02*X473019Y35434D01*
Y37434D02*X474519D01*
X22000Y94500D02*X24000D01*
X24500Y94000D01*
Y93000D01*
X24000Y92500D02*X24500Y93000D01*
X22500Y92500D02*X24000D01*
X22500Y94500D02*Y90500D01*
Y92500D02*X24500Y90500D01*
X26201D02*X27201D01*
X26701Y94500D02*Y90500D01*
X25701Y93500D02*X26701Y94500D01*
X28902Y90500D02*X29902D01*
X29402Y94500D02*Y90500D01*
X28402Y93500D02*X29402Y94500D01*
X22000Y114500D02*X24000D01*
X24500Y114000D01*
Y113000D01*
X24000Y112500D02*X24500Y113000D01*
X22500Y112500D02*X24000D01*
X22500Y114500D02*Y110500D01*
Y112500D02*X24500Y110500D01*
X26201D02*X27201D01*
X26701Y114500D02*Y110500D01*
X25701Y113500D02*X26701Y114500D01*
X28402Y111000D02*X28902Y110500D01*
X28402Y114000D02*Y111000D01*
Y114000D02*X28902Y114500D01*
X29902D01*
X30402Y114000D01*
Y111000D01*
X29902Y110500D02*X30402Y111000D01*
X28902Y110500D02*X29902D01*
X28402Y111500D02*X30402Y113500D01*
X298000Y32000D02*Y28000D01*
X299500Y32000D02*X300000Y31500D01*
Y28500D01*
X299500Y28000D02*X300000Y28500D01*
X297500Y28000D02*X299500D01*
X297500Y32000D02*X299500D01*
X301201Y30000D02*X303201Y32000D01*
X301201Y30000D02*X303701D01*
X303201Y32000D02*Y28000D01*
X349000Y39500D02*X349500Y39000D01*
X347500Y39500D02*X349000D01*
X347000Y39000D02*X347500Y39500D01*
X347000Y39000D02*Y38000D01*
X347500Y37500D01*
X349000D01*
X349500Y37000D01*
Y36000D01*
X349000Y35500D02*X349500Y36000D01*
X347500Y35500D02*X349000D01*
X347000Y36000D02*X347500Y35500D01*
X350701Y39500D02*X352701D01*
X350701D02*Y37500D01*
X351201Y38000D01*
X352201D01*
X352701Y37500D01*
Y36000D01*
X352201Y35500D02*X352701Y36000D01*
X351201Y35500D02*X352201D01*
X350701Y36000D02*X351201Y35500D01*
X397000Y39434D02*X397500Y38934D01*
X395500Y39434D02*X397000D01*
X395000Y38934D02*X395500Y39434D01*
X395000Y38934D02*Y37934D01*
X395500Y37434D01*
X397000D01*
X397500Y36934D01*
Y35934D01*
X397000Y35434D02*X397500Y35934D01*
X395500Y35434D02*X397000D01*
X395000Y35934D02*X395500Y35434D01*
X398701Y38934D02*X399201Y39434D01*
X400701D01*
X401201Y38934D01*
Y37934D01*
X398701Y35434D02*X401201Y37934D01*
X398701Y35434D02*X401201D01*
X514000Y168500D02*X515500D01*
X513500Y169000D02*X514000Y168500D01*
X513500Y172000D02*Y169000D01*
Y172000D02*X514000Y172500D01*
X515500D01*
X516701Y172000D02*X517201Y172500D01*
X518201D01*
X518701Y172000D01*
Y169000D01*
X518201Y168500D02*X518701Y169000D01*
X517201Y168500D02*X518201D01*
X516701Y169000D02*X517201Y168500D01*
Y170500D02*X518701D01*
X519902Y172000D02*X520402Y172500D01*
X521902D01*
X522402Y172000D01*
Y171000D01*
X519902Y168500D02*X522402Y171000D01*
X519902Y168500D02*X522402D01*
X574000D02*X575500D01*
X573500Y169000D02*X574000Y168500D01*
X573500Y172000D02*Y169000D01*
Y172000D02*X574000Y172500D01*
X575500D01*
X576701Y172000D02*X577201Y172500D01*
X578201D01*
X578701Y172000D01*
Y169000D01*
X578201Y168500D02*X578701Y169000D01*
X577201Y168500D02*X578201D01*
X576701Y169000D02*X577201Y168500D01*
Y170500D02*X578701D01*
X580402Y168500D02*X581402D01*
X580902Y172500D02*Y168500D01*
X579902Y171500D02*X580902Y172500D01*
X866100Y39640D02*X867690D01*
Y35930D01*
X867160Y35400D02*X867690Y35930D01*
X866630Y35400D02*X867160D01*
X866100Y35930D02*X866630Y35400D01*
X869493D02*X870553D01*
X870023Y39640D02*Y35400D01*
X868963Y38580D02*X870023Y39640D01*
X871826Y35930D02*X872356Y35400D01*
X871826Y39110D02*Y35930D01*
Y39110D02*X872356Y39640D01*
X873416D01*
X873946Y39110D01*
Y35930D01*
X873416Y35400D02*X873946Y35930D01*
X872356Y35400D02*X873416D01*
X871826Y36460D02*X873946Y38580D01*
X429000Y358500D02*X430500D01*
X428500Y359000D02*X429000Y358500D01*
X428500Y362000D02*Y359000D01*
Y362000D02*X429000Y362500D01*
X430500D01*
X431701Y362000D02*X432201Y362500D01*
X433701D01*
X434201Y362000D01*
Y361000D01*
X431701Y358500D02*X434201Y361000D01*
X431701Y358500D02*X434201D01*
X435402Y362000D02*X435902Y362500D01*
X436902D01*
X437402Y362000D01*
Y359000D01*
X436902Y358500D02*X437402Y359000D01*
X435902Y358500D02*X436902D01*
X435402Y359000D02*X435902Y358500D01*
Y360500D02*X437402D01*
X454000Y418500D02*X455500D01*
X453500Y419000D02*X454000Y418500D01*
X453500Y422000D02*Y419000D01*
Y422000D02*X454000Y422500D01*
X455500D01*
X456701Y422000D02*X457201Y422500D01*
X458201D01*
X458701Y422000D01*
Y419000D01*
X458201Y418500D02*X458701Y419000D01*
X457201Y418500D02*X458201D01*
X456701Y419000D02*X457201Y418500D01*
Y420500D02*X458701D01*
X459902D02*X461902Y422500D01*
X459902Y420500D02*X462402D01*
X461902Y422500D02*Y418500D01*
X514000Y348500D02*X515500D01*
X513500Y349000D02*X514000Y348500D01*
X513500Y352000D02*Y349000D01*
Y352000D02*X514000Y352500D01*
X515500D01*
X517201Y348500D02*X518201D01*
X517701Y352500D02*Y348500D01*
X516701Y351500D02*X517701Y352500D01*
X520902D02*X521402Y352000D01*
X519902Y352500D02*X520902D01*
X519402Y352000D02*X519902Y352500D01*
X519402Y352000D02*Y349000D01*
X519902Y348500D01*
X520902Y350500D02*X521402Y350000D01*
X519402Y350500D02*X520902D01*
X519902Y348500D02*X520902D01*
X521402Y349000D01*
Y350000D02*Y349000D01*
X537500Y410500D02*Y406500D01*
X539000Y410500D02*X539500Y410000D01*
Y407000D01*
X539000Y406500D02*X539500Y407000D01*
X537000Y406500D02*X539000D01*
X537000Y410500D02*X539000D01*
X542201D02*X542701Y410000D01*
X541201Y410500D02*X542201D01*
X540701Y410000D02*X541201Y410500D01*
X540701Y410000D02*Y407000D01*
X541201Y406500D01*
X542201Y408500D02*X542701Y408000D01*
X540701Y408500D02*X542201D01*
X541201Y406500D02*X542201D01*
X542701Y407000D01*
Y408000D02*Y407000D01*
X547500Y410500D02*Y406500D01*
X549000Y410500D02*X549500Y410000D01*
Y407000D01*
X549000Y406500D02*X549500Y407000D01*
X547000Y406500D02*X549000D01*
X547000Y410500D02*X549000D01*
X550701Y406500D02*X553201Y409000D01*
Y410500D02*Y409000D01*
X550701Y410500D02*X553201D01*
X664000Y358500D02*X665500D01*
X663500Y359000D02*X664000Y358500D01*
X663500Y362000D02*Y359000D01*
Y362000D02*X664000Y362500D01*
X665500D01*
X666701Y362000D02*X667201Y362500D01*
X668201D01*
X668701Y362000D01*
Y359000D01*
X668201Y358500D02*X668701Y359000D01*
X667201Y358500D02*X668201D01*
X666701Y359000D02*X667201Y358500D01*
Y360500D02*X668701D01*
X669902Y359000D02*X670402Y358500D01*
X669902Y360000D02*Y359000D01*
Y360000D02*X670402Y360500D01*
X671402D01*
X671902Y360000D01*
Y359000D01*
X671402Y358500D02*X671902Y359000D01*
X670402Y358500D02*X671402D01*
X669902Y361000D02*X670402Y360500D01*
X669902Y362000D02*Y361000D01*
Y362000D02*X670402Y362500D01*
X671402D01*
X671902Y362000D01*
Y361000D01*
X671402Y360500D02*X671902Y361000D01*
X659500Y345000D02*X663000D01*
X659500D02*X659000Y344500D01*
Y343500D01*
X659500Y343000D01*
X663000D01*
X662500Y341799D02*X663000Y341299D01*
Y339799D01*
X662500Y339299D01*
X661500D02*X662500D01*
X659000Y341799D02*X661500Y339299D01*
X659000Y341799D02*Y339299D01*
X659500Y338098D02*X659000Y337598D01*
X659500Y338098D02*X662500D01*
X663000Y337598D01*
Y336598D01*
X662500Y336098D01*
X659500D02*X662500D01*
X659000Y336598D02*X659500Y336098D01*
X659000Y337598D02*Y336598D01*
X660000Y338098D02*X662000Y336098D01*
X654500Y301500D02*X656500D01*
X657000Y301000D01*
Y300000D01*
X656500Y299500D02*X657000Y300000D01*
X655000Y299500D02*X656500D01*
X655000Y301500D02*Y297500D01*
Y299500D02*X657000Y297500D01*
X658201D02*X660201Y299500D01*
Y301000D02*Y299500D01*
X659701Y301500D02*X660201Y301000D01*
X658701Y301500D02*X659701D01*
X658201Y301000D02*X658701Y301500D01*
X658201Y301000D02*Y300000D01*
X658701Y299500D01*
X660201D01*
X646500Y348500D02*X648500D01*
X649000Y348000D01*
Y347000D01*
X648500Y346500D02*X649000Y347000D01*
X647000Y346500D02*X648500D01*
X647000Y348500D02*Y344500D01*
Y346500D02*X649000Y344500D01*
X650201Y345000D02*X650701Y344500D01*
X650201Y346000D02*Y345000D01*
Y346000D02*X650701Y346500D01*
X651701D01*
X652201Y346000D01*
Y345000D01*
X651701Y344500D02*X652201Y345000D01*
X650701Y344500D02*X651701D01*
X650201Y347000D02*X650701Y346500D01*
X650201Y348000D02*Y347000D01*
Y348000D02*X650701Y348500D01*
X651701D01*
X652201Y348000D01*
Y347000D01*
X651701Y346500D02*X652201Y347000D01*
X604000Y358500D02*X605500D01*
X603500Y359000D02*X604000Y358500D01*
X603500Y362000D02*Y359000D01*
Y362000D02*X604000Y362500D01*
X605500D01*
X606701Y362000D02*X607201Y362500D01*
X608201D01*
X608701Y362000D01*
Y359000D01*
X608201Y358500D02*X608701Y359000D01*
X607201Y358500D02*X608201D01*
X606701Y359000D02*X607201Y358500D01*
Y360500D02*X608701D01*
X609902Y358500D02*X612402Y361000D01*
Y362500D02*Y361000D01*
X609902Y362500D02*X612402D01*
X574000Y348500D02*X575500D01*
X573500Y349000D02*X574000Y348500D01*
X573500Y352000D02*Y349000D01*
Y352000D02*X574000Y352500D01*
X575500D01*
X576701Y352000D02*X577201Y352500D01*
X578201D01*
X578701Y352000D01*
Y349000D01*
X578201Y348500D02*X578701Y349000D01*
X577201Y348500D02*X578201D01*
X576701Y349000D02*X577201Y348500D01*
Y350500D02*X578701D01*
X579902Y349000D02*X580402Y348500D01*
X579902Y352000D02*Y349000D01*
Y352000D02*X580402Y352500D01*
X581402D01*
X581902Y352000D01*
Y349000D01*
X581402Y348500D02*X581902Y349000D01*
X580402Y348500D02*X581402D01*
X579902Y349500D02*X581902Y351500D01*
X754000Y398500D02*X755500D01*
X753500Y399000D02*X754000Y398500D01*
X753500Y402000D02*Y399000D01*
Y402000D02*X754000Y402500D01*
X755500D01*
X756701Y400500D02*X758701Y402500D01*
X756701Y400500D02*X759201D01*
X758701Y402500D02*Y398500D01*
X760402Y402000D02*X760902Y402500D01*
X762402D01*
X762902Y402000D01*
Y401000D01*
X760402Y398500D02*X762902Y401000D01*
X760402Y398500D02*X762902D01*
X704000Y348500D02*X705500D01*
X703500Y349000D02*X704000Y348500D01*
X703500Y352000D02*Y349000D01*
Y352000D02*X704000Y352500D01*
X705500D01*
X706701Y352000D02*X707201Y352500D01*
X708201D01*
X708701Y352000D01*
Y349000D01*
X708201Y348500D02*X708701Y349000D01*
X707201Y348500D02*X708201D01*
X706701Y349000D02*X707201Y348500D01*
Y350500D02*X708701D01*
X709902Y352000D02*X710402Y352500D01*
X711402D01*
X711902Y352000D01*
Y349000D01*
X711402Y348500D02*X711902Y349000D01*
X710402Y348500D02*X711402D01*
X709902Y349000D02*X710402Y348500D01*
Y350500D02*X711902D01*
X749500Y385000D02*X753000D01*
X749500D02*X749000Y384500D01*
Y383500D01*
X749500Y383000D01*
X753000D01*
X752500Y381799D02*X753000Y381299D01*
Y379799D01*
X752500Y379299D01*
X751500D02*X752500D01*
X749000Y381799D02*X751500Y379299D01*
X749000Y381799D02*Y379299D01*
Y378098D02*X751500Y375598D01*
X753000D01*
Y378098D02*Y375598D01*
X627500Y278000D02*X629000D01*
X627000Y278500D02*X627500Y278000D01*
X627000Y281500D02*Y278500D01*
Y281500D02*X627500Y282000D01*
X629000D01*
X630201Y278000D02*X632701Y280500D01*
Y282000D02*Y280500D01*
X630201Y282000D02*X632701D01*
X754000Y278500D02*X755500D01*
X753500Y279000D02*X754000Y278500D01*
X753500Y282000D02*Y279000D01*
Y282000D02*X754000Y282500D01*
X755500D01*
X756701Y280500D02*X758701Y282500D01*
X756701Y280500D02*X759201D01*
X758701Y282500D02*Y278500D01*
X760402Y279000D02*X760902Y278500D01*
X760402Y282000D02*Y279000D01*
Y282000D02*X760902Y282500D01*
X761902D01*
X762402Y282000D01*
Y279000D01*
X761902Y278500D02*X762402Y279000D01*
X760902Y278500D02*X761902D01*
X760402Y279500D02*X762402Y281500D01*
X626500Y348500D02*X628500D01*
X629000Y348000D01*
Y347000D01*
X628500Y346500D02*X629000Y347000D01*
X627000Y346500D02*X628500D01*
X627000Y348500D02*Y344500D01*
Y346500D02*X629000Y344500D01*
X631701Y348500D02*X632201Y348000D01*
X630701Y348500D02*X631701D01*
X630201Y348000D02*X630701Y348500D01*
X630201Y348000D02*Y345000D01*
X630701Y344500D01*
X631701Y346500D02*X632201Y346000D01*
X630201Y346500D02*X631701D01*
X630701Y344500D02*X631701D01*
X632201Y345000D01*
Y346000D02*Y345000D01*
X636500Y348500D02*X638500D01*
X639000Y348000D01*
Y347000D01*
X638500Y346500D02*X639000Y347000D01*
X637000Y346500D02*X638500D01*
X637000Y348500D02*Y344500D01*
Y346500D02*X639000Y344500D01*
X640201D02*X642701Y347000D01*
Y348500D02*Y347000D01*
X640201Y348500D02*X642701D01*
X604000Y478500D02*X605500D01*
X603500Y479000D02*X604000Y478500D01*
X603500Y482000D02*Y479000D01*
Y482000D02*X604000Y482500D01*
X605500D01*
X606701Y482000D02*X607201Y482500D01*
X608201D01*
X608701Y482000D01*
Y479000D01*
X608201Y478500D02*X608701Y479000D01*
X607201Y478500D02*X608201D01*
X606701Y479000D02*X607201Y478500D01*
Y480500D02*X608701D01*
X611402Y482500D02*X611902Y482000D01*
X610402Y482500D02*X611402D01*
X609902Y482000D02*X610402Y482500D01*
X609902Y482000D02*Y479000D01*
X610402Y478500D01*
X611402Y480500D02*X611902Y480000D01*
X609902Y480500D02*X611402D01*
X610402Y478500D02*X611402D01*
X611902Y479000D01*
Y480000D02*Y479000D01*
X674000Y478500D02*X675500D01*
X673500Y479000D02*X674000Y478500D01*
X673500Y482000D02*Y479000D01*
Y482000D02*X674000Y482500D01*
X675500D01*
X676701Y482000D02*X677201Y482500D01*
X678201D01*
X678701Y482000D01*
Y479000D01*
X678201Y478500D02*X678701Y479000D01*
X677201Y478500D02*X678201D01*
X676701Y479000D02*X677201Y478500D01*
Y480500D02*X678701D01*
X679902Y478500D02*X681902Y480500D01*
Y482000D02*Y480500D01*
X681402Y482500D02*X681902Y482000D01*
X680402Y482500D02*X681402D01*
X679902Y482000D02*X680402Y482500D01*
X679902Y482000D02*Y481000D01*
X680402Y480500D01*
X681902D01*
X599500Y465000D02*X603000D01*
X599500D02*X599000Y464500D01*
Y463500D01*
X599500Y463000D01*
X603000D01*
X602500Y461799D02*X603000Y461299D01*
Y459799D01*
X602500Y459299D01*
X601500D02*X602500D01*
X599000Y461799D02*X601500Y459299D01*
X599000Y461799D02*Y459299D01*
X601000Y458098D02*X603000Y456098D01*
X601000Y458098D02*Y455598D01*
X599000Y456098D02*X603000D01*
X659500Y465000D02*X663000D01*
X659500D02*X659000Y464500D01*
Y463500D01*
X659500Y463000D01*
X663000D01*
X662500Y461799D02*X663000Y461299D01*
Y459799D01*
X662500Y459299D01*
X661500D02*X662500D01*
X659000Y461799D02*X661500Y459299D01*
X659000Y461799D02*Y459299D01*
X663000Y458098D02*Y456098D01*
X661000Y458098D02*X663000D01*
X661000D02*X661500Y457598D01*
Y456598D01*
X661000Y456098D01*
X659500D02*X661000D01*
X659000Y456598D02*X659500Y456098D01*
X659000Y457598D02*Y456598D01*
X659500Y458098D02*X659000Y457598D01*
X597500Y592000D02*Y591500D01*
X600000Y589000D01*
Y588000D01*
X597500Y589000D02*Y588000D01*
Y589000D02*X600000Y591500D01*
Y592000D02*Y591500D01*
X601201D02*X601701Y592000D01*
X602701D01*
X603201Y591500D01*
Y588500D01*
X602701Y588000D02*X603201Y588500D01*
X601701Y588000D02*X602701D01*
X601201Y588500D02*X601701Y588000D01*
Y590000D02*X603201D01*
X638000Y598000D02*X639500D01*
X637500Y598500D02*X638000Y598000D01*
X637500Y601500D02*Y598500D01*
Y601500D02*X638000Y602000D01*
X639500D01*
X641201Y598000D02*X642201D01*
X641701Y602000D02*Y598000D01*
X640701Y601000D02*X641701Y602000D01*
X643402Y598500D02*X643902Y598000D01*
X643402Y601500D02*Y598500D01*
Y601500D02*X643902Y602000D01*
X644902D01*
X645402Y601500D01*
Y598500D01*
X644902Y598000D02*X645402Y598500D01*
X643902Y598000D02*X644902D01*
X643402Y599000D02*X645402Y601000D01*
X638000Y618000D02*X639500D01*
X637500Y618500D02*X638000Y618000D01*
X637500Y621500D02*Y618500D01*
Y621500D02*X638000Y622000D01*
X639500D01*
X641201Y618000D02*X642201D01*
X641701Y622000D02*Y618000D01*
X640701Y621000D02*X641701Y622000D01*
X643902Y618000D02*X644902D01*
X644402Y622000D02*Y618000D01*
X643402Y621000D02*X644402Y622000D01*
X599500Y585000D02*X603000D01*
X599500D02*X599000Y584500D01*
Y583500D01*
X599500Y583000D01*
X603000D01*
X602500Y581799D02*X603000Y581299D01*
Y579799D01*
X602500Y579299D01*
X601500D02*X602500D01*
X599000Y581799D02*X601500Y579299D01*
X599000Y581799D02*Y579299D01*
X602500Y578098D02*X603000Y577598D01*
Y576598D01*
X602500Y576098D01*
X599500D02*X602500D01*
X599000Y576598D02*X599500Y576098D01*
X599000Y577598D02*Y576598D01*
X599500Y578098D02*X599000Y577598D01*
X601000D02*Y576098D01*
X659500Y625000D02*X663000D01*
X659500D02*X659000Y624500D01*
Y623500D01*
X659500Y623000D01*
X663000D01*
X662500Y621799D02*X663000Y621299D01*
Y619799D01*
X662500Y619299D01*
X661500D02*X662500D01*
X659000Y621799D02*X661500Y619299D01*
X659000Y621799D02*Y619299D01*
X663000Y616598D02*X662500Y616098D01*
X663000Y617598D02*Y616598D01*
X662500Y618098D02*X663000Y617598D01*
X659500Y618098D02*X662500D01*
X659500D02*X659000Y617598D01*
X661000Y616598D02*X660500Y616098D01*
X661000Y618098D02*Y616598D01*
X659000Y617598D02*Y616598D01*
X659500Y616098D01*
X660500D01*
X504000Y488500D02*X505500D01*
X503500Y489000D02*X504000Y488500D01*
X503500Y492000D02*Y489000D01*
Y492000D02*X504000Y492500D01*
X505500D01*
X506701Y492000D02*X507201Y492500D01*
X508201D01*
X508701Y492000D01*
Y489000D01*
X508201Y488500D02*X508701Y489000D01*
X507201Y488500D02*X508201D01*
X506701Y489000D02*X507201Y488500D01*
Y490500D02*X508701D01*
X509902Y492500D02*X511902D01*
X509902D02*Y490500D01*
X510402Y491000D01*
X511402D01*
X511902Y490500D01*
Y489000D01*
X511402Y488500D02*X511902Y489000D01*
X510402Y488500D02*X511402D01*
X509902Y489000D02*X510402Y488500D01*
X749500Y505000D02*X753000D01*
X749500D02*X749000Y504500D01*
Y503500D01*
X749500Y503000D01*
X753000D01*
X752500Y501799D02*X753000Y501299D01*
Y499799D01*
X752500Y499299D01*
X751500D02*X752500D01*
X749000Y501799D02*X751500Y499299D01*
X749000Y501799D02*Y499299D01*
Y498098D02*X751000Y496098D01*
X752500D01*
X753000Y496598D02*X752500Y496098D01*
X753000Y497598D02*Y496598D01*
X752500Y498098D02*X753000Y497598D01*
X751500Y498098D02*X752500D01*
X751500D02*X751000Y497598D01*
Y496098D01*
X498000Y557500D02*X499500D01*
X497500Y558000D02*X498000Y557500D01*
X497500Y561000D02*Y558000D01*
Y561000D02*X498000Y561500D01*
X499500D01*
X501201Y557500D02*X502201D01*
X501701Y561500D02*Y557500D01*
X500701Y560500D02*X501701Y561500D01*
X503402Y561000D02*X503902Y561500D01*
X505402D01*
X505902Y561000D01*
Y560000D01*
X503402Y557500D02*X505902Y560000D01*
X503402Y557500D02*X505902D01*
X499000Y538500D02*X500500D01*
X498500Y539000D02*X499000Y538500D01*
X498500Y542000D02*Y539000D01*
Y542000D02*X499000Y542500D01*
X500500D01*
X502201Y538500D02*X503201D01*
X502701Y542500D02*Y538500D01*
X501701Y541500D02*X502701Y542500D01*
X504402Y542000D02*X504902Y542500D01*
X505902D01*
X506402Y542000D01*
Y539000D01*
X505902Y538500D02*X506402Y539000D01*
X504902Y538500D02*X505902D01*
X504402Y539000D02*X504902Y538500D01*
Y540500D02*X506402D01*
X509500Y625000D02*X513000D01*
X509500D02*X509000Y624500D01*
Y623500D01*
X509500Y623000D01*
X513000D01*
X512500Y621799D02*X513000Y621299D01*
Y619799D01*
X512500Y619299D01*
X511500D02*X512500D01*
X509000Y621799D02*X511500Y619299D01*
X509000Y621799D02*Y619299D01*
Y617598D02*Y616598D01*
Y617098D02*X513000D01*
X512000Y618098D02*X513000Y617098D01*
X494500Y524500D02*Y520500D01*
X496500D01*
X498201D02*X499201D01*
X498701Y524500D02*Y520500D01*
X497701Y523500D02*X498701Y524500D01*
X749500Y625000D02*X753000D01*
X749500D02*X749000Y624500D01*
Y623500D01*
X749500Y623000D01*
X753000D01*
X752500Y621799D02*X753000Y621299D01*
Y619799D01*
X752500Y619299D01*
X751500D02*X752500D01*
X749000Y621799D02*X751500Y619299D01*
X749000Y621799D02*Y619299D01*
X749500Y618098D02*X749000Y617598D01*
X749500Y618098D02*X750500D01*
X751000Y617598D01*
Y616598D01*
X750500Y616098D01*
X749500D02*X750500D01*
X749000Y616598D02*X749500Y616098D01*
X749000Y617598D02*Y616598D01*
X751500Y618098D02*X751000Y617598D01*
X751500Y618098D02*X752500D01*
X753000Y617598D01*
Y616598D01*
X752500Y616098D01*
X751500D02*X752500D01*
X751000Y616598D02*X751500Y616098D01*
X850000Y632500D02*X851500D01*
Y629000D01*
X851000Y628500D02*X851500Y629000D01*
X850500Y628500D02*X851000D01*
X850000Y629000D02*X850500Y628500D01*
X853201D02*X854201D01*
X853701Y632500D02*Y628500D01*
X852701Y631500D02*X853701Y632500D01*
X855402Y632000D02*X855902Y632500D01*
X857402D01*
X857902Y632000D01*
Y631000D01*
X855402Y628500D02*X857902Y631000D01*
X855402Y628500D02*X857902D01*
X754000Y518500D02*X755500D01*
X753500Y519000D02*X754000Y518500D01*
X753500Y522000D02*Y519000D01*
Y522000D02*X754000Y522500D01*
X755500D01*
X756701Y520500D02*X758701Y522500D01*
X756701Y520500D02*X759201D01*
X758701Y522500D02*Y518500D01*
X760902D02*X761902D01*
X761402Y522500D02*Y518500D01*
X760402Y521500D02*X761402Y522500D01*
X356500Y568500D02*X358000D01*
X356000Y569000D02*X356500Y568500D01*
X356000Y572000D02*Y569000D01*
Y572000D02*X356500Y572500D01*
X358000D01*
X359701Y568500D02*X360701D01*
X360201Y572500D02*Y568500D01*
X359201Y571500D02*X360201Y572500D01*
X361902Y570500D02*X363902Y572500D01*
X361902Y570500D02*X364402D01*
X363902Y572500D02*Y568500D01*
X379500Y544500D02*X381500D01*
X382000Y544000D01*
Y543000D01*
X381500Y542500D02*X382000Y543000D01*
X380000Y542500D02*X381500D01*
X380000Y544500D02*Y540500D01*
Y542500D02*X382000Y540500D01*
X383701D02*X384701D01*
X384201Y544500D02*Y540500D01*
X383201Y543500D02*X384201Y544500D01*
X387402D02*X387902Y544000D01*
X386402Y544500D02*X387402D01*
X385902Y544000D02*X386402Y544500D01*
X385902Y544000D02*Y541000D01*
X386402Y540500D01*
X387402Y542500D02*X387902Y542000D01*
X385902Y542500D02*X387402D01*
X386402Y540500D02*X387402D01*
X387902Y541000D01*
Y542000D02*Y541000D01*
X337000Y549500D02*X339000D01*
X339500Y549000D01*
Y548000D01*
X339000Y547500D02*X339500Y548000D01*
X337500Y547500D02*X339000D01*
X337500Y549500D02*Y545500D01*
Y547500D02*X339500Y545500D01*
X341201D02*X342201D01*
X341701Y549500D02*Y545500D01*
X340701Y548500D02*X341701Y549500D01*
X343402Y547500D02*X345402Y549500D01*
X343402Y547500D02*X345902D01*
X345402Y549500D02*Y545500D01*
X379500Y569500D02*X381500D01*
X382000Y569000D01*
Y568000D01*
X381500Y567500D02*X382000Y568000D01*
X380000Y567500D02*X381500D01*
X380000Y569500D02*Y565500D01*
Y567500D02*X382000Y565500D01*
X383701D02*X384701D01*
X384201Y569500D02*Y565500D01*
X383201Y568500D02*X384201Y569500D01*
X385902D02*X387902D01*
X385902D02*Y567500D01*
X386402Y568000D01*
X387402D01*
X387902Y567500D01*
Y566000D01*
X387402Y565500D02*X387902Y566000D01*
X386402Y565500D02*X387402D01*
X385902Y566000D02*X386402Y565500D01*
X445500Y535500D02*X447500D01*
X448000Y535000D01*
Y534000D01*
X447500Y533500D02*X448000Y534000D01*
X446000Y533500D02*X447500D01*
X446000Y535500D02*Y531500D01*
Y533500D02*X448000Y531500D01*
X449201Y535000D02*X449701Y535500D01*
X451201D01*
X451701Y535000D01*
Y534000D01*
X449201Y531500D02*X451701Y534000D01*
X449201Y531500D02*X451701D01*
X453402D02*X454402D01*
X453902Y535500D02*Y531500D01*
X452902Y534500D02*X453902Y535500D01*
X448500Y521500D02*Y518500D01*
Y521500D02*X449000Y522000D01*
X450000D01*
X450500Y521500D01*
Y518500D01*
X450000Y518000D02*X450500Y518500D01*
X449000Y518000D02*X450000D01*
X448500Y518500D02*X449000Y518000D01*
X449500Y519000D02*X450500Y518000D01*
X452201D02*X453201D01*
X452701Y522000D02*Y518000D01*
X451701Y521000D02*X452701Y522000D01*
X467500Y578500D02*X469500D01*
X470000Y578000D01*
Y577000D01*
X469500Y576500D02*X470000Y577000D01*
X468000Y576500D02*X469500D01*
X468000Y578500D02*Y574500D01*
Y576500D02*X470000Y574500D01*
X471701D02*X472701D01*
X472201Y578500D02*Y574500D01*
X471201Y577500D02*X472201Y578500D01*
X473902Y574500D02*X475902Y576500D01*
Y578000D02*Y576500D01*
X475402Y578500D02*X475902Y578000D01*
X474402Y578500D02*X475402D01*
X473902Y578000D02*X474402Y578500D01*
X473902Y578000D02*Y577000D01*
X474402Y576500D01*
X475902D01*
X455000Y578500D02*X457000D01*
X457500Y578000D01*
Y577000D01*
X457000Y576500D02*X457500Y577000D01*
X455500Y576500D02*X457000D01*
X455500Y578500D02*Y574500D01*
Y576500D02*X457500Y574500D01*
X458701Y578000D02*X459201Y578500D01*
X460701D01*
X461201Y578000D01*
Y577000D01*
X458701Y574500D02*X461201Y577000D01*
X458701Y574500D02*X461201D01*
X462402Y575000D02*X462902Y574500D01*
X462402Y578000D02*Y575000D01*
Y578000D02*X462902Y578500D01*
X463902D01*
X464402Y578000D01*
Y575000D01*
X463902Y574500D02*X464402Y575000D01*
X462902Y574500D02*X463902D01*
X462402Y575500D02*X464402Y577500D01*
X425000Y604000D02*X426500D01*
Y600500D01*
X426000Y600000D02*X426500Y600500D01*
X425500Y600000D02*X426000D01*
X425000Y600500D02*X425500Y600000D01*
X429201Y604000D02*X429701Y603500D01*
X428201Y604000D02*X429201D01*
X427701Y603500D02*X428201Y604000D01*
X427701Y603500D02*Y600500D01*
X428201Y600000D01*
X429201Y602000D02*X429701Y601500D01*
X427701Y602000D02*X429201D01*
X428201Y600000D02*X429201D01*
X429701Y600500D01*
Y601500D02*Y600500D01*
X33000Y534500D02*X34500D01*
X32500Y535000D02*X33000Y534500D01*
X32500Y538000D02*Y535000D01*
Y538000D02*X33000Y538500D01*
X34500D01*
X36201Y534500D02*X37201D01*
X36701Y538500D02*Y534500D01*
X35701Y537500D02*X36701Y538500D01*
X158000Y547500D02*X159500D01*
X157500Y548000D02*X158000Y547500D01*
X157500Y551000D02*Y548000D01*
Y551000D02*X158000Y551500D01*
X159500D01*
X160701Y551000D02*X161201Y551500D01*
X162201D01*
X162701Y551000D01*
Y548000D01*
X162201Y547500D02*X162701Y548000D01*
X161201Y547500D02*X162201D01*
X160701Y548000D02*X161201Y547500D01*
Y549500D02*X162701D01*
X158000Y568500D02*X159500D01*
X157500Y569000D02*X158000Y568500D01*
X157500Y572000D02*Y569000D01*
Y572000D02*X158000Y572500D01*
X159500D01*
X160701Y570500D02*X162701Y572500D01*
X160701Y570500D02*X163201D01*
X162701Y572500D02*Y568500D01*
X32500Y577000D02*X34000D01*
X32000Y577500D02*X32500Y577000D01*
X32000Y580500D02*Y577500D01*
Y580500D02*X32500Y581000D01*
X34000D01*
X35201Y580500D02*X35701Y581000D01*
X37201D01*
X37701Y580500D01*
Y579500D01*
X35201Y577000D02*X37701Y579500D01*
X35201Y577000D02*X37701D01*
X33000Y598500D02*X34500D01*
Y595000D01*
X34000Y594500D02*X34500Y595000D01*
X33500Y594500D02*X34000D01*
X33000Y595000D02*X33500Y594500D01*
X36201D02*X37201D01*
X36701Y598500D02*Y594500D01*
X35701Y597500D02*X36701Y598500D01*
X97000Y599000D02*X97500Y598500D01*
X95500Y599000D02*X97000D01*
X95000Y598500D02*X95500Y599000D01*
X95000Y598500D02*Y597500D01*
X95500Y597000D01*
X97000D01*
X97500Y596500D01*
Y595500D01*
X97000Y595000D02*X97500Y595500D01*
X95500Y595000D02*X97000D01*
X95000Y595500D02*X95500Y595000D01*
X99201D02*X100201D01*
X99701Y599000D02*Y595000D01*
X98701Y598000D02*X99701Y599000D01*
X17700Y599600D02*Y595600D01*
X19200Y599600D02*X19700Y599100D01*
Y596100D01*
X19200Y595600D02*X19700Y596100D01*
X17200Y595600D02*X19200D01*
X17200Y599600D02*X19200D01*
X21401Y595600D02*X22401D01*
X21901Y599600D02*Y595600D01*
X20901Y598600D02*X21901Y599600D01*
X167500Y610000D02*X169000D01*
Y606500D01*
X168500Y606000D02*X169000Y606500D01*
X168000Y606000D02*X168500D01*
X167500Y606500D02*X168000Y606000D01*
X170201Y609500D02*X170701Y610000D01*
X172201D01*
X172701Y609500D01*
Y608500D01*
X170201Y606000D02*X172701Y608500D01*
X170201Y606000D02*X172701D01*
X49500Y569000D02*Y565500D01*
X50000Y565000D01*
X51000D01*
X51500Y565500D01*
Y569000D02*Y565500D01*
X53201Y565000D02*X54201D01*
X53701Y569000D02*Y565000D01*
X52701Y568000D02*X53701Y569000D01*
X395000Y351500D02*X397000D01*
X397500Y351000D01*
Y350000D01*
X397000Y349500D02*X397500Y350000D01*
X395500Y349500D02*X397000D01*
X395500Y351500D02*Y347500D01*
Y349500D02*X397500Y347500D01*
X398701Y351500D02*Y347500D01*
Y351500D02*Y351000D01*
X401201Y348500D01*
Y351500D02*Y347500D01*
X402902D02*X403902D01*
X403402Y351500D02*Y347500D01*
X402402Y350500D02*X403402Y351500D01*
X378000Y327500D02*X379500D01*
X377500Y328000D02*X378000Y327500D01*
X377500Y331000D02*Y328000D01*
Y331000D02*X378000Y331500D01*
X379500D01*
X382201D02*X382701Y331000D01*
X381201Y331500D02*X382201D01*
X380701Y331000D02*X381201Y331500D01*
X380701Y331000D02*Y328000D01*
X381201Y327500D01*
X382201Y329500D02*X382701Y329000D01*
X380701Y329500D02*X382201D01*
X381201Y327500D02*X382201D01*
X382701Y328000D01*
Y329000D02*Y328000D01*
X334000Y358500D02*X335500D01*
X333500Y359000D02*X334000Y358500D01*
X333500Y362000D02*Y359000D01*
Y362000D02*X334000Y362500D01*
X335500D01*
X336701Y362000D02*X337201Y362500D01*
X338701D01*
X339201Y362000D01*
Y361000D01*
X336701Y358500D02*X339201Y361000D01*
X336701Y358500D02*X339201D01*
X340402Y359000D02*X340902Y358500D01*
X340402Y362000D02*Y359000D01*
Y362000D02*X340902Y362500D01*
X341902D01*
X342402Y362000D01*
Y359000D01*
X341902Y358500D02*X342402Y359000D01*
X340902Y358500D02*X341902D01*
X340402Y359500D02*X342402Y361500D01*
X419500Y345000D02*X423000D01*
X419500D02*X419000Y344500D01*
Y343500D01*
X419500Y343000D01*
X423000D01*
X421000Y341799D02*X423000Y339799D01*
X421000Y341799D02*Y339299D01*
X419000Y339799D02*X423000D01*
X342500Y350000D02*X344000D01*
Y346500D01*
X343500Y346000D02*X344000Y346500D01*
X343000Y346000D02*X343500D01*
X342500Y346500D02*X343000Y346000D01*
X345701D02*X346701D01*
X346201Y350000D02*Y346000D01*
X345201Y349000D02*X346201Y350000D01*
X348402Y346000D02*X349402D01*
X348902Y350000D02*Y346000D01*
X347902Y349000D02*X348902Y350000D01*
X404000Y276000D02*X405500D01*
X403500Y276500D02*X404000Y276000D01*
X403500Y279500D02*Y276500D01*
Y279500D02*X404000Y280000D01*
X405500D01*
X407201Y276000D02*X408201D01*
X407701Y280000D02*Y276000D01*
X406701Y279000D02*X407701Y280000D01*
X409402Y276000D02*X411902Y278500D01*
Y280000D02*Y278500D01*
X409402Y280000D02*X411902D01*
X509500Y245000D02*X513000D01*
X509500D02*X509000Y244500D01*
Y243500D01*
X509500Y243000D01*
X513000D01*
X509000Y241299D02*Y240299D01*
Y240799D02*X513000D01*
X512000Y241799D02*X513000Y240799D01*
X509000Y239098D02*X511000Y237098D01*
X512500D01*
X513000Y237598D02*X512500Y237098D01*
X513000Y238598D02*Y237598D01*
X512500Y239098D02*X513000Y238598D01*
X511500Y239098D02*X512500D01*
X511500D02*X511000Y238598D01*
Y237098D01*
X569500Y245000D02*X573000D01*
X569500D02*X569000Y244500D01*
Y243500D01*
X569500Y243000D01*
X573000D01*
X569000Y241299D02*Y240299D01*
Y240799D02*X573000D01*
X572000Y241799D02*X573000Y240799D01*
X569500Y239098D02*X569000Y238598D01*
X569500Y239098D02*X570500D01*
X571000Y238598D01*
Y237598D01*
X570500Y237098D01*
X569500D02*X570500D01*
X569000Y237598D02*X569500Y237098D01*
X569000Y238598D02*Y237598D01*
X571500Y239098D02*X571000Y238598D01*
X571500Y239098D02*X572500D01*
X573000Y238598D01*
Y237598D01*
X572500Y237098D01*
X571500D02*X572500D01*
X571000Y237598D02*X571500Y237098D01*
X509500Y345000D02*X513000D01*
X509500D02*X509000Y344500D01*
Y343500D01*
X509500Y343000D01*
X513000D01*
X512500Y341799D02*X513000Y341299D01*
Y340299D01*
X512500Y339799D01*
X509500D02*X512500D01*
X509000Y340299D02*X509500Y339799D01*
X509000Y341299D02*Y340299D01*
X509500Y341799D02*X509000Y341299D01*
X511000D02*Y339799D01*
X569500Y345000D02*X573000D01*
X569500D02*X569000Y344500D01*
Y343500D01*
X569500Y343000D01*
X573000D01*
X569000Y341299D02*Y340299D01*
Y340799D02*X573000D01*
X572000Y341799D02*X573000Y340799D01*
X569000Y339098D02*X571500Y336598D01*
X573000D01*
Y339098D02*Y336598D01*
X224000Y373500D02*X225500D01*
X223500Y374000D02*X224000Y373500D01*
X223500Y377000D02*Y374000D01*
Y377000D02*X224000Y377500D01*
X225500D01*
X226701Y377000D02*X227201Y377500D01*
X228701D01*
X229201Y377000D01*
Y376000D01*
X226701Y373500D02*X229201Y376000D01*
X226701Y373500D02*X229201D01*
X230402Y375500D02*X232402Y377500D01*
X230402Y375500D02*X232902D01*
X232402Y377500D02*Y373500D01*
X197000Y402000D02*X199000D01*
X199500Y401500D01*
Y400500D01*
X199000Y400000D02*X199500Y400500D01*
X197500Y400000D02*X199000D01*
X197500Y402000D02*Y398000D01*
Y400000D02*X199500Y398000D01*
X201201D02*X202201D01*
X201701Y402000D02*Y398000D01*
X200701Y401000D02*X201701Y402000D01*
X203402Y401500D02*X203902Y402000D01*
X205402D01*
X205902Y401500D01*
Y400500D01*
X203402Y398000D02*X205902Y400500D01*
X203402Y398000D02*X205902D01*
X154000Y458500D02*X155500D01*
X153500Y459000D02*X154000Y458500D01*
X153500Y462000D02*Y459000D01*
Y462000D02*X154000Y462500D01*
X155500D01*
X156701Y462000D02*X157201Y462500D01*
X158701D01*
X159201Y462000D01*
Y461000D01*
X156701Y458500D02*X159201Y461000D01*
X156701Y458500D02*X159201D01*
X160402Y459000D02*X160902Y458500D01*
X160402Y460000D02*Y459000D01*
Y460000D02*X160902Y460500D01*
X161902D01*
X162402Y460000D01*
Y459000D01*
X161902Y458500D02*X162402Y459000D01*
X160902Y458500D02*X161902D01*
X160402Y461000D02*X160902Y460500D01*
X160402Y462000D02*Y461000D01*
Y462000D02*X160902Y462500D01*
X161902D01*
X162402Y462000D01*
Y461000D01*
X161902Y460500D02*X162402Y461000D01*
X127500Y462500D02*X129000D01*
Y459000D01*
X128500Y458500D02*X129000Y459000D01*
X128000Y458500D02*X128500D01*
X127500Y459000D02*X128000Y458500D01*
X130201Y460500D02*X132201Y462500D01*
X130201Y460500D02*X132701D01*
X132201Y462500D02*Y458500D01*
X30000Y430000D02*X32000D01*
X32500Y430500D01*
Y431500D02*Y430500D01*
X32000Y432000D02*X32500Y431500D01*
X30500Y432000D02*X32000D01*
X30500Y434000D02*Y430000D01*
X30000Y434000D02*X32000D01*
X32500Y433500D01*
Y432500D01*
X32000Y432000D02*X32500Y432500D01*
X34201Y430000D02*X35201D01*
X34701Y434000D02*Y430000D01*
X33701Y433000D02*X34701Y434000D01*
X149500Y445000D02*X153000D01*
X149500D02*X149000Y444500D01*
Y443500D01*
X149500Y443000D01*
X153000D01*
X149000Y441299D02*Y440299D01*
Y440799D02*X153000D01*
X152000Y441799D02*X153000Y440799D01*
X151000Y439098D02*X153000Y437098D01*
X151000Y439098D02*Y436598D01*
X149000Y437098D02*X153000D01*
X197000Y442000D02*X199000D01*
X199500Y441500D01*
Y440500D01*
X199000Y440000D02*X199500Y440500D01*
X197500Y440000D02*X199000D01*
X197500Y442000D02*Y438000D01*
Y440000D02*X199500Y438000D01*
X201201D02*X202201D01*
X201701Y442000D02*Y438000D01*
X200701Y441000D02*X201701Y442000D01*
X203402Y441500D02*X203902Y442000D01*
X204902D01*
X205402Y441500D01*
Y438500D01*
X204902Y438000D02*X205402Y438500D01*
X203902Y438000D02*X204902D01*
X203402Y438500D02*X203902Y438000D01*
Y440000D02*X205402D01*
X335000Y458500D02*X336500D01*
X334500Y459000D02*X335000Y458500D01*
X334500Y462000D02*Y459000D01*
Y462000D02*X335000Y462500D01*
X336500D01*
X338201Y458500D02*X339201D01*
X338701Y462500D02*Y458500D01*
X337701Y461500D02*X338701Y462500D01*
X340402Y459000D02*X340902Y458500D01*
X340402Y460000D02*Y459000D01*
Y460000D02*X340902Y460500D01*
X341902D01*
X342402Y460000D01*
Y459000D01*
X341902Y458500D02*X342402Y459000D01*
X340902Y458500D02*X341902D01*
X340402Y461000D02*X340902Y460500D01*
X340402Y462000D02*Y461000D01*
Y462000D02*X340902Y462500D01*
X341902D01*
X342402Y462000D01*
Y461000D01*
X341902Y460500D02*X342402Y461000D01*
X429000Y458500D02*X430500D01*
X428500Y459000D02*X429000Y458500D01*
X428500Y462000D02*Y459000D01*
Y462000D02*X429000Y462500D01*
X430500D01*
X432201Y458500D02*X433201D01*
X432701Y462500D02*Y458500D01*
X431701Y461500D02*X432701Y462500D01*
X434402Y458500D02*X436402Y460500D01*
Y462000D02*Y460500D01*
X435902Y462500D02*X436402Y462000D01*
X434902Y462500D02*X435902D01*
X434402Y462000D02*X434902Y462500D01*
X434402Y462000D02*Y461000D01*
X434902Y460500D01*
X436402D01*
X423000Y542500D02*X424500D01*
X422500Y543000D02*X423000Y542500D01*
X422500Y546000D02*Y543000D01*
Y546000D02*X423000Y546500D01*
X424500D01*
X426201Y542500D02*X427201D01*
X426701Y546500D02*Y542500D01*
X425701Y545500D02*X426701Y546500D01*
X428402D02*X430402D01*
X428402D02*Y544500D01*
X428902Y545000D01*
X429902D01*
X430402Y544500D01*
Y543000D01*
X429902Y542500D02*X430402Y543000D01*
X428902Y542500D02*X429902D01*
X428402Y543000D02*X428902Y542500D01*
X449500Y495000D02*X453000D01*
X449500D02*X449000Y494500D01*
Y493500D01*
X449500Y493000D01*
X453000D01*
X452500Y491799D02*X453000Y491299D01*
Y489799D01*
X452500Y489299D01*
X451500D02*X452500D01*
X449000Y491799D02*X451500Y489299D01*
X449000Y491799D02*Y489299D01*
X452500Y488098D02*X453000Y487598D01*
Y486098D01*
X452500Y485598D01*
X451500D02*X452500D01*
X449000Y488098D02*X451500Y485598D01*
X449000Y488098D02*Y485598D01*
X389500Y535000D02*X393000D01*
X389500D02*X389000Y534500D01*
Y533500D01*
X389500Y533000D01*
X393000D01*
Y530299D02*X392500Y529799D01*
X393000Y531299D02*Y530299D01*
X392500Y531799D02*X393000Y531299D01*
X389500Y531799D02*X392500D01*
X389500D02*X389000Y531299D01*
X391000Y530299D02*X390500Y529799D01*
X391000Y531799D02*Y530299D01*
X389000Y531299D02*Y530299D01*
X389500Y529799D01*
X390500D01*
X329500Y535000D02*X333000D01*
X329500D02*X329000Y534500D01*
Y533500D01*
X329500Y533000D01*
X333000D01*
Y531799D02*Y529799D01*
X331000Y531799D02*X333000D01*
X331000D02*X331500Y531299D01*
Y530299D01*
X331000Y529799D01*
X329500D02*X331000D01*
X329000Y530299D02*X329500Y529799D01*
X329000Y531299D02*Y530299D01*
X329500Y531799D02*X329000Y531299D01*
X455000Y411000D02*Y410500D01*
X457500Y408000D01*
Y407000D01*
X455000Y408000D02*Y407000D01*
Y408000D02*X457500Y410500D01*
Y411000D02*Y410500D01*
X459201Y407000D02*X460201D01*
X459701Y411000D02*Y407000D01*
X458701Y410000D02*X459701Y411000D01*
X329500Y445000D02*X333000D01*
X329500D02*X329000Y444500D01*
Y443500D01*
X329500Y443000D01*
X333000D01*
X329000Y441799D02*X331500Y439299D01*
X333000D01*
Y441799D02*Y439299D01*
X325000Y604000D02*X326500D01*
Y600500D01*
X326000Y600000D02*X326500Y600500D01*
X325500Y600000D02*X326000D01*
X325000Y600500D02*X325500Y600000D01*
X327701Y604000D02*X329701D01*
X327701D02*Y602000D01*
X328201Y602500D01*
X329201D01*
X329701Y602000D01*
Y600500D01*
X329201Y600000D02*X329701Y600500D01*
X328201Y600000D02*X329201D01*
X327701Y600500D02*X328201Y600000D01*
X389500Y445000D02*X393000D01*
X389500D02*X389000Y444500D01*
Y443500D01*
X389500Y443000D01*
X393000D01*
X389000Y441299D02*Y440299D01*
Y440799D02*X393000D01*
X392000Y441799D02*X393000Y440799D01*
X389500Y439098D02*X389000Y438598D01*
X389500Y439098D02*X392500D01*
X393000Y438598D01*
Y437598D01*
X392500Y437098D01*
X389500D02*X392500D01*
X389000Y437598D02*X389500Y437098D01*
X389000Y438598D02*Y437598D01*
X390000Y439098D02*X392000Y437098D01*
X178000Y517500D02*X179500D01*
X177500Y518000D02*X178000Y517500D01*
X177500Y521000D02*Y518000D01*
Y521000D02*X178000Y521500D01*
X179500D01*
X180701D02*X182701D01*
X180701D02*Y519500D01*
X181201Y520000D01*
X182201D01*
X182701Y519500D01*
Y518000D01*
X182201Y517500D02*X182701Y518000D01*
X181201Y517500D02*X182201D01*
X180701Y518000D02*X181201Y517500D01*
X177500Y495000D02*X181000D01*
X177500D02*X177000Y494500D01*
Y493500D01*
X177500Y493000D01*
X181000D01*
X177000Y491299D02*Y490299D01*
Y490799D02*X181000D01*
X180000Y491799D02*X181000Y490799D01*
Y489098D02*Y487098D01*
X179000Y489098D02*X181000D01*
X179000D02*X179500Y488598D01*
Y487598D01*
X179000Y487098D01*
X177500D02*X179000D01*
X177000Y487598D02*X177500Y487098D01*
X177000Y488598D02*Y487598D01*
X177500Y489098D02*X177000Y488598D01*
X146500Y511500D02*Y511000D01*
X149000Y508500D01*
Y507500D01*
X146500Y508500D02*Y507500D01*
Y508500D02*X149000Y511000D01*
Y511500D02*Y511000D01*
X150201Y509500D02*X152201Y511500D01*
X150201Y509500D02*X152701D01*
X152201Y511500D02*Y507500D01*
X225000Y521500D02*X227000D01*
X227500Y521000D01*
Y520000D01*
X227000Y519500D02*X227500Y520000D01*
X225500Y519500D02*X227000D01*
X225500Y521500D02*Y517500D01*
Y519500D02*X227500Y517500D01*
X228701Y521500D02*Y517500D01*
Y521500D02*Y521000D01*
X231201Y518500D01*
Y521500D02*Y517500D01*
X232402Y521000D02*X232902Y521500D01*
X234402D01*
X234902Y521000D01*
Y520000D01*
X232402Y517500D02*X234902Y520000D01*
X232402Y517500D02*X234902D01*
X239500Y565000D02*X243000D01*
X239500D02*X239000Y564500D01*
Y563500D01*
X239500Y563000D01*
X243000D01*
X239000Y561299D02*Y560299D01*
Y560799D02*X243000D01*
X242000Y561799D02*X243000Y560799D01*
X239000Y558598D02*Y557598D01*
Y558098D02*X243000D01*
X242000Y559098D02*X243000Y558098D01*
X225000Y451500D02*X227000D01*
X227500Y451000D01*
Y450000D01*
X227000Y449500D02*X227500Y450000D01*
X225500Y449500D02*X227000D01*
X225500Y451500D02*Y447500D01*
Y449500D02*X227500Y447500D01*
X228701Y451500D02*Y447500D01*
Y451500D02*Y451000D01*
X231201Y448500D01*
Y451500D02*Y447500D01*
X232402Y451000D02*X232902Y451500D01*
X233902D01*
X234402Y451000D01*
Y448000D01*
X233902Y447500D02*X234402Y448000D01*
X232902Y447500D02*X233902D01*
X232402Y448000D02*X232902Y447500D01*
Y449500D02*X234402D01*
X196500Y508500D02*X198500D01*
X199000Y508000D01*
Y507000D01*
X198500Y506500D02*X199000Y507000D01*
X197000Y506500D02*X198500D01*
X197000Y508500D02*Y504500D01*
Y506500D02*X199000Y504500D01*
X200701D02*X201701D01*
X201201Y508500D02*Y504500D01*
X200201Y507500D02*X201201Y508500D01*
X202902Y504500D02*X205402Y507000D01*
Y508500D02*Y507000D01*
X202902Y508500D02*X205402D01*
X207500D02*X209500D01*
X210000Y508000D01*
Y507000D01*
X209500Y506500D02*X210000Y507000D01*
X208000Y506500D02*X209500D01*
X208000Y508500D02*Y504500D01*
Y506500D02*X210000Y504500D01*
X211701D02*X212701D01*
X212201Y508500D02*Y504500D01*
X211201Y507500D02*X212201Y508500D01*
X213902Y505000D02*X214402Y504500D01*
X213902Y506000D02*Y505000D01*
Y506000D02*X214402Y506500D01*
X215402D01*
X215902Y506000D01*
Y505000D01*
X215402Y504500D02*X215902Y505000D01*
X214402Y504500D02*X215402D01*
X213902Y507000D02*X214402Y506500D01*
X213902Y508000D02*Y507000D01*
Y508000D02*X214402Y508500D01*
X215402D01*
X215902Y508000D01*
Y507000D01*
X215402Y506500D02*X215902Y507000D01*
X179500Y569000D02*Y565500D01*
X180000Y565000D01*
X181000D01*
X181500Y565500D01*
Y569000D02*Y565500D01*
X182701Y568500D02*X183201Y569000D01*
X184701D01*
X185201Y568500D01*
Y567500D01*
X182701Y565000D02*X185201Y567500D01*
X182701Y565000D02*X185201D01*
X250283Y602933D02*X251783D01*
Y599433D01*
X251283Y598933D02*X251783Y599433D01*
X250783Y598933D02*X251283D01*
X250283Y599433D02*X250783Y598933D01*
X252984Y602433D02*X253484Y602933D01*
X254484D01*
X254984Y602433D01*
Y599433D01*
X254484Y598933D02*X254984Y599433D01*
X253484Y598933D02*X254484D01*
X252984Y599433D02*X253484Y598933D01*
Y600933D02*X254984D01*
M02*
