M48
INCH
T11C0.020
T14C0.060
T17C0.100
T24C0.120
T30C0.030
T31C0.038
T32C0.035
T33C0.125
T34C0.110
T35C0.090
T38C0.015
T53C0.071
T54C0.051
%
T38
X014750Y032000
X008750Y021000
X011250Y017000
X011500Y028750
X008750Y025500
X005750Y021000
X013500Y016750
X005750Y016500
X011250Y007000
X011250Y011500
X030500Y030250
X012000Y032250
X003500Y034000
X008000Y034750
X015000Y016000
X015250Y016250
X015500Y016500
X014000Y014750
X018250Y044500
X012000Y043750
X012000Y044250
X018500Y044750
X018750Y045000
X019250Y045000
X021500Y046500
X021650Y045500
X020250Y036750
X019750Y037000
X020250Y039000
X020500Y041000
X029500Y041000
X048000Y036250
X047750Y029750
X047500Y030000
X044500Y030250
X044500Y031500
X043750Y031750
X044250Y041500
X044500Y022750
X036250Y019500
X038750Y020500
X039000Y020750
X039250Y021000
X039000Y021500
X036000Y020500
X038500Y023000
X039000Y023500
X038500Y024000
X038000Y024500
X037750Y022000
X038000Y022500
X037000Y022250
X036500Y023750
X036000Y022750
X036750Y023500
X036250Y023000
X027750Y033750
X028250Y033750
X028750Y033750
X029250Y033750
X029750Y033750
X027500Y034000
X037750Y043250
X038500Y036000
X028000Y034000
X028500Y034000
X029000Y034000
X029500Y034000
X030000Y034000
X028250Y021500
X028500Y020500
X028750Y019500
X039750Y036250
X040000Y036000
X039750Y035750
X036250Y023500
X029500Y021000
X030000Y023000
X027250Y022500
X027500Y023500
X029750Y022000
X027750Y024500
X035750Y022500
X038750Y035750
X028000Y025500
X035750Y025500
X021000Y024000
X032500Y026250
X020500Y036500
X020000Y036500
X040250Y028250
X038250Y036500
X045500Y024750
X056750Y022000
X019500Y036500
X050250Y026750
X021250Y036500
X047000Y029000
X015750Y035250
X015750Y034750
X046750Y028500
X045250Y026000
X044500Y011500
X044250Y011750
X044000Y012000
X043750Y012250
X043500Y012000
X043250Y011750
X028750Y044500
X028500Y043500
X043750Y023000
X038000Y015750
X041000Y016500
X045000Y014500
X044750Y014250
X044500Y014500
X044250Y014250
X044000Y014500
X041250Y028750
X041250Y029750
X037000Y031500
X029000Y042500
X029250Y041500
X029750Y039500
X030000Y038600
X032750Y038500
X031750Y038500
X035250Y037000
X030250Y037750
X030500Y035000
X033000Y040750
X027250Y033750
X036250Y039500
X043750Y014250
X046750Y014250
X047750Y014250
X047500Y014000
X048000Y014000
X047000Y014000
X046250Y014250
X047250Y016000
X046500Y014000
X047750Y010250
X044000Y025500
X042000Y025500
X045250Y023750
X047500Y010500
X048000Y010750
X045000Y011000
X044750Y011250
X050750Y027250
X050500Y027500
X046000Y020250
X046000Y027500
X044750Y026500
X046500Y036250
X045250Y035500
X046500Y033250
X036500Y032500
X037500Y024750
X036250Y026000
X036750Y024500
X037250Y024250
X036000Y026750
X037250Y030500
X028500Y016000
X015750Y034250
X015500Y035000
X015500Y034500
X019500Y015000
X019750Y015250
X020250Y015250
X020500Y016000
X020750Y015750
X029000Y019000
X029250Y020000
X022250Y039000
X022000Y042000
X021750Y043000
X046500Y047500
X047500Y049500
X046250Y049750
X055000Y056000
X055500Y055500
X042250Y052500
X021950Y052500
X042000Y048000
X040500Y045000
X044500Y047250
X040000Y046000
X034000Y057000
X032000Y056500
X034000Y056500
X015500Y034000
X015250Y033250
X035250Y054000
X036000Y049500
X036000Y047500
X032250Y050000
X032750Y046000
X067750Y046000
X068250Y047500
X072500Y045500
X068250Y045500
X069500Y044500
X071000Y050250
X072250Y045000
X060000Y040000
X059750Y041000
X060500Y032500
X059500Y030000
X060250Y037500
X059750Y037250
X058750Y045000
X058500Y039500
X058250Y039000
X058000Y039750
X060250Y039000
X060000Y036750
X060250Y037000
X050500Y037500
X058500Y038250
X058500Y036500
X059000Y044000
X059250Y043000
X059500Y042000
X057500Y042000
X057250Y041750
X057000Y042000
X056750Y044750
X057750Y041000
X060250Y029000
X060000Y028000
X056500Y026500
X056250Y026250
X056000Y026000
X055500Y027750
X058500Y032500
X055750Y025750
X056750Y024750
X059000Y023500
X057000Y025000
X057250Y025250
X057500Y025500
X073250Y043000
X072750Y043000
X074750Y033500
X074500Y032500
X074250Y031500
X074000Y030500
X074500Y035500
X074500Y034500
X074250Y038000
X069750Y015000
X074250Y016000
X077500Y017000
X023250Y031000
X069250Y059000
X071750Y055000
X070000Y054000
X069500Y058000
X072000Y057000
X068000Y051500
X068000Y053500
X068000Y052500
X066000Y055000
X065000Y055250
X058750Y059250
X022750Y030000
T11
X045500Y036000
X086750Y063000
X062000Y057500
X056250Y023500
X024000Y018000
X087250Y062500
X014500Y031500
X010000Y012500
X016000Y018000
X010500Y030500
X019750Y037500
X038000Y035500
X048000Y050000
X053750Y029000
X069300Y017000
X012150Y031500
X059250Y059000
X011000Y038750
T30
X076000Y057000
X076000Y056000
X076000Y055000
X076000Y054000
X076000Y053000
X076000Y062000
X076000Y061000
X076000Y060000
X076000Y059000
X076000Y050000
X067000Y057000
X067000Y056000
X067000Y055000
X067000Y062000
X067000Y061000
X067000Y060000
X067000Y059000
X067000Y058000
X073000Y055000
X073000Y056000
X073000Y057000
X073000Y050000
X073000Y051000
X073000Y052000
X073000Y053000
X073000Y054000
X067000Y054000
X067000Y053000
X067000Y052000
X067000Y051000
X067000Y050000
X073000Y058000
X073000Y059000
X073000Y060000
X073000Y061000
X073000Y062000
X078000Y052000
X077000Y052000
X079000Y053000
X079000Y054000
X079000Y055000
X079000Y056000
X079000Y057000
X079000Y050000
X052000Y062000
X052000Y061000
X052000Y060000
X052000Y059000
X052000Y058000
X052000Y057000
X048000Y056000
X049000Y056000
X051000Y050000
X051000Y051000
X051000Y053000
X052000Y054000
X052000Y053000
X052000Y052000
X052000Y051000
X052000Y050000
X052000Y056000
X052000Y055000
X058000Y055000
X058000Y056000
X058000Y057000
X058000Y058000
X058000Y059000
X058000Y050000
X058000Y051000
X058000Y052000
X058000Y053000
X058000Y054000
X063000Y060000
X062000Y060000
X060000Y060000
X063000Y062000
X062000Y062000
X060000Y062000
X058000Y060000
X058000Y061000
X058000Y062000
X064000Y053000
X064000Y054000
X064000Y055000
X064000Y056000
X064000Y057000
X064000Y058000
X061000Y054000
X061000Y053000
X061000Y058000
X061000Y057000
X061000Y056000
X061000Y055000
X061000Y052000
X061000Y051000
X061000Y050000
X064000Y050000
X064000Y051000
X064000Y052000
X054000Y040000
X055000Y040000
X051000Y037000
X052000Y037000
X052000Y040000
X051000Y040000
X054000Y037000
X055000Y037000
X063000Y048000
X062000Y048000
X052000Y044000
X052000Y043000
X052000Y049000
X052000Y048000
X052000Y047000
X052000Y046000
X052000Y045000
X058000Y048000
X058000Y049000
X058000Y043000
X058000Y044000
X058000Y045000
X058000Y046000
X058000Y047000
X069000Y036000
X068000Y036000
X070000Y048000
X069000Y048000
X079000Y058000
X079000Y059000
X079000Y060000
X079000Y061000
X079000Y062000
X063000Y030000
X063000Y029000
X058000Y031000
X058000Y030000
X058000Y029000
X058000Y028000
X058000Y027000
X058000Y033000
X058000Y032000
X060000Y035000
X059000Y035000
X062000Y036000
X055000Y034000
X058000Y034000
X053000Y035000
X054000Y035000
X052000Y032000
X052000Y031000
X052000Y030000
X052000Y029000
X052000Y028000
X052000Y034000
X052000Y033000
X055000Y028000
X055000Y029000
X055000Y030000
X055000Y031000
X055000Y032000
X055000Y033000
X042000Y036000
X063000Y036000
X055000Y022000
X055000Y023000
X055000Y024000
X052000Y024000
X052000Y023000
X052000Y022000
X058000Y023000
X058000Y022000
X058000Y024000
X060000Y017000
X059000Y017000
X058000Y021000
X058000Y020000
X058000Y019000
X058000Y018000
X054000Y017000
X053000Y017000
X055000Y018000
X055000Y019000
X055000Y020000
X055000Y021000
X052000Y021000
X052000Y020000
X052000Y019000
X052000Y018000
X031000Y024000
X031000Y025000
X031000Y026000
X031000Y019000
X031000Y020000
X031000Y021000
X031000Y022000
X031000Y023000
X029000Y005000
X029000Y008000
X030000Y005000
X030000Y008000
X028000Y003000
X031000Y003000
X032000Y003000
X042000Y028000
X042000Y029000
X043000Y034000
X043000Y033000
X043000Y032000
X043000Y031000
X043000Y030000
X043000Y029000
X043000Y028000
X043000Y025000
X043000Y024000
X043000Y023000
X043000Y022000
X043000Y021000
X043000Y020000
X043000Y019000
X043000Y018000
X043000Y017000
X043000Y016000
X043000Y015000
X049000Y020000
X049000Y021000
X049000Y022000
X049000Y015000
X049000Y016000
X049000Y017000
X049000Y018000
X049000Y019000
X043000Y027000
X043000Y026000
X049000Y032000
X049000Y033000
X049000Y034000
X049000Y027000
X049000Y028000
X049000Y029000
X049000Y030000
X049000Y031000
X049000Y023000
X049000Y024000
X049000Y025000
X049000Y026000
X031000Y031000
X031000Y032000
X031000Y033000
X031000Y034000
X031000Y027000
X031000Y028000
X031000Y029000
X031000Y030000
X007000Y032000
X007000Y033000
X007000Y034000
X001000Y034000
X001000Y033000
X001000Y032000
X001000Y031000
X007000Y031000
X013000Y030000
X013000Y031000
X013000Y032000
X013000Y033000
X013000Y034000
X010000Y034000
X010000Y033000
X010000Y032000
X010000Y031000
X010000Y030000
X012000Y026000
X011000Y026000
X013000Y028000
X013000Y029000
X010000Y029000
X010000Y028000
X010000Y027000
X013000Y027000
X007000Y026000
X007000Y027000
X007000Y028000
X007000Y029000
X007000Y030000
X001000Y030000
X001000Y029000
X001000Y028000
X001000Y027000
X001000Y026000
X002000Y014000
X003000Y014000
X005000Y010000
X005000Y012000
X008000Y010000
X007000Y010000
X008000Y012000
X007000Y012000
X001000Y010000
X004000Y010000
X004000Y012000
X001000Y012000
X006000Y007000
X008000Y007000
X006000Y004000
X008000Y004000
X004000Y003000
X005000Y003000
X008200Y003000
X009000Y003000
X009800Y003000
X010000Y007000
X010000Y004000
X022000Y026000
X022000Y027000
X022000Y028000
X022000Y029000
X025000Y028000
X025000Y027000
X025000Y026000
X025000Y029000
X016000Y027000
X016000Y026000
X016000Y032000
X016000Y031000
X016000Y030000
X016000Y029000
X016000Y028000
X022000Y030000
X022000Y031000
X022000Y032000
X025000Y032000
X025000Y031000
X025000Y030000
X001000Y020000
X001000Y019000
X001000Y018000
X001000Y017000
X001000Y016000
X001000Y015000
X001000Y025000
X001000Y024000
X001000Y023000
X001000Y022000
X001000Y021000
X007000Y015000
X007000Y016000
X007000Y017000
X007000Y018000
X010000Y024000
X010000Y023000
X010000Y022000
X010000Y021000
X073000Y035000
X010000Y019000
X010000Y025000
X007000Y022000
X007000Y023000
X007000Y024000
X007000Y025000
X007000Y019000
X007000Y020000
X007000Y021000
X019000Y018000
X018000Y018000
X013000Y019000
X016000Y019000
X012000Y018000
X011000Y018000
X013000Y020000
X016000Y020000
X013000Y021000
X016000Y021000
X013000Y022000
X016000Y022000
X013000Y023000
X016000Y023000
X013000Y024000
X013000Y025000
X016000Y025000
X016000Y024000
X022000Y023000
X022000Y024000
X022000Y025000
X022000Y019000
X022000Y020000
X022000Y021000
X022000Y022000
X025000Y022000
X025000Y021000
X025000Y020000
X025000Y019000
X025000Y034000
X025000Y033000
X025000Y025000
X025000Y024000
X025000Y023000
X010000Y048000
X002000Y048000
X014000Y055000
X015000Y055000
X003000Y055000
X004000Y055000
X003000Y057000
X004000Y057000
X014000Y057000
X015000Y057000
X023000Y048000
X019000Y048000
X019000Y049000
X019000Y050000
X016000Y050000
X016000Y049000
X016000Y048000
X020000Y050000
X020000Y047000
X021000Y050000
X021000Y047000
X015000Y049000
X015000Y050000
X020000Y052000
X018000Y046000
X019000Y052000
X019000Y047000
X017000Y046000
X021000Y046000
X016000Y047000
X025000Y056000
X025000Y055000
X025000Y054000
X025000Y053000
X025000Y052000
X023000Y051000
X023000Y050000
X023000Y049000
X025000Y048000
X025000Y047000
X025000Y046000
X025000Y051000
X025000Y050000
X025000Y049000
X021000Y039000
X021000Y042000
X021000Y043000
X024000Y037000
X024000Y038000
X023000Y047000
X023000Y046000
X023000Y044000
X023000Y043000
X023000Y042000
X023000Y041000
X023000Y040000
X023000Y039000
X025000Y040000
X025000Y039000
X025000Y038000
X025000Y037000
X025000Y045000
X025000Y044000
X025000Y043000
X025000Y042000
X025000Y041000
X018000Y036000
X017000Y036000
X016000Y039000
X016000Y038000
X016000Y037000
X016000Y044000
X016000Y043000
X016000Y042000
X016000Y041000
X016000Y040000
X019000Y042000
X019000Y043000
X019000Y044000
X019000Y037000
X019000Y038000
X019000Y039000
X019000Y040000
X019000Y041000
X027000Y018000
X027000Y003000
X028000Y018000
X038000Y031000
X038000Y032000
X040000Y034000
X040000Y033000
X040000Y032000
X040000Y031000
X040000Y030000
X040000Y029000
X010000Y020000
X072000Y035000
X073000Y031000
X073000Y032000
X073000Y033000
X073000Y034000
X073000Y027000
X073000Y028000
X073000Y029000
X073000Y030000
X078000Y028000
X077000Y028000
X076000Y030000
X076000Y029000
X079000Y029000
X079000Y030000
X079000Y031000
X079000Y032000
X079000Y033000
X079000Y034000
X079000Y035000
X076000Y035000
X076000Y034000
X076000Y033000
X076000Y032000
X076000Y031000
X067000Y029000
X067000Y028000
X067000Y027000
X067000Y031000
X063000Y031000
X065000Y031000
X064000Y031000
X067000Y030000
X065000Y030000
X061000Y029000
X061000Y030000
X061000Y031000
X061000Y027000
X065000Y027000
X061000Y028000
X067000Y034000
X067000Y033000
X067000Y032000
X061000Y032000
X061000Y033000
X061000Y034000
X063000Y034000
X064000Y034000
X065000Y034000
X079000Y042000
X079000Y043000
X079000Y044000
X076000Y044000
X076000Y043000
X076000Y042000
X076000Y041000
X079000Y041000
X078000Y040000
X077000Y040000
X079000Y036000
X079000Y037000
X079000Y038000
X076000Y038000
X076000Y037000
X076000Y036000
X079000Y045000
X079000Y046000
X079000Y047000
X079000Y048000
X079000Y049000
X076000Y049000
X076000Y048000
X076000Y047000
X076000Y046000
X076000Y045000
X067000Y017000
X067000Y016000
X067000Y015000
X067000Y021000
X067000Y020000
X067000Y019000
X067000Y018000
X067000Y024000
X067000Y023000
X067000Y022000
X061000Y019000
X061000Y020000
X061000Y021000
X061000Y022000
X061000Y023000
X061000Y024000
X061000Y018000
X073000Y020000
X073000Y021000
X073000Y022000
X073000Y023000
X073000Y024000
X073000Y015000
X073000Y016000
X073000Y017000
X073000Y018000
X073000Y019000
X067000Y026000
X067000Y025000
X073000Y025000
X073000Y026000
X061000Y049000
X064000Y049000
X067000Y049000
X073000Y049000
X064000Y043000
X064000Y044000
X064000Y045000
X064000Y046000
X067000Y046000
X067000Y045000
X067000Y044000
X067000Y043000
X061000Y046000
X061000Y045000
X061000Y044000
X061000Y043000
X064000Y037000
X064000Y038000
X064000Y039000
X064000Y040000
X064000Y041000
X064000Y042000
X061000Y038000
X061000Y037000
X061000Y042000
X061000Y041000
X061000Y040000
X061000Y039000
X070000Y037000
X070000Y038000
X070000Y039000
X070000Y040000
X070000Y041000
X070000Y042000
X067000Y038000
X067000Y037000
X067000Y042000
X067000Y041000
X067000Y040000
X067000Y039000
X070000Y043000
X070000Y044000
X070000Y045000
X070000Y046000
X042500Y056000
X047000Y057000
X046000Y057000
X042500Y058000
X045000Y057000
X046000Y054000
X046000Y052000
X049000Y054000
X043000Y052000
X043000Y053000
X045000Y054000
X048000Y054000
X047000Y054000
X048000Y053000
X047000Y052000
X048000Y052000
X036000Y036000
X035000Y036000
X034000Y037000
X037000Y037000
X031000Y037000
X031000Y038000
X031000Y039000
X031000Y040000
X031000Y041000
X031000Y042000
X034000Y047000
X034000Y044000
X034000Y043000
X031000Y045000
X031000Y046000
X031000Y047000
X031000Y043000
X031000Y044000
X037000Y038000
X037000Y039000
X037000Y040000
X034000Y039000
X034000Y038000
X034000Y041000
X034000Y040000
X037000Y047000
X034000Y042000
X037000Y041000
X037000Y042000
X037000Y043000
X037000Y044000
X036000Y046000
X037000Y051000
X037000Y052000
X037000Y053000
X037000Y055000
X037000Y054000
X037000Y056000
X037000Y048000
X037000Y049000
X037000Y050000
X036000Y055000
X036000Y056000
X040000Y050000
X040000Y049000
X040000Y048000
X040000Y047000
X040000Y053000
X040000Y055000
X040000Y052000
X040000Y051000
X040000Y056000
X035000Y046000
X034000Y053000
X034000Y052000
X034000Y051000
X031000Y052000
X031000Y053000
X031000Y054000
X031000Y055000
X031000Y056000
X031000Y051000
X034000Y054000
X034000Y050000
X034000Y049000
X034000Y048000
X031000Y048000
X031000Y049000
X031000Y050000
X041000Y036000
X040000Y037000
X043000Y037000
X048000Y042000
X047000Y042000
X050000Y040000
X049000Y040000
X048000Y040000
X047000Y040000
X046000Y040000
X048000Y037000
X049000Y037000
X050000Y037000
X046000Y037000
X047000Y037000
X043000Y038000
X043000Y039000
X043000Y040000
X043000Y041000
X043000Y042000
X040000Y042000
X040000Y041000
X040000Y040000
X040000Y039000
X040000Y038000
X042000Y046000
X041000Y046000
X043000Y047000
X043000Y048000
X043000Y049000
X043000Y050000
X043000Y051000
X046000Y044000
X046000Y043000
X049000Y043000
X049000Y044000
X043000Y043000
X043000Y044000
X049000Y045000
X049000Y046000
X049000Y047000
X049000Y048000
X049000Y049000
X046000Y049000
X046000Y048000
X046000Y047000
X046000Y046000
X046000Y045000
X040000Y044000
X040000Y043000
X076000Y058000
T32
X066470Y004310
X077950Y004310
X079030Y004310
X078490Y003190
X079570Y003190
X082270Y004310
X080650Y003190
X080110Y004310
X081190Y004310
X081730Y003190
X028238Y061547
X029261Y061547
X030088Y061547
X030088Y060563
X027411Y060563
X027411Y061547
X064850Y003190
X063230Y004310
X063770Y003190
X065390Y004310
X064310Y004310
X065930Y003190
X067010Y003190
X067550Y004310
T31
X022000Y014000
X023000Y014000
X013000Y014000
X014000Y014000
X015000Y014000
X016000Y014000
X017000Y014000
X018000Y014000
X034000Y018000
X034000Y019000
X034000Y020000
X035000Y018000
X035000Y019000
X035000Y020000
X035000Y021000
X034000Y021000
X034000Y022000
X034000Y023000
X034000Y024000
X035000Y022000
X035000Y023000
X035000Y024000
X035000Y025000
X035000Y026000
X035000Y027000
X034000Y025000
X034000Y026000
X034000Y027000
X035000Y028000
X034000Y028000
X034000Y029000
X034000Y030000
X034000Y031000
X035000Y029000
X035000Y030000
X035000Y031000
X035000Y032000
X035000Y033000
X035000Y034000
X034000Y032000
X034000Y033000
X034000Y034000
X050250Y004521
X047690Y004521
X047690Y002750
X050250Y002750
X043000Y004521
X040440Y004521
X086000Y049000
X085000Y049000
X086000Y050000
X085000Y050000
X086000Y051000
X085000Y051000
X086000Y057000
X085000Y057000
X086000Y058000
X085000Y058000
X086000Y052000
X086000Y053000
X086000Y054000
X086000Y055000
X086000Y056000
X085000Y052000
X085000Y053000
X085000Y054000
X085000Y055000
X085000Y056000
X086000Y061000
X085000Y061000
X086000Y062000
X085000Y062000
X085000Y059000
X085000Y060000
X086000Y059000
X086000Y060000
X086000Y043000
X086000Y044000
X086000Y045000
X086000Y046000
X086000Y047000
X086000Y048000
X085000Y048000
X040440Y002750
X043000Y002750
X013000Y048000
X013000Y047000
X013000Y049000
X013000Y050000
X002000Y055000
X002000Y059000
X018000Y061000
X019000Y061000
X020000Y061000
X021000Y061000
X008000Y055000
X007000Y055000
X006000Y055000
X021000Y055000
X020000Y055000
X019000Y055000
X022000Y061000
X023000Y061000
X019000Y014000
X020000Y014000
X021000Y014000
X085000Y043000
X085000Y044000
X085000Y045000
X085000Y046000
X085000Y047000
T54
X022763Y002165
T14
X036250Y061000
X030500Y011000
X046250Y061000
X028500Y011000
X012000Y059000
X012000Y057500
X012000Y056000
X013000Y064000
X011000Y064000
X036000Y002750
X036000Y003750
X036000Y004750
X029500Y011000
T53
X013236Y002165
T35
X026092Y062728
X031407Y062728
X028750Y063043
T17
X004100Y060800
X006000Y062000
T34
X038340Y061000
X046250Y063000
X044160Y061000
X048340Y061000
X034160Y061000
X036250Y063000
T24
X006000Y059600
T33
X001250Y001250
X088750Y063750
X070250Y003750
X045000Y001250
X001250Y063750
X075250Y003750
X084970Y003750
X041250Y062500
X060530Y003750
X088750Y001250
M30
