G04 start of page 3 for group 1 idx 1 *
G04 Title: Ultim809, solder *
G04 Creator: pcb 20091103 *
G04 CreationDate: Tue Apr  5 07:19:05 2011 UTC *
G04 For: matt *
G04 Format: Gerber/RS-274X *
G04 PCB-Dimensions: 900000 650000 *
G04 PCB-Coordinate-Origin: lower left *
%MOIN*%
%FSLAX25Y25*%
%LNBACK*%
%ADD11C,0.0200*%
%ADD12C,0.0100*%
%ADD13C,0.0250*%
%ADD14C,0.0600*%
%ADD15C,0.0680*%
%ADD16C,0.2500*%
%ADD17C,0.1000*%
%ADD18C,0.1500*%
%ADD19C,0.0700*%
%ADD20C,0.1450*%
%ADD21C,0.0800*%
%ADD22C,0.0909*%
%ADD23C,0.0712*%
%ADD24C,0.1200*%
%ADD25C,0.1600*%
%ADD26C,0.1800*%
%ADD27C,0.0400*%
%ADD30C,0.0300*%
%ADD31C,0.0380*%
%ADD32C,0.0350*%
%ADD33C,0.1250*%
%ADD34C,0.1100*%
%ADD35C,0.0900*%
%ADD36C,0.0709*%
%ADD37C,0.0512*%
%ADD38C,0.0150*%
%ADD39C,0.0060*%
G54D13*X700000Y460000D02*Y480000D01*
G54D12*X707500Y457500D02*Y482500D01*
X695000Y467500D02*Y485000D01*
X677500Y460000D02*X685000Y467500D01*
X682500Y455000D02*X695000Y467500D01*
G54D13*X700000Y460000D02*X695000D01*
X690000Y455000D01*
G54D12*X682500Y475000D02*Y485000D01*
X730000Y490000D02*X722500D01*
X710000Y502500D01*
X722500Y500000D02*X727500Y495000D01*
X732500Y485000D02*X710000D01*
X705000Y505000D02*Y490000D01*
X727500Y495000D02*X732500D01*
X735000Y492500D01*
Y487500D01*
X732500Y485000D01*
X710000D02*X707500Y482500D01*
X697500Y487500D02*X695000Y485000D01*
X705000Y490000D02*X702500Y487500D01*
X697500D01*
X702500Y507500D02*Y492500D01*
X697500D02*X700000Y495000D01*
X687500Y502500D02*X690000Y505000D01*
Y500000D02*X692500Y502500D01*
X695000Y495000D02*X697500Y497500D01*
X692500D02*X695000Y500000D01*
X700000Y495000D02*Y510000D01*
X685000Y467500D02*Y482500D01*
X682500Y472500D02*Y475000D01*
X702500Y492500D02*X700000Y490000D01*
X690000Y492500D02*X697500D01*
X700000Y490000D02*X692500D01*
X687500Y495000D02*X695000D01*
X685000Y482500D02*X692500Y490000D01*
X682500Y485000D02*X690000Y492500D01*
X680000Y480000D02*Y487500D01*
X687500Y495000D01*
X677500Y482500D02*Y490000D01*
X685000Y497500D01*
X692500D01*
X682500Y500000D02*X690000D01*
X680000Y502500D02*X687500D01*
X670000Y460000D02*X682500Y472500D01*
X675000Y485000D02*X660000Y470000D01*
X665000Y465000D02*X680000Y480000D01*
X677500Y482500D02*X662500Y467500D01*
X665000Y482500D02*Y492500D01*
X667500Y495000D01*
X672500D01*
X675000Y485000D02*Y492500D01*
X682500Y500000D01*
X672500Y495000D02*X680000Y502500D01*
G54D13*X690000Y455000D02*Y360000D01*
G54D12*X727500Y425000D02*X735000D01*
X722500Y420000D02*X727500Y425000D01*
X722500Y392500D02*Y420000D01*
X700000Y370000D02*X722500Y392500D01*
G54D13*X690000Y360000D02*X720000D01*
X690000Y350000D02*X720000D01*
Y360000D02*X730000Y350000D01*
G54D12*X745000Y325000D02*Y285000D01*
X747500Y277500D02*Y335000D01*
X750000Y270000D02*Y340000D01*
X752500Y262500D02*Y347500D01*
X740000Y305000D02*Y300000D01*
X742500Y315000D02*Y292500D01*
X730000Y280000D02*X742500Y292500D01*
X730000Y270000D02*X745000Y285000D01*
X730000Y290000D02*X740000Y300000D01*
G54D13*X767500Y290000D02*X760000D01*
X790000Y380000D02*X782500D01*
G54D12*X842500Y462500D02*Y232500D01*
X845000Y452500D02*Y230000D01*
X795000Y412500D02*Y280000D01*
X797500Y422500D02*Y277500D01*
X800000Y432500D02*Y275000D01*
X802500Y442500D02*Y272500D01*
X805000Y452500D02*Y270000D01*
X807500Y462500D02*Y267500D01*
X810000Y472500D02*Y265000D01*
X812500Y482500D02*Y262500D01*
X815000Y532500D02*Y260000D01*
X817500Y542500D02*Y257500D01*
X820000Y552500D02*Y255000D01*
X822500Y562500D02*Y252500D01*
X825000Y572500D02*Y250000D01*
X827500Y582500D02*Y247500D01*
X830000Y592500D02*Y245000D01*
X832500Y602500D02*Y242500D01*
X835000Y522500D02*Y240000D01*
X837500Y512500D02*Y237500D01*
X840000Y502500D02*Y235000D01*
X740000Y550000D02*Y430000D01*
X755000Y435000D02*Y385000D01*
X760000Y440000D02*X755000Y435000D01*
X735000Y425000D02*X740000Y430000D01*
X760000Y420000D02*X762500D01*
X755000Y385000D02*X760000Y380000D01*
X742500Y622500D02*Y380000D01*
X730000Y560000D02*X740000Y550000D01*
G54D13*X767500Y290000D02*X770000Y287500D01*
Y290000D02*X767500D01*
X770000Y287500D02*Y280000D01*
Y292500D02*X767500Y290000D01*
G54D12*X730000Y260000D02*Y257500D01*
Y240000D02*X752500Y262500D01*
X730000Y250000D02*X750000Y270000D01*
X730000Y260000D02*X747500Y277500D01*
G54D13*X780000Y377500D02*Y280000D01*
X782500Y380000D02*X780000Y377500D01*
Y380000D02*Y377500D01*
X782500Y380000D02*X780000D01*
Y280000D02*Y270000D01*
Y382500D02*Y380000D01*
X770000Y375000D02*Y292500D01*
Y290000D01*
Y287500D01*
X740000Y337500D02*Y372500D01*
X737500Y335000D02*X740000Y337500D01*
X722500Y335000D02*X737500D01*
X720000Y337500D02*X722500Y335000D01*
X720000Y350000D02*Y337500D01*
X730000Y340000D02*Y350000D01*
G54D12*X750000Y340000D02*X745000Y345000D01*
Y355000D02*X752500Y347500D01*
G54D13*X767500Y627500D02*X837500D01*
G54D12*X742500Y622500D02*X725000Y640000D01*
G54D13*X760000Y620000D02*X767500Y627500D01*
G54D12*X780000Y620000D02*X790000Y610000D01*
X760000Y620000D02*X780000D01*
X760000Y610000D02*X765000Y605000D01*
X830000D01*
X650000Y615000D02*X660000Y625000D01*
X670000Y620000D02*X655000Y605000D01*
X660000Y625000D02*X687500D01*
X697500Y615000D01*
X760000Y560000D02*X765000Y555000D01*
X817500D01*
X670000Y550000D02*X667500D01*
X665000D01*
X817500Y555000D02*X820000Y552500D01*
X765000Y565000D02*X820000D01*
X822500Y562500D01*
X765000Y575000D02*X822500D01*
X825000Y572500D01*
X760000Y590000D02*X765000Y585000D01*
X760000Y600000D02*X765000Y595000D01*
Y585000D02*X825000D01*
X827500Y582500D01*
X765000Y595000D02*X827500D01*
X830000Y592500D01*
X587500Y577500D02*Y592500D01*
X605000Y570000D02*Y602500D01*
X607500Y605000D01*
X655000D01*
G54D13*X590000Y350000D02*X610000Y370000D01*
Y340000D02*X630000Y360000D01*
X610000Y340000D02*X600000Y350000D01*
G54D12*X610000Y280000D02*X617500Y287500D01*
X610000Y290000D02*X615000Y295000D01*
Y322500D01*
X612500Y325000D02*X605000D01*
X615000Y322500D02*X612500Y325000D01*
X617500Y287500D02*Y332500D01*
X587500Y415000D02*Y385000D01*
Y337500D02*Y342500D01*
G54D13*X877500Y457500D02*Y627500D01*
X872500Y492500D02*Y625000D01*
X877500Y627500D02*X870000Y635000D01*
G54D12*X860000Y530000D02*X855000Y525000D01*
X860000Y520000D02*X855000Y515000D01*
G54D13*X860000Y490000D02*X867500Y497500D01*
X860000Y480000D02*X872500Y492500D01*
X867500Y497500D02*Y630000D01*
X790000Y490000D02*X780000Y500000D01*
G54D12*X805000Y465000D02*X807500Y462500D01*
Y475000D02*X810000Y472500D01*
X765000Y475000D02*X807500D01*
X765000Y485000D02*X810000D01*
X812500Y482500D01*
G54D13*X780000Y500000D02*X760000D01*
G54D12*Y540000D02*X765000Y535000D01*
X760000Y550000D02*X765000Y545000D01*
X760000Y570000D02*X765000Y565000D01*
X760000Y580000D02*X765000Y575000D01*
Y535000D02*X812500D01*
X815000Y532500D01*
X765000Y545000D02*X815000D01*
X817500Y542500D01*
X855000Y525000D02*X837500D01*
X835000Y522500D01*
X855000Y515000D02*X840000D01*
X837500Y512500D01*
X855000Y505000D02*X842500D01*
X840000Y502500D01*
X860000Y510000D02*X855000Y505000D01*
X860000Y470000D02*X855000Y465000D01*
X845000D01*
X842500Y462500D01*
X860000Y460000D02*X855000Y455000D01*
X847500D01*
X845000Y452500D01*
G54D13*X860000Y440000D02*X877500Y457500D01*
X850000Y440000D02*X860000D01*
Y430000D01*
X850000D01*
G54D12*X830000Y605000D02*X832500Y602500D01*
G54D13*X870000Y635000D02*X845000D01*
X837500Y627500D01*
G54D12*X700000Y450000D02*X722500D01*
X700000Y440000D02*X722500D01*
X725000Y442500D01*
X700000Y420000D02*X710000Y430000D01*
X705000Y435000D02*X700000Y430000D01*
X725000Y442500D02*Y455000D01*
X710000Y430000D02*X727500D01*
X732500D02*X727500Y435000D01*
X705000D01*
X695000Y452500D02*Y445000D01*
G54D13*X670000Y370000D02*X680000Y360000D01*
G54D12*X697500Y455000D02*X695000Y452500D01*
X697500Y455000D02*X705000D01*
X707500Y457500D01*
X760000Y420000D02*X762500D01*
X760000D02*X765000Y415000D01*
X792500D01*
X795000Y412500D01*
X760000Y430000D02*X765000Y425000D01*
X795000D01*
X797500Y422500D01*
X760000Y440000D02*X765000Y435000D01*
X760000Y460000D02*X765000Y455000D01*
X760000Y470000D02*X765000Y465000D01*
X760000Y480000D02*X765000Y475000D01*
X760000Y490000D02*X765000Y485000D01*
Y435000D02*X797500D01*
X800000Y432500D01*
Y445000D02*X802500Y442500D01*
X760000Y450000D02*X765000Y445000D01*
X800000D01*
X765000Y455000D02*X802500D01*
X805000Y452500D01*
X765000Y465000D02*X805000D01*
G54D13*X740000Y372500D02*X742500Y375000D01*
X770000D01*
Y400000D02*Y375000D01*
X780000Y400000D02*Y382500D01*
X782500Y380000D01*
X640000Y460000D02*X630000Y470000D01*
Y480000D01*
X620000D02*Y470000D01*
X610000Y460000D01*
X640000D02*X635000Y455000D01*
G54D12*X640000Y390000D02*X660000D01*
X665000Y395000D01*
Y465000D01*
X662500Y425000D02*Y467500D01*
X660000Y435000D02*Y470000D01*
X657500Y445000D02*Y475000D01*
X665000Y482500D01*
X640000Y420000D02*X657500D01*
X640000Y430000D02*X655000D01*
X640000Y440000D02*X652500D01*
X657500Y445000D01*
Y420000D02*X662500Y425000D01*
X655000Y430000D02*X660000Y435000D01*
X675000Y525000D02*X670000Y520000D01*
X675000Y515000D02*X670000Y510000D01*
X680000Y535000D02*X675000Y530000D01*
Y525000D01*
X680000D02*X675000Y520000D01*
Y515000D01*
X680000D02*X675000Y510000D01*
Y505000D01*
X670000Y500000D01*
X717500Y550000D02*Y512500D01*
X722500Y500000D02*Y592500D01*
X707500Y517500D02*Y587500D01*
X720000Y570000D02*Y510000D01*
X717500Y507500D01*
X707500D01*
X705000Y505000D01*
X717500Y512500D02*X715000Y510000D01*
X695000Y500000D02*Y580000D01*
X715000Y510000D02*X705000D01*
X702500Y507500D01*
X700000Y510000D02*X707500Y517500D01*
X690000Y505000D02*Y572500D01*
X692500Y502500D02*Y590000D01*
X697500Y607500D02*Y497500D01*
X700000Y540000D02*Y612500D01*
X697500Y615000D01*
X675000Y535000D02*X670000Y530000D01*
X640000D02*X635000D01*
X640000Y520000D02*X632500D01*
X640000Y510000D02*X630000D01*
X627500Y512500D02*Y582500D01*
X640000Y500000D02*X627500D01*
X625000Y502500D02*Y587500D01*
X670000Y550000D02*X667500D01*
X670000D02*X667500D01*
X665000D02*X660000Y555000D01*
X670000Y540000D02*X660000Y550000D01*
X675000Y552500D02*Y535000D01*
X672500Y555000D02*X675000Y552500D01*
X667500Y555000D02*X672500D01*
X637500D02*X660000D01*
X640000Y560000D02*X662500D01*
X667500Y555000D01*
X635000Y565000D02*X665000D01*
X670000Y560000D01*
X665000Y575000D02*X670000Y570000D01*
X632500Y575000D02*X665000D01*
X630000Y585000D02*X665000D01*
X670000Y580000D01*
X627500Y590000D02*X670000D01*
G54D13*X610000Y580000D02*X615000Y575000D01*
G54D12*X525000Y615000D02*X650000D01*
X580000Y580000D02*X575000Y585000D01*
X585000Y575000D02*X507500D01*
G54D13*X592500Y590000D02*Y562500D01*
G54D12*X575000Y585000D02*X505000D01*
G54D13*X555000Y565000D02*X515000D01*
X570000Y550000D02*X555000Y565000D01*
X570000Y550000D02*X580000D01*
G54D12*X592500Y532500D02*Y430000D01*
X590000Y540000D02*Y440000D01*
X597500Y517500D02*Y410000D01*
X595000Y525000D02*Y420000D01*
X600000Y510000D02*Y400000D01*
G54D13*X630000Y480000D02*X620000Y490000D01*
X610000Y460000D02*X615000Y455000D01*
G54D12*X587500Y547500D02*Y450000D01*
X630000Y510000D02*X627500Y512500D01*
Y500000D02*X625000Y502500D01*
G54D13*X615000Y495000D02*X610000Y490000D01*
G54D12*X605000Y495000D02*X610000Y500000D01*
Y510000D02*X602500Y502500D01*
X585000Y417500D02*Y550000D01*
Y417500D02*X587500Y415000D01*
X610000Y550000D02*X592500Y532500D01*
X610000Y560000D02*X590000Y540000D01*
G54D13*X592500Y562500D02*X580000Y550000D01*
G54D12*X610000Y570000D02*X587500Y547500D01*
G54D13*X620000Y490000D02*Y575000D01*
G54D12*X635000Y530000D02*X632500Y532500D01*
Y520000D02*X630000Y522500D01*
Y572500D02*X632500Y575000D01*
X635000Y545000D02*Y552500D01*
X637500Y555000D01*
X632500Y532500D02*Y562500D01*
X635000Y565000D01*
X630000Y522500D02*Y572500D01*
G54D13*X615000Y575000D02*Y495000D01*
G54D12*X610000Y540000D02*X595000Y525000D01*
X610000Y520000D02*X600000Y510000D01*
X610000Y530000D02*X597500Y517500D01*
X640000Y540000D02*X635000Y545000D01*
X640000Y490000D02*X650000Y500000D01*
Y552500D01*
G54D13*X615000Y455000D02*Y375000D01*
G54D12*X605000Y385000D02*Y495000D01*
X610000Y380000D02*X605000Y385000D01*
X602500Y502500D02*Y390000D01*
G54D13*X630000Y360000D02*X635000Y365000D01*
Y455000D02*Y365000D01*
G54D12*X580000Y440000D02*X572500Y432500D01*
X580000Y450000D02*X570000Y440000D01*
X580000Y460000D02*X567500Y447500D01*
X520000Y500000D02*X515000Y495000D01*
G54D13*X510000Y510000D02*X520000D01*
G54D12*X512500Y520000D02*X520000D01*
X577500Y410000D02*X492500D01*
X585000Y412500D02*Y395000D01*
X582500Y410000D02*Y390000D01*
X580000Y430000D02*X575000Y425000D01*
Y420000D01*
X572500Y432500D02*Y417500D01*
X570000Y440000D02*Y420000D01*
X567500Y415000D02*X582500D01*
X585000Y412500D01*
X565000D02*X580000D01*
X582500Y410000D01*
X602500Y375000D02*X570000D01*
X597500Y372500D02*X567500D01*
X602500Y370000D02*X565000D01*
X600000Y367500D02*X562500D01*
X570000Y375000D02*X560000Y385000D01*
X567500Y372500D02*X557500Y382500D01*
X565000Y370000D02*X555000Y380000D01*
X562500Y367500D02*X552500Y377500D01*
X585000Y325000D02*X595000Y335000D01*
G54D13*X615000Y375000D02*X610000Y370000D01*
G54D12*X615000Y335000D02*X595000D01*
X617500Y332500D02*X615000Y335000D01*
X610000Y330000D02*X600000D01*
G54D13*X610000Y370000D02*X620000Y360000D01*
G54D12*X600000Y330000D02*X580000Y310000D01*
X610000Y320000D02*X595000Y305000D01*
X572500D01*
X580000Y320000D02*X565000Y305000D01*
X550000Y370000D02*X545000Y365000D01*
Y342500D01*
G54D13*X687500Y352500D02*Y347500D01*
X680000Y360000D02*X690000Y350000D01*
X680000Y340000D02*X690000Y350000D01*
X670000Y340000D02*X680000D01*
G54D12*X685000Y195000D02*X667500D01*
X685000Y185000D02*X730000Y230000D01*
Y210000D02*X695000Y175000D01*
G54D13*X730000Y190000D02*X710000Y170000D01*
G54D12*X685000Y205000D02*X667500D01*
Y215000D02*X685000D01*
X667500Y225000D02*X685000D01*
X667500Y235000D02*X685000D01*
X667500Y245000D02*X685000D01*
Y255000D02*X667500D01*
X685000Y265000D02*X730000Y310000D01*
X685000Y255000D02*X730000Y300000D01*
X685000Y245000D02*X730000Y290000D01*
Y260000D02*Y257500D01*
X685000Y225000D02*X730000Y270000D01*
X685000Y235000D02*X730000Y280000D01*
X685000Y215000D02*X730000Y260000D01*
X685000Y205000D02*X730000Y250000D01*
X685000Y195000D02*X730000Y240000D01*
X665000Y165000D02*X715000D01*
X695000Y175000D02*X665000D01*
X735000Y145000D02*X665000D01*
X732500Y155000D02*X665000D01*
X697500Y150000D02*X730000D01*
G54D13*X710000Y170000D02*X693000D01*
G54D12*X737500Y217500D02*X797500Y277500D01*
X740000Y215000D02*X800000Y275000D01*
X742500Y212500D02*X802500Y272500D01*
X745000Y210000D02*X805000Y270000D01*
X747500Y207500D02*X807500Y267500D01*
X750000Y205000D02*X810000Y265000D01*
X752500Y202500D02*X812500Y262500D01*
X735000Y220000D02*X795000Y280000D01*
G54D13*X780000Y270000D02*X730000Y220000D01*
G54D12*X755000Y200000D02*X815000Y260000D01*
X757500Y197500D02*X817500Y257500D01*
X760000Y195000D02*X820000Y255000D01*
X762500Y192500D02*X822500Y252500D01*
X765000Y190000D02*X825000Y250000D01*
X767500Y187500D02*X827500Y247500D01*
X770000Y185000D02*X830000Y245000D01*
X772500Y182500D02*X832500Y242500D01*
X775000Y180000D02*X835000Y240000D01*
X777500Y177500D02*X837500Y237500D01*
X780000Y175000D02*X840000Y235000D01*
X782500Y172500D02*X842500Y232500D01*
X785000Y170000D02*X845000Y230000D01*
X715000Y165000D02*X730000Y180000D01*
X735000Y220000D02*Y157500D01*
X737500Y147500D02*Y217500D01*
X740000Y215000D02*Y145000D01*
X742500Y212500D02*Y160000D01*
X745000Y210000D02*Y140000D01*
X742500Y160000D02*Y142500D01*
X747500Y207500D02*Y137500D01*
X750000Y205000D02*Y135000D01*
X735000Y157500D02*X732500Y155000D01*
X737500Y147500D02*X735000Y145000D01*
X740000D02*X737500Y142500D01*
X742500D02*X740000Y140000D01*
X745000D02*X742500Y137500D01*
X747500D02*X745000Y135000D01*
X750000Y130000D02*X752500Y132500D01*
X755000Y125000D02*X757500Y127500D01*
X750000Y135000D02*X747500Y132500D01*
X755000Y130000D02*X752500Y127500D01*
X760000Y125000D02*X757500Y122500D01*
X752500Y132500D02*Y202500D01*
X755000Y200000D02*Y130000D01*
X757500Y127500D02*Y197500D01*
X760000Y195000D02*Y125000D01*
Y120000D02*X762500Y122500D01*
X765000Y115000D02*X767500Y117500D01*
Y112500D02*X770000Y115000D01*
Y110000D02*X772500Y112500D01*
Y107500D02*X775000Y110000D01*
X762500Y122500D02*Y192500D01*
X765000Y190000D02*Y120000D01*
X767500Y117500D02*Y187500D01*
X765000Y120000D02*X762500Y117500D01*
X770000Y185000D02*Y115000D01*
X772500Y112500D02*Y182500D01*
X775000Y110000D02*Y170000D01*
Y180000D01*
Y105000D02*X777500Y107500D01*
X780000Y100000D02*X782500Y102500D01*
X777500Y107500D02*Y177500D01*
X780000Y175000D02*Y105000D01*
X777500Y102500D01*
X782500D02*Y172500D01*
X785000Y170000D02*Y100000D01*
X782500Y97500D01*
X580000Y300000D02*X595000D01*
X610000Y310000D02*X595000Y295000D01*
X575000D01*
X572500Y305000D02*X567500Y300000D01*
X542500Y297500D02*X545000Y295000D01*
X542500Y290000D02*X537500Y295000D01*
X545000D02*X552500D01*
X555000Y292500D01*
Y285000D01*
X550000Y280000D01*
Y290000D02*X542500D01*
X602500D02*X580000D01*
X600000Y280000D02*X580000D01*
X575000Y295000D02*X570000Y290000D01*
Y272500D01*
X567500Y300000D02*Y275000D01*
X565000Y305000D02*Y277500D01*
X562500Y312500D02*Y280000D01*
X560000Y282500D02*Y317500D01*
X565000Y277500D02*X560000Y272500D01*
X562500Y280000D02*X557500Y275000D01*
X555000Y277500D02*X560000Y282500D01*
G54D13*X562500Y235000D02*Y165000D01*
X550000Y240000D02*Y230000D01*
X555000Y225000D01*
G54D12*X530000Y230000D02*X540000Y220000D01*
X550000D01*
G54D13*X555000Y225000D02*Y205000D01*
X550000Y200000D01*
X540000Y190000D02*Y170000D01*
Y210000D02*X550000Y200000D01*
X540000Y190000D01*
X645000Y275000D02*X650000Y270000D01*
G54D12*X645000Y257500D02*X667500Y235000D01*
X652500Y260000D02*X667500Y245000D01*
Y255000D02*X660000Y262500D01*
X667500Y195000D02*X615000Y247500D01*
X665000Y185000D02*X685000D01*
X625000Y225000D02*X665000Y185000D01*
X610000Y210000D02*X605000Y205000D01*
X667500D02*X622500Y250000D01*
X630000Y252500D02*X667500Y215000D01*
X637500Y255000D02*X667500Y225000D01*
X665000Y175000D02*X625000Y215000D01*
X585000Y185000D02*X645000D01*
Y175000D02*X577500D01*
X605000Y205000D02*X575000D01*
X577500Y165000D02*X645000D01*
Y185000D02*X665000Y165000D01*
Y155000D02*X645000Y175000D01*
Y165000D02*X665000Y145000D01*
X615000Y247500D02*X567500D01*
X605000Y235000D02*X590000D01*
X580000Y240000D02*X595000Y225000D01*
X652500Y260000D02*X560000D01*
X660000Y262500D02*X562500D01*
X685000Y265000D02*X565000D01*
X580000Y210000D02*X585000Y215000D01*
X610000Y230000D02*X605000Y235000D01*
X585000Y215000D02*X625000D01*
X595000Y225000D02*X625000D01*
X580000Y220000D02*X567500D01*
G54D13*X560000Y162500D02*X532500D01*
X530000Y165000D02*Y170000D01*
X562500Y165000D02*X560000Y162500D01*
X532500D02*X530000Y165000D01*
G54D12*X580000Y190000D02*X585000Y185000D01*
X577500Y175000D02*X575000Y177500D01*
Y195000D01*
X580000Y200000D01*
X575000Y205000D02*X572500Y202500D01*
Y170000D01*
X577500Y165000D01*
G54D13*X585000Y275000D02*X645000D01*
G54D12*X630000Y252500D02*X572500D01*
X637500Y255000D02*X575000D01*
X645000Y257500D02*X557500D01*
G54D13*X580000Y270000D02*X585000Y275000D01*
G54D12*X622500Y250000D02*X570000D01*
Y272500D02*X565000Y267500D01*
X567500Y275000D02*X562500Y270000D01*
G54D13*X520000Y290000D02*X537500D01*
G54D12*X520000Y320000D02*X537500Y302500D01*
Y295000D01*
X545000Y325000D02*X550000Y330000D01*
Y300000D02*X545000Y305000D01*
Y325000D01*
X550000Y340000D02*X542500Y332500D01*
Y297500D01*
X540000Y370000D02*X535000Y365000D01*
Y340000D01*
G54D13*X520000Y180000D02*X530000Y170000D01*
G54D12*X505000Y355000D02*Y375000D01*
X487500Y335000D02*X530000D01*
X480000Y327500D02*X487500Y335000D01*
X520000Y340000D02*X505000Y355000D01*
X535000Y340000D02*X530000Y335000D01*
X430000Y370000D02*X442500D01*
X465000Y332500D02*Y362500D01*
G54D13*X410000Y360000D02*X430000Y340000D01*
X450000Y360000D01*
G54D12*X480000Y362500D02*X477500Y365000D01*
X442500Y327500D02*X480000D01*
X410000Y285000D02*X422500D01*
X410000Y290000D02*Y345000D01*
X412500Y347500D02*Y297500D01*
X410000Y290000D02*X412500Y287500D01*
X467500Y302500D02*X445000D01*
X427500Y305000D02*X467500D01*
X430000Y290000D02*X455000D01*
X430000Y300000D02*X457500D01*
X465000Y292500D01*
X422500Y285000D02*X425000Y287500D01*
G54D13*X420000Y330000D02*Y290000D01*
G54D12*X425000Y302500D02*X427500Y305000D01*
X425000Y287500D02*Y302500D01*
X430000Y270000D02*X457500D01*
X415000Y275000D02*X460000D01*
X505000Y270000D02*X502500Y272500D01*
X457500Y270000D02*X460000Y267500D01*
X482500Y272500D02*X490000Y280000D01*
Y310000D02*X480000Y300000D01*
X502500Y307500D02*X495000Y315000D01*
X467500Y305000D02*X477500Y315000D01*
X502500Y272500D02*Y307500D01*
X472500Y297500D02*X467500Y302500D01*
X455000Y290000D02*X462500Y282500D01*
X400000Y207500D02*X397500Y205000D01*
X387500D01*
X417500Y187500D02*X430000Y200000D01*
X415000Y195000D02*X430000Y210000D01*
X447500Y215000D02*X437500Y205000D01*
X422500Y172500D02*X430000Y180000D01*
X420000D02*X430000Y190000D01*
X425000Y165000D02*X430000Y170000D01*
X410000Y165000D02*X387500D01*
X422500Y135000D02*Y172500D01*
X420000Y132500D02*Y180000D01*
X417500Y130000D02*Y187500D01*
X415000Y127500D02*Y195000D01*
X407500Y287500D02*X410000Y285000D01*
X405000D02*X415000Y275000D01*
X402500Y270000D02*X407500Y265000D01*
X447500D01*
X490000Y210000D02*X505000Y225000D01*
X512500Y202500D02*X490000Y180000D01*
G54D13*X520000Y210000D02*X540000D01*
G54D12*X520000Y230000D02*X530000D01*
X502500Y232500D02*Y252500D01*
X485000Y145000D02*Y255000D01*
X507500Y217500D02*Y247500D01*
X510000Y210000D02*Y245000D01*
X490000Y220000D02*X502500Y232500D01*
X490000Y230000D02*X500000Y240000D01*
X490000D02*X497500Y247500D01*
X512500Y242500D02*Y202500D01*
X482500Y142500D02*Y272500D01*
X480000Y300000D02*Y140000D01*
X477500Y142500D02*Y297500D01*
X475000Y300000D02*Y140000D01*
X472500Y160000D02*Y297500D01*
X510000Y245000D02*X515000Y250000D01*
X512500Y252500D02*X507500Y247500D01*
X505000Y225000D02*Y250000D01*
X517500Y247500D02*X512500Y242500D01*
X510000Y255000D02*X505000Y250000D01*
X500000Y240000D02*Y255000D01*
X497500Y257500D02*Y247500D01*
X507500Y257500D02*X502500Y252500D01*
X505000Y260000D02*X500000Y255000D01*
X502500Y262500D02*X497500Y257500D01*
X500000Y265000D02*X495000Y260000D01*
Y255000D01*
X490000Y250000D01*
X485000Y255000D02*X490000Y260000D01*
X457500Y255000D02*Y205000D01*
X460000Y267500D02*Y202500D01*
X487500Y142500D02*X485000Y145000D01*
Y140000D02*X482500Y142500D01*
X490000Y190000D02*X510000Y210000D01*
X490000Y200000D02*X507500Y217500D01*
G54D13*X520000Y240000D02*X550000D01*
G54D12*X565000Y265000D02*X500000D01*
X575000Y255000D02*X510000D01*
X572500Y252500D02*X512500D01*
X562500Y270000D02*X505000D01*
X565000Y267500D02*X502500D01*
X560000Y272500D02*X507500D01*
X557500Y275000D02*X505000D01*
X557500Y257500D02*X507500D01*
X562500Y262500D02*X502500D01*
X560000Y260000D02*X505000D01*
X567500Y247500D02*X517500D01*
X570000Y250000D02*X515000D01*
X435000Y140000D02*X437500Y137500D01*
X430000Y160000D02*X435000Y155000D01*
Y140000D01*
X425000Y137500D02*Y165000D01*
X437500Y205000D02*Y142500D01*
X440000Y202500D02*Y145000D01*
X442500Y200000D02*Y142500D01*
X445000Y197500D02*Y145000D01*
X447500Y195000D02*Y142500D01*
X450000Y192500D02*Y145000D01*
Y212500D02*X440000Y202500D01*
X452500Y210000D02*X442500Y200000D01*
X455000Y207500D02*X445000Y197500D01*
X457500Y205000D02*X447500Y195000D01*
X460000Y202500D02*X450000Y192500D01*
X462500Y282500D02*Y142500D01*
X465000Y292500D02*Y140000D01*
X467500Y285000D02*Y142500D01*
X470000Y290000D02*Y140000D01*
X390000Y305000D02*X395000Y300000D01*
X387500D02*X392500Y295000D01*
X385000D02*X390000Y290000D01*
X372500Y305000D02*X390000D01*
X365000Y325000D02*X405000D01*
X370000Y315000D02*X402500D01*
Y282500D02*Y270000D01*
X407500Y322500D02*Y287500D01*
X405000Y312500D02*Y285000D01*
X395000Y207500D02*X390000D01*
Y215000D02*X392500Y217500D01*
Y210000D02*X395000Y212500D01*
X397500Y210000D02*X395000Y207500D01*
X400000Y225000D02*X397500Y222500D01*
Y210000D01*
X402500Y215000D02*X400000Y212500D01*
Y207500D01*
G54D13*X360000Y27500D02*X404409D01*
G54D12*X387500Y165000D02*X380000Y157500D01*
G54D13*X352500Y27500D02*X360000D01*
G54D12*X420000Y255000D02*X440000D01*
X430000Y230000D02*X435000Y235000D01*
X447500D01*
X450000Y232500D01*
X430000Y240000D02*X450000D01*
X452500Y237500D01*
X430000Y250000D02*X452500D01*
X455000Y247500D01*
X452500Y260000D02*X457500Y255000D01*
X430000Y260000D02*X452500D01*
X432500Y225000D02*X400000D01*
X440000Y215000D02*X402500D01*
X437500Y220000D02*X430000D01*
X445000Y232500D02*X447500Y230000D01*
X445000Y232500D02*X442500D01*
X440000Y230000D01*
Y222500D01*
X437500Y230000D02*X432500Y225000D01*
X445000Y227500D02*X442500Y225000D01*
Y217500D01*
X440000Y215000D01*
Y222500D02*X437500Y220000D01*
X447500Y230000D02*Y215000D01*
X450000Y232500D02*Y212500D01*
X452500Y237500D02*Y210000D01*
X455000Y247500D02*Y207500D01*
X435000Y120000D02*X455000Y100000D01*
X452500Y97500D02*X432500Y117500D01*
G54D13*X404409Y27500D02*X430000D01*
G54D12*X395000Y300000D02*Y212500D01*
X392500Y295000D02*Y217500D01*
X390000Y290000D02*Y235000D01*
G54D39*X358300Y265700D02*X360000Y267500D01*
X352600Y264300D02*X357000Y260000D01*
X344300Y265700D02*X358300D01*
X344300Y264300D02*X352600D01*
G54D12*X737500Y142500D02*X487500D01*
X740000Y140000D02*X485000D01*
X440000Y120000D02*X760000D01*
X762500Y117500D02*X442500D01*
X445000Y115000D02*X765000D01*
X447500Y112500D02*X767500D01*
X450000Y110000D02*X770000D01*
X480000Y107500D02*X772500D01*
X475000Y105000D02*X775000D01*
X455000Y100000D02*X780000D01*
X782500Y97500D02*X452500D01*
X745000Y135000D02*X427500D01*
X742500Y137500D02*X437500D01*
X427500Y135000D02*X425000Y137500D01*
Y132500D02*X422500Y135000D01*
X747500Y132500D02*X425000D01*
X750000Y130000D02*X422500D01*
X420000Y127500D02*X417500Y130000D01*
X757500Y122500D02*X437500D01*
X422500Y130000D02*X420000Y132500D01*
X752500Y127500D02*X420000D01*
X755000Y125000D02*X417500D01*
X415000Y127500D01*
X795700Y31900D02*Y49300D01*
G54D13*X692500Y60000D02*X805000D01*
X822700Y43100D01*
G54D12*X795700Y49300D02*X790000Y55000D01*
X695000D02*X790000D01*
X777500Y102500D02*X477500D01*
G54D13*X655500Y17500D02*X656500D01*
X648500Y31900D02*Y31500D01*
X656500Y17500D02*X655500D01*
X656500D02*X659300Y20000D01*
Y17500D01*
X660000D01*
X662500D02*X662000D01*
X662500D02*X662000D01*
X660000D02*X659300D01*
X656500D01*
X662000D02*X660000D01*
X580000Y27500D02*X590000Y17500D01*
X430000Y27500D02*X580000D01*
X655500Y17500D02*X590000D01*
X792100D02*X662500D01*
X792100D02*X806500Y31900D01*
X662000Y17500D02*X659500Y20000D01*
X648500Y31900D02*Y31500D01*
G54D12*X677500Y37500D02*X654100D01*
X648500Y31900D01*
G54D13*X659300D02*Y20000D01*
G54D12*X677500Y37500D02*X695000Y55000D01*
G54D13*X675500Y43100D02*X675600D01*
X692500Y60000D01*
G54D12*X392500Y427500D02*Y352500D01*
X395000Y422500D02*X397500Y425000D01*
X402500D01*
X395000Y422500D02*Y350000D01*
X410000Y345000D02*X397500Y357500D01*
X370000Y420000D02*X387500Y402500D01*
X365000Y425000D02*X385000D01*
X387500Y427500D01*
X377500D02*X382500D01*
G54D13*X347500Y417500D02*Y420000D01*
X345000D01*
G54D12*X387500Y402500D02*Y357500D01*
X385000Y395000D02*Y360000D01*
X370000Y410000D02*X385000Y395000D01*
G54D13*X400000Y390000D02*X405000Y395000D01*
G54D12*X397500Y362500D02*X402500D01*
X405000Y365000D01*
X400000Y380000D02*X405000Y385000D01*
G54D13*X440000Y395000D02*X445000Y400000D01*
G54D12*X450000Y385000D02*X445000Y390000D01*
X577500Y335000D02*X585000D01*
X587500Y337500D01*
Y342500D02*X585000Y345000D01*
Y365000D01*
Y382500D02*X587500Y385000D01*
X580000Y397500D02*X570000Y407500D01*
G54D13*X450000Y360000D02*X455000D01*
G54D12*X445000Y382500D02*X442500Y385000D01*
X557500Y382500D02*X445000D01*
X560000Y385000D02*X450000D01*
X552500Y377500D02*X450000D01*
X390000Y345000D02*X395000Y350000D01*
X400000Y310000D02*X380000D01*
X402500Y315000D02*X405000Y312500D01*
Y325000D02*X407500Y322500D01*
X392500Y352500D02*X387500Y347500D01*
X400000Y360000D02*X412500Y347500D01*
G54D13*X350000Y340000D02*X400000D01*
X350000Y360000D02*X355000Y355000D01*
X380000D01*
G54D12*X382500Y365000D02*X357500D01*
X352500Y370000D01*
X452500Y355000D02*X460000Y347500D01*
Y335000D01*
X455000Y330000D01*
X435000Y320000D02*X442500Y327500D01*
X435000Y320000D02*X430000D01*
X455000Y330000D02*X440000D01*
X435000Y325000D01*
X427500Y315000D02*X445000D01*
X427500Y325000D02*X425000Y322500D01*
Y317500D01*
X427500Y315000D01*
X450000Y377500D02*X442500Y370000D01*
X437500Y317500D02*X445000Y325000D01*
X545000Y342500D02*X527500Y325000D01*
X580000Y330000D02*X562500Y312500D01*
X577500Y335000D02*X560000Y317500D01*
X445000Y325000D02*X527500D01*
G54D13*X420000Y330000D02*X430000Y340000D01*
G54D12*X477500Y315000D02*X495000D01*
X435000Y325000D02*X427500D01*
X477500Y365000D02*X405000D01*
X555000Y380000D02*X430000D01*
G54D13*X445000Y400000D02*X460000D01*
G54D12*X442500Y415000D02*X487500D01*
X492500Y410000D01*
X490000Y407500D02*X485000Y412500D01*
X430000Y400000D02*X442500Y412500D01*
X485000D02*X442500D01*
G54D13*X405000Y395000D02*X440000D01*
G54D12*X402500Y425000D02*X405000Y427500D01*
X430000Y390000D02*X445000D01*
X430000Y420000D02*X435000Y425000D01*
X405000Y385000D02*X442500D01*
X477500Y505000D02*X472500Y500000D01*
X470000Y502500D02*X475000Y507500D01*
X515000Y495000D02*X475000D01*
X470000Y475000D02*Y502500D01*
X465000Y507500D02*Y485000D01*
X467500Y505000D02*Y477500D01*
X465000Y485000D02*X460000Y480000D01*
X472500Y500000D02*Y475000D01*
X465000D02*X467500Y477500D01*
X472500Y472500D02*Y475000D01*
X460000Y460000D02*X472500Y472500D01*
X460000Y470000D02*X465000D01*
X470000Y475000D01*
X472500D02*Y472500D01*
X520000Y490000D02*X565000Y445000D01*
Y417500D01*
X567500Y415000D01*
X562500Y437500D02*Y415000D01*
X565000Y412500D01*
X490000Y407500D02*X570000D01*
X520000Y480000D02*X562500Y437500D01*
G54D13*X480000Y500000D02*X495000D01*
G54D12*X525000Y515000D02*X555000Y545000D01*
X470000Y512500D02*X465000Y507500D01*
X520000Y610000D02*X525000Y615000D01*
X495000Y575000D02*X505000Y585000D01*
G54D13*X510000Y560000D02*X515000Y565000D01*
G54D12*X495000Y525000D02*Y575000D01*
X507500D02*X497500Y565000D01*
Y522500D01*
G54D13*X510000Y530000D02*Y560000D01*
G54D12*X492500Y507500D02*X505000Y520000D01*
X512500D01*
G54D13*X505000Y510000D02*X510000D01*
G54D12*X520000Y520000D02*X512500D01*
X505000Y515000D02*X495000Y505000D01*
X505000Y515000D02*X525000D01*
G54D13*X495000Y500000D02*X505000Y510000D01*
G54D12*X495000Y505000D02*X477500D01*
X497500Y522500D02*X487500Y512500D01*
X475000Y507500D02*X492500D01*
X475000Y515000D02*X485000D01*
X470000Y520000D02*X475000Y515000D01*
X485000D02*X495000Y525000D01*
X487500Y512500D02*X470000D01*
X730000Y610000D02*X707500Y587500D01*
X730000Y600000D02*X722500Y592500D01*
X670000Y610000D02*X695000D01*
X697500Y607500D01*
X685000Y597500D02*X682500Y600000D01*
X670000D01*
X690000Y572500D02*X685000Y577500D01*
Y597500D01*
X355000Y640000D02*X352500Y637500D01*
X355000Y640000D02*X725000D01*
X585000Y575000D02*X587500Y577500D01*
X340000Y570000D02*X405000D01*
X352500Y637500D02*Y587500D01*
X627500Y582500D02*X630000Y585000D01*
X625000Y587500D02*X627500Y590000D01*
G54D13*X630000Y600000D02*X610000Y580000D01*
G54D12*X585000Y550000D02*X605000Y570000D01*
X555000Y545000D02*Y555000D01*
X550000Y560000D02*Y550000D01*
X525000Y525000D01*
X505000D01*
X400000Y530000D02*X392500Y522500D01*
X505000Y525000D02*X490000Y510000D01*
X472500D01*
X467500Y505000D01*
X430000Y500000D02*X450000D01*
X452500Y497500D01*
X422500Y500000D02*Y525000D01*
X462500Y497500D02*X435000Y525000D01*
Y540000D02*X405000Y570000D01*
X435000Y525000D02*Y540000D01*
X400000Y560000D02*X392500Y567500D01*
X342500D01*
X340000Y565000D01*
X365000Y505000D02*X370000Y500000D01*
X352500Y520000D02*Y540000D01*
Y520000D02*X347500Y515000D01*
X352500Y540000D02*X370000D01*
X395000Y485000D02*Y451000D01*
X396000Y450000D02*X395000D01*
Y451000D02*Y450000D01*
X420000Y490000D02*X400000Y510000D01*
X420000Y480000D02*Y490000D01*
X442500Y495000D02*X427500D01*
X422500Y500000D01*
X442500Y495000D02*X445000Y492500D01*
Y472500D01*
X400000Y490000D02*X395000Y485000D01*
X392500Y522500D02*Y460000D01*
X375000Y477500D02*X372500Y475000D01*
X402500Y460000D02*X400000D01*
X375000Y470000D02*X370000D01*
X452500Y497500D02*Y477500D01*
X370000Y550000D02*X375000Y545000D01*
Y477500D01*
X405000Y435000D02*X400000Y440000D01*
Y430000D02*X395000D01*
X392500Y427500D01*
X387500D02*Y442500D01*
X382500Y427500D02*X385000Y430000D01*
Y445000D01*
X392500Y460000D02*X377500Y445000D01*
X387500Y442500D02*X392500Y447500D01*
X390000Y450000D02*X385000Y445000D01*
X375000Y470000D02*X377500Y472500D01*
X372500Y475000D02*X365000D01*
X360000D02*X350000Y485000D01*
X365000Y475000D02*X355000Y465000D01*
X407500Y447500D02*X392500D01*
X405000Y450000D02*X396000D01*
X395000Y451000D02*X394000Y450000D01*
X395000Y451000D02*X396000Y450000D01*
X395000D02*X394000D01*
X390000D01*
X405000Y427500D02*Y435000D01*
X425000Y430000D02*X407500Y447500D01*
X427500Y435000D02*X402500Y460000D01*
X430000Y430000D02*X425000D01*
X435000Y425000D02*Y432500D01*
X432500Y435000D01*
X427500D01*
X455000Y475000D02*X465000D01*
X452500Y477500D02*X455000Y475000D01*
G54D13*X410000Y460000D02*X420000Y450000D01*
X460000D01*
X350000Y420000D02*X347500D01*
Y417500D02*X360000Y430000D01*
G54D12*X357500Y435000D02*X347500Y425000D01*
G54D13*X345000Y420000D02*X347500Y417500D01*
X350000Y420000D01*
G54D12*X362500Y395000D02*Y422500D01*
X335000Y415000D02*X340000Y410000D01*
X335000Y422500D02*Y415000D01*
X347500Y425000D02*X337500D01*
X335000Y422500D01*
G54D13*X345000Y420000D02*X340000D01*
G54D12*Y555000D02*X335000Y560000D01*
Y570000D01*
X375000Y555000D02*X340000D01*
X377500Y472500D02*Y552500D01*
X375000Y555000D01*
X340000Y520000D02*X335000Y525000D01*
X340000Y530000D02*X335000Y535000D01*
Y570000D02*X352500Y587500D01*
X377500Y445000D02*Y432500D01*
X372500Y435000D02*X357500D01*
X372500D02*X375000Y432500D01*
Y430000D01*
G54D13*X360000D02*X370000D01*
G54D12*X362500Y422500D02*X365000Y425000D01*
X375000Y430000D02*X377500Y427500D01*
G54D13*X20000Y590000D02*X30000D01*
X120000Y575000D02*X45000D01*
X30000Y590000D02*X45000Y575000D01*
X140000Y550000D02*X150000Y560000D01*
Y550000D02*X190000D01*
X150000Y560000D02*X207500D01*
X140000Y637500D02*X145000Y642500D01*
X140000Y570000D02*Y637500D01*
X210000Y557500D02*X207500Y560000D01*
X210000Y550000D02*Y557500D01*
X200000Y550000D02*Y520000D01*
X190000Y550000D02*Y520000D01*
G54D12*X219500Y525000D02*X239500Y545000D01*
X335000Y535000D02*X237500D01*
X239500Y545000D02*X315000D01*
X320000Y550000D01*
Y565000D01*
X335000Y525000D02*X232500D01*
G54D13*X250000Y610000D02*X252500D01*
X250000D02*Y607500D01*
X230000Y610000D02*X247500D01*
X250000Y607500D01*
X252500Y610000D01*
X315000Y642500D02*X145000D01*
X260925Y627283D02*Y613425D01*
X257500Y610000D01*
X250000Y607500D02*Y560000D01*
X247500Y610000D02*X250000D01*
X252500D02*X257500D01*
X300886Y615472D02*Y642386D01*
X301000Y642500D01*
X298000D02*X301000Y639500D01*
Y640000D01*
X303500Y642500D01*
G54D12*X190000Y490000D02*X230000D01*
X200000Y500000D02*X205000Y505000D01*
X225000D01*
X230000Y500000D01*
X232500Y485000D02*X195000D01*
Y475000D02*X225000D01*
X195000Y485000D02*X190000Y480000D01*
X195000Y452500D02*X235000D01*
X197500Y450000D02*X237500D01*
X200000Y447500D02*X240000D01*
X200000Y470000D02*X182500Y452500D01*
X215000Y465000D02*X232500D01*
X237500Y470000D01*
Y510000D01*
X240000Y462500D02*Y500000D01*
X195000Y475000D02*X190000Y470000D01*
Y480000D02*X185000Y475000D01*
X190000Y470000D02*X185000Y465000D01*
G54D13*X180000Y460000D02*X172500Y452500D01*
Y445000D01*
X110000Y502500D02*Y387500D01*
G54D12*X122500Y440000D02*X120000Y437500D01*
G54D13*Y512500D02*X110000Y502500D01*
G54D12*X122500D02*Y440000D01*
X120000Y505000D02*Y442500D01*
X170000Y440000D02*X175000Y435000D01*
X170000Y440000D02*X160000D01*
X175000Y435000D02*X195000D01*
X167500D02*X155000D01*
X160000Y430000D02*X165000Y425000D01*
X160000Y430000D02*X142500Y412500D01*
X160000Y420000D02*X165000Y415000D01*
G54D13*X190000Y440000D02*X177500D01*
X172500Y445000D02*X177500Y440000D01*
G54D12*X160000D02*X152500D01*
X190000Y430000D02*X172500D01*
X167500Y435000D01*
X137500Y425000D02*X152500Y440000D01*
X155000Y435000D02*X140000Y420000D01*
X137500Y385000D02*Y425000D01*
G54D39*X160000Y390000D02*X164000Y386000D01*
G54D12*X190000Y390000D02*X202500D01*
X187500Y450000D02*X190000Y447500D01*
X192500Y450000D02*X195000Y452500D01*
X197500Y430000D02*X190000D01*
X202500Y435000D02*X197500Y430000D01*
X185000Y447500D02*X187500Y445000D01*
X197500D01*
X200000Y447500D01*
X190000D02*X195000D01*
X197500Y450000D01*
X182500Y452500D02*Y445000D01*
X145000Y465000D02*X185000D01*
X145000Y475000D02*X185000D01*
X130000Y480000D02*X145000Y465000D01*
X130000Y490000D02*X145000Y475000D01*
X215000Y507500D02*X127500D01*
X212500Y510000D02*X125000D01*
X127500Y507500D02*X122500Y502500D01*
X125000Y510000D02*X120000Y505000D01*
X165000Y425000D02*X290000D01*
X230000Y420000D02*X220000D01*
X230000Y430000D02*X217500D01*
X190000Y410000D02*X205000D01*
X195000Y435000D02*X205000Y445000D01*
X237500Y450000D02*X245000Y457500D01*
X247500Y455000D02*X272500D01*
G54D39*X296000Y404000D02*X226000D01*
X291000Y406000D02*X164000D01*
X222000Y400000D02*X190000D01*
G54D12*X320000Y407500D02*Y460000D01*
X327500Y385000D02*Y460000D01*
X325000Y465000D02*X320000Y460000D01*
X355000Y465000D02*X325000D01*
X202500Y435000D02*X285000D01*
X205000Y445000D02*X287500D01*
X240000Y447500D02*X247500Y455000D01*
X216500D02*X232500D01*
X240000Y462500D01*
X242500Y460000D02*X235000Y452500D01*
X225000Y475000D02*X230000Y480000D01*
Y470000D02*X235000Y475000D01*
Y482500D01*
X232500Y485000D01*
X247500Y495000D02*X242500Y490000D01*
X247500Y485000D02*X245000Y482500D01*
X242500Y490000D02*Y460000D01*
X245000Y457500D02*Y482500D01*
X302500Y495000D02*X292500Y485000D01*
X247500D01*
X272500Y455000D02*X302500Y485000D01*
X310000Y500000D02*X322500D01*
X245000Y505000D02*X365000D01*
X302500Y500000D02*X310000D01*
G54D13*X192500Y512500D02*X120000D01*
G54D12*X242500Y515000D02*X347500D01*
X240000Y500000D02*X245000Y505000D01*
X237500Y510000D02*X242500Y515000D01*
X232500Y525000D02*X215000Y507500D01*
X237500Y535000D02*X212500Y510000D01*
G54D13*X200000Y520000D02*X192500Y512500D01*
G54D12*X302500Y500000D02*X297500Y495000D01*
X302500Y485000D02*X350000D01*
X297500Y495000D02*X247500D01*
X302500D02*X360000D01*
X250000Y390000D02*X297500D01*
X305000Y397500D01*
Y402500D01*
X307500Y405000D01*
G54D39*X295000Y410000D02*X291000Y406000D01*
X302000Y410000D02*X296000Y404000D01*
G54D12*X307500Y405000D02*X317500D01*
G54D39*X310000Y410000D02*X302000D01*
G54D12*X317500Y405000D02*X320000Y407500D01*
X112500Y170000D02*X105000Y177500D01*
Y195000D02*Y177500D01*
X100000Y210000D02*X87500D01*
X82500Y220000D02*X87500Y215000D01*
G54D13*X65000Y190000D02*X62500Y192500D01*
Y190000D02*X65000D01*
X62500D02*Y192500D01*
Y187500D02*X65000Y190000D01*
X62500Y187500D02*Y190000D01*
X65000D02*X70000D01*
X62500Y162500D02*Y187500D01*
G54D12*X137500Y287500D02*X130000Y280000D01*
G54D13*Y250000D02*X135000D01*
X137500Y247500D01*
G54D12*X142500Y152500D02*Y290000D01*
X130000Y240000D02*X125000Y235000D01*
G54D13*X137500Y247500D02*Y207500D01*
G54D12*X145000Y155000D02*Y280000D01*
Y150000D02*X142500Y152500D01*
G54D13*X105000Y305000D02*X119000D01*
X121500Y307500D01*
Y315000D01*
G54D12*X120000Y322500D02*X107500Y310000D01*
X70000Y320000D02*X67500D01*
X147500Y270000D02*Y157500D01*
X152500Y152500D01*
X145000Y155000D02*X155000Y145000D01*
Y135000D01*
X157500Y132500D01*
X150000Y285000D02*X145000Y280000D01*
X152500Y275000D02*X147500Y270000D01*
X142500Y290000D02*X147500Y295000D01*
G54D13*X62500Y160000D02*Y162500D01*
X60000Y160000D02*X62500Y162500D01*
X65000Y160000D01*
X60000D02*X62500D01*
X65000D01*
G54D12*X57500Y165000D02*X52500Y170000D01*
X10000D01*
G54D13*X30000Y157500D02*Y160000D01*
X32500D02*X60000D01*
X30000D02*X32500D01*
X27500D02*X30000D01*
X10000Y150000D02*Y160000D01*
X27500D01*
X30000Y140000D02*Y157500D01*
X27500Y160000D02*X30000Y157500D01*
X32500Y160000D01*
X20000Y140000D02*Y50000D01*
G54D12*X87500Y77500D02*Y125000D01*
X112500Y70000D02*Y115000D01*
X92500Y77500D02*Y127500D01*
X80000Y70000D02*X87500Y77500D01*
G54D13*X40000Y30000D02*X20000Y50000D01*
G54D12*X100000Y70000D02*X92500Y77500D01*
G54D13*X62500Y145000D02*Y152500D01*
X80000Y127500D02*X62500Y145000D01*
G54D12*X80000Y140000D02*X92500Y127500D01*
G54D13*X80000D02*Y120000D01*
G54D12*X87500Y125000D02*X77500Y135000D01*
G54D13*X62500Y152500D02*X70000Y160000D01*
X65000D02*X70000D01*
G54D12*X90000Y250000D02*X100000Y240000D01*
X125000Y235000D02*X95000D01*
X85000Y245000D01*
X87500Y215000D02*X125000D01*
X80000Y270000D02*Y140000D01*
X77500Y242500D02*Y135000D01*
X135000Y167500D02*Y185000D01*
X130000Y190000D01*
X100000Y200000D02*X105000Y195000D01*
X125000Y215000D02*X130000Y210000D01*
G54D13*X122500Y205000D02*X120000Y202500D01*
Y180000D01*
X135000Y205000D02*X122500D01*
X137500Y207500D02*X135000Y205000D01*
G54D12*X130000Y200000D02*X140000Y190000D01*
Y147500D01*
X145000Y150000D02*Y130000D01*
X147500Y127500D01*
X130000Y320000D02*X125000Y315000D01*
X100000Y310000D02*X107500D01*
X137500Y332500D02*Y287500D01*
X155000Y367500D02*X152500Y365000D01*
X155000Y375000D02*Y367500D01*
X152500Y370000D02*X150000Y367500D01*
X147500Y320000D02*X152500Y325000D01*
X155000Y345000D02*X92500D01*
X157500Y347500D02*X90000D01*
X155000Y350000D02*X87500D01*
X157500Y352500D02*X85000D01*
X87500Y350000D02*X85000Y347500D01*
X90000D02*X87500Y345000D01*
G54D13*X77500Y357500D02*X160000D01*
G54D12*X150000Y372500D02*X147500Y370000D01*
X145000Y372500D02*X147500Y375000D01*
X145000Y377500D02*X142500Y375000D01*
G54D13*X145000Y315000D02*X155000Y305000D01*
G54D12*X40000Y370000D02*Y315000D01*
X37500Y325000D02*Y372500D01*
X42500Y305000D02*Y367500D01*
X45000Y295000D02*Y365000D01*
X47500Y285000D02*Y362500D01*
X55000Y365000D02*X50000Y360000D01*
X45000Y375000D02*X40000Y370000D01*
X37500Y372500D02*X42500Y377500D01*
X50000Y360000D02*Y275000D01*
X52500Y367500D02*X47500Y362500D01*
X50000Y370000D02*X45000Y365000D01*
X47500Y372500D02*X42500Y367500D01*
X92500Y345000D02*X90000Y342500D01*
X152500Y365000D02*X55000D01*
X52500Y367500D02*X150000D01*
X142500Y375000D02*X45000D01*
X147500Y370000D02*X50000D01*
X145000Y372500D02*X47500D01*
X42500Y377500D02*X140000D01*
X137500Y380000D02*X40000D01*
X37500Y382500D02*X135000D01*
X85000Y352500D02*X82500Y350000D01*
G54D13*X70000Y340000D02*Y350000D01*
X77500Y357500D01*
G54D12*X40000Y380000D02*X35000Y375000D01*
X32500Y377500D02*X37500Y382500D01*
X35000Y375000D02*Y340000D01*
X32500Y335000D02*Y377500D01*
X70000Y250000D02*X77500Y242500D01*
X100000Y250000D02*X92500Y257500D01*
G54D13*X10000Y230000D02*X48500D01*
X10000D02*Y220000D01*
X58500Y240000D02*X48500Y230000D01*
G54D12*X10000Y270000D02*X45000D01*
X10000Y280000D02*X42500D01*
X10000Y290000D02*X40000D01*
X50000Y275000D02*X45000Y270000D01*
X42500Y280000D02*X47500Y285000D01*
X70000Y280000D02*X80000Y270000D01*
X82500Y350000D02*Y220000D01*
G54D13*X58500Y318500D02*Y240000D01*
G54D12*X70000Y320000D02*X67500D01*
G54D13*X70000Y340000D02*Y330000D01*
G54D12*Y290000D02*X80000Y300000D01*
Y347500D01*
X10000Y320000D02*X32500D01*
X10000Y300000D02*X37500D01*
X35000Y310000D02*X10000D01*
X37500Y300000D02*X42500Y305000D01*
X40000Y315000D02*X35000Y310000D01*
X32500Y320000D02*X37500Y325000D01*
X40000Y290000D02*X45000Y295000D01*
X10000Y330000D02*X27500D01*
X32500Y335000D01*
X95000Y340000D02*X92500Y337500D01*
G54D13*X70000Y330000D02*X58500Y318500D01*
G54D12*X100000Y340000D02*X95000D01*
X85000Y347500D02*Y245000D01*
G54D13*X70000Y300000D02*X62500Y292500D01*
G54D12*X90000Y342500D02*Y250000D01*
X87500Y345000D02*Y255000D01*
X92500Y257500D02*Y337500D01*
X10000Y210000D02*X57500D01*
G54D13*X62500Y192500D02*Y292500D01*
X240000Y180000D02*X247500Y172500D01*
X272500D01*
X280000Y180000D01*
G54D12*X155000Y225000D02*Y165000D01*
X152500Y232500D02*Y162500D01*
X150000Y240000D02*Y160000D01*
G54D13*X160000Y180000D02*X167500Y172500D01*
X182500D01*
G54D12*X152500Y152500D02*X180000D01*
X185000Y147500D01*
X202500Y152500D02*Y305000D01*
X205000Y300000D02*Y160000D01*
X207500Y255000D02*Y157500D01*
X200000Y140000D02*Y325000D01*
X197500Y152500D02*Y327500D01*
X195000Y150000D02*Y330000D01*
X220000Y310000D02*X213500D01*
X207500D02*X202500Y305000D01*
X232500Y310000D02*X227500Y305000D01*
X210000D01*
X205000Y300000D01*
X220000Y260000D02*X212500D01*
X207500Y255000D01*
X265000Y245000D03*
X185000Y280000D02*Y325000D01*
X182500Y290000D02*Y327500D01*
Y290000D02*X177500Y285000D01*
G54D13*X237500Y145000D02*X232500Y150000D01*
G54D12*X160000Y230000D02*X155000Y225000D01*
X160000Y240000D02*X152500Y232500D01*
X160000Y250000D02*X150000Y240000D01*
X177500Y285000D02*X150000D01*
X185000Y280000D02*X180000Y275000D01*
X152500D01*
X147500Y295000D02*X175000D01*
X180000Y300000D01*
G54D13*X182500Y172500D02*X190000Y180000D01*
G54D12*X185000Y147500D02*Y132500D01*
G54D13*X232500Y125000D02*X100000D01*
G54D12*X172500Y132500D02*X180000Y140000D01*
X157500Y132500D02*X172500D01*
X185000D02*X187500Y130000D01*
X210000D01*
X147500Y127500D02*X217500D01*
X230000Y140000D01*
X210000Y130000D02*X220000Y140000D01*
G54D13*X232500Y125000D02*X237500Y130000D01*
Y145000D01*
G54D12*X325000Y262500D02*Y292500D01*
X302500Y247500D02*Y330000D01*
X307500Y265000D02*X315000D01*
X317500Y257500D02*X320000Y255000D01*
X325000Y292500D02*X322500Y295000D01*
X340000Y290000D02*X345000Y285000D01*
X340000Y280000D02*X345000Y275000D01*
X340000Y250000D02*X345000Y245000D01*
X322500Y257500D02*X327500D01*
X330000Y260000D01*
Y255000D02*X332500Y257500D01*
X335000Y255000D02*X330000Y250000D01*
X320000D02*X330000D01*
X320000Y255000D02*X330000D01*
G54D39*X340000Y270000D02*X344300Y265700D01*
X340000Y260000D02*X344300Y264300D01*
G54D12*X350000Y280000D02*X377500D01*
X350000Y290000D02*X382500D01*
X345000Y275000D02*X375000D01*
X345000Y285000D02*X380000D01*
X350000Y270000D02*X372500D01*
X345000Y295000D02*X385000D01*
X345000Y305000D02*X372500D01*
X350000Y300000D02*X387500D01*
X380000Y285000D02*X385000Y280000D01*
X382500Y290000D02*X387500Y285000D01*
X377500Y280000D02*X382500Y275000D01*
X332500Y347500D02*X387500D01*
X332500D02*X330000Y345000D01*
X332500Y342500D02*X335000Y345000D01*
X390000D01*
X332500Y257500D02*Y342500D01*
X317500Y262500D02*Y257500D01*
X315000Y265000D02*X317500Y262500D01*
X310000Y260000D02*X320000Y250000D01*
X305000Y255000D02*Y262500D01*
X307500Y265000D01*
X310000Y270000D02*X317500D01*
X320000Y267500D01*
Y260000D01*
X322500Y257500D01*
X310000Y240000D02*X302500Y247500D01*
X310000Y250000D02*X305000Y255000D01*
X335000D02*X357500D01*
X350000Y250000D02*X367500D01*
G54D39*X362500Y260000D02*X357000D01*
G54D12*X370000Y247500D02*Y222500D01*
X367500Y250000D02*X370000Y247500D01*
X362500Y235000D02*X345000D01*
X357500Y230000D02*X350000D01*
X360000Y227500D02*X357500Y230000D01*
X377500Y265000D02*Y220000D01*
X380000Y225000D02*Y240000D01*
X350000Y220000D02*X357500D01*
X345000Y215000D02*X362500D01*
X365000Y217500D01*
X340000Y230000D02*X345000Y225000D01*
X340000Y220000D02*X345000Y215000D01*
X340000Y210000D02*X345000Y205000D01*
X340000Y200000D02*X345000Y195000D01*
Y235000D02*X340000Y240000D01*
X345000Y225000D02*X357500D01*
X350000Y200000D02*X367500D01*
X372500Y205000D01*
X350000Y210000D02*X362500D01*
X367500Y215000D02*X362500Y210000D01*
X345000Y195000D02*X362500D01*
X345000Y205000D02*X360000D01*
X345000Y245000D02*X367500D01*
X382500Y242500D02*X380000Y240000D01*
X372500Y270000D02*X377500Y265000D01*
X375000Y275000D02*X380000Y270000D01*
X385000Y280000D02*Y240000D01*
X380000Y245000D02*Y270000D01*
X387500Y232500D02*X385000Y230000D01*
X387500Y285000D02*Y232500D01*
X382500Y275000D02*Y242500D01*
X375000Y195000D02*Y247500D01*
X372500Y242500D02*Y205000D01*
X350000Y190000D02*X370000D01*
X375000Y195000D01*
X357500Y220000D02*X362500Y225000D01*
Y230000D01*
X367500Y235000D02*Y215000D01*
X365000Y217500D02*Y237500D01*
X227500Y300000D02*Y247500D01*
X225000Y245000D02*X215000D01*
X210000Y240000D01*
X212500Y365000D02*Y322500D01*
G54D13*X210000Y140000D02*X220000Y150000D01*
X232500D02*X220000D01*
X222500Y380000D02*X217500Y375000D01*
G54D12*Y370000D02*X222500Y375000D01*
G54D13*Y380000D02*X240000D01*
G54D12*X212500Y370000D02*X217500D01*
G54D13*X340000D02*X347500Y377500D01*
X322500Y387500D02*Y365000D01*
G54D12*X315000Y375000D02*X317500Y377500D01*
Y385000D01*
G54D13*X347500Y377500D02*Y417500D01*
X350000Y360000D02*X340000Y370000D01*
X310000Y400000D02*X322500Y387500D01*
G54D12*X330000Y407500D02*Y350000D01*
G54D13*X312500Y362500D02*X320000D01*
X310000D02*X312500D01*
X310000Y360000D02*Y362500D01*
G54D39*X296000Y384000D02*X302500Y377500D01*
G54D12*X307500Y295000D02*X305000Y297500D01*
Y302500D01*
X322500Y295000D02*X307500D01*
X340000Y300000D02*X345000Y295000D01*
X307500Y335000D02*X302500Y330000D01*
X275000Y350000D02*X305000D01*
X270000Y345000D02*X275000Y350000D01*
G54D13*X240000Y370000D02*Y340000D01*
X250000Y370000D02*X257500Y362500D01*
X307500D01*
X310000D01*
G54D12*X222500Y375000D02*X315000D01*
X227500Y247500D02*X225000Y245000D01*
X220000Y240000D02*X232500D01*
X237500Y245000D01*
X265000D01*
X270000Y250000D02*Y345000D01*
X280000Y340000D02*Y255000D01*
X277500Y337500D02*Y245000D01*
X287500Y195000D02*Y337500D01*
X290000Y190000D02*Y340000D01*
X292500Y337500D02*Y200000D01*
X295000Y210000D02*Y340000D01*
X297500Y220000D02*Y337500D01*
X300000Y340000D02*Y230000D01*
X265000Y245000D02*X270000Y250000D01*
X275000Y340000D02*Y235000D01*
X285000Y340000D02*Y205000D01*
X282500Y337500D02*Y215000D01*
X272500Y337500D02*Y225000D01*
X340000Y310000D02*X345000Y305000D01*
X330000Y260000D02*Y345000D01*
X315000Y335000D02*X330000Y350000D01*
G54D13*X307500Y362500D02*X310000Y360000D01*
G54D12*X307500Y335000D02*X315000D01*
G54D13*X310000Y340000D02*Y360000D01*
X320000Y362500D02*X322500Y365000D01*
X310000Y360000D02*X312500Y362500D01*
G54D12*X290000Y50000D02*X280000Y40000D01*
Y30000D01*
X320000D02*X300000Y50000D01*
G54D13*X290000Y80000D02*X300000D01*
X352500Y27500D01*
G54D12*X285000Y110000D02*Y160000D01*
X125000Y315000D02*Y295000D01*
X130000Y290000D01*
Y310000D02*X135000Y315000D01*
X152500Y332500D02*Y325000D01*
X157500Y342500D02*Y337500D01*
X155000Y335000D01*
X135000Y315000D02*Y337500D01*
X137500Y340000D01*
X155000D01*
Y335000D02*X140000D01*
X137500Y332500D01*
G54D13*X165000Y305000D02*X172500Y312500D01*
Y335000D02*Y312500D01*
X155000Y305000D02*X165000D01*
G54D12*X180000Y300000D02*Y330000D01*
X142500Y412500D02*Y380000D01*
X140000Y377500D01*
X145000Y405000D02*Y377500D01*
X140000Y382500D02*X137500Y380000D01*
X135000Y382500D02*X137500Y385000D01*
X160000Y380000D02*X155000Y375000D01*
X147500Y397500D02*X160000Y410000D01*
Y400000D02*X150000Y390000D01*
X160000Y420000D02*X145000Y405000D01*
X160000Y390000D02*X152500Y382500D01*
Y370000D01*
X150000Y390000D02*Y372500D01*
X147500Y375000D02*Y397500D01*
X140000Y420000D02*Y382500D01*
X165000Y395000D02*X297500D01*
X165000Y415000D02*X292500D01*
G54D39*X226000Y404000D02*X222000Y400000D01*
G54D12*X222500Y390000D02*X210000D01*
G54D39*X160000Y410000D02*X164000Y406000D01*
G54D12*X160000Y400000D02*X165000Y395000D01*
G54D39*X164000Y386000D02*X300000D01*
X164000Y384000D02*X296000D01*
G54D13*X170000Y370000D02*Y367500D01*
Y370000D02*X167500D01*
G54D39*X160000Y380000D02*X164000Y384000D01*
G54D13*X170000Y367500D02*X172500Y370000D01*
X170000D01*
X180000D02*X185000Y375000D01*
X217500D01*
G54D12*X207500Y365000D02*X212500Y370000D01*
G54D13*X180000Y360000D02*X172500Y352500D01*
X190000Y360000D02*X180000Y370000D01*
X172500D01*
Y352500D02*X165000D01*
X160000Y357500D01*
X167500Y370000D02*X170000Y367500D01*
Y360000D01*
X167500Y370000D02*X160000D01*
G54D12*X212500Y310000D02*Y311000D01*
X213500Y310000D01*
X212500Y311000D02*Y322500D01*
X213500Y310000D02*X212500D01*
Y311000D02*X211500Y310000D01*
X212500D02*X211500D01*
X207500D01*
G54D13*X240000Y340000D02*X220000Y320000D01*
G54D12*X200000Y325000D02*X207500Y332500D01*
X197500Y327500D02*X205000Y335000D01*
X195000Y330000D02*X202500Y337500D01*
X207500Y332500D02*Y365000D01*
X205000Y335000D02*Y365000D01*
X180000Y330000D02*X195000Y345000D01*
X182500Y327500D02*X197500Y342500D01*
G54D13*X190000Y352500D02*X172500Y335000D01*
G54D12*X185000Y325000D02*X200000Y340000D01*
X195000Y345000D02*Y365000D01*
G54D13*X190000Y360000D02*Y352500D01*
G54D12*X197500Y342500D02*Y370000D01*
X200000Y340000D02*Y365000D01*
X202500Y337500D02*Y367500D01*
G54D11*G36*
X727000Y353000D02*Y347000D01*
X733000D01*
Y353000D01*
X727000D01*
G37*
G54D14*X720000Y350000D03*
X730000Y310000D03*
Y320000D03*
Y330000D03*
Y340000D03*
Y270000D03*
Y280000D03*
Y290000D03*
Y300000D03*
G54D11*G36*
X777000Y283000D02*Y277000D01*
X783000D01*
Y283000D01*
X777000D01*
G37*
G54D14*X770000Y280000D03*
X760000Y300000D03*
Y290000D03*
X790000D03*
Y300000D03*
Y310000D03*
Y320000D03*
Y330000D03*
Y340000D03*
Y350000D03*
X760000D03*
Y340000D03*
Y330000D03*
Y320000D03*
Y310000D03*
X670000Y290000D03*
Y280000D03*
Y270000D03*
Y310000D03*
X630000D03*
X650000D03*
X640000D03*
X670000Y300000D03*
G54D11*G36*
X647000Y303000D02*Y297000D01*
X653000D01*
Y303000D01*
X647000D01*
G37*
G54D14*X610000Y290000D03*
Y300000D03*
Y310000D03*
Y270000D03*
X650000D03*
X610000Y280000D03*
G54D11*G36*
X667000Y343000D02*Y337000D01*
X673000D01*
Y343000D01*
X667000D01*
G37*
G54D14*X670000Y330000D03*
Y320000D03*
X610000D03*
Y330000D03*
Y340000D03*
G54D11*G36*
X627000Y343000D02*Y337000D01*
X633000D01*
Y343000D01*
X627000D01*
G37*
G36*
X637000D02*Y337000D01*
X643000D01*
Y343000D01*
X637000D01*
G37*
G36*
X647000D02*Y337000D01*
X653000D01*
Y343000D01*
X647000D01*
G37*
G54D14*X790000Y420000D03*
Y430000D03*
Y440000D03*
X760000D03*
Y430000D03*
Y420000D03*
Y410000D03*
X790000D03*
G54D11*G36*
X777000Y403000D02*Y397000D01*
X783000D01*
Y403000D01*
X777000D01*
G37*
G54D14*X770000Y400000D03*
X790000Y360000D03*
Y370000D03*
Y380000D03*
G54D11*G36*
X757000Y383000D02*Y377000D01*
X763000D01*
Y383000D01*
X757000D01*
G37*
G54D14*X760000Y370000D03*
Y360000D03*
X790000Y450000D03*
Y460000D03*
Y470000D03*
Y480000D03*
Y490000D03*
X760000D03*
Y480000D03*
G54D15*X850000D03*
G54D14*X760000Y470000D03*
G54D15*X850000D03*
G54D14*X760000Y460000D03*
G54D15*X850000D03*
G54D14*X760000Y450000D03*
G54D15*X850000D03*
Y440000D03*
Y430000D03*
G54D11*G36*
X629300Y46100D02*Y40100D01*
X635300D01*
Y46100D01*
X629300D01*
G37*
G54D14*X637700Y31900D03*
G54D16*X605300Y37500D03*
G54D14*X643100Y43100D03*
X648500Y31900D03*
X653900Y43100D03*
X659300Y31900D03*
X670100D03*
X664700Y43100D03*
X675500D03*
X670000Y170000D03*
Y160000D03*
Y150000D03*
G54D16*X702500Y37500D03*
G54D11*G36*
X776500Y46100D02*Y40100D01*
X782500D01*
Y46100D01*
X776500D01*
G37*
G54D14*X790300Y43100D03*
X784900Y31900D03*
X795700D03*
X801100Y43100D03*
X811900D03*
X822700D03*
X806500Y31900D03*
X817300D03*
G54D16*X849700Y37500D03*
X752500D03*
G54D14*X670000Y210000D03*
Y200000D03*
Y190000D03*
Y180000D03*
Y240000D03*
Y230000D03*
Y220000D03*
X610000Y190000D03*
Y200000D03*
Y210000D03*
Y220000D03*
Y230000D03*
Y240000D03*
Y180000D03*
X730000Y200000D03*
Y210000D03*
Y220000D03*
Y230000D03*
Y240000D03*
Y150000D03*
Y160000D03*
Y170000D03*
Y180000D03*
Y190000D03*
X670000Y260000D03*
Y250000D03*
X730000D03*
Y260000D03*
X610000Y490000D03*
X640000D03*
X670000D03*
X730000D03*
X640000Y430000D03*
Y440000D03*
Y450000D03*
Y460000D03*
G54D11*G36*
X667000Y463000D02*Y457000D01*
X673000D01*
Y463000D01*
X667000D01*
G37*
G54D14*X670000Y450000D03*
Y440000D03*
Y430000D03*
G54D11*G36*
X607000Y463000D02*Y457000D01*
X613000D01*
Y463000D01*
X607000D01*
G37*
G54D14*X610000Y450000D03*
Y440000D03*
Y430000D03*
X640000Y370000D03*
Y380000D03*
Y390000D03*
Y400000D03*
Y410000D03*
Y420000D03*
X610000Y380000D03*
Y370000D03*
Y420000D03*
Y410000D03*
Y400000D03*
Y390000D03*
X700000Y370000D03*
Y380000D03*
Y390000D03*
Y400000D03*
Y410000D03*
Y420000D03*
X670000Y380000D03*
Y370000D03*
Y420000D03*
Y410000D03*
Y400000D03*
Y390000D03*
X700000Y430000D03*
Y440000D03*
Y450000D03*
Y460000D03*
G54D11*G36*
X422000Y563000D02*Y557000D01*
X428000D01*
Y563000D01*
X422000D01*
G37*
G54D17*X462500Y610000D03*
G54D18*X441600D03*
X483400D03*
G54D14*X470000Y570000D03*
X460000D03*
X425000Y580000D03*
X450000Y570000D03*
G54D18*X462500Y630000D03*
G54D11*G36*
X457000Y543000D02*Y537000D01*
X463000D01*
Y543000D01*
X457000D01*
G37*
G36*
Y523000D02*Y517000D01*
X463000D01*
Y523000D01*
X457000D01*
G37*
G54D14*X490000Y540000D03*
X430000Y520000D03*
Y530000D03*
G54D11*G36*
X447000Y543000D02*Y537000D01*
X453000D01*
Y543000D01*
X447000D01*
G37*
G36*
X477000D02*Y537000D01*
X483000D01*
Y543000D01*
X477000D01*
G37*
G36*
X467000D02*Y537000D01*
X473000D01*
Y543000D01*
X467000D01*
G37*
G36*
X477000Y533000D02*Y527000D01*
X483000D01*
Y533000D01*
X477000D01*
G37*
G54D14*X470000Y520000D03*
X480000D03*
G54D11*G36*
X357000Y363000D02*Y357000D01*
X363000D01*
Y363000D01*
X357000D01*
G37*
G54D14*X350000Y360000D03*
X340000Y370000D03*
X370000D03*
X310000D03*
Y380000D03*
Y390000D03*
Y400000D03*
Y410000D03*
Y420000D03*
X340000Y470000D03*
G54D11*G36*
X337000Y443000D02*Y437000D01*
X343000D01*
Y443000D01*
X337000D01*
G37*
G54D14*X340000Y430000D03*
X310000Y450000D03*
Y460000D03*
Y470000D03*
Y430000D03*
Y440000D03*
X370000Y380000D03*
Y390000D03*
Y400000D03*
X340000Y390000D03*
Y380000D03*
Y410000D03*
Y400000D03*
X370000Y470000D03*
X340000Y420000D03*
X370000Y410000D03*
Y420000D03*
Y430000D03*
Y440000D03*
G54D11*G36*
X357000Y463000D02*Y457000D01*
X363000D01*
Y463000D01*
X357000D01*
G37*
G54D14*X370000Y510000D03*
Y520000D03*
Y530000D03*
G54D11*G36*
X367000Y553000D02*Y547000D01*
X373000D01*
Y553000D01*
X367000D01*
G37*
G36*
Y543000D02*Y537000D01*
X373000D01*
Y543000D01*
X367000D01*
G37*
G54D14*X370000Y560000D03*
Y480000D03*
Y490000D03*
Y500000D03*
G54D11*G36*
X357000Y553000D02*Y547000D01*
X363000D01*
Y553000D01*
X357000D01*
G37*
G54D14*X360000Y560000D03*
X400000Y500000D03*
Y490000D03*
Y480000D03*
Y470000D03*
G54D11*G36*
X397000Y533000D02*Y527000D01*
X403000D01*
Y533000D01*
X397000D01*
G37*
G54D14*X400000Y550000D03*
Y520000D03*
Y510000D03*
G54D11*G36*
X397000Y563000D02*Y557000D01*
X403000D01*
Y563000D01*
X397000D01*
G37*
G54D18*X362500Y630000D03*
G54D17*Y610000D03*
G54D18*X341600D03*
X383400D03*
G54D19*X282382Y615472D03*
X292618D03*
X300886D03*
G54D20*X314075Y627283D03*
G54D19*X300886Y605630D03*
G54D14*X350000Y460000D03*
G54D11*G36*
X337000Y533000D02*Y527000D01*
X343000D01*
Y533000D01*
X337000D01*
G37*
G54D14*X340000Y520000D03*
Y510000D03*
X310000Y520000D03*
Y530000D03*
Y540000D03*
Y550000D03*
Y560000D03*
Y510000D03*
X340000Y540000D03*
Y500000D03*
Y490000D03*
Y480000D03*
X310000D03*
Y490000D03*
Y500000D03*
X410000Y360000D03*
X400000Y370000D03*
X430000D03*
G54D11*G36*
X477000Y423000D02*Y417000D01*
X483000D01*
Y423000D01*
X477000D01*
G37*
G54D14*X470000Y420000D03*
X500000Y400000D03*
X490000D03*
X480000D03*
X470000D03*
X460000D03*
X480000Y370000D03*
X490000D03*
X500000D03*
G54D11*G36*
X457000Y373000D02*Y367000D01*
X463000D01*
Y373000D01*
X457000D01*
G37*
G54D14*X470000Y370000D03*
X430000Y380000D03*
Y390000D03*
Y400000D03*
Y410000D03*
Y420000D03*
X400000D03*
Y410000D03*
Y400000D03*
Y390000D03*
Y380000D03*
G54D11*G36*
X417000Y463000D02*Y457000D01*
X423000D01*
Y463000D01*
X417000D01*
G37*
G54D14*X410000Y460000D03*
X430000Y470000D03*
Y480000D03*
Y490000D03*
Y500000D03*
Y510000D03*
X460000Y440000D03*
Y430000D03*
X490000D03*
Y440000D03*
X430000Y430000D03*
Y440000D03*
X490000Y450000D03*
Y460000D03*
Y470000D03*
Y480000D03*
Y490000D03*
G54D11*G36*
X457000Y493000D02*Y487000D01*
X463000D01*
Y493000D01*
X457000D01*
G37*
G54D14*X460000Y480000D03*
Y470000D03*
Y460000D03*
Y450000D03*
G54D11*G36*
X397000Y443000D02*Y437000D01*
X403000D01*
Y443000D01*
X397000D01*
G37*
G54D14*X400000Y430000D03*
X760000Y580000D03*
Y570000D03*
Y560000D03*
Y550000D03*
Y540000D03*
Y530000D03*
G54D11*G36*
X757000Y623000D02*Y617000D01*
X763000D01*
Y623000D01*
X757000D01*
G37*
G54D14*X760000Y610000D03*
Y600000D03*
Y590000D03*
G54D11*G36*
X757000Y503000D02*Y497000D01*
X763000D01*
Y503000D01*
X757000D01*
G37*
G54D14*X670000Y570000D03*
Y560000D03*
Y550000D03*
G54D11*G36*
X667000Y623000D02*Y617000D01*
X673000D01*
Y623000D01*
X667000D01*
G37*
G54D14*X670000Y610000D03*
Y600000D03*
Y590000D03*
Y580000D03*
X730000Y550000D03*
Y560000D03*
Y570000D03*
Y500000D03*
Y510000D03*
Y520000D03*
Y530000D03*
Y540000D03*
X670000D03*
Y530000D03*
Y520000D03*
Y510000D03*
Y500000D03*
X730000Y580000D03*
Y590000D03*
Y600000D03*
Y610000D03*
Y620000D03*
G54D11*G36*
X777000Y523000D02*Y517000D01*
X783000D01*
Y523000D01*
X777000D01*
G37*
G54D14*X770000Y520000D03*
X790000Y530000D03*
Y540000D03*
Y550000D03*
Y560000D03*
Y570000D03*
Y500000D03*
G54D11*G36*
X517000Y623000D02*Y617000D01*
X523000D01*
Y623000D01*
X517000D01*
G37*
G54D14*X520000Y610000D03*
Y600000D03*
Y590000D03*
Y580000D03*
Y570000D03*
G54D11*G36*
X477000Y563000D02*Y557000D01*
X483000D01*
Y563000D01*
X477000D01*
G37*
G54D14*X490000Y560000D03*
G54D11*G36*
X507000Y503000D02*Y497000D01*
X513000D01*
Y503000D01*
X507000D01*
G37*
G54D14*X510000Y510000D03*
Y530000D03*
X520000Y540000D03*
Y530000D03*
Y520000D03*
Y510000D03*
Y500000D03*
Y560000D03*
Y550000D03*
X580000D03*
Y560000D03*
Y570000D03*
Y580000D03*
Y590000D03*
Y500000D03*
Y510000D03*
Y520000D03*
Y530000D03*
Y540000D03*
G54D11*G36*
X627000Y603000D02*Y597000D01*
X633000D01*
Y603000D01*
X627000D01*
G37*
G54D14*X620000Y600000D03*
X600000D03*
G54D11*G36*
X627000Y623000D02*Y617000D01*
X633000D01*
Y623000D01*
X627000D01*
G37*
G54D14*X620000Y620000D03*
G54D11*G36*
X597000Y623000D02*Y617000D01*
X603000D01*
Y623000D01*
X597000D01*
G37*
G54D14*X580000Y600000D03*
Y610000D03*
Y620000D03*
X640000Y530000D03*
Y540000D03*
Y550000D03*
Y560000D03*
Y570000D03*
Y580000D03*
X610000Y540000D03*
Y530000D03*
G54D11*G36*
X607000Y583000D02*Y577000D01*
X613000D01*
Y583000D01*
X607000D01*
G37*
G54D14*X610000Y570000D03*
Y560000D03*
Y550000D03*
Y520000D03*
Y510000D03*
Y500000D03*
X640000D03*
Y510000D03*
Y520000D03*
X540000Y400000D03*
X550000D03*
X510000Y370000D03*
X520000D03*
Y400000D03*
X510000D03*
G54D11*G36*
X537000Y373000D02*Y367000D01*
X543000D01*
Y373000D01*
X537000D01*
G37*
G36*
X547000D02*Y367000D01*
X553000D01*
Y373000D01*
X547000D01*
G37*
G36*
X627000Y483000D02*Y477000D01*
X633000D01*
Y483000D01*
X627000D01*
G37*
G54D14*X620000Y480000D03*
X520000Y440000D03*
Y430000D03*
Y490000D03*
Y480000D03*
Y470000D03*
Y460000D03*
Y450000D03*
X580000Y480000D03*
Y490000D03*
Y430000D03*
Y440000D03*
Y450000D03*
Y460000D03*
Y470000D03*
G54D11*G36*
X687000Y363000D02*Y357000D01*
X693000D01*
Y363000D01*
X687000D01*
G37*
G54D14*X680000Y360000D03*
G54D11*G36*
X697000Y483000D02*Y477000D01*
X703000D01*
Y483000D01*
X697000D01*
G37*
G54D14*X690000Y480000D03*
X790000Y580000D03*
Y590000D03*
Y600000D03*
Y610000D03*
Y620000D03*
G54D15*X860000Y480000D03*
Y470000D03*
Y460000D03*
Y450000D03*
Y440000D03*
Y430000D03*
Y600000D03*
Y590000D03*
X850000Y600000D03*
Y590000D03*
G54D11*G36*
X846600Y623400D02*Y616600D01*
X853400D01*
Y623400D01*
X846600D01*
G37*
G54D15*X860000Y620000D03*
X850000Y610000D03*
X860000D03*
X850000Y560000D03*
Y550000D03*
Y540000D03*
Y530000D03*
Y520000D03*
X860000Y560000D03*
Y550000D03*
Y540000D03*
Y530000D03*
Y520000D03*
X850000Y580000D03*
X860000D03*
X850000Y570000D03*
X860000D03*
X850000Y510000D03*
X860000D03*
X850000Y500000D03*
X860000D03*
X850000Y490000D03*
X860000D03*
G54D11*G36*
X627000Y303000D02*Y297000D01*
X633000D01*
Y303000D01*
X627000D01*
G37*
G54D14*X630000Y290000D03*
X580000Y310000D03*
Y300000D03*
Y290000D03*
Y280000D03*
Y270000D03*
Y330000D03*
Y320000D03*
G54D11*G36*
X597000Y353000D02*Y347000D01*
X603000D01*
Y353000D01*
X597000D01*
G37*
G54D14*X590000Y350000D03*
X620000Y360000D03*
X550000Y340000D03*
G54D11*G36*
X577000Y343000D02*Y337000D01*
X583000D01*
Y343000D01*
X577000D01*
G37*
G36*
X527000Y353000D02*Y347000D01*
X533000D01*
Y353000D01*
X527000D01*
G37*
G54D14*X540000Y350000D03*
X520000Y320000D03*
Y310000D03*
Y300000D03*
Y290000D03*
Y280000D03*
G54D11*G36*
X517000Y343000D02*Y337000D01*
X523000D01*
Y343000D01*
X517000D01*
G37*
G54D14*X520000Y330000D03*
X550000Y280000D03*
Y290000D03*
Y300000D03*
Y310000D03*
Y320000D03*
Y330000D03*
G54D11*G36*
X417000Y363000D02*Y357000D01*
X423000D01*
Y363000D01*
X417000D01*
G37*
G36*
X627000D02*Y357000D01*
X633000D01*
Y363000D01*
X627000D01*
G37*
G54D14*X550000Y220000D03*
Y230000D03*
Y240000D03*
G54D11*G36*
X517000Y243000D02*Y237000D01*
X523000D01*
Y243000D01*
X517000D01*
G37*
G54D14*X520000Y230000D03*
Y220000D03*
X580000Y230000D03*
Y220000D03*
G54D11*G36*
X577000Y243000D02*Y237000D01*
X583000D01*
Y243000D01*
X577000D01*
G37*
G36*
X597000Y173000D02*Y167000D01*
X603000D01*
Y173000D01*
X597000D01*
G37*
G54D14*X590000Y170000D03*
X580000Y210000D03*
Y200000D03*
Y190000D03*
Y180000D03*
G54D11*G36*
X537000Y173000D02*Y167000D01*
X543000D01*
Y173000D01*
X537000D01*
G37*
G54D14*X530000Y170000D03*
X550000Y180000D03*
Y190000D03*
Y200000D03*
Y210000D03*
X520000D03*
Y200000D03*
Y190000D03*
Y180000D03*
X310000Y240000D03*
Y250000D03*
Y260000D03*
Y190000D03*
Y200000D03*
Y210000D03*
Y220000D03*
Y230000D03*
G54D11*G36*
X287000Y53000D02*Y47000D01*
X293000D01*
Y53000D01*
X287000D01*
G37*
G54D14*X290000Y80000D03*
G54D11*G36*
X297000Y53000D02*Y47000D01*
X303000D01*
Y53000D01*
X297000D01*
G37*
G54D14*X300000Y80000D03*
X280000Y30000D03*
G54D11*G36*
X307000Y33000D02*Y27000D01*
X313000D01*
Y33000D01*
X307000D01*
G37*
G54D14*X320000Y30000D03*
G54D11*G36*
X356000Y41500D02*Y33500D01*
X364000D01*
Y41500D01*
X356000D01*
G37*
G54D21*X360000Y47500D03*
G54D11*G36*
X291000Y114000D02*Y106000D01*
X299000D01*
Y114000D01*
X291000D01*
G37*
G54D21*X305000Y110000D03*
X285000D03*
G54D11*G36*
X417000Y283000D02*Y277000D01*
X423000D01*
Y283000D01*
X417000D01*
G37*
G54D14*X420000Y290000D03*
G54D21*X404409Y45217D03*
X430000D03*
G54D11*G36*
X427000Y343000D02*Y337000D01*
X433000D01*
Y343000D01*
X427000D01*
G37*
G54D14*X430000Y330000D03*
Y320000D03*
Y310000D03*
Y300000D03*
Y290000D03*
Y280000D03*
Y250000D03*
Y240000D03*
Y230000D03*
Y220000D03*
Y210000D03*
Y200000D03*
Y190000D03*
Y180000D03*
Y170000D03*
Y160000D03*
Y150000D03*
X490000Y200000D03*
Y210000D03*
Y220000D03*
Y150000D03*
G54D21*X502500Y27500D03*
X476909D03*
Y45217D03*
X502500D03*
G54D14*X490000Y160000D03*
Y170000D03*
Y180000D03*
Y190000D03*
X430000Y270000D03*
Y260000D03*
X490000Y320000D03*
Y330000D03*
Y340000D03*
Y270000D03*
Y280000D03*
Y290000D03*
Y300000D03*
Y310000D03*
Y230000D03*
Y240000D03*
Y250000D03*
Y260000D03*
X310000Y310000D03*
Y320000D03*
Y330000D03*
Y340000D03*
Y270000D03*
Y280000D03*
Y290000D03*
Y300000D03*
G54D11*G36*
X336600Y343400D02*Y336600D01*
X343400D01*
Y343400D01*
X336600D01*
G37*
G54D15*X340000Y330000D03*
Y320000D03*
X350000Y340000D03*
Y330000D03*
Y320000D03*
Y310000D03*
Y300000D03*
Y290000D03*
X340000Y310000D03*
Y300000D03*
Y290000D03*
Y280000D03*
X350000D03*
X340000Y270000D03*
Y260000D03*
Y250000D03*
X350000Y270000D03*
Y260000D03*
Y250000D03*
Y240000D03*
Y230000D03*
Y220000D03*
X340000Y240000D03*
Y230000D03*
Y220000D03*
Y210000D03*
X350000D03*
Y200000D03*
Y190000D03*
Y180000D03*
X340000Y200000D03*
Y190000D03*
Y180000D03*
G54D14*X70000Y320000D03*
Y330000D03*
Y340000D03*
G54D11*G36*
X7000Y343000D02*Y337000D01*
X13000D01*
Y343000D01*
X7000D01*
G37*
G54D14*X10000Y330000D03*
Y320000D03*
Y310000D03*
X70000D03*
X130000Y300000D03*
Y310000D03*
Y320000D03*
Y330000D03*
Y340000D03*
G54D11*G36*
X97000Y343000D02*Y337000D01*
X103000D01*
Y343000D01*
X97000D01*
G37*
G54D14*X100000Y330000D03*
Y320000D03*
Y310000D03*
Y300000D03*
G54D11*G36*
X117000Y263000D02*Y257000D01*
X123000D01*
Y263000D01*
X117000D01*
G37*
G54D14*X110000Y260000D03*
X130000Y280000D03*
Y290000D03*
X100000D03*
Y280000D03*
Y270000D03*
X130000D03*
X70000Y260000D03*
Y270000D03*
Y280000D03*
Y290000D03*
Y300000D03*
X10000D03*
Y290000D03*
Y280000D03*
Y270000D03*
Y260000D03*
G54D11*G36*
X17000Y143000D02*Y137000D01*
X23000D01*
Y143000D01*
X17000D01*
G37*
G54D14*X30000Y140000D03*
G54D11*G36*
X47000Y103000D02*Y97000D01*
X53000D01*
Y103000D01*
X47000D01*
G37*
G54D14*X50000Y120000D03*
G54D11*G36*
X77000Y103000D02*Y97000D01*
X83000D01*
Y103000D01*
X77000D01*
G37*
G54D14*X70000Y100000D03*
G54D11*G36*
X77000Y123000D02*Y117000D01*
X83000D01*
Y123000D01*
X77000D01*
G37*
G54D14*X70000Y120000D03*
G54D11*G36*
X7000Y103000D02*Y97000D01*
X13000D01*
Y103000D01*
X7000D01*
G37*
G54D14*X40000Y100000D03*
Y120000D03*
G54D11*G36*
X7000Y123000D02*Y117000D01*
X13000D01*
Y123000D01*
X7000D01*
G37*
G54D22*X132363Y21653D03*
G54D23*X227637D03*
G54D14*X60000Y70000D03*
G54D11*G36*
X77000Y73000D02*Y67000D01*
X83000D01*
Y73000D01*
X77000D01*
G37*
G36*
X57000Y43000D02*Y37000D01*
X63000D01*
Y43000D01*
X57000D01*
G37*
G54D14*X80000Y40000D03*
G54D11*G36*
X37000Y33000D02*Y27000D01*
X43000D01*
Y33000D01*
X37000D01*
G37*
G54D14*X50000Y30000D03*
G54D11*G36*
X79000Y33000D02*Y27000D01*
X85000D01*
Y33000D01*
X79000D01*
G37*
G54D14*X90000Y30000D03*
X98000D03*
G54D11*G36*
X97000Y73000D02*Y67000D01*
X103000D01*
Y73000D01*
X97000D01*
G37*
G54D14*X100000Y40000D03*
G54D15*X180000Y140000D03*
X170000D03*
X160000D03*
X150000D03*
X140000D03*
X130000D03*
G54D11*G36*
X226600Y143400D02*Y136600D01*
X233400D01*
Y143400D01*
X226600D01*
G37*
G54D15*X220000Y140000D03*
X210000D03*
X200000D03*
X190000D03*
G54D14*X220000Y260000D03*
Y270000D03*
Y280000D03*
Y290000D03*
X250000Y280000D03*
Y270000D03*
Y260000D03*
Y290000D03*
X160000Y270000D03*
Y260000D03*
G54D11*G36*
X157000Y323000D02*Y317000D01*
X163000D01*
Y323000D01*
X157000D01*
G37*
G54D14*X160000Y310000D03*
Y300000D03*
Y290000D03*
Y280000D03*
X220000Y300000D03*
Y310000D03*
Y320000D03*
X250000D03*
Y310000D03*
Y300000D03*
X10000Y200000D03*
Y190000D03*
Y180000D03*
Y170000D03*
Y160000D03*
Y150000D03*
Y250000D03*
Y240000D03*
Y230000D03*
Y220000D03*
Y210000D03*
X70000Y150000D03*
Y160000D03*
Y170000D03*
Y180000D03*
X100000Y240000D03*
Y230000D03*
Y220000D03*
Y210000D03*
Y200000D03*
Y190000D03*
G54D11*G36*
X97000Y253000D02*Y247000D01*
X103000D01*
Y253000D01*
X97000D01*
G37*
G54D14*X70000Y220000D03*
Y230000D03*
Y240000D03*
Y250000D03*
Y190000D03*
Y200000D03*
Y210000D03*
G54D11*G36*
X187000Y183000D02*Y177000D01*
X193000D01*
Y183000D01*
X187000D01*
G37*
G54D14*X180000Y180000D03*
X130000Y190000D03*
X160000D03*
G54D11*G36*
X117000Y183000D02*Y177000D01*
X123000D01*
Y183000D01*
X117000D01*
G37*
G54D14*X110000Y180000D03*
X130000Y200000D03*
X160000D03*
X130000Y210000D03*
X160000D03*
X130000Y220000D03*
X160000D03*
X130000Y230000D03*
X160000D03*
X130000Y240000D03*
Y250000D03*
X160000D03*
Y240000D03*
X220000Y230000D03*
Y240000D03*
Y250000D03*
Y190000D03*
Y200000D03*
Y210000D03*
Y220000D03*
X250000D03*
Y210000D03*
Y200000D03*
Y190000D03*
G54D11*G36*
X247000Y343000D02*Y337000D01*
X253000D01*
Y343000D01*
X247000D01*
G37*
G54D14*X250000Y330000D03*
Y250000D03*
Y240000D03*
Y230000D03*
G54D11*G36*
X97000Y483000D02*Y477000D01*
X103000D01*
Y483000D01*
X97000D01*
G37*
G54D14*X20000Y480000D03*
G54D11*G36*
X226600Y613400D02*Y606600D01*
X233400D01*
Y613400D01*
X226600D01*
G37*
G54D15*X220000Y610000D03*
G54D19*X274114Y615472D03*
Y605630D03*
G54D20*X260925Y627283D03*
X287500Y630433D03*
G54D11*G36*
X137000Y553000D02*Y547000D01*
X143000D01*
Y553000D01*
X137000D01*
G37*
G54D14*X150000Y550000D03*
G54D24*X120000Y590000D03*
Y575000D03*
Y560000D03*
X130000Y640000D03*
X110000D03*
G54D25*X41000Y608000D03*
X60000Y620000D03*
G54D26*Y596000D03*
G54D11*G36*
X27000Y553000D02*Y547000D01*
X33000D01*
Y553000D01*
X27000D01*
G37*
G54D14*X40000Y550000D03*
G54D11*G36*
X27000Y573000D02*Y567000D01*
X33000D01*
Y573000D01*
X27000D01*
G37*
G54D14*X40000Y570000D03*
G54D11*G36*
X186600Y553400D02*Y546600D01*
X193400D01*
Y553400D01*
X186600D01*
G37*
G54D15*X200000Y550000D03*
X210000D03*
G54D11*G36*
X56600Y553400D02*Y546600D01*
X63400D01*
Y553400D01*
X56600D01*
G37*
G54D15*X70000Y550000D03*
X80000D03*
G54D11*G36*
X137000Y573000D02*Y567000D01*
X143000D01*
Y573000D01*
X137000D01*
G37*
G54D14*X150000Y570000D03*
G54D15*X210000Y610000D03*
X200000D03*
X190000D03*
X180000D03*
G54D11*G36*
X16600Y593400D02*Y586600D01*
X23400D01*
Y593400D01*
X16600D01*
G37*
G54D15*X20000Y550000D03*
G54D14*X230000Y480000D03*
X190000D03*
Y490000D03*
Y500000D03*
G54D11*G36*
X157000Y503000D02*Y497000D01*
X163000D01*
Y503000D01*
X157000D01*
G37*
G54D15*X130000Y500000D03*
G54D14*X160000Y490000D03*
G54D15*X130000D03*
G54D14*X160000Y480000D03*
G54D11*G36*
X126600Y473400D02*Y466600D01*
X133400D01*
Y473400D01*
X126600D01*
G37*
G54D15*X130000Y480000D03*
G54D11*G36*
X197000Y503000D02*Y497000D01*
X203000D01*
Y503000D01*
X197000D01*
G37*
G54D14*X200000Y470000D03*
G54D11*G36*
X207000Y503000D02*Y497000D01*
X213000D01*
Y503000D01*
X207000D01*
G37*
G54D14*X210000Y470000D03*
G54D11*G36*
X147000Y493000D02*Y487000D01*
X153000D01*
Y493000D01*
X147000D01*
G37*
G54D14*X150000Y500000D03*
G54D11*G36*
X197000Y523000D02*Y517000D01*
X203000D01*
Y523000D01*
X197000D01*
G37*
G36*
X177000Y463000D02*Y457000D01*
X183000D01*
Y463000D01*
X177000D01*
G37*
G54D14*X190000Y520000D03*
Y470000D03*
X170000Y460000D03*
X210000D03*
X160000Y470000D03*
G54D11*G36*
X247000Y563000D02*Y557000D01*
X253000D01*
Y563000D01*
X247000D01*
G37*
G54D14*X250000Y550000D03*
Y540000D03*
Y530000D03*
Y520000D03*
G54D11*G36*
X227000Y513000D02*Y507000D01*
X233000D01*
Y513000D01*
X227000D01*
G37*
G54D14*X230000Y500000D03*
Y490000D03*
X250000Y480000D03*
Y470000D03*
Y460000D03*
Y510000D03*
Y500000D03*
Y490000D03*
G54D11*G36*
X207000Y393000D02*Y387000D01*
X213000D01*
Y393000D01*
X207000D01*
G37*
G54D14*X210000Y420000D03*
G54D11*G36*
X207000Y433000D02*Y427000D01*
X213000D01*
Y433000D01*
X207000D01*
G37*
G36*
X237000Y373000D02*Y367000D01*
X243000D01*
Y373000D01*
X237000D01*
G37*
G54D14*X240000Y380000D03*
X230000Y470000D03*
Y460000D03*
G54D11*G36*
X227000Y443000D02*Y437000D01*
X233000D01*
Y443000D01*
X227000D01*
G37*
G54D14*X230000Y430000D03*
Y420000D03*
Y410000D03*
Y400000D03*
Y390000D03*
X250000Y400000D03*
Y390000D03*
Y380000D03*
Y370000D03*
Y450000D03*
Y440000D03*
Y430000D03*
Y420000D03*
Y410000D03*
G54D11*G36*
X177000Y363000D02*Y357000D01*
X183000D01*
Y363000D01*
X177000D01*
G37*
G54D14*X170000Y360000D03*
X160000Y390000D03*
Y380000D03*
Y370000D03*
G54D11*G36*
X157000Y443000D02*Y437000D01*
X163000D01*
Y443000D01*
X157000D01*
G37*
G54D14*X160000Y430000D03*
Y420000D03*
Y410000D03*
Y400000D03*
X190000Y420000D03*
Y430000D03*
Y440000D03*
Y370000D03*
Y380000D03*
Y390000D03*
Y400000D03*
Y410000D03*
G54D21*X360000Y27500D03*
X430000D03*
X404409D03*
G54D14*X270000Y180000D03*
G54D11*G36*
X267000Y33000D02*Y27000D01*
X273000D01*
Y33000D01*
X267000D01*
G37*
G36*
X277000Y183000D02*Y177000D01*
X283000D01*
Y183000D01*
X277000D01*
G37*
G36*
X377000Y313000D02*Y307000D01*
X383000D01*
Y313000D01*
X377000D01*
G37*
G54D14*X380000Y320000D03*
G54D11*G36*
X397000Y343000D02*Y337000D01*
X403000D01*
Y343000D01*
X397000D01*
G37*
G54D14*X400000Y330000D03*
Y320000D03*
Y310000D03*
Y300000D03*
Y290000D03*
G54D27*X480000Y500000D03*
G54D13*X465000Y475000D03*
X475000Y495000D03*
X462500Y497500D03*
G54D27*X592500Y590000D03*
G54D13*X550000Y560000D03*
G54D27*X620000Y575000D03*
G54D13*X555000Y555000D03*
X422500Y525000D03*
X219500D03*
X420000Y480000D03*
X405000Y450000D03*
X445000Y472500D03*
X400000Y460000D03*
X340000Y570000D03*
X320000Y565000D03*
X340000D03*
G54D20*X12500Y637500D03*
X412500Y625000D03*
G54D13*X352500Y540000D03*
X360000Y495000D03*
Y475000D03*
X322500Y500000D03*
X327500Y460000D03*
X677500D03*
X682500Y475000D03*
X725000Y455000D03*
X682500D03*
X695000Y445000D03*
X710000Y502500D03*
X722500Y450000D03*
X600000Y400000D03*
X597500Y410000D03*
X605000Y325000D03*
X595000Y300000D03*
X602500Y375000D03*
X597500Y372500D03*
X587500Y450000D03*
X585000Y395000D03*
X582500Y390000D03*
X580000Y397500D03*
X602500Y390000D03*
X600000Y367500D03*
X602500Y370000D03*
X505000Y375000D03*
X585000Y382500D03*
Y365000D03*
X590000Y440000D03*
X592500Y430000D03*
X595000Y420000D03*
X575000D03*
X572500Y417500D03*
X570000Y420000D03*
X567500Y447500D03*
X577500Y410000D03*
X602500Y290000D03*
X600000Y280000D03*
G54D27*X562500Y235000D03*
G54D13*X565000Y265000D03*
X562500Y262500D03*
X560000Y260000D03*
X555000Y277500D03*
X585000Y325000D03*
G54D27*X537500Y290000D03*
G54D13*X557500Y257500D03*
X567500Y247500D03*
X590000Y235000D03*
X570000Y250000D03*
X572500Y252500D03*
X575000Y255000D03*
X732500Y430000D03*
X727500D03*
X747500Y335000D03*
X745000Y325000D03*
X742500Y315000D03*
X740000Y305000D03*
X745000Y355000D03*
Y345000D03*
X742500Y380000D03*
X697500Y150000D03*
G54D27*X693000Y170000D03*
G54D13*X742500Y160000D03*
X775000Y170000D03*
G54D20*X887500Y12500D03*
G54D13*X692500Y590000D03*
X717500Y550000D03*
X700000Y540000D03*
X695000Y580000D03*
X720000Y570000D03*
G54D27*X867500Y630000D03*
X872500Y625000D03*
G54D13*X680000Y515000D03*
Y535000D03*
Y525000D03*
X660000Y550000D03*
X650000Y552500D03*
X587500Y592500D03*
G54D20*X887500Y637500D03*
G54D13*X87500Y210000D03*
X112500Y170000D03*
X115000Y287500D03*
X87500Y255000D03*
X57500Y210000D03*
X135000Y167500D03*
X57500Y165000D03*
X112500Y70000D03*
Y115000D03*
G54D27*X100000Y125000D03*
G54D20*X12500Y12500D03*
G54D27*X105000Y305000D03*
X121500Y315000D03*
X145000D03*
G54D13*X120000Y322500D03*
X35000Y340000D03*
X80000Y347500D03*
X150000Y160000D03*
X152500Y162500D03*
X155000Y165000D03*
G54D27*X160000Y180000D03*
G54D13*X140000Y147500D03*
X147500Y320000D03*
X305000Y302500D03*
X227500Y300000D03*
X232500Y310000D03*
X152500Y332500D03*
X155000Y340000D03*
Y345000D03*
Y350000D03*
X157500Y342500D03*
Y347500D03*
Y352500D03*
X212500Y365000D03*
X195000D03*
X200000D03*
X205000D03*
X325000Y262500D03*
X210000Y240000D03*
X357500Y255000D03*
X280000D03*
X277500Y245000D03*
X297500Y220000D03*
X275000Y235000D03*
X272500Y225000D03*
X300000Y230000D03*
X295000Y210000D03*
X287500Y195000D03*
X285000Y205000D03*
X282500Y215000D03*
X300000Y340000D03*
X295000D03*
X290000D03*
X285000D03*
X280000D03*
X275000D03*
X297500Y337500D03*
X292500D03*
X287500D03*
X282500D03*
X277500D03*
X272500D03*
X330000Y407500D03*
X305000Y350000D03*
X302500Y377500D03*
X352500Y370000D03*
X317500Y385000D03*
X327500D03*
X300000Y386000D03*
X297500Y395000D03*
X292500Y415000D03*
X290000Y425000D03*
X285000Y435000D03*
X287500Y445000D03*
X295000Y410000D03*
X205000D03*
X202500Y390000D03*
G54D27*X197500Y375000D03*
G54D13*Y370000D03*
X202500Y367500D03*
X216500Y455000D03*
X215000Y465000D03*
X192500Y450000D03*
X187500D03*
X185000Y447500D03*
X120000Y442500D03*
Y437500D03*
G54D27*X110000Y387500D03*
G54D13*X182500Y445000D03*
X217500Y430000D03*
X220000Y420000D03*
X222500Y390000D03*
X292500Y200000D03*
X290000Y190000D03*
G54D27*X240000Y180000D03*
G54D13*X207500Y157500D03*
X205000Y160000D03*
X202500Y152500D03*
X197500D03*
X195000Y150000D03*
X285000Y160000D03*
X372500Y305000D03*
X360000Y267500D03*
X372500Y242500D03*
X367500Y245000D03*
X362500Y260000D03*
X375000Y247500D03*
X365000Y325000D03*
X362500Y395000D03*
X370000Y315000D03*
X412500Y297500D03*
Y287500D03*
X402500Y282500D03*
X387500Y357500D03*
X397500D03*
X400000Y360000D03*
X397500Y362500D03*
X385000Y360000D03*
X377500Y432500D03*
G54D27*X380000Y355000D03*
G54D13*X382500Y365000D03*
X357500Y225000D03*
X362500Y235000D03*
Y230000D03*
X367500Y235000D03*
X360000Y227500D03*
X365000Y237500D03*
X370000Y222500D03*
X380000Y225000D03*
X377500Y220000D03*
X380000Y245000D03*
X385000Y240000D03*
X390000Y235000D03*
X385000Y230000D03*
X360000Y205000D03*
X390000Y215000D03*
X392500Y210000D03*
X390000Y207500D03*
X387500Y205000D03*
X362500Y195000D03*
X445000Y227500D03*
X442500Y415000D03*
X437500Y317500D03*
X445000Y315000D03*
Y302500D03*
X475000Y300000D03*
X477500Y297500D03*
X480000Y362500D03*
X465000Y332500D03*
G54D27*X455000Y360000D03*
G54D13*X452500Y355000D03*
X465000Y362500D03*
X447500Y265000D03*
X467500Y285000D03*
X470000Y290000D03*
X502500Y267500D03*
X567500Y220000D03*
X455000Y247500D03*
X460000Y275000D03*
Y202500D03*
X505000Y275000D03*
X507500Y272500D03*
X452500Y260000D03*
Y237500D03*
X420000Y255000D03*
X440000D03*
X437500Y230000D03*
X432500Y117500D03*
X435000Y120000D03*
X437500Y122500D03*
X440000Y120000D03*
X442500Y117500D03*
X445000Y115000D03*
X447500Y112500D03*
X450000Y110000D03*
X480000Y107500D03*
X475000Y105000D03*
X477500Y102500D03*
G54D20*X450000Y12500D03*
G54D13*X470000Y140000D03*
X480000D03*
X475000D03*
X477500Y142500D03*
X467500D03*
X437500D03*
X440000Y145000D03*
X442500Y142500D03*
X445000Y145000D03*
X447500Y142500D03*
X450000Y145000D03*
X410000Y165000D03*
X380000Y157500D03*
X472500Y160000D03*
X465000Y140000D03*
X462500Y142500D03*
G54D30*G54D31*G54D30*G54D31*G54D30*G54D31*G54D30*G54D31*G54D32*G54D33*G54D32*G54D30*G54D33*G54D32*G54D33*G54D30*G54D14*G54D34*G54D30*G54D34*G54D30*G54D34*G54D14*G54D34*G54D32*G54D35*G54D32*G54D30*G54D31*G54D30*G54D14*G54D30*G54D31*G54D30*G54D31*G54D30*G54D31*G54D30*G54D36*G54D37*G54D30*G54D31*G54D30*G54D31*G54D32*G54D35*G54D30*G54D14*G54D17*G54D24*G54D30*G54D31*G54D30*G54D31*G54D30*G54D31*G54D30*G54D31*G54D30*G54D31*G54D30*G54D14*G54D31*G54D30*G54D11*G54D38*G54D11*G54D38*G54D11*G54D38*G54D33*G54D38*G54D11*G54D38*G54D11*G54D38*G54D11*G54D38*G54D33*G54D38*G54D11*G54D38*G54D33*G54D38*G54D11*G54D33*G54D11*G54D38*G54D11*G54D38*G54D11*G54D38*G54D11*G54D38*G54D11*G54D38*G54D11*G54D38*G54D11*G54D38*G54D33*G54D38*M02*
