G04 start of page 2 for group 0 idx 0 *
G04 Title: Ultim809, component *
G04 Creator: pcb 20091103 *
G04 CreationDate: Tue Apr  5 07:19:05 2011 UTC *
G04 For: matt *
G04 Format: Gerber/RS-274X *
G04 PCB-Dimensions: 900000 650000 *
G04 PCB-Coordinate-Origin: lower left *
%MOIN*%
%FSLAX25Y25*%
%LNFRONT*%
%ADD11C,0.0200*%
%ADD12C,0.0100*%
%ADD13C,0.0250*%
%ADD14C,0.0600*%
%ADD15C,0.0680*%
%ADD16C,0.2500*%
%ADD17C,0.1000*%
%ADD18C,0.1500*%
%ADD19C,0.0700*%
%ADD20C,0.1450*%
%ADD21C,0.0800*%
%ADD22C,0.0909*%
%ADD23C,0.0712*%
%ADD24C,0.1200*%
%ADD25C,0.1600*%
%ADD26C,0.1800*%
%ADD27C,0.0400*%
%ADD28R,0.0413X0.0413*%
%ADD29R,0.0433X0.0433*%
%ADD30C,0.0300*%
%ADD31C,0.0380*%
%ADD32C,0.0350*%
%ADD33C,0.1250*%
%ADD34C,0.1100*%
%ADD35C,0.0900*%
%ADD36C,0.0709*%
%ADD37C,0.0512*%
%ADD38C,0.0150*%
G54D11*G36*
X163279Y505000D02*X173500D01*
X175000Y503500D01*
Y466500D01*
X173500Y465000D01*
X163279D01*
Y467895D01*
X163355Y467934D01*
X163424Y467986D01*
X163484Y468050D01*
X163531Y468123D01*
X163686Y468449D01*
X163811Y468789D01*
X163905Y469138D01*
X163967Y469494D01*
X163997Y469855D01*
X163994Y470216D01*
X163958Y470576D01*
X163890Y470931D01*
X163790Y471279D01*
X163659Y471616D01*
X163498Y471940D01*
X163499Y471939D01*
X163450Y472011D01*
X163390Y472074D01*
X163319Y472126D01*
X163279Y472145D01*
Y475000D01*
X166000D01*
X167500Y476500D01*
Y483500D01*
X166000Y485000D01*
X163279D01*
Y488083D01*
X163291Y488100D01*
X163571Y488700D01*
X163742Y489340D01*
X163800Y490000D01*
X163742Y490660D01*
X163571Y491300D01*
X163291Y491900D01*
X163279Y491917D01*
Y496250D01*
X163400Y496307D01*
X163514Y496387D01*
X163613Y496486D01*
X163693Y496600D01*
X163752Y496726D01*
X163788Y496861D01*
X163800Y497000D01*
Y503000D01*
X163788Y503139D01*
X163752Y503274D01*
X163693Y503400D01*
X163613Y503514D01*
X163514Y503613D01*
X163400Y503693D01*
X163279Y503750D01*
Y505000D01*
G37*
G36*
Y491917D02*X162911Y492443D01*
X162443Y492911D01*
X161900Y493291D01*
X161300Y493571D01*
X160660Y493742D01*
X160027Y493798D01*
Y496200D01*
X163000D01*
X163139Y496212D01*
X163274Y496248D01*
X163279Y496250D01*
Y491917D01*
G37*
G36*
Y485000D02*X160027D01*
Y486202D01*
X160660Y486258D01*
X161300Y486429D01*
X161900Y486709D01*
X162443Y487089D01*
X162911Y487557D01*
X163279Y488083D01*
Y485000D01*
G37*
G36*
Y465000D02*X160027D01*
Y466004D01*
X160215Y466006D01*
X160575Y466042D01*
X160930Y466110D01*
X161278Y466210D01*
X161615Y466341D01*
X161939Y466502D01*
X161938Y466501D01*
X162010Y466550D01*
X162073Y466610D01*
X162125Y466681D01*
X162163Y466759D01*
X162187Y466843D01*
X162196Y466930D01*
X162190Y467017D01*
X162169Y467101D01*
X162134Y467181D01*
X162085Y467253D01*
X162025Y467316D01*
X161954Y467368D01*
X161876Y467406D01*
X161792Y467430D01*
X161705Y467439D01*
X161618Y467433D01*
X161534Y467412D01*
X161454Y467377D01*
X161211Y467256D01*
X160958Y467158D01*
X160698Y467083D01*
X160431Y467032D01*
X160161Y467005D01*
X160027Y467004D01*
Y472998D01*
X160109Y472999D01*
X160379Y472976D01*
X160646Y472930D01*
X160908Y472859D01*
X161163Y472766D01*
X161408Y472649D01*
X161409Y472650D01*
X161489Y472616D01*
X161574Y472597D01*
X161661Y472592D01*
X161747Y472603D01*
X161830Y472628D01*
X161908Y472668D01*
X161977Y472720D01*
X162037Y472784D01*
X162084Y472857D01*
X162118Y472937D01*
X162137Y473022D01*
X162142Y473109D01*
X162131Y473195D01*
X162106Y473278D01*
X162066Y473356D01*
X162014Y473425D01*
X161950Y473485D01*
X161877Y473532D01*
X161551Y473687D01*
X161211Y473812D01*
X160862Y473906D01*
X160506Y473968D01*
X160145Y473998D01*
X160027Y473997D01*
Y475000D01*
X163279D01*
Y472145D01*
X163241Y472164D01*
X163157Y472188D01*
X163070Y472197D01*
X162983Y472191D01*
X162899Y472170D01*
X162819Y472135D01*
X162747Y472086D01*
X162684Y472026D01*
X162632Y471955D01*
X162594Y471877D01*
X162570Y471793D01*
X162561Y471706D01*
X162567Y471619D01*
X162588Y471535D01*
X162623Y471455D01*
X162744Y471212D01*
X162842Y470959D01*
X162917Y470699D01*
X162968Y470432D01*
X162995Y470162D01*
X162998Y469891D01*
X162975Y469621D01*
X162929Y469354D01*
X162858Y469092D01*
X162765Y468837D01*
X162648Y468592D01*
X162649Y468591D01*
X162615Y468511D01*
X162596Y468426D01*
X162591Y468339D01*
X162602Y468253D01*
X162627Y468170D01*
X162667Y468092D01*
X162719Y468023D01*
X162783Y467963D01*
X162856Y467916D01*
X162936Y467882D01*
X163021Y467863D01*
X163108Y467858D01*
X163194Y467869D01*
X163277Y467894D01*
X163279Y467895D01*
Y465000D01*
G37*
G36*
X160027Y505000D02*X163279D01*
Y503750D01*
X163274Y503752D01*
X163139Y503788D01*
X163000Y503800D01*
X160027D01*
Y505000D01*
G37*
G36*
Y493798D02*X160000Y493800D01*
X159340Y493742D01*
X158700Y493571D01*
X158100Y493291D01*
X157557Y492911D01*
X157089Y492443D01*
X156709Y491900D01*
X156522Y491500D01*
X155000D01*
Y498500D01*
X156200D01*
Y497000D01*
X156212Y496861D01*
X156248Y496726D01*
X156307Y496600D01*
X156387Y496486D01*
X156486Y496387D01*
X156600Y496307D01*
X156726Y496248D01*
X156861Y496212D01*
X157000Y496200D01*
X160027D01*
Y493798D01*
G37*
G36*
Y485000D02*X155000D01*
Y488500D01*
X156522D01*
X156709Y488100D01*
X157089Y487557D01*
X157557Y487089D01*
X158100Y486709D01*
X158700Y486429D01*
X159340Y486258D01*
X160000Y486200D01*
X160027Y486202D01*
Y485000D01*
G37*
G36*
Y465000D02*X156720D01*
Y467856D01*
X156758Y467837D01*
X156842Y467813D01*
X156929Y467804D01*
X157016Y467810D01*
X157100Y467831D01*
X157180Y467866D01*
X157252Y467915D01*
X157315Y467975D01*
X157367Y468046D01*
X157405Y468124D01*
X157429Y468208D01*
X157438Y468295D01*
X157432Y468382D01*
X157411Y468466D01*
X157376Y468546D01*
X157255Y468789D01*
X157157Y469042D01*
X157082Y469302D01*
X157031Y469569D01*
X157004Y469839D01*
X157001Y470110D01*
X157024Y470380D01*
X157070Y470647D01*
X157141Y470909D01*
X157234Y471164D01*
X157351Y471409D01*
X157350Y471410D01*
X157384Y471490D01*
X157403Y471575D01*
X157408Y471662D01*
X157397Y471748D01*
X157372Y471831D01*
X157332Y471909D01*
X157280Y471978D01*
X157216Y472038D01*
X157143Y472085D01*
X157063Y472119D01*
X156978Y472138D01*
X156891Y472143D01*
X156805Y472132D01*
X156722Y472107D01*
X156720Y472106D01*
Y475000D01*
X160027D01*
Y473997D01*
X159784Y473995D01*
X159424Y473959D01*
X159069Y473891D01*
X158721Y473791D01*
X158384Y473660D01*
X158060Y473499D01*
X158061Y473500D01*
X157989Y473451D01*
X157926Y473391D01*
X157874Y473320D01*
X157836Y473242D01*
X157812Y473158D01*
X157803Y473071D01*
X157809Y472984D01*
X157830Y472900D01*
X157865Y472820D01*
X157914Y472748D01*
X157974Y472685D01*
X158045Y472633D01*
X158123Y472595D01*
X158207Y472571D01*
X158294Y472562D01*
X158381Y472568D01*
X158465Y472589D01*
X158545Y472624D01*
X158788Y472745D01*
X159041Y472843D01*
X159301Y472918D01*
X159568Y472969D01*
X159838Y472996D01*
X160027Y472998D01*
Y467004D01*
X159890Y467002D01*
X159620Y467025D01*
X159353Y467071D01*
X159091Y467142D01*
X158836Y467235D01*
X158591Y467352D01*
X158590Y467351D01*
X158510Y467385D01*
X158425Y467404D01*
X158338Y467409D01*
X158252Y467398D01*
X158169Y467373D01*
X158091Y467333D01*
X158022Y467281D01*
X157962Y467217D01*
X157915Y467144D01*
X157881Y467064D01*
X157862Y466979D01*
X157857Y466892D01*
X157868Y466806D01*
X157893Y466723D01*
X157933Y466645D01*
X157985Y466576D01*
X158049Y466516D01*
X158122Y466469D01*
X158448Y466314D01*
X158788Y466189D01*
X159137Y466095D01*
X159493Y466033D01*
X159854Y466003D01*
X160027Y466004D01*
Y465000D01*
G37*
G36*
X156720D02*X156500D01*
X155000Y466500D01*
Y473500D01*
X156500Y475000D01*
X156720D01*
Y472106D01*
X156644Y472067D01*
X156575Y472015D01*
X156515Y471951D01*
X156468Y471878D01*
X156313Y471552D01*
X156188Y471212D01*
X156094Y470863D01*
X156032Y470507D01*
X156002Y470146D01*
X156005Y469785D01*
X156041Y469425D01*
X156109Y469070D01*
X156209Y468722D01*
X156340Y468385D01*
X156501Y468061D01*
X156500Y468062D01*
X156549Y467990D01*
X156609Y467927D01*
X156680Y467875D01*
X156720Y467856D01*
Y465000D01*
G37*
G36*
X155000Y505000D02*X160027D01*
Y503800D01*
X157000D01*
X156861Y503788D01*
X156726Y503752D01*
X156600Y503693D01*
X156486Y503613D01*
X156387Y503514D01*
X156307Y503400D01*
X156248Y503274D01*
X156212Y503139D01*
X156200Y503000D01*
Y501500D01*
X155000D01*
Y505000D01*
G37*
G36*
X141500D02*X155000D01*
Y501500D01*
X153478D01*
X153291Y501900D01*
X152911Y502443D01*
X152443Y502911D01*
X151900Y503291D01*
X151300Y503571D01*
X150660Y503742D01*
X150000Y503800D01*
X149340Y503742D01*
X148700Y503571D01*
X148100Y503291D01*
X147557Y502911D01*
X147089Y502443D01*
X146709Y501900D01*
X146429Y501300D01*
X146258Y500660D01*
X146200Y500000D01*
X146258Y499340D01*
X146429Y498700D01*
X146709Y498100D01*
X147089Y497557D01*
X147557Y497089D01*
X148100Y496709D01*
X148700Y496429D01*
X149340Y496258D01*
X150000Y496200D01*
X150660Y496258D01*
X151300Y496429D01*
X151900Y496709D01*
X152443Y497089D01*
X152911Y497557D01*
X153291Y498100D01*
X153478Y498500D01*
X155000D01*
Y491500D01*
X153800D01*
Y493000D01*
X153788Y493139D01*
X153752Y493274D01*
X153693Y493400D01*
X153613Y493514D01*
X153514Y493613D01*
X153400Y493693D01*
X153274Y493752D01*
X153139Y493788D01*
X153000Y493800D01*
X147000D01*
X146861Y493788D01*
X146726Y493752D01*
X146600Y493693D01*
X146486Y493613D01*
X146387Y493514D01*
X146307Y493400D01*
X146248Y493274D01*
X146212Y493139D01*
X146200Y493000D01*
Y487000D01*
X146212Y486861D01*
X146248Y486726D01*
X146307Y486600D01*
X146387Y486486D01*
X146486Y486387D01*
X146600Y486307D01*
X146726Y486248D01*
X146861Y486212D01*
X147000Y486200D01*
X153000D01*
X153139Y486212D01*
X153274Y486248D01*
X153400Y486307D01*
X153514Y486387D01*
X153613Y486486D01*
X153693Y486600D01*
X153752Y486726D01*
X153788Y486861D01*
X153800Y487000D01*
Y488500D01*
X155000D01*
Y485000D01*
X141500D01*
X140000Y486500D01*
Y503500D01*
X141500Y505000D01*
G37*
G36*
X153500Y469000D02*Y471000D01*
X155000Y472500D01*
Y467500D01*
X153500Y469000D01*
G37*
G54D12*X490000Y210000D02*X485000Y215000D01*
X515000Y222500D02*X517500Y225000D01*
X527500D01*
X520000Y230000D02*X507500D01*
X490000Y200000D02*X485000Y205000D01*
X525000Y195000D02*X482500D01*
Y190000D02*X477500Y195000D01*
X482500D02*X475000Y202500D01*
X460000D02*X475000D01*
X490000Y180000D02*X485000Y185000D01*
X490000Y190000D02*X482500D01*
X490000Y170000D02*X485000Y165000D01*
X490000Y160000D02*X472500D01*
G54D13*X530000Y170000D02*Y165000D01*
X532500Y162500D01*
G54D12*X525000Y175000D02*Y162500D01*
X530000Y157500D01*
X540000Y190000D02*X525000Y175000D01*
X475000Y140000D02*Y105000D01*
X480000Y107500D02*Y140000D01*
X447500Y142500D02*Y112500D01*
X450000Y145000D02*Y110000D01*
X442500Y142500D02*Y117500D01*
X445000Y145000D02*Y115000D01*
X490000Y150000D02*X485000Y155000D01*
X437500Y142500D02*Y122500D01*
X440000Y120000D02*Y145000D01*
X507500Y230000D02*X502500Y235000D01*
X500000Y245000D02*X507500Y252500D01*
G54D13*X537500Y255000D02*X520000Y240000D01*
G54D12*X527500Y225000D02*X545000Y242500D01*
Y267500D01*
X507500Y252500D02*Y272500D01*
X490000Y220000D02*X485000Y225000D01*
Y255000D02*X490000Y250000D01*
X502500Y235000D02*X455000D01*
Y247500D02*X457500Y245000D01*
X500000D01*
X440000Y255000D02*X485000D01*
X447500Y230000D02*X490000D01*
Y240000D02*X447500D01*
Y230000D02*X445000Y227500D01*
X455000Y235000D02*X452500Y237500D01*
X505000Y275000D02*X475000D01*
X470000Y265000D02*X500000D01*
X502500Y267500D01*
X460000Y275000D02*X470000Y265000D01*
X452500Y260000D02*Y275000D01*
X490000Y260000D02*X460000D01*
X457500Y257500D01*
X445000D01*
X442500Y260000D01*
X437500Y272500D02*X435000Y275000D01*
X430000Y260000D02*X367500D01*
X432500Y265000D02*X367500D01*
Y270000D02*X430000D01*
X437500Y237500D02*Y272500D01*
X430000Y240000D02*X435000Y245000D01*
Y262500D01*
X432500Y265000D01*
X435000Y275000D02*X365000D01*
X415000Y242500D02*X372500D01*
X420000Y247500D02*X375000D01*
X365000Y237500D02*Y250000D01*
X370000Y255000D01*
X420000D01*
X430000Y250000D02*X372500D01*
X412500Y240000D02*X385000D01*
X422500D02*X417500Y245000D01*
X425000Y242500D02*X420000Y247500D01*
X372500Y250000D02*X367500Y245000D01*
X420000Y237500D02*X415000Y242500D01*
X422500Y240000D02*Y222500D01*
X410000Y227500D02*X405000Y232500D01*
X412500Y230000D02*X407500Y235000D01*
X430000Y220000D02*X427500D01*
X430000D02*X427500D01*
X430000D02*X427500D01*
Y225000D02*X425000Y227500D01*
Y242500D01*
X427500Y220000D02*X425000D01*
X400000Y227500D02*X360000D01*
X410000Y237500D02*X370000D01*
X395000Y222500D02*X370000D01*
X397500Y225000D02*X380000D01*
X405000Y232500D02*X365000D01*
X370000Y237500D02*X367500Y235000D01*
X405000Y222500D02*X400000Y227500D01*
X377500Y220000D02*X392500D01*
X417500Y245000D02*X380000D01*
X407500Y235000D02*X390000D01*
X417500D02*X412500Y240000D01*
X402500Y230000D02*X385000D01*
X407500Y225000D02*X402500Y230000D01*
X407500Y200000D02*Y225000D01*
Y197500D02*Y200000D01*
X390000Y207500D02*X362500D01*
X360000Y205000D01*
X387500D02*X365000D01*
X362500Y202500D01*
Y195000D01*
X485000Y205000D02*X420000D01*
X485000Y215000D02*X425000D01*
X485000Y185000D02*X410000D01*
X477500Y195000D02*X415000D01*
X422500Y210000D02*X417500Y215000D01*
X485000Y225000D02*X427500D01*
X430000Y180000D02*X407500D01*
X430000Y170000D02*X405000D01*
X430000Y150000D02*X410000D01*
X390000Y165000D02*X435000Y120000D01*
X430000Y190000D02*X412500D01*
X410000Y185000D02*X405000Y190000D01*
X392500Y167500D02*X410000Y150000D01*
X395000Y170000D02*X410000Y155000D01*
X397500Y172500D02*X410000Y160000D01*
X407500Y180000D02*X402500Y185000D01*
X405000Y170000D02*X400000Y175000D01*
X430000Y230000D02*X437500Y237500D01*
X415000Y232500D02*X410000Y237500D01*
X430000Y200000D02*X417500D01*
X430000Y210000D02*X422500D01*
X420000Y220000D02*Y237500D01*
X425000Y220000D02*X422500Y222500D01*
X417500Y215000D02*Y235000D01*
X425000Y215000D02*X420000Y220000D01*
X415000Y210000D02*Y232500D01*
X410000Y200000D02*Y227500D01*
X412500Y230000D02*Y205000D01*
X447500Y240000D02*X437500Y230000D01*
X420000Y205000D02*X415000Y210000D01*
X417500Y200000D02*X412500Y205000D01*
Y190000D02*X407500Y195000D01*
X415000D02*X410000Y200000D01*
X407500Y195000D02*Y197500D01*
Y200000D01*
X405000Y190000D02*Y222500D01*
X397500Y215000D02*Y172500D01*
X402500Y220000D02*Y185000D01*
X400000Y217500D02*Y175000D01*
X392500Y210000D02*Y167500D01*
X390000Y215000D02*X392500D01*
X395000Y170000D02*Y212500D01*
X402500Y220000D02*X397500Y225000D01*
X400000Y217500D02*X395000Y222500D01*
X392500Y220000D02*X397500Y215000D01*
X392500D02*X395000Y212500D01*
X616500Y210000D02*X617500Y209000D01*
G54D13*X620000Y175000D02*Y240000D01*
G54D12*X616500Y210000D02*X617500D01*
Y209000D02*Y192500D01*
Y211000D02*Y210000D01*
Y209000D01*
X602500Y205000D02*X612500D01*
X605000Y185000D02*Y192500D01*
X602500Y227500D02*X610000Y220000D01*
G54D13*X580000Y180000D02*X590000Y170000D01*
G54D12*X617500Y157500D02*X622500Y152500D01*
G54D13*X532500Y162500D02*X587500D01*
G54D12*X530000Y157500D02*X617500D01*
G54D13*X587500Y162500D02*X590000Y165000D01*
Y170000D01*
G54D12*X580000Y200000D02*X597500Y217500D01*
G54D13*X615000Y170000D02*X620000Y175000D01*
X600000Y170000D02*X615000D01*
G54D12*X550000Y190000D02*X540000D01*
X562500Y215000D02*X545000D01*
X525000Y195000D01*
G54D13*X580000Y252500D02*X562500Y235000D01*
X615000Y245000D02*X610000Y240000D01*
X615000Y245000D02*X620000Y240000D01*
G54D12*X575000Y235000D02*X590000D01*
X567500Y220000D02*X562500Y215000D01*
X590000Y230000D02*X595000Y235000D01*
X580000Y230000D02*X590000D01*
G54D13*X580000Y270000D02*Y252500D01*
G54D12*X615000Y235000D02*X617500Y232500D01*
X605000Y237500D02*X607500Y235000D01*
X615000D01*
X485000Y155000D02*X410000D01*
X485000Y165000D02*X410000D01*
X430000Y160000D02*X410000D01*
X387500Y162500D02*X432500Y117500D01*
X465000Y140000D02*Y82500D01*
X462500Y142500D02*Y85000D01*
X450000Y72500D01*
X467500Y142500D02*Y80000D01*
X480000Y85000D02*Y107500D01*
X512500Y52500D02*X480000Y85000D01*
G54D13*X430000Y45217D02*X432717D01*
G54D12*X430000D01*
X404409D01*
X502500D02*X476909D01*
Y45591D01*
X470000Y52500D01*
X507500Y37500D02*X512500Y42500D01*
X447500Y37500D02*X507500D01*
X512500Y42500D02*Y52500D01*
X470000Y140000D02*Y52500D01*
X520000Y220000D02*X530000D01*
X535000Y225000D01*
X520000Y200000D02*X515000Y205000D01*
Y222500D01*
X535000Y225000D02*X565000D01*
X575000Y195000D02*X580000Y190000D01*
X550000Y210000D02*X575000Y185000D01*
X565000Y225000D02*X575000Y235000D01*
Y225000D02*Y195000D01*
G54D13*X537500Y290000D02*Y255000D01*
G54D12*X555000Y277500D02*X545000Y267500D01*
X580000Y230000D02*X575000Y225000D01*
X520000Y280000D02*X530000D01*
X540000Y400000D02*X530000D01*
X550000D02*X532500Y382500D01*
X522500D01*
X515000Y375000D01*
X605000Y200000D02*X590000Y185000D01*
X610000Y180000D02*X605000Y185000D01*
Y192500D02*X607500Y195000D01*
X610000Y200000D02*X605000D01*
X575000Y185000D02*X590000D01*
X610000Y190000D02*X615000D01*
X617500Y192500D01*
X600000Y207500D02*X602500Y205000D01*
X612500D02*X615000Y202500D01*
Y197500D01*
X612500Y195000D01*
X607500D01*
X610000Y210000D02*X616500D01*
X602500Y290000D02*Y227500D01*
X600000Y280000D02*Y207500D01*
X597500Y307500D02*Y217500D01*
X595000Y300000D02*Y235000D01*
X617500Y232500D02*Y211000D01*
X622500Y292500D02*Y337500D01*
X616500Y210000D02*X617500Y211000D01*
X605000Y325000D02*X595000Y335000D01*
X695000Y355000D02*X732500Y392500D01*
X697500Y352500D02*X735000Y390000D01*
X700000Y380000D02*X720000Y400000D01*
X690000Y385000D02*X695000Y390000D01*
X680000Y180000D02*Y179900D01*
X742500Y380000D02*Y370000D01*
G54D13*X735000Y195000D02*X730000Y190000D01*
X735000Y215000D02*Y195000D01*
X730000Y220000D02*X735000Y215000D01*
G54D12*X737500Y300000D02*X730000D01*
Y160000D02*X742500D01*
X702500Y347500D02*X740000Y385000D01*
X700000Y350000D02*X737500Y387500D01*
X715000Y335000D02*X730000Y320000D01*
X725000Y305000D02*Y297500D01*
X727500Y295000D01*
X735000D01*
X730000Y310000D02*X725000Y305000D01*
G54D13*X610000Y340000D02*X615000Y335000D01*
G54D12*Y345000D02*X622500Y337500D01*
X592500Y360000D02*X597500Y355000D01*
X607500Y350000D02*Y355000D01*
X603000D02*X605000Y353000D01*
Y357500D02*X600000D01*
X612500Y355000D02*Y360000D01*
X615000Y352500D02*X612500Y355000D01*
Y360000D02*X610000Y362500D01*
X615000Y357500D02*X617500Y355000D01*
X615000Y362500D02*Y357500D01*
X657500Y400000D02*X670000D01*
X652500Y395000D02*X657500Y400000D01*
X640000D02*X652500D01*
X670000Y390000D02*X657500D01*
X652500Y385000D01*
X657500D02*X690000D01*
X652500Y380000D02*X657500Y385000D01*
X670000Y380000D02*X657500D01*
G54D13*X675000Y365000D02*X680000Y360000D01*
G54D12*X695000Y355000D02*X617500D01*
G54D13*X625000Y365000D02*X675000D01*
G54D12*X640000Y370000D02*X625000D01*
Y375000D02*X652500D01*
X615000Y385000D02*X652500D01*
X657500Y380000D02*X652500Y375000D01*
X640000Y380000D02*X652500D01*
X697500Y352500D02*X615000D01*
X702500Y347500D02*X610000D01*
X655000Y335000D02*X715000D01*
X612500Y350000D02*X700000D01*
X620000Y375000D02*X607500D01*
X620000Y380000D02*X625000Y375000D01*
X602500Y365000D02*Y370000D01*
X610000Y380000D02*X620000D01*
X625000Y370000D02*X620000Y375000D01*
X607500Y365000D02*X612500D01*
X615000Y385000D02*X610000Y390000D01*
X592500Y395000D02*Y360000D01*
G54D13*X620000D02*X625000Y365000D01*
G54D12*X612500D02*X615000Y362500D01*
X580000Y340000D02*Y397500D01*
X670000Y320000D02*X660000D01*
Y310000D02*X670000D01*
X660000Y320000D02*X640000Y340000D01*
X650000D02*X655000Y335000D01*
X630000Y340000D02*X660000Y310000D01*
X640000D02*X650000D01*
X630000Y300000D02*Y310000D01*
X640000D01*
X650000D02*Y300000D01*
X630000Y290000D02*X625000D01*
X622500Y292500D01*
X790000Y330000D02*X777500D01*
X772500Y325000D01*
X790000Y320000D02*X777500D01*
X772500Y315000D01*
Y320000D02*X777500Y325000D01*
X772500Y310000D02*X777500Y315000D01*
Y310000D02*X772500Y305000D01*
X790000Y300000D02*X777500D01*
X772500Y295000D01*
Y300000D02*X777500Y305000D01*
X790000Y310000D02*X777500D01*
Y305000D02*X800000D01*
X802500D01*
G54D13*X770000Y280000D02*Y200000D01*
G54D12*X772500Y315000D02*X742500D01*
X772500Y305000D02*X740000D01*
X760000Y310000D02*X772500D01*
X760000Y300000D02*X772500D01*
X777500Y290000D02*X772500Y285000D01*
X790000Y290000D02*X777500D01*
X772500Y285000D02*X745000D01*
X735000Y295000D02*X745000Y285000D01*
X737500Y300000D02*X742500Y295000D01*
X772500D02*X742500D01*
X730000Y170000D02*X775000D01*
X767600Y55000D02*X727500D01*
X775900Y57500D02*X730000D01*
X784200Y60000D02*X732500D01*
X792500Y62500D02*X735000D01*
X807500Y67500D02*X740000D01*
X800000Y65000D02*X737500D01*
G54D13*X770000Y200000D02*X832500Y137500D01*
Y32500D02*Y137500D01*
X825000Y25000D02*X832500Y32500D01*
G54D12*X827500Y37500D02*Y47500D01*
X779500Y43100D02*X767600Y55000D01*
X790300Y43100D02*X775900Y57500D01*
X784900Y31900D02*X790500Y37500D01*
X817300Y31900D02*X821900D01*
G54D13*X806500D02*X813400Y25000D01*
X825000D01*
G54D12*X821900Y31900D02*X827500Y37500D01*
Y47500D02*X807500Y67500D01*
X801100Y43100D02*X784200Y60000D01*
X811900Y43100D02*X792500Y62500D01*
X817500Y47500D02*X800000Y65000D01*
X790500Y37500D02*X815000D01*
X817500Y40000D01*
Y47500D01*
X670000Y170000D02*X677500Y162500D01*
X675000Y155000D02*X670000Y160000D01*
X680000Y179900D02*X670000Y190000D01*
X642500Y152500D02*X670000Y180000D01*
Y220000D02*X710000Y180000D01*
X717500Y202500D02*X670000Y250000D01*
X720000Y210000D02*X670000Y260000D01*
Y270000D02*X722500Y217500D01*
X712500Y187500D02*X670000Y230000D01*
X715000Y195000D02*X670000Y240000D01*
X727500Y55000D02*X710000Y72500D01*
X730000Y57500D02*X712500Y75000D01*
X732500Y60000D02*X715000Y77500D01*
X735000Y62500D02*X717500Y80000D01*
X740000Y67500D02*X722500Y85000D01*
X737500Y65000D02*X720000Y82500D01*
X680000Y30000D02*Y117500D01*
G54D13*X675500Y43100D02*Y127500D01*
G54D12*X670100Y31900D02*X670000Y132500D01*
X675000Y155000D02*Y147500D01*
X680000Y142500D02*X670000Y132500D01*
X637700Y31900D02*X630600D01*
X642500Y57500D02*Y152500D01*
X622500Y30000D02*Y152500D01*
X627500Y25000D02*X622500Y30000D01*
X632300Y43100D02*X637900Y37500D01*
X630600Y31900D02*X625000Y37500D01*
Y47500D01*
X630000Y52500D01*
X637500D01*
X642500Y57500D01*
X643100Y43100D02*Y48100D01*
X652500Y57500D01*
X653900Y43100D02*X657500Y46700D01*
X670000Y150000D02*X652500Y132500D01*
X675000Y147500D02*X657500Y130000D01*
X677500Y145000D02*X660000Y127500D01*
X664700Y43100D02*X660000Y47800D01*
X675000Y25000D02*X656500D01*
X712500Y75000D02*Y187500D01*
X715000Y77500D02*Y195000D01*
X717500Y80000D02*Y202500D01*
X720000Y82500D02*Y210000D01*
X722500Y217500D02*Y85000D01*
X710000Y180000D02*Y72500D01*
X697500Y135000D02*X680000Y117500D01*
X677500Y162500D02*Y145000D01*
G54D13*X693000Y170000D02*Y145000D01*
X675500Y127500D01*
G54D12*X697500Y150000D02*Y135000D01*
X680000Y179900D02*Y142500D01*
G54D13*X780000Y610000D02*Y520000D01*
X770000Y532500D02*Y610000D01*
Y530000D02*Y532500D01*
X767500Y530000D02*X770000D01*
Y527500D02*Y530000D01*
X872500Y625000D02*Y635000D01*
X865000Y632500D02*X867500Y630000D01*
X872500Y635000D02*X870000Y637500D01*
X860000Y620000D02*X852500Y627500D01*
G54D12*X860000Y610000D02*X885000D01*
X895000Y600000D01*
G54D13*X790000Y625000D02*X792500Y627500D01*
X790000Y625000D02*Y627500D01*
X792500D02*X790000D01*
X760000Y620000D02*X770000Y610000D01*
X780000D02*X790000Y620000D01*
Y625000D01*
X787500Y627500D02*X790000Y625000D01*
Y627500D02*X787500D01*
G54D12*X790000Y600000D02*X810000D01*
X790000Y590000D02*X810000D01*
X790000Y580000D02*X810000D01*
X790000Y570000D02*X810000D01*
Y600000D02*X830000Y620000D01*
X850000D01*
X810000Y590000D02*X830000Y610000D01*
X850000D01*
X830000Y590000D02*X850000D01*
G54D13*X852500Y627500D02*X792500D01*
G54D12*X810000Y580000D02*X830000Y600000D01*
X850000D01*
X810000Y570000D02*X830000Y590000D01*
Y580000D02*X850000D01*
X830000Y570000D02*X850000D01*
X830000Y560000D02*X850000D01*
X830000Y550000D02*X850000D01*
Y540000D02*X830000D01*
X870000Y550000D02*X880000Y540000D01*
G54D13*X780000Y520000D02*Y502500D01*
X790000Y500000D02*X782500D01*
X780000Y502500D02*X782500Y500000D01*
X780000D01*
Y502500D02*Y500000D01*
X782500D02*X780000Y497500D01*
Y500000D02*Y497500D01*
X760000Y500000D02*X762500D01*
X760000D02*X762500D01*
X760000D01*
X767500D02*X762500D01*
X770000Y502500D02*X767500Y500000D01*
X770000D02*X767500D01*
X770000Y497500D02*Y500000D01*
Y502500D01*
Y520000D01*
G54D12*X695000Y390000D02*Y445000D01*
X640000Y410000D02*X652500D01*
Y400000D02*X657500Y405000D01*
X652500D02*X657500Y410000D01*
X615000Y405000D02*X652500D01*
X615000Y395000D02*X652500D01*
Y410000D02*X657500Y415000D01*
Y420000D02*X670000D01*
X657500Y410000D02*X670000D01*
X652500Y415000D02*X657500Y420000D01*
X622500Y415000D02*X652500D01*
X672500D02*X677500Y420000D01*
X657500Y405000D02*X677500D01*
X682500Y410000D01*
X657500Y415000D02*X672500D01*
X657500Y440000D02*X670000D01*
X657500Y430000D02*X670000D01*
X652500Y435000D02*X657500Y440000D01*
X652500Y425000D02*X657500Y430000D01*
X587500Y535000D02*X592500Y530000D01*
Y535000D02*X587500Y540000D01*
X580000D01*
X602500Y390000D02*X610000D01*
X590000Y440000D02*X610000D01*
Y450000D02*X587500D01*
X615000Y395000D02*X610000Y400000D01*
X572500Y430000D02*X597500Y405000D01*
X557500Y407500D02*X552500D01*
X585000Y472500D02*X590000Y467500D01*
X595000Y455000D02*X580000Y470000D01*
X585000Y475000D02*X580000Y480000D01*
X592500Y495000D02*Y480000D01*
G54D13*X610000Y490000D02*X620000Y480000D01*
G54D12*X587500Y545000D02*X592500Y540000D01*
X677500Y460000D02*Y420000D01*
X615000Y445000D02*X652500D01*
X615000Y435000D02*X652500D01*
X615000Y425000D02*X652500D01*
Y445000D02*X657500Y450000D01*
X670000D01*
X642500Y455000D02*X595000D01*
X610000Y450000D02*X615000Y445000D01*
G54D13*Y495000D02*X665000D01*
G54D12*X595000Y472500D02*X637500D01*
X590000Y467500D02*X642500D01*
X645000Y470000D01*
X640000D02*X592500D01*
X597500Y475000D02*X635000D01*
X637500Y472500D02*X640000Y475000D01*
G54D13*X505000Y490000D02*X507500D01*
G54D12*X640000Y470000D02*X642500Y472500D01*
X685000Y477500D02*X637500D01*
X635000Y475000D01*
X640000D02*X682500D01*
G54D13*X665000Y495000D02*X670000Y490000D01*
X690000Y480000D02*X680000Y490000D01*
X670000D02*X680000D01*
G54D12*X707500Y505000D02*X592500D01*
G54D11*X647500Y467500D02*X692500D01*
X640000Y460000D02*X647500Y467500D01*
G54D12*X685000Y465000D02*X652500D01*
X642500Y455000D01*
X702500Y470000D02*X645000D01*
X642500Y472500D02*X705000D01*
X707500Y475000D02*X687500D01*
X685000Y477500D01*
X680000Y525000D02*X592500D01*
X680000Y535000D02*X592500D01*
X680000Y515000D02*X592500D01*
X720000Y400000D02*Y530000D01*
X735000Y495000D02*Y437500D01*
X737500Y502500D02*Y435000D01*
X717500Y407500D02*Y520000D01*
G54D13*X760000Y410000D02*X767500D01*
G54D12*X682500D02*Y455000D01*
X700000Y440000D02*X705000Y445000D01*
X700000Y430000D02*X707500Y437500D01*
X700000Y420000D02*X710000Y430000D01*
X700000Y410000D02*X712500Y422500D01*
X732500Y430000D02*X737500Y435000D01*
X735000Y437500D02*X727500Y430000D01*
X705000Y445000D02*Y467500D01*
X707500Y470000D02*X705000Y472500D01*
X707500Y437500D02*Y470000D01*
X710000Y430000D02*Y472500D01*
X712500Y422500D02*Y500000D01*
X710000Y502500D02*X707500Y505000D01*
X700000Y400000D02*X715000Y415000D01*
X700000Y390000D02*X717500Y407500D01*
X715000Y415000D02*Y510000D01*
G54D13*X770000Y520000D02*Y527500D01*
X767500Y500000D02*X770000Y497500D01*
Y412500D02*X767500Y410000D01*
X780000Y497500D02*Y400000D01*
X770000Y412500D02*Y497500D01*
X767500Y410000D02*X770000Y407500D01*
G54D12*X790000Y460000D02*X815000Y485000D01*
X790000Y450000D02*X817500Y477500D01*
X790000Y440000D02*X820000Y470000D01*
Y490000D02*X830000Y500000D01*
X822500Y482500D02*X830000Y490000D01*
X825000Y475000D02*X830000Y480000D01*
X827500Y465000D02*X832500Y470000D01*
X790000Y430000D02*X822500Y462500D01*
X790000Y420000D02*X825000Y455000D01*
X790000Y410000D02*X827500Y447500D01*
Y465000D01*
X830000Y460000D02*Y397500D01*
X832500Y455000D02*Y395000D01*
X815000Y485000D02*Y505000D01*
X817500Y477500D02*Y497500D01*
X820000Y470000D02*Y490000D01*
X822500Y462500D02*Y482500D01*
X825000Y455000D02*Y475000D01*
X730000Y540000D02*X700000D01*
X715000Y535000D02*X680000D01*
X710000Y515000D02*X680000D01*
X712500Y525000D02*X680000D01*
X717500Y520000D02*X712500Y525000D01*
G54D13*X760000Y530000D02*X767500D01*
X770000Y532500D02*X767500Y530000D01*
X770000Y527500D01*
G54D12*X720000Y530000D02*X715000Y535000D01*
X722500Y522500D02*Y450000D01*
X725000Y515000D02*Y455000D01*
X730000Y500000D02*X735000Y495000D01*
X705000Y467500D02*X702500Y470000D01*
X710000Y472500D02*X707500Y475000D01*
G54D11*X692500Y467500D02*X700000Y460000D01*
G54D12*Y450000D02*X685000Y465000D01*
X730000Y530000D02*X722500Y522500D01*
X730000Y520000D02*X725000Y515000D01*
X730000Y510000D02*X737500Y502500D01*
X712500Y500000D02*X710000Y502500D01*
X715000Y510000D02*X710000Y515000D01*
X790000Y560000D02*X810000D01*
X790000Y550000D02*X810000D01*
X790000Y540000D02*X810000D01*
X790000Y530000D02*X810000D01*
Y560000D02*X830000Y580000D01*
X810000Y550000D02*X830000Y570000D01*
X810000Y540000D02*X830000Y560000D01*
X810000Y530000D02*X830000Y550000D01*
Y540000D02*X810000Y520000D01*
Y500000D01*
X790000Y480000D01*
Y470000D02*X812500Y492500D01*
Y512500D01*
X830000Y530000D01*
X815000Y505000D02*X830000Y520000D01*
X817500Y497500D02*X830000Y510000D01*
Y530000D02*X850000D01*
X830000Y520000D02*X850000D01*
X830000Y510000D02*X850000D01*
X860000Y600000D02*X882500D01*
X860000Y590000D02*X880000D01*
X860000Y580000D02*X877500D01*
X882500Y600000D02*X892500Y590000D01*
X880000D02*X890000Y580000D01*
X877500D02*X887500Y570000D01*
X860000D02*X875000D01*
X860000Y560000D02*X872500D01*
X875000Y570000D02*X885000Y560000D01*
X872500D02*X882500Y550000D01*
X860000D02*X870000D01*
X860000Y540000D02*X867500D01*
X877500Y530000D01*
X892500Y590000D02*Y325000D01*
X882500Y550000D02*Y365000D01*
X887500Y570000D02*Y402500D01*
X885000Y560000D02*Y422500D01*
Y420000D01*
Y422500D01*
X895000Y600000D02*Y315000D01*
X880000Y540000D02*Y375000D01*
X890000Y580000D02*Y335000D01*
X877500Y530000D02*Y385000D01*
X830000Y500000D02*X850000D01*
X830000Y490000D02*X850000D01*
X860000Y500000D02*X867500Y492500D01*
Y467500D01*
X865000Y465000D01*
X835000D01*
X830000Y480000D02*X850000D01*
X832500Y470000D02*X850000D01*
Y450000D02*X840000D01*
X835000Y445000D01*
Y392500D01*
X842500Y445000D02*X837500Y440000D01*
X835000Y465000D02*X830000Y460000D01*
X850000D02*X837500D01*
X832500Y455000D01*
X860000Y450000D02*X855000Y445000D01*
X842500D01*
X837500Y440000D02*Y390000D01*
X730000Y550000D02*X717500D01*
X720000Y570000D02*X730000D01*
X695000Y580000D02*X730000D01*
X692500Y590000D02*X730000D01*
X712500Y560000D02*X697500Y545000D01*
X730000Y560000D02*X712500D01*
G54D13*X642500Y627500D02*X727500D01*
X730000Y620000D02*Y625000D01*
X727500Y627500D02*X730000Y625000D01*
Y627500D01*
X727500D02*X730000D01*
Y625000D02*X732500Y627500D01*
X730000D02*X732500D01*
G54D12*X650000Y552500D02*Y560000D01*
X645000Y565000D01*
X587500Y592500D02*Y587500D01*
X590000Y610000D02*X600000Y600000D01*
G54D13*X592500Y590000D02*X637500D01*
G54D12*X600000Y620000D02*X620000D01*
G54D13*X630000Y600000D02*Y620000D01*
X640000Y592500D02*X637500Y590000D01*
X640000Y625000D02*Y592500D01*
X637500Y590000D02*X640000D01*
Y592500D02*Y590000D01*
X642500Y627500D02*X640000Y625000D01*
X630000Y620000D02*X622500Y627500D01*
X870000Y637500D02*X507500D01*
X865000Y632500D02*X505000D01*
X732500Y627500D02*X787500D01*
X640000Y580000D02*Y587500D01*
X637500Y590000D01*
X640000Y580000D02*X635000D01*
X640000Y590000D02*Y587500D01*
Y580000D01*
G54D12*X597500Y545000D02*X697500D01*
X640000Y550000D02*X660000D01*
G54D13*X635000Y580000D02*X632500Y577500D01*
X620000Y575000D02*X630000D01*
X635000Y580000D01*
G54D12*X645000Y565000D02*X622500D01*
X610000Y560000D02*X605000D01*
G54D13*X417500Y390000D02*X420000Y387500D01*
Y430000D02*Y392500D01*
X417500Y390000D01*
X420000D01*
Y392500D02*Y390000D01*
Y387500D01*
G54D12*X400000Y410000D02*X405000Y415000D01*
X430000Y410000D02*X435000Y415000D01*
X405000D02*Y450000D01*
X435000Y415000D02*Y455000D01*
X445000Y472500D02*Y362500D01*
G54D13*X460000Y417500D02*Y412500D01*
Y422500D02*Y420000D01*
Y417500D01*
X452500Y450000D02*X450000D01*
Y447500D02*Y450000D01*
Y452500D02*Y495000D01*
Y450000D02*Y452500D01*
X400000Y390000D02*X417500D01*
X410000Y360000D02*X400000Y370000D01*
X392500Y377500D02*Y392500D01*
X400000Y400000D01*
X420000Y387500D02*Y360000D01*
X410000D02*X387500Y337500D01*
G54D12*Y357500D02*X397500D01*
X400000Y360000D02*X385000D01*
G54D13*X400000Y340000D02*X410000Y350000D01*
X417500D02*X410000D01*
X380000Y355000D02*Y340000D01*
Y337500D02*X382500D01*
X380000Y340000D02*X382500Y337500D01*
X380000Y340000D02*Y337500D01*
X382500D02*X387500D01*
X455000Y360000D02*X457500Y357500D01*
G54D12*X445000Y362500D02*X452500Y355000D01*
G54D13*X422500Y350000D02*X420000D01*
X417500D01*
X420000Y460000D02*X412500Y467500D01*
Y480000D01*
G54D12*X420000Y470000D02*Y480000D01*
X430000D02*X435000D01*
X360000Y475000D02*Y470000D01*
X370000Y460000D01*
X400000D01*
G54D13*X367500Y455000D02*X370000D01*
X372500D01*
X405000D01*
X370000Y452500D02*Y450000D01*
Y447500D02*Y440000D01*
Y450000D02*Y447500D01*
G54D12*X397500Y362500D02*X385000D01*
X382500Y365000D01*
G54D13*X420000Y360000D02*Y352500D01*
X417500Y350000D02*X420000Y352500D01*
X422500Y350000D01*
X420000Y352500D02*Y350000D01*
G54D12*X370000Y365000D02*Y370000D01*
X400000Y420000D02*X383500D01*
X382500Y419000D02*Y372500D01*
G54D13*X400000Y370000D02*X392500Y377500D01*
G54D12*X377500Y432500D02*Y425000D01*
X380000Y422500D01*
X383500Y420000D02*X382500Y421000D01*
X383500Y420000D02*X382500Y419000D01*
X383500Y420000D02*X382500D01*
Y421000D02*Y420000D01*
Y419000D01*
X430000Y330000D02*X410000D01*
G54D13*X387500Y327500D02*X400000Y340000D01*
G54D12*Y330000D02*X405000Y335000D01*
X410000Y330000D02*X400000Y320000D01*
X395000Y315000D01*
G54D13*X380000Y335000D02*Y320000D01*
X382500Y337500D02*X380000Y335000D01*
Y337500D02*Y335000D01*
G54D12*X430000Y310000D02*X437500Y317500D01*
X445000Y302500D02*Y315000D01*
X437500Y317500D02*X472500D01*
X475000Y320000D02*X477500Y317500D01*
Y297500D01*
X472500Y317500D02*X475000Y315000D01*
Y300000D01*
X430000Y320000D02*X475000D01*
X437500Y297500D02*X440000Y295000D01*
X435000Y305000D02*X437500Y302500D01*
Y297500D01*
X455000Y277500D02*X452500Y275000D01*
X455000Y277500D02*X472500D01*
X475000Y275000D01*
X442500Y260000D02*Y280000D01*
X447500Y265000D02*Y280000D01*
X435000Y295000D02*X440000Y290000D01*
X470000D01*
X447500Y280000D02*X452500Y285000D01*
X467500D01*
X430000Y310000D02*X420000D01*
Y320000D02*X430000D01*
X435000Y305000D02*X420000D01*
X442500Y280000D02*X437500Y285000D01*
X415000D01*
X412500Y287500D01*
X415000Y295000D02*X435000D01*
G54D13*X420000Y280000D02*X430000D01*
G54D12*X420000Y310000D02*X400000Y290000D01*
X420000Y320000D02*X400000Y300000D01*
Y310000D02*X415000Y325000D01*
X420000Y305000D02*X412500Y297500D01*
X405000Y285000D02*X415000Y295000D01*
X395000Y282500D02*X402500D01*
G54D13*X392500Y277500D02*X387500Y282500D01*
G54D12*X395000Y287500D02*X397500Y285000D01*
X392500D02*X395000Y282500D01*
X397500Y285000D02*X405000D01*
G54D13*X387500Y282500D02*Y327500D01*
G54D12*X395000Y315000D02*Y287500D01*
X400000Y330000D02*X392500Y322500D01*
Y285000D01*
G54D13*Y277500D02*X412500D01*
X415000Y280000D01*
X420000D01*
G54D12*X405000Y335000D02*X485000D01*
X415000Y325000D02*X464000D01*
X466000D02*X475000D01*
X484000Y295000D02*X485000Y294000D01*
Y295000D01*
X484000D01*
X465000Y332500D02*Y326000D01*
X464000Y325000D02*X465000Y326000D01*
Y325000D01*
X464000D02*X465000D01*
X466000D01*
X484000Y295000D02*X440000D01*
G54D13*X495000Y350000D02*X422500D01*
G54D12*X605000Y367500D02*Y372500D01*
X585000Y365000D02*Y382500D01*
X600000Y357500D02*X597500Y360000D01*
X575000Y255000D02*Y420000D01*
X557500Y257500D02*Y402500D01*
X560000Y260000D02*Y405000D01*
X562500Y262500D02*Y407500D01*
X565000Y265000D02*Y415000D01*
X572500Y252500D02*Y417500D01*
X567500Y247500D02*Y447500D01*
X570000Y250000D02*Y420000D01*
G54D13*X590000Y350000D02*Y280000D01*
X580000Y270000D01*
G54D12*X610000Y347500D02*X607500Y350000D01*
X595000Y335000D02*Y352500D01*
X607500Y345000D02*X615000D01*
X605000Y357500D02*X607500Y355000D01*
X610000Y357500D02*Y352500D01*
X607500Y360000D02*X610000Y357500D01*
G54D13*X615000Y335000D02*Y245000D01*
G54D12*X610000Y320000D02*X597500Y307500D01*
X610000Y310000D02*X605000Y305000D01*
Y237500D01*
X512500Y292500D02*Y287500D01*
X515000Y285000D01*
X520000Y300000D02*X512500Y292500D01*
X510000Y280000D02*X520000D01*
X510000Y295000D02*X515000Y300000D01*
Y315000D01*
X520000Y320000D01*
X490000Y290000D02*X500000D01*
X490000Y280000D02*X485000Y285000D01*
Y294000D01*
X486000Y295000D02*X510000D01*
X486000D02*X485000D01*
X500000Y290000D02*X510000Y280000D01*
X485000Y294000D02*X486000Y295000D01*
G54D13*X540000Y320000D02*Y350000D01*
X532500Y357500D02*X540000Y350000D01*
G54D12*X530000Y330000D02*X520000Y340000D01*
G54D13*X525000Y330000D02*X527500Y327500D01*
X457500Y357500D02*X517500D01*
G54D12*X455000Y365000D02*X457500Y362500D01*
X480000D02*X510000D01*
X455000Y402500D02*X462500Y410000D01*
X455000Y365000D02*Y402500D01*
X462500Y410000D02*X472500D01*
X475000Y412500D01*
X530000Y287500D02*Y330000D01*
X532500Y282500D02*Y302500D01*
X535000Y305000D01*
G54D13*X527500Y327500D02*Y312500D01*
G54D12*X552500Y305000D02*X555000Y307500D01*
X550000Y320000D02*X555000Y315000D01*
X535000Y305000D02*X552500D01*
G54D13*X550000Y310000D02*X540000Y320000D01*
G54D12*X555000Y315000D02*Y307500D01*
X515000Y285000D02*X527500D01*
X530000Y287500D01*
Y280000D02*X532500Y282500D01*
G54D13*X527500Y292500D02*X525000Y290000D01*
X520000D01*
Y310000D02*X525000D01*
X527500Y312500D02*X525000Y310000D01*
X527500Y307500D01*
X495000Y350000D02*X497500Y347500D01*
X500000Y350000D01*
X497500D02*X495000D01*
G54D12*X465000Y326000D02*X466000Y325000D01*
X475000D02*X490000Y310000D01*
X485000Y335000D02*X490000Y340000D01*
G54D13*X520000Y360000D02*X517500Y357500D01*
X520000Y360000D02*X522500Y357500D01*
X530000Y350000D02*X500000D01*
G54D12*X510000Y362500D02*X515000Y367500D01*
G54D13*X497500Y330000D02*Y332500D01*
Y337500D02*Y340000D01*
Y332500D02*X500000Y330000D01*
X495000D02*X497500Y332500D01*
X490000Y330000D02*X495000D01*
X497500D01*
G54D12*X475000Y412500D02*Y465000D01*
X465000Y475000D02*X475000Y465000D01*
G54D13*X462500Y420000D02*X470000D01*
X480000D02*Y412500D01*
G54D12*X475000Y495000D02*X472500Y497500D01*
X462500D01*
G54D13*X480000Y500000D02*Y505000D01*
X502500Y492500D02*Y490000D01*
X505000D01*
X500000D02*X502500D01*
X477500Y507500D02*X480000Y505000D01*
X482500Y507500D01*
X480000Y505000D02*Y507500D01*
X482500D02*X485000D01*
X477500D02*X480000D01*
X482500D01*
X490000Y560000D02*Y567500D01*
X470000Y570000D02*X487500D01*
G54D12*X480000Y540000D02*Y560000D01*
G54D13*X490000Y540000D02*Y560000D01*
X502500Y627500D02*X500000Y630000D01*
X462500D01*
X472500Y620000D02*Y582500D01*
X470000Y580000D01*
G54D12*X462500Y610000D02*Y597500D01*
X365000Y545000D02*X395000D01*
G54D13*X370000Y560000D02*Y582500D01*
G54D12*X362500Y610000D02*X425000Y547500D01*
X395000Y545000D02*X400000Y550000D01*
X435000Y570000D02*X425000Y560000D01*
X432500Y547500D02*X425000D01*
G54D13*X417500Y485000D02*X435000D01*
G54D12*X430000Y490000D02*X425000Y495000D01*
G54D13*X435000Y485000D02*X437500Y487500D01*
G54D12*X442500Y477500D02*X445000Y480000D01*
X435000D02*X440000Y485000D01*
G54D13*X430000Y520000D02*X437500Y512500D01*
G54D12*X415000Y515000D02*X430000Y500000D01*
G54D13*X437500Y512500D02*Y487500D01*
G54D12*X442500Y532500D02*Y482500D01*
X445000Y535000D02*Y480000D01*
Y535000D02*X432500Y547500D01*
G54D13*X465000Y630000D02*X464000D01*
X465000D01*
X455000Y637500D02*X395000D01*
X387500Y630000D01*
X455000Y637500D02*X472500Y620000D01*
G54D12*X425000Y580000D02*X445000D01*
X462500Y597500D02*X445000Y580000D01*
X837500Y390000D02*X832500Y385000D01*
X830000Y387500D02*X825000D01*
X765000D01*
X830000Y397500D02*X825000Y392500D01*
X832500Y395000D02*X827500Y390000D01*
X835000Y392500D02*X830000Y387500D01*
X790000Y360000D02*X777500D01*
X790000Y370000D02*X777500D01*
X772500Y365000D01*
Y360000D02*X777500Y365000D01*
X760000Y370000D02*X772500D01*
X790000Y350000D02*X777500D01*
X790000Y340000D02*X777500D01*
X772500Y335000D01*
Y340000D02*X777500Y345000D01*
Y360000D02*X772500Y355000D01*
X745000D01*
X772500Y365000D02*X747500D01*
X760000Y360000D02*X772500D01*
X742500Y370000D02*X747500Y365000D01*
X772500Y350000D02*X777500Y355000D01*
X772500Y370000D02*X777500Y375000D01*
X760000Y350000D02*X772500D01*
X760000Y340000D02*X772500D01*
X777500Y350000D02*X772500Y345000D01*
X745000D01*
X772500Y335000D02*X747500D01*
X772500Y325000D02*X745000D01*
X772500Y330000D02*X777500Y335000D01*
X760000Y330000D02*X772500D01*
X760000Y320000D02*X772500D01*
G54D13*X770000Y400000D02*Y407500D01*
G54D12*X732500Y392500D02*X825000D01*
G54D13*X770000Y410000D02*Y412500D01*
X767500Y410000D02*X770000D01*
G54D12*X832500Y385000D02*X740000D01*
X827500Y390000D02*X735000D01*
X765000Y387500D02*X825000D01*
X765000D02*X737500D01*
G54D13*X770000Y407500D02*Y410000D01*
G54D12*X777500Y325000D02*X880000D01*
X777500Y365000D02*X870000D01*
X777500Y355000D02*X872500D01*
X777500Y335000D02*X877500D01*
X887500Y345000D01*
X777500D02*X875000D01*
X777500Y315000D02*X882500D01*
X892500Y325000D01*
X880000D02*X890000Y335000D01*
X885000Y305000D02*X895000Y315000D01*
X802500Y305000D02*X885000D01*
X800000D02*X802500D01*
X777500Y375000D02*X867500D01*
X885000Y355000D02*Y420000D01*
X867500Y375000D02*X877500Y385000D01*
X887500Y345000D02*Y400000D01*
X870000Y365000D02*X880000Y375000D01*
X887500Y400000D02*Y402500D01*
Y400000D01*
X875000Y345000D02*X885000Y355000D01*
X872500D02*X882500Y365000D01*
X605000Y367500D02*X607500Y365000D01*
X610000Y420000D02*X617500D01*
X622500Y415000D01*
X610000Y362500D02*X605000D01*
X610000Y410000D02*X612500D01*
X610000D02*X597500D01*
X605000Y362500D02*X602500Y365000D01*
X600000Y362500D02*X602500Y360000D01*
X607500D01*
X597500Y355000D02*X603000D01*
X610000Y352500D02*X612500Y350000D01*
X585000Y395000D02*X590000Y390000D01*
X582500D02*X587500Y385000D01*
X605000Y372500D02*X602500Y375000D01*
X607500D02*X597500Y385000D01*
X585000Y360000D02*Y325000D01*
X605000Y353000D02*Y347500D01*
X607500Y345000D01*
X597500Y360000D02*Y372500D01*
X590000Y390000D02*Y357500D01*
X595000Y352500D02*X590000Y357500D01*
X587500Y385000D02*Y362500D01*
X585000Y360000D01*
G54D13*X525000Y310000D02*X527500D01*
Y307500D02*Y292500D01*
Y312500D02*Y310000D01*
Y307500D01*
X500000Y350000D02*X497500D01*
Y340000D02*Y347500D01*
Y332500D02*Y337500D01*
Y340000D01*
Y347500D02*Y350000D01*
X500000Y330000D02*X520000D01*
X525000D01*
X497500D02*X500000D01*
G54D12*X515000Y367500D02*Y375000D01*
X520000Y400000D02*Y390000D01*
X505000Y375000D01*
G54D13*X520000Y360000D02*Y357500D01*
X522500D01*
X517500D02*X520000D01*
X522500D02*X532500D01*
G54D12*X545000Y405000D02*X555000D01*
X557500Y402500D01*
X560000Y405000D03*
X557500Y407500D01*
X310000Y550000D02*X305000Y555000D01*
X247500D01*
X242500Y550000D01*
X310000Y540000D02*X340000Y570000D01*
X332500Y540000D02*X340000D01*
X320000Y570000D02*Y565000D01*
X250000Y480000D02*X255000Y475000D01*
X250000Y490000D02*X257500Y482500D01*
X310000Y510000D02*X282500Y482500D01*
X310000Y520000D02*X280000Y490000D01*
X310000Y530000D02*X277500Y497500D01*
X310000Y540000D02*X275000Y505000D01*
X317500Y525000D02*X332500Y540000D01*
X250000Y500000D02*X260000Y490000D01*
X250000Y510000D02*X262500Y497500D01*
X250000Y520000D02*X265000Y505000D01*
X250000Y530000D02*X267500Y512500D01*
X250000Y540000D02*X270000Y520000D01*
X250000Y550000D02*X272500Y527500D01*
G54D13*X245000Y585000D02*Y632500D01*
X240000Y635000D02*Y587500D01*
Y635000D02*X252500Y647500D01*
X245000Y632500D02*X255000Y642500D01*
X261142Y627500D02*X260925Y627283D01*
X263642Y630000D02*X260925Y627283D01*
X274000Y627500D02*X271500Y630000D01*
G54D12*X274114Y605630D02*X274370D01*
G54D13*X274500Y630000D02*X263642D01*
G54D12*X355000Y555000D02*X352500Y552500D01*
Y540000D01*
X340000Y500000D02*Y490000D01*
G54D13*X347500Y537500D02*Y580000D01*
X337500Y630000D02*X335000Y627500D01*
X314292D01*
X314075Y627283D01*
X302717D01*
X300000Y630000D01*
X274114Y615472D02*Y629614D01*
G54D12*X282382Y615472D02*Y607618D01*
G54D13*X274114Y629614D02*X274500Y630000D01*
X274000Y627500D02*X276500Y630000D01*
X300000D02*X263642D01*
G54D12*X274370Y605630D02*X310000Y570000D01*
Y569961D02*Y560000D01*
X282382Y607618D02*X320000Y570000D01*
G54D13*X300886Y615472D02*X312028D01*
X347500Y580000D01*
X362500Y630000D02*X352500Y620000D01*
Y600000D01*
X370000Y582500D01*
G54D12*X317500Y385000D02*X327500D01*
X310000Y380000D02*X315000Y375000D01*
X310000Y410000D02*X315000Y405000D01*
X375000Y415000D02*X370000Y420000D01*
X365000Y405000D02*X370000Y410000D01*
X345000Y425000D02*X372500D01*
X377500Y420000D01*
X372500Y375000D02*X377500Y380000D01*
X380000Y375000D02*Y422500D01*
X315000Y405000D02*X365000D01*
X327500Y395000D02*X332500Y400000D01*
X340000D01*
X255000Y475000D02*Y367500D01*
X257500Y482500D02*Y365000D01*
X262500Y497500D02*Y360000D01*
X260000Y490000D02*Y362500D01*
X257500Y365000D02*X252500Y360000D01*
X255000Y367500D02*X250000Y362500D01*
X245000Y377500D02*Y382500D01*
Y377500D02*X242500Y375000D01*
X250000Y400000D02*X245000Y405000D01*
X285000Y465000D02*Y435000D01*
X310000Y450000D02*X295000Y435000D01*
X310000Y460000D02*X292500Y442500D01*
X310000Y470000D02*X290000Y450000D01*
X287500Y457500D02*Y445000D01*
X290000Y450000D02*Y425000D01*
X310000Y480000D02*X287500Y457500D01*
X310000Y490000D02*X285000Y465000D01*
X317500Y470000D02*Y525000D01*
X310000Y430000D02*X300000Y420000D01*
X310000Y440000D02*X297500Y427500D01*
X292500Y442500D02*Y415000D01*
X310000Y420000D02*X302500Y412500D01*
X300000Y420000D02*Y386000D01*
X297500Y427500D02*Y395000D01*
X295000Y435000D02*Y410000D01*
X302500Y412500D02*Y377500D01*
X305000Y392500D02*X307500Y395000D01*
X327500D01*
Y460000D02*X317500Y470000D01*
X315000Y375000D02*X352500D01*
X310000Y370000D02*X315000Y365000D01*
X347500D01*
X352500Y370000D01*
X362500Y385000D02*X352500Y375000D01*
X365000Y367500D02*Y372500D01*
Y367500D02*X367500Y365000D01*
X365000Y364000D02*X362500Y366500D01*
Y377500D01*
X375000Y387500D02*Y415000D01*
Y387500D02*X372500Y385000D01*
X370000Y370000D02*Y365000D01*
X377500Y420000D02*Y380000D01*
X370000Y370000D02*X375000D01*
X380000Y375000D01*
X372500Y385000D02*X362500D01*
X365000Y380000D02*X362500Y377500D01*
X370000Y380000D02*X365000D01*
X367500Y375000D02*X372500D01*
X367500D02*X365000Y372500D01*
X372500Y362500D02*X382500Y372500D01*
X337500Y475000D02*X335000Y472500D01*
G54D13*X340000Y470000D02*X350000Y460000D01*
Y442500D02*Y460000D01*
G54D12*X340000Y440000D02*X335000Y445000D01*
Y472500D01*
X355000Y475000D02*Y447500D01*
X340000Y430000D02*X345000Y425000D01*
G54D13*X362500Y430000D02*X350000Y442500D01*
G54D12*X367500Y435000D02*X355000Y447500D01*
G54D13*X370000Y430000D02*X362500D01*
G54D12*X380000Y435000D02*X367500D01*
X380000D02*X382500Y432500D01*
Y421000D01*
G54D13*X370000Y450000D02*Y447500D01*
Y452500D02*X372500Y455000D01*
X370000D02*Y452500D01*
X367500Y455000D02*X370000Y452500D01*
X365000Y455000D02*X367500D01*
X360000Y460000D02*X365000Y455000D01*
X370000Y530000D02*X355000D01*
X347500Y537500D01*
X102500Y387500D02*X52500Y337500D01*
G54D12*X60000Y330000D02*X65000Y335000D01*
X75000D01*
X100000Y340000D02*Y337500D01*
Y340000D02*Y355000D01*
X67500Y305000D02*X72500D01*
X75000Y315000D02*X70000Y320000D01*
X120000Y300000D02*X115000Y305000D01*
X132500D02*X122500D01*
X152500Y317500D02*X155000Y315000D01*
G54D13*X127500D02*X122500D01*
X121500D01*
G54D12*X152500Y312500D02*X150000Y315000D01*
X122500Y347500D02*X117500Y342500D01*
X120000Y350000D02*X115000Y345000D01*
X117500Y342500D02*Y310000D01*
X137500Y327500D02*Y340000D01*
X145000Y325000D02*X140000Y330000D01*
Y342500D01*
X142500Y332500D02*Y345000D01*
X145000Y335000D02*Y347500D01*
X140000Y352500D01*
X147500Y327500D02*X142500Y332500D01*
X150000Y330000D02*X145000Y335000D01*
G54D13*X130000Y330000D02*Y320000D01*
X140000D02*X145000Y315000D01*
X130000Y320000D02*X140000D01*
G54D12*X135000Y347500D02*X122500D01*
X137500Y350000D02*X120000D01*
X137500Y340000D02*X132500Y345000D01*
X140000Y342500D02*X135000Y347500D01*
X142500Y345000D02*X137500Y350000D01*
X110000Y360000D02*X117500D01*
X122500Y365000D01*
X120000Y367500D02*X115000Y362500D01*
X107500D01*
X110000Y360000D02*X105000Y355000D01*
X65000Y302500D02*X67500Y305000D01*
X70000Y310000D02*X65000D01*
X72500Y305000D02*X75000Y307500D01*
Y315000D01*
X100000Y337500D02*Y340000D01*
Y355000D02*X107500Y362500D01*
X100000Y330000D02*X105000Y335000D01*
X80000Y347500D02*X115000Y382500D01*
X117500Y377500D02*X75000Y335000D01*
X60000Y212500D02*Y330000D01*
G54D13*X70000Y300000D02*X90000D01*
X92500Y267500D02*Y272500D01*
Y297500D02*X95000Y300000D01*
G54D12*X110000D02*X100000Y290000D01*
G54D13*X95000Y305000D02*X105000D01*
X92500Y300000D02*X95000D01*
X130000Y257500D02*X132500Y260000D01*
X127500D02*X130000Y257500D01*
G54D12*X125000Y220000D02*Y221500D01*
X150000Y315000D02*Y317500D01*
G54D13*X135000Y315000D02*X127500D01*
X121500D02*X122500D01*
X125000Y317500D01*
G54D12*X150000D02*X147500Y320000D01*
X65000Y310000D02*X62500Y307500D01*
G54D13*X70000Y330000D02*X95000Y305000D01*
G54D12*X107500Y320000D02*X100000D01*
X87500Y182500D02*X107500Y162500D01*
X85000Y180000D02*X105000Y160000D01*
X90000Y185000D02*X110000Y165000D01*
G54D13*X100000Y190000D02*X110000Y180000D01*
G54D12*X27500D02*X35000Y172500D01*
X40000Y182500D02*X32500Y190000D01*
G54D13*X92500Y197500D02*X100000Y190000D01*
G54D12*X70000Y200000D02*X80000D01*
X85000Y195000D01*
Y180000D01*
X75000Y182500D02*Y192500D01*
X72500Y195000D01*
X67500D01*
X65000Y197500D01*
X77500Y175000D02*X65000D01*
X62500Y177500D01*
X82500Y165000D02*X57500D01*
G54D13*X2500Y212500D02*Y145000D01*
X20000Y140000D02*X7500D01*
X2500Y145000D01*
G54D12*X10000Y190000D02*X32500D01*
X10000Y180000D02*X27500D01*
X10000Y200000D02*X15000Y205000D01*
X10000Y120000D02*Y100000D01*
X15000Y95000D01*
X45000D01*
X50000Y100000D01*
X40000D02*X35000Y105000D01*
Y172500D02*Y105000D01*
X40000Y120000D02*Y182500D01*
G54D13*X10000Y220000D02*X2500Y212500D01*
G54D12*X10000Y250000D02*X5000Y255000D01*
X10000Y240000D02*X2500Y247500D01*
X10000Y260000D02*X15000Y255000D01*
X10000Y340000D02*X35000D01*
X15000Y255000D02*Y205000D01*
G54D13*X52500Y337500D02*Y147500D01*
G54D12*X62500Y177500D02*Y307500D01*
X65000Y197500D02*Y302500D01*
X50000Y120000D02*X70000D01*
G54D13*X62500Y137500D02*X52500Y147500D01*
G54D12*X95000Y225000D02*Y245000D01*
G54D13*X92500Y297500D02*X90000Y300000D01*
X92500Y267500D02*X95000Y270000D01*
G54D12*Y245000D02*X100000Y250000D01*
X70000Y220000D02*X90000Y200000D01*
Y185000D01*
X70000Y210000D02*X75000D01*
X87500Y197500D01*
Y182500D01*
G54D13*Y137500D02*X62500D01*
G54D12*X77500Y175000D02*X97500Y155000D01*
X95000Y152500D02*X82500Y165000D01*
X100000Y157500D02*X75000Y182500D01*
G54D13*X80000Y112500D02*Y110000D01*
Y107500D01*
Y120000D02*Y112500D01*
Y107500D02*Y100000D01*
X100000Y125000D02*X87500Y137500D01*
X80000Y110000D02*X82500D01*
G54D12*X40000Y120000D02*X50000D01*
G54D13*X80000Y112500D02*X82500Y110000D01*
X115000D02*X117500D01*
X82500D02*X115000D01*
X117500Y112500D01*
Y110000D01*
X90000Y50000D02*X92500Y52500D01*
X87500D02*X90000Y50000D01*
Y52500D02*Y50000D01*
Y52500D02*X87500D01*
X77500D01*
X92500D02*X90000D01*
X107500Y57500D02*X102500Y52500D01*
G54D12*X112500Y47500D02*Y70000D01*
G54D13*X102500Y52500D02*X92500D01*
G54D12*X100000Y36000D02*Y40000D01*
X121300Y38700D02*X112500Y47500D01*
X122520Y38700D02*X121300D01*
X98000Y34000D02*X100000Y36000D01*
X98000Y30000D02*Y34000D01*
G54D13*X90000Y50000D02*Y30000D01*
X107500Y57500D02*Y74000D01*
X110500Y76771D02*X107500Y74000D01*
Y80000D02*X110500Y76771D01*
X107500D01*
Y80000D01*
Y87500D01*
Y74000D02*Y76771D01*
X87500Y92500D02*X80000Y100000D01*
X82500Y110000D02*X80000Y107500D01*
G54D12*X70000Y100000D02*X50000D01*
G54D13*X121733Y76771D02*X110500D01*
X107500Y87500D02*X102500Y92500D01*
X87500D01*
X117500Y110000D02*X120000D01*
G54D12*X155000Y132500D02*X147914Y125414D01*
G54D13*X162500Y130000D02*X157500Y125000D01*
G54D12*X147914Y118602D02*Y125414D01*
X150000Y140000D02*X155000Y135000D01*
G54D13*X117500Y112500D02*X120000Y110000D01*
X155000D01*
G54D12*X110000Y165000D02*X155000D01*
X105000Y160000D02*X150000D01*
X107500Y162500D02*X152500D01*
X100000Y157500D02*X155000D01*
G54D13*X130000Y140000D02*X117500Y127500D01*
G54D12*X132737Y116692D02*Y122737D01*
X150000Y140000D01*
X140000D02*X135000Y145000D01*
X117500D01*
X140000Y140000D02*X145000Y145000D01*
G54D13*X117500Y127500D02*Y112500D01*
X110000Y180000D02*X117500Y172500D01*
G54D12*Y145000D02*X112500Y140000D01*
Y115000D01*
G54D13*X155000Y110000D02*X157500Y112500D01*
X160000Y110000D01*
X157500D02*X157441Y124941D01*
X157500Y110000D02*X160000D01*
X155000D02*X157500D01*
X50000Y30000D02*X60000Y40000D01*
G54D12*X80000Y36000D02*Y40000D01*
X82000Y34000D02*X80000Y36000D01*
X82000Y30000D02*Y34000D01*
G54D13*X60000Y70000D02*X77500Y52500D01*
G54D12*X135000Y302500D02*X132500Y305000D01*
X130000Y270000D02*X135000Y275000D01*
Y302500D01*
X152500Y247500D02*Y312500D01*
G54D13*X135000Y260000D02*X137500Y262500D01*
X132500Y260000D02*X135000D01*
X130000Y257500D02*Y260000D01*
X132500D01*
X127500D02*X130000D01*
G54D12*X100000Y220000D02*X95000Y225000D01*
X57500Y210000D02*X60000Y212500D01*
X100000Y230000D02*X105000Y235000D01*
X140000D01*
X152500Y247500D02*X140000Y235000D01*
X152500Y225000D02*Y242500D01*
X155000Y245000D01*
X130000Y200000D02*X125000Y205000D01*
Y218500D01*
Y225000D02*X130000Y230000D01*
Y220000D02*X147500D01*
X152500Y225000D01*
X125000Y218500D02*Y220000D01*
X123500D02*X125000D01*
Y221500D02*Y225000D01*
G54D13*X110000Y260000D02*Y267500D01*
X107500Y270000D02*X110000Y267500D01*
X112500Y270000D01*
X110000Y267500D02*Y270000D01*
X107500D02*X110000D01*
X112500D01*
X100000D02*X107500D01*
X92500Y267500D02*Y272500D01*
Y297500D01*
X90000Y300000D02*X92500D01*
X95000D02*X100000D01*
X92500Y297500D02*Y300000D01*
X122500Y272500D02*X120000Y270000D01*
X112500D02*X120000D01*
G54D12*X200000Y470000D02*Y490000D01*
G54D13*X210000Y470000D02*Y460000D01*
X205000Y455000D01*
G54D12*X215000Y457500D02*Y465000D01*
X230000Y490000D02*X225000Y485000D01*
Y455000D01*
X200000Y490000D02*X210000Y500000D01*
G54D13*X211500Y507500D02*X216500Y502500D01*
Y476500D01*
X210000Y470000D01*
Y550000D02*X230000Y530000D01*
Y510000D01*
X210000Y550000D02*Y540000D01*
X202500Y532500D01*
G54D12*X242500Y512500D02*X230000Y500000D01*
X242500Y550000D02*Y512500D01*
G54D13*X230000Y510000D02*X222500Y502500D01*
X211500Y507500D02*X202500D01*
X190000Y520000D01*
X180000Y510000D02*Y525000D01*
X187500Y532500D01*
X202500D01*
X162500Y525000D02*X177500Y540000D01*
G54D12*X160000Y500000D02*X150000D01*
Y490000D02*X160000D01*
G54D13*X190000Y500000D02*X180000Y510000D01*
X190000Y500000D02*X180000Y490000D01*
G54D12*X230000Y480000D02*X240000D01*
X250000Y470000D01*
X230000D02*X240000D01*
X219500Y525000D02*Y442500D01*
G54D13*X222500Y502500D02*Y447500D01*
X205000Y455000D02*X200000D01*
X195000D02*X175000D01*
X197500D02*X195000D01*
X197500Y452500D01*
G54D12*X182500Y445000D02*X180000Y442500D01*
G54D13*X197500Y452500D02*X200000Y455000D01*
X197500D01*
X170000Y464000D02*Y467500D01*
X180000Y490000D02*Y460000D01*
X170000D02*Y464000D01*
X172500Y466500D01*
X170000Y460000D02*X175000Y455000D01*
X170000Y464000D02*X167500Y466500D01*
G54D12*X115000Y447500D02*X117500Y450000D01*
X120000Y447500D02*X185000D01*
G54D13*X154000Y470000D02*X130000D01*
G54D11*X140000Y480000D02*X135000Y485000D01*
X160000Y480000D02*X140000D01*
X135000Y485000D02*X105000D01*
X112500Y487500D02*X115000Y485000D01*
X110000D02*X112500Y487500D01*
G54D12*X120000Y447500D02*X117500Y445000D01*
G54D13*X130000Y507500D02*Y500000D01*
X180000Y510000D02*X132500D01*
X130000Y507500D01*
X112500Y515000D02*X122500Y525000D01*
X112500Y487500D02*Y515000D01*
X122500Y525000D02*X162500D01*
G54D12*X210000Y430000D02*Y420000D01*
X217500Y430000D02*Y385000D01*
X210000Y420000D02*Y410000D01*
X215000Y382500D02*X217500Y385000D01*
X210000Y380000D02*X217500D01*
G54D13*X212500Y360000D02*X222500Y370000D01*
X250000D02*X240000D01*
X222500D02*X240000D01*
G54D12*X250000Y380000D02*X235000Y395000D01*
X230000Y390000D02*X237500D01*
X245000Y382500D02*X237500Y390000D01*
X242500Y375000D02*X222500D01*
X212500Y365000D01*
X217500Y380000D02*X220000Y382500D01*
Y420000D02*Y382500D01*
G54D13*X222500Y447500D02*X230000Y440000D01*
G54D12*X225000Y405000D02*X222500Y407500D01*
Y439500D02*X219500Y442500D01*
X222500Y407500D02*Y439500D01*
X225000Y405000D02*X245000D01*
X220000Y345000D02*X155000D01*
X217500Y347500D02*X157500D01*
X215000Y350000D02*X155000D01*
X212500Y352500D02*X157500D01*
X222500Y342500D02*X157500D01*
X225000Y340000D02*X155000D01*
X227500Y337500D02*X152500D01*
X227500Y357500D02*X217500Y347500D01*
X225000Y360000D02*X215000Y350000D01*
X222500Y362500D02*X212500Y352500D01*
X230000Y335000D02*X150000D01*
X232500Y332500D02*X152500D01*
X165000Y305000D02*X232500D01*
Y315000D02*X155000D01*
X237500Y305000D02*X232500Y300000D01*
X227500D01*
G54D13*X180000Y360000D02*X212500D01*
G54D12*X195000Y365000D02*X185000D01*
X180000Y370000D01*
X200000Y365000D02*Y370000D01*
X202500Y367500D02*X205000Y370000D01*
Y365000D02*X207500Y367500D01*
X282500Y482500D02*Y352500D01*
X280000Y490000D02*Y347500D01*
X277500Y497500D02*Y347500D01*
X282500Y482500D02*Y352500D01*
Y347500D01*
X305000Y350000D02*Y392500D01*
X275000Y505000D02*Y347500D01*
X300000Y345000D02*X302500Y347500D01*
X300000Y386000D02*Y347500D01*
X302500Y377500D02*Y347500D01*
X297500Y395000D02*Y347500D01*
X300000D03*
X302500D03*
X287500Y445000D02*Y347500D01*
X285000Y435000D02*Y347500D01*
X290000Y425000D02*Y347500D01*
X292500Y415000D02*Y347500D01*
X295000Y410000D02*Y347500D01*
X250000Y260000D02*X237500D01*
X250000Y270000D02*X237500D01*
X250000Y290000D02*X237500D01*
X250000Y300000D02*X237500D01*
X250000Y340000D02*X240000D01*
X250000Y330000D02*X240000D01*
X250000Y320000D02*X237500D01*
X250000Y310000D02*X262500D01*
X250000Y250000D02*X237500D01*
X250000Y280000D02*X237500D01*
X192500Y450000D02*X195000Y447500D01*
Y385000D02*Y447500D01*
G54D13*X197500Y452500D02*Y375000D01*
G54D12*Y370000D03*
X192500Y375000D01*
G54D13*X197500Y455000D02*Y452500D01*
G54D12*X202500Y445000D02*X215000Y457500D01*
X205000Y443500D02*X216500Y455000D01*
X180000Y442500D02*Y370000D01*
X202500Y390000D02*Y445000D01*
X205000Y410000D02*Y443500D01*
Y405000D02*Y387500D01*
X210000Y410000D02*X205000Y405000D01*
X202500Y385000D02*X205000Y387500D01*
X190000Y380000D02*X195000Y385000D01*
X192500Y375000D02*X187500D01*
X182500Y380000D01*
X200000Y370000D02*X202500Y372500D01*
X205000Y370000D02*Y380000D01*
X207500Y367500D02*Y377500D01*
X202500Y372500D02*Y385000D01*
X205000Y380000D02*X207500Y382500D01*
X215000D01*
X207500Y377500D02*X210000Y380000D01*
G54D13*X50000Y540000D02*X40000D01*
X30000Y550000D01*
X40000D02*Y570000D01*
X30000Y550000D02*Y570000D01*
X60000Y550000D02*X50000Y540000D01*
X40000Y570000D02*X60000D01*
X80000Y590000D02*X74000Y596000D01*
X60000D02*X74000D01*
X70000Y560000D02*X60000Y570000D01*
X41000Y608000D02*Y611000D01*
X50000Y620000D01*
X60000D01*
X70000Y560000D02*Y550000D01*
X20000D02*X30000D01*
X40000Y570000D02*Y607000D01*
X205000Y565000D02*X225000D01*
X200000Y560000D02*X205000Y565000D01*
X240000Y587500D02*X222500Y570000D01*
X200000Y550000D02*Y560000D01*
X225000Y565000D02*X245000Y585000D01*
X222500Y570000D02*X182500D01*
X177500Y565000D01*
Y540000D02*Y565000D01*
G54D12*X190000Y610000D02*X165000Y585000D01*
X175000Y615000D02*X162500Y602500D01*
X200000Y610000D02*X195000Y615000D01*
G54D13*X230000Y610000D02*X220000Y620000D01*
G54D12*X195000Y615000D02*X175000D01*
G54D13*X152500Y620000D02*X220000D01*
X120000Y590000D02*X80000D01*
Y550000D02*X140000D01*
X40000Y607000D02*X41000Y608000D01*
X140000Y550000D02*Y570000D01*
X150000Y550000D02*Y570000D01*
G54D12*X165000Y585000D02*Y540000D01*
X162500Y542500D02*X155000Y535000D01*
X165000Y540000D02*X157500Y532500D01*
X162500Y602500D02*Y542500D01*
G54D13*X150000Y570000D02*Y617500D01*
X147500Y620000D02*X150000Y617500D01*
X152500Y620000D01*
X60000D02*X147500D01*
X150000Y617500D02*Y620000D01*
X147500D02*X150000D01*
X152500D01*
G54D12*X187500Y450000D02*X117500D01*
X122500Y440000D02*X120000Y442500D01*
X117500Y445000D02*Y377500D01*
X190000Y420000D02*X182500Y412500D01*
Y380000D01*
G54D13*X110000Y387500D02*X102500D01*
G54D12*X120000Y367500D02*Y437500D01*
X122500Y365000D02*Y440000D01*
X112500Y357500D02*X107500Y352500D01*
Y327500D01*
X115000Y382500D02*Y447500D01*
X2500Y247500D02*Y527500D01*
X5000Y255000D02*Y525000D01*
G54D13*X30000Y470000D02*X20000Y480000D01*
G54D12*X12500Y532500D02*X5000Y525000D01*
X157500Y532500D02*X12500D01*
X155000Y535000D02*X10000D01*
X2500Y527500D01*
G54D13*X130000Y470000D02*X30000D01*
G54D11*X105000Y485000D02*X100000Y480000D01*
G54D12*X230000Y420000D02*X250000D01*
Y410000D02*X245000Y415000D01*
X227500D01*
X225000Y417500D01*
Y432500D01*
X235000Y395000D02*X227500D01*
X230000Y430000D02*X250000D01*
X237500Y437500D02*Y442500D01*
X235000Y435000D02*X237500Y437500D01*
X225000Y432500D02*X227500Y435000D01*
X235000D01*
X225000Y455000D02*X237500Y442500D01*
X272500Y527500D02*Y350000D01*
X270000Y520000D02*Y352500D01*
X267500Y512500D02*Y355000D01*
X265000Y505000D02*Y357500D01*
X330000Y407500D02*Y475000D01*
X240000Y470000D02*X250000Y460000D01*
X310000Y390000D02*X327500D01*
X332500Y395000D01*
X362500D01*
X337500Y515000D02*X415000D01*
X227500Y395000D02*X222500Y390000D01*
X232500Y305000D02*X237500Y310000D01*
X272500Y350000D02*X267500Y345000D01*
X270000Y352500D02*X265000Y347500D01*
X267500Y315000D02*X262500Y320000D01*
X267500D02*X262500Y325000D01*
Y335000D02*X240000D01*
X267500Y305000D02*X262500Y310000D01*
X267500Y305000D02*X322500D01*
X310000Y330000D02*X267500D01*
X310000Y320000D02*X267500D01*
X310000Y310000D02*X267500D01*
X350000D02*X355000Y315000D01*
X350000Y300000D02*X367500Y317500D01*
X357500Y302500D02*X370000Y315000D01*
X367500Y365000D02*Y317500D01*
X370000Y315000D02*Y365000D01*
X372500Y305000D02*Y362500D01*
X365000Y364000D02*Y325000D01*
X350000Y310000D01*
G54D13*X360000Y360000D02*Y352500D01*
X350000Y340000D02*Y345000D01*
X347500Y347500D02*X350000Y345000D01*
X352500Y347500D01*
X350000Y345000D02*Y347500D01*
X352500D02*X355000D01*
X347500D02*X350000D01*
X352500D01*
X310000Y340000D02*X317500Y347500D01*
X360000Y352500D02*X355000Y347500D01*
X317500D02*X347500D01*
G54D12*X327500Y335000D02*X345000D01*
X327500Y340000D02*X322500Y335000D01*
X345000D02*X350000Y330000D01*
X327500Y325000D02*X345000D01*
X322500D02*X327500Y330000D01*
X322500Y315000D02*X327500Y320000D01*
X322500D02*X327500Y325000D01*
X322500Y330000D02*X327500Y335000D01*
X345000Y325000D02*X350000Y320000D01*
X345000Y315000D02*X350000Y310000D01*
X345000Y235000D02*X350000Y230000D01*
X345000Y285000D02*X350000Y280000D01*
X357500Y255000D02*Y302500D01*
X327500Y305000D02*X345000D01*
X350000Y300000D01*
X327500Y295000D02*X345000D01*
X350000Y290000D01*
X360000Y270000D02*X365000Y275000D01*
X360000Y262500D02*X367500Y270000D01*
Y260000D02*X362500Y255000D01*
X367500Y265000D02*X362500Y260000D01*
X360000Y267500D02*Y270000D01*
X362500Y255000D02*Y235000D01*
X365000Y232500D02*X362500Y230000D01*
X360000Y232500D02*Y262500D01*
Y232500D02*X357500Y230000D01*
Y225000D01*
X310000Y300000D02*X322500D01*
Y305000D02*X327500Y310000D01*
X322500Y300000D02*X327500Y305000D01*
X322500Y295000D02*X327500Y300000D01*
X322500Y285000D02*X327500Y290000D01*
X322500D02*X327500Y295000D01*
X322500Y280000D02*X327500Y285000D01*
X322500Y275000D02*X327500Y280000D01*
X322500Y270000D02*X327500Y275000D01*
X310000Y240000D02*X312500D01*
X327500Y275000D02*X345000D01*
X327500Y280000D02*X340000D01*
X327500Y270000D02*X340000D01*
X327500Y260000D02*X340000D01*
X327500Y255000D02*X345000D01*
Y265000D02*X327500D01*
Y300000D02*X340000D01*
X327500Y290000D02*X340000D01*
X327500Y265000D02*X325000Y262500D01*
X345000Y275000D02*X350000Y270000D01*
X345000Y225000D02*X350000Y220000D01*
X345000Y255000D02*X350000Y250000D01*
Y260000D02*X345000Y265000D01*
X327500Y225000D02*X345000D01*
X327500Y230000D02*X340000D01*
X327500Y220000D02*X340000D01*
X322500D02*X327500Y225000D01*
Y250000D02*X340000D01*
X327500Y240000D02*X340000D01*
X322500Y230000D02*X327500Y235000D01*
X310000Y240000D02*X312500D01*
X322500D02*X327500Y245000D01*
X302500Y42500D02*X332500Y72500D01*
X310000Y30000D02*Y45000D01*
X335000Y70000D01*
X477500Y102500D02*Y142500D01*
G54D13*X430000Y45217D02*X432717D01*
G54D12*X332500Y72500D02*X450000D01*
X335000Y70000D02*X452500D01*
X439783Y45217D02*X432717D01*
X372500Y37500D02*X402500Y67500D01*
X455000D01*
X439783Y45217D02*X447500Y37500D01*
X360000D02*X372500D01*
X452500Y70000D02*X465000Y82500D01*
X455000Y67500D02*X467500Y80000D01*
X637900Y37500D02*X652500D01*
X654000Y36000D01*
Y27500D01*
X656500Y25000D01*
X648500Y31900D02*X641600Y25000D01*
X627500D01*
X675000D02*X680000Y30000D01*
X652500Y57500D02*Y132500D01*
X657500Y130000D02*Y46700D01*
X660000Y47800D02*Y127500D01*
X322500Y310000D02*X310000D01*
X327500Y320000D02*X340000D01*
X327500Y310000D02*X340000D01*
X327500Y315000D02*X345000D01*
X322500Y310000D02*X327500Y315000D01*
X322500Y320000D02*X310000D01*
X322500Y330000D02*X310000D01*
X267500Y325000D02*X322500D01*
Y335000D02*X267500D01*
Y315000D02*X322500D01*
X267500Y235000D02*X275000D01*
X267500Y255000D02*X280000D01*
X277500Y245000D02*X267500D01*
Y285000D02*X322500D01*
X267500Y275000D02*X322500D01*
X262500Y280000D02*X267500Y275000D01*
X262500Y285000D02*X267500Y280000D01*
X310000Y290000D02*X267500D01*
X310000Y280000D02*X267500D01*
Y265000D02*X322500D01*
X267500Y260000D02*X310000D01*
X280000Y255000D02*X322500D01*
X310000Y270000D02*X267500D01*
X322500Y245000D02*X277500D01*
X272500Y225000D02*X322500D01*
X310000Y250000D02*X267500D01*
X275000Y235000D02*X322500D01*
X267500Y250000D02*X262500Y255000D01*
X267500D02*X262500Y260000D01*
X250000Y240000D02*X262500D01*
X250000Y230000D02*X262500D01*
Y265000D02*X267500Y260000D01*
Y265000D02*X262500Y270000D01*
X267500Y285000D02*X262500Y290000D01*
X267500Y295000D02*X322500D01*
X262500D02*X237500D01*
X232500Y290000D02*X237500Y295000D01*
X232500D02*X237500Y300000D01*
X262500D02*X267500Y295000D01*
X262500Y300000D02*X250000D01*
X262500Y290000D02*X250000D01*
X267500D02*X262500Y295000D01*
X267500Y215000D02*X282500D01*
X300000Y230000D02*X267500D01*
X250000Y220000D02*X262500D01*
X297500D02*X267500D01*
Y205000D02*X285000D01*
X267500Y195000D02*X287500D01*
X290000Y190000D02*X267500D01*
X292500Y200000D02*X267500D01*
X295000Y210000D02*X267500D01*
X237500Y290000D02*X232500Y285000D01*
X237500Y270000D02*X232500Y265000D01*
Y260000D02*X237500Y265000D01*
X232500Y250000D02*X237500Y255000D01*
Y260000D02*X232500Y255000D01*
X237500Y250000D02*X232500Y245000D01*
Y230000D02*X237500Y235000D01*
X232500Y280000D02*X237500Y285000D01*
Y280000D02*X232500Y275000D01*
X237500Y240000D02*X232500Y235000D01*
X237500Y240000D02*X250000D01*
X262500Y280000D02*X250000D01*
X262500Y275000D02*X237500D01*
X262500Y285000D02*X237500D01*
Y235000D02*X262500D01*
Y265000D02*X237500D01*
X262500Y250000D02*X250000D01*
X262500Y270000D02*X250000D01*
X262500Y260000D02*X250000D01*
X262500Y255000D02*X237500D01*
Y230000D02*X250000D01*
X232500Y225000D02*X237500Y230000D01*
Y215000D02*X262500D01*
X237500Y225000D02*X262500D01*
X237500Y220000D02*X250000D01*
X237500Y210000D02*X250000D01*
X232500D02*X237500Y215000D01*
X232500Y220000D02*X237500Y225000D01*
X232500Y215000D02*X237500Y220000D01*
X267500Y225000D02*X272500D01*
X270000Y30000D02*Y37500D01*
X275000Y42500D01*
X290000Y155000D02*X295000Y150000D01*
Y110000D01*
X275000Y42500D02*X302500D01*
G54D13*X260000Y190000D02*X250000D01*
G54D12*X237500Y200000D02*X250000D01*
X237500Y195000D02*X262500D01*
X237500Y205000D02*X262500D01*
X250000Y210000D02*X262500D01*
X250000Y200000D02*X262500D01*
X232500Y190000D02*X237500Y195000D01*
G54D13*X250000Y175000D02*Y172500D01*
X252500D01*
X247500D02*X250000D01*
G54D12*X327500Y205000D02*X345000D01*
X285000D02*X322500D01*
Y210000D02*X327500Y215000D01*
X322500Y210000D02*X310000D01*
X322500Y220000D02*X310000D01*
X282500Y215000D02*X322500D01*
X310000Y220000D02*X297500D01*
X310000Y210000D02*X295000D01*
X322500Y190000D02*X310000D01*
X287500Y195000D02*X322500D01*
X310000Y190000D02*X290000D01*
X310000Y200000D02*X292500D01*
G54D13*X252500Y172500D02*X332500D01*
G54D12*X327500Y215000D02*X345000D01*
Y245000D02*X350000Y240000D01*
X327500Y235000D02*X345000D01*
X322500Y225000D02*X327500Y230000D01*
X322500Y215000D02*X327500Y220000D01*
Y245000D02*X345000D01*
X322500Y235000D02*X327500Y240000D01*
Y250000D02*X322500Y245000D01*
Y250000D02*X327500Y255000D01*
X322500Y265000D02*X327500Y270000D01*
X322500Y280000D02*X310000D01*
X322500Y270000D02*X310000D01*
X322500Y255000D02*X327500Y260000D01*
X322500Y250000D02*X310000D01*
Y240000D02*X312500D01*
X322500Y230000D02*X310000D01*
X312500Y240000D02*X322500D01*
X310000Y230000D02*X300000D01*
X345000Y205000D02*X350000Y200000D01*
X345000Y195000D02*X350000Y190000D01*
X345000Y215000D02*X350000Y210000D01*
X327500D02*X340000D01*
X322500Y205000D02*X327500Y210000D01*
X322500Y200000D02*X327500Y205000D01*
X322500Y200000D02*X310000D01*
X327500D02*X340000D01*
X327500Y195000D02*X345000D01*
X322500D02*X327500Y200000D01*
X322500Y190000D02*X327500Y195000D01*
X340000Y190000D02*X345000Y185000D01*
X440000Y530000D02*Y485000D01*
G54D13*X462500Y507500D02*X450000Y495000D01*
Y365000D02*X455000Y360000D01*
G54D12*X457500Y362500D02*X465000D01*
G54D13*X460000Y430000D02*Y422500D01*
X450000Y440000D02*X460000Y430000D01*
Y420000D02*X462500D01*
X460000Y422500D02*X462500Y420000D01*
X460000Y417500D01*
Y412500D02*X450000Y402500D01*
Y365000D01*
G54D12*X430000Y470000D02*X442500Y482500D01*
G54D13*X430000Y450000D02*X420000Y460000D01*
G54D12*X435000Y455000D02*X420000Y470000D01*
X442500Y477500D02*Y415000D01*
X495000Y435000D02*X492500Y432500D01*
G54D13*X480000Y480000D02*Y420000D01*
G54D12*X495000Y467500D02*Y435000D01*
X490000Y430000D02*X495000Y435000D01*
G54D13*X430000Y440000D02*Y450000D01*
Y440000D02*X420000Y430000D01*
X407500Y452500D02*X405000Y455000D01*
X400000Y470000D02*X410000Y460000D01*
X420000D02*X412500Y452500D01*
X407500D01*
G54D12*X490000Y450000D02*Y440000D01*
Y470000D02*Y460000D01*
G54D13*X450000Y440000D02*Y447500D01*
X460000Y450000D02*X452500D01*
X450000Y452500D02*X452500Y450000D01*
X450000Y447500D01*
X480000Y412500D02*X475000Y407500D01*
X467500D01*
X460000Y400000D01*
X622500Y627500D02*X502500D01*
G54D12*X585000Y585000D02*X600000Y570000D01*
X610000D01*
Y550000D02*X595000Y565000D01*
X605000Y560000D02*X590000Y575000D01*
X612500D02*X600000D01*
X587500Y587500D02*X600000Y575000D01*
X585000Y585000D02*X535000D01*
X590000Y575000D02*X535000D01*
X595000Y565000D02*X535000D01*
X580000Y560000D02*X550000D01*
X587500Y555000D02*X597500Y545000D01*
X592500Y540000D02*X610000D01*
X555000Y555000D02*X587500D01*
Y545000D02*X545000D01*
X620000Y600000D02*X600000D01*
X622500Y565000D02*X612500Y575000D01*
X535000Y565000D02*X520000Y580000D01*
X545000Y545000D02*X520000Y570000D01*
X545000Y535000D02*X520000Y560000D01*
X545000Y525000D02*X520000Y550000D01*
X535000Y575000D02*X520000Y590000D01*
X535000Y585000D02*X520000Y600000D01*
X580000Y620000D02*X600000D01*
X580000Y610000D02*X590000D01*
X520000Y620000D02*X495000Y595000D01*
X520000Y610000D02*X515000Y605000D01*
Y492500D02*Y605000D01*
X545000Y515000D02*X587500D01*
X592500Y520000D02*X587500Y525000D01*
X580000Y530000D02*X587500D01*
X545000Y515000D02*X520000Y540000D01*
X545000Y505000D02*X520000Y530000D01*
Y520000D02*X545000Y495000D01*
X592500Y530000D02*X610000D01*
X587500D02*X592500Y525000D01*
X610000Y510000D02*X592500D01*
X587500Y515000D01*
X610000Y500000D02*X592500D01*
X610000Y520000D02*X592500D01*
Y500000D02*X587500Y505000D01*
X545000D01*
X587500Y525000D02*X545000D01*
Y495000D02*X585000D01*
X590000Y490000D01*
X567500Y485000D02*X572500Y480000D01*
X567500Y485000D02*X512500D01*
X580000Y490000D02*X587500Y482500D01*
G54D13*X610000Y490000D02*X615000Y495000D01*
G54D12*X587500Y535000D02*X545000D01*
G54D13*X510000Y530000D02*X502500Y522500D01*
G54D12*X587500Y510000D02*X580000D01*
X587500Y500000D02*X592500Y495000D01*
X580000Y500000D02*X587500D01*
X592500Y505000D02*X587500Y510000D01*
X592500Y515000D02*X587500Y520000D01*
X580000D01*
X495000Y485000D02*X507500D01*
X460000Y490000D02*X482500D01*
G54D13*X490000D02*X500000D01*
X510000Y500000D02*Y492500D01*
X500000Y490000D02*X502500Y492500D01*
X505000Y490000D01*
G54D12*X482500D02*X495000Y502500D01*
G54D13*X510000Y492500D02*X507500Y490000D01*
X502500Y522500D02*Y492500D01*
X480000Y480000D02*X490000Y490000D01*
G54D12*X495000Y485000D02*X490000Y480000D01*
X515000Y492500D02*X507500Y485000D01*
X512500D02*X495000Y467500D01*
X590000Y490000D02*Y477500D01*
X585000Y472500D02*Y475000D01*
X587500Y482500D02*Y475000D01*
X592500Y470000D01*
X590000Y477500D02*X595000Y472500D01*
X592500Y480000D02*X597500Y475000D01*
X572500Y480000D02*Y430000D01*
X592500D02*X610000D01*
Y440000D02*X615000Y435000D01*
X595000Y420000D02*X610000D01*
Y430000D02*X615000Y425000D01*
X610000Y400000D02*X600000D01*
X615000Y405000D02*X610000Y410000D01*
X612500D02*X610000D01*
X592500Y395000D02*X577500Y410000D01*
X597500Y405000D02*Y385000D01*
X600000Y367500D02*Y362500D01*
X530000Y400000D02*X512500Y417500D01*
Y462500D01*
G54D13*X520000Y370000D02*Y360000D01*
G54D12*X512500Y462500D02*X520000Y470000D01*
X545000Y405000D02*X520000Y430000D01*
X552500Y407500D02*X520000Y440000D01*
X562500Y407500D02*X520000Y450000D01*
X565000Y415000D02*X520000Y460000D01*
G54D13*X255000Y642500D02*X495000D01*
X505000Y632500D02*X495000Y642500D01*
X487500Y570000D02*X490000Y567500D01*
X460000Y570000D02*X470000D01*
Y580000D01*
X252500Y647500D02*X497500D01*
X507500Y637500D01*
X387500Y630000D02*X337500D01*
G54D12*X440000Y530000D02*X427500Y542500D01*
X442500Y532500D02*X430000Y545000D01*
X427500Y542500D02*X407500D01*
X415000Y545000D02*X430000D01*
G54D13*X422500Y537500D02*X430000Y530000D01*
G54D12*X450000Y570000D02*X435000D01*
G54D11*X460000Y540000D02*X450000D01*
G54D12*X495000Y502500D02*Y595000D01*
G54D11*X460000Y520000D02*Y540000D01*
G54D12*X480000Y530000D02*Y540000D01*
G54D13*X490000Y512500D02*X485000Y507500D01*
X462500D02*X477500D01*
G54D12*X470000Y520000D02*Y540000D01*
G54D13*X480000Y530000D02*Y520000D01*
X490000Y512500D02*Y540000D01*
X430000Y530000D02*Y520000D01*
G54D12*X425000Y495000D02*X360000D01*
X370000Y480000D02*X400000D01*
Y500000D02*X380000D01*
X370000Y510000D01*
X407500Y542500D02*X400000Y550000D01*
X405000Y555000D02*X415000Y545000D01*
X370000Y520000D02*X400000D01*
G54D13*X417500Y485000D02*X412500Y480000D01*
X377500Y537500D02*X422500D01*
G54D12*X345000Y525000D02*X422500D01*
X405000Y555000D02*X355000D01*
G54D13*X370000Y560000D02*X360000D01*
G54D12*X370000Y490000D02*X355000Y475000D01*
X345000Y485000D02*Y477500D01*
X342500Y475000D01*
X337500D01*
X335000Y480000D02*X330000Y475000D01*
X340000Y480000D02*X335000D01*
G54D13*X370000Y530000D02*X377500Y537500D01*
G54D12*X360000Y550000D02*X365000Y545000D01*
X340000Y530000D02*X345000Y525000D01*
X340000Y565000D02*Y540000D01*
Y510000D02*Y500000D01*
Y490000D02*X345000Y485000D01*
X322500Y500000D02*X337500Y515000D01*
X240000Y340000D02*X232500Y332500D01*
X240000Y345000D02*X230000Y335000D01*
X237500Y347500D02*X227500Y337500D01*
X235000Y350000D02*X225000Y340000D01*
X232500Y352500D02*X222500Y342500D01*
X230000Y355000D02*X220000Y345000D01*
X237500Y320000D02*X232500Y315000D01*
X240000Y335000D02*X235000Y330000D01*
X267500Y325000D02*X262500Y330000D01*
X250000D01*
X240000D02*X237500Y327500D01*
X262500Y325000D02*X145000D01*
X237500Y327500D02*X147500D01*
X235000Y330000D02*X150000D01*
X262500Y315000D02*X237500D01*
X232500Y310000D01*
X237500D02*X250000D01*
X262500Y305000D02*X237500D01*
X105000Y335000D02*Y355000D01*
X115000D02*X110000Y350000D01*
X117500Y352500D02*X112500Y347500D01*
G54D13*X130000Y340000D02*X125000Y335000D01*
G54D12*X115000Y345000D02*Y305000D01*
X122500D02*X117500Y310000D01*
X120000Y340000D02*Y322500D01*
X125000Y345000D02*X120000Y340000D01*
X142500Y355000D02*X115000D01*
X145000Y357500D02*X112500D01*
X140000Y352500D02*X117500D01*
X132500Y345000D02*X125000D01*
X95000Y322500D02*Y317500D01*
X87500Y255000D02*Y210000D01*
G54D13*X92500Y197500D02*Y267500D01*
X95000Y270000D02*X92500Y272500D01*
G54D12*X100000Y220000D02*X123500D01*
X125000Y221500D02*X123500Y220000D01*
X125000Y218500D01*
G54D13*X120000Y260000D02*X127500D01*
X130000Y250000D02*Y257500D01*
G54D12*X150000Y335000D02*X147500Y337500D01*
Y350000D01*
X142500Y355000D01*
X152500Y337500D02*X150000Y340000D01*
Y352500D01*
X145000Y357500D01*
X137500Y327500D02*X142500Y322500D01*
G54D13*X135000Y315000D02*X137500Y312500D01*
G54D12*X142500Y322500D02*X150000D01*
X152500Y320000D01*
Y317500D01*
X160000Y310000D02*X165000Y305000D01*
Y275000D02*X160000Y280000D01*
Y300000D02*X165000Y295000D01*
Y265000D02*X160000Y270000D01*
X165000Y235000D02*X160000Y240000D01*
Y230000D02*X165000Y225000D01*
X160000Y220000D02*X165000Y215000D01*
X110000Y350000D02*Y322500D01*
X107500Y327500D02*X105000Y325000D01*
X97500D01*
X95000Y322500D01*
Y317500D02*X97500Y315000D01*
X107500D01*
X110000Y312500D01*
G54D13*X125000Y317500D02*X127500Y315000D01*
G54D12*X110000Y312500D02*Y300000D01*
G54D13*X137500Y312500D02*Y262500D01*
X122500Y287500D02*Y272500D01*
X125000Y290000D02*X122500Y287500D01*
X130000Y290000D02*X125000D01*
G54D12*X130000Y300000D02*X120000D01*
G54D13*X95000D02*X100000D01*
G54D12*X112500Y292500D02*X100000Y280000D01*
G54D13*X95000Y270000D02*X100000D01*
G54D12*X110000Y322500D02*X107500Y320000D01*
G54D13*X125000Y335000D02*Y317500D01*
G54D12*X112500Y347500D02*Y292500D01*
X347500Y167500D02*X135000D01*
X342500Y170000D02*X112500D01*
G54D13*X247500Y172500D02*X250000Y175000D01*
X252500Y172500D01*
X182500D02*X247500D01*
X180000D02*X182500D01*
X250000Y190000D02*Y175000D01*
G54D12*X220000Y190000D02*X232500D01*
G54D13*X190000Y180000D02*X240000D01*
G54D12*X215000Y155000D02*X290000D01*
X205000Y160000D03*
X285000D01*
X167500Y250000D02*X160000D01*
X155000Y245000D02*X165000D01*
X170000Y240000D01*
X172500Y245000D02*X167500Y250000D01*
X170000Y240000D02*X210000D01*
X220000Y250000D02*X232500D01*
Y235000D02*X165000D01*
X220000Y230000D02*X232500D01*
X172500Y245000D02*X232500D01*
X165000Y225000D02*X232500D01*
X160000Y210000D02*X165000Y205000D01*
X232500D01*
X220000Y210000D02*X232500D01*
X165000Y215000D02*X232500D01*
X165000Y195000D02*X232500D01*
X220000Y200000D02*X232500D01*
X220000Y220000D02*X232500D01*
Y195000D02*X237500Y200000D01*
X232500D02*X237500Y205000D01*
X232500D02*X237500Y210000D01*
X167500Y160000D02*X205000D01*
X207500Y157500D02*X170000D01*
X175000Y152500D02*X197500D01*
X177500Y150000D02*X195000D01*
X212500Y152500D02*X215000Y155000D01*
X210000D02*X212500Y157500D01*
X206653Y118602D02*Y121653D01*
X210000Y125000D01*
X215000D01*
X230000Y140000D01*
X205000Y125000D02*X220000Y140000D01*
X195000Y125000D02*X210000Y140000D01*
X187500Y127500D02*X200000Y140000D01*
X180000D02*Y135000D01*
X196811Y121811D02*X200000Y125000D01*
X205000D01*
X145000Y145000D02*X167500D01*
X155000Y135000D02*X172500D01*
X175000Y137500D01*
X167500Y145000D02*X175000Y152500D01*
Y137500D02*Y147500D01*
X177500Y150000D01*
X165000Y295000D02*X232500D01*
X220000Y290000D02*X232500D01*
X165000Y285000D02*X232500D01*
X220000Y260000D02*X232500D01*
X220000Y280000D02*X232500D01*
X220000Y270000D02*X232500D01*
X165000Y275000D02*X232500D01*
X165000Y265000D02*X232500D01*
X165000Y255000D02*X232500D01*
X165000D02*X160000Y260000D01*
X165000Y285000D02*X160000Y290000D01*
X267500Y270000D02*X262500Y275000D01*
X322500Y290000D02*X310000D01*
X327500Y285000D02*X345000D01*
X237500Y275000D02*X232500Y270000D01*
X262500Y205000D02*X267500Y200000D01*
X262500Y215000D02*X267500Y210000D01*
X262500D02*X267500Y205000D01*
Y235000D02*X262500Y240000D01*
Y200000D02*X267500Y195000D01*
X262500Y235000D02*X267500Y230000D01*
X262500Y225000D02*X267500Y220000D01*
X262500D02*X267500Y215000D01*
X262500Y230000D02*X267500Y225000D01*
Y245000D02*X262500Y250000D01*
G54D13*X270000Y180000D02*X260000Y190000D01*
G54D12*X345000Y185000D02*Y172500D01*
X350000Y180000D02*Y170000D01*
X347500Y167500D01*
G54D13*X340000Y180000D02*X332500Y172500D01*
G54D12*X262500Y195000D02*X267500Y190000D01*
X345000Y172500D02*X342500Y170000D01*
X162500Y165000D02*X390000D01*
X165000Y162500D02*X387500D01*
X212500Y157500D02*X380000D01*
X267500Y310000D02*X262500Y315000D01*
X305000Y302500D02*X265000D01*
X262500Y305000D01*
X267500Y330000D02*X262500Y335000D01*
X267500D02*X262500Y340000D01*
X250000D01*
X262500Y320000D02*X250000D01*
X267500Y345000D02*X240000D01*
X267500Y355000D02*X262500Y350000D01*
X265000Y357500D02*X260000Y352500D01*
X262500Y360000D02*X257500Y355000D01*
X260000Y362500D02*X255000Y357500D01*
X265000Y347500D02*X237500D01*
X262500Y350000D02*X235000D01*
X260000Y352500D02*X232500D01*
X257500Y355000D02*X230000D01*
X255000Y357500D02*X227500D01*
X252500Y360000D02*X225000D01*
X250000Y362500D02*X222500D01*
X340000Y340000D02*X327500D01*
Y330000D02*X340000D01*
X272500Y345000D02*X275000Y347500D01*
X272500Y337500D02*Y345000D01*
X275000Y340000D02*Y345000D01*
X277500Y347500D01*
Y337500D02*Y345000D01*
X280000Y347500D01*
X282500Y345000D02*X285000Y347500D01*
X280000Y340000D02*Y345000D01*
X282500Y347500D01*
Y337500D02*Y345000D01*
X285000D02*X287500Y347500D01*
Y345000D02*X290000Y347500D01*
X285000Y340000D02*Y345000D01*
X287500Y337500D02*Y345000D01*
X290000Y340000D02*Y345000D01*
X292500Y347500D01*
Y345000D02*X295000Y347500D01*
Y345000D02*X297500Y347500D01*
Y345000D02*X300000Y347500D01*
X292500Y337500D02*Y345000D01*
X295000Y340000D02*Y345000D01*
X297500Y337500D02*Y345000D01*
X300000Y340000D02*Y345000D01*
G54D13*X170000Y190000D02*X160000D01*
X177500Y172500D02*X180000Y175000D01*
X117500Y172500D02*X177500D01*
X180000Y180000D02*Y175000D01*
Y180000D02*X170000Y190000D01*
G54D12*X160000Y200000D02*X165000Y195000D01*
X202500Y152500D02*X212500D01*
X172500Y155000D02*X210000D01*
X97500D02*X157500D01*
X70000Y150000D02*X162500D01*
X160000Y152500D02*X95000D01*
X172500Y155000D02*X165000Y147500D01*
X140000D01*
X155000Y157500D02*X162500Y165000D01*
X157500Y155000D02*X165000Y162500D01*
X170000Y157500D02*X162500Y150000D01*
X167500Y160000D02*X160000Y152500D01*
G54D13*X190000Y140000D02*X180000Y130000D01*
X162500D01*
G54D12*X180000Y135000D02*X177500Y132500D01*
X155000D01*
X187500Y127500D02*X170000D01*
X196811Y118602D02*Y121811D01*
X180000Y125000D02*X195000D01*
X177126Y118602D02*Y122126D01*
X180000Y125000D01*
X167284Y118602D02*Y122284D01*
Y118602D02*Y122284D01*
Y124784D02*X170000Y127500D01*
X167284Y122284D02*Y124784D01*
G54D13*X186968Y116594D02*Y111968D01*
X185000Y110000D01*
X160000D02*X185000D01*
X120000Y180000D02*X160000D01*
X180000Y175000D02*X182500Y172500D01*
X177500D02*X180000D01*
Y175000D02*Y172500D01*
G54D11*G36*
X727000Y353000D02*Y347000D01*
X733000D01*
Y353000D01*
X727000D01*
G37*
G54D14*X720000Y350000D03*
X730000Y310000D03*
Y320000D03*
Y330000D03*
Y340000D03*
Y270000D03*
Y280000D03*
Y290000D03*
Y300000D03*
G54D11*G36*
X777000Y283000D02*Y277000D01*
X783000D01*
Y283000D01*
X777000D01*
G37*
G54D14*X770000Y280000D03*
X760000Y300000D03*
Y290000D03*
X790000D03*
Y300000D03*
Y310000D03*
Y320000D03*
Y330000D03*
Y340000D03*
Y350000D03*
X760000D03*
Y340000D03*
Y330000D03*
Y320000D03*
Y310000D03*
X670000Y290000D03*
Y280000D03*
Y270000D03*
Y310000D03*
X630000D03*
X650000D03*
X640000D03*
X670000Y300000D03*
G54D11*G36*
X647000Y303000D02*Y297000D01*
X653000D01*
Y303000D01*
X647000D01*
G37*
G54D14*X610000Y290000D03*
Y300000D03*
Y310000D03*
Y270000D03*
X650000D03*
X610000Y280000D03*
G54D11*G36*
X667000Y343000D02*Y337000D01*
X673000D01*
Y343000D01*
X667000D01*
G37*
G54D14*X670000Y330000D03*
Y320000D03*
X610000D03*
Y330000D03*
Y340000D03*
G54D11*G36*
X627000Y343000D02*Y337000D01*
X633000D01*
Y343000D01*
X627000D01*
G37*
G36*
X637000D02*Y337000D01*
X643000D01*
Y343000D01*
X637000D01*
G37*
G36*
X647000D02*Y337000D01*
X653000D01*
Y343000D01*
X647000D01*
G37*
G54D14*X790000Y420000D03*
Y430000D03*
Y440000D03*
X760000D03*
Y430000D03*
Y420000D03*
Y410000D03*
X790000D03*
G54D11*G36*
X777000Y403000D02*Y397000D01*
X783000D01*
Y403000D01*
X777000D01*
G37*
G54D14*X770000Y400000D03*
X790000Y360000D03*
Y370000D03*
Y380000D03*
G54D11*G36*
X757000Y383000D02*Y377000D01*
X763000D01*
Y383000D01*
X757000D01*
G37*
G54D14*X760000Y370000D03*
Y360000D03*
X790000Y450000D03*
Y460000D03*
Y470000D03*
Y480000D03*
Y490000D03*
X760000D03*
Y480000D03*
G54D15*X850000D03*
G54D14*X760000Y470000D03*
G54D15*X850000D03*
G54D14*X760000Y460000D03*
G54D15*X850000D03*
G54D14*X760000Y450000D03*
G54D15*X850000D03*
Y440000D03*
Y430000D03*
G54D11*G36*
X629300Y46100D02*Y40100D01*
X635300D01*
Y46100D01*
X629300D01*
G37*
G54D14*X637700Y31900D03*
G54D16*X605300Y37500D03*
G54D14*X643100Y43100D03*
X648500Y31900D03*
X653900Y43100D03*
X659300Y31900D03*
X670100D03*
X664700Y43100D03*
X675500D03*
X670000Y170000D03*
Y160000D03*
Y150000D03*
G54D16*X702500Y37500D03*
G54D11*G36*
X776500Y46100D02*Y40100D01*
X782500D01*
Y46100D01*
X776500D01*
G37*
G54D14*X790300Y43100D03*
X784900Y31900D03*
X795700D03*
X801100Y43100D03*
X811900D03*
X822700D03*
X806500Y31900D03*
X817300D03*
G54D16*X849700Y37500D03*
X752500D03*
G54D14*X670000Y210000D03*
Y200000D03*
Y190000D03*
Y180000D03*
Y240000D03*
Y230000D03*
Y220000D03*
X610000Y190000D03*
Y200000D03*
Y210000D03*
Y220000D03*
Y230000D03*
Y240000D03*
Y180000D03*
X730000Y200000D03*
Y210000D03*
Y220000D03*
Y230000D03*
Y240000D03*
Y150000D03*
Y160000D03*
Y170000D03*
Y180000D03*
Y190000D03*
X670000Y260000D03*
Y250000D03*
X730000D03*
Y260000D03*
X610000Y490000D03*
X640000D03*
X670000D03*
X730000D03*
X640000Y430000D03*
Y440000D03*
Y450000D03*
Y460000D03*
G54D11*G36*
X667000Y463000D02*Y457000D01*
X673000D01*
Y463000D01*
X667000D01*
G37*
G54D14*X670000Y450000D03*
Y440000D03*
Y430000D03*
G54D11*G36*
X607000Y463000D02*Y457000D01*
X613000D01*
Y463000D01*
X607000D01*
G37*
G54D14*X610000Y450000D03*
Y440000D03*
Y430000D03*
X640000Y370000D03*
Y380000D03*
Y390000D03*
Y400000D03*
Y410000D03*
Y420000D03*
X610000Y380000D03*
Y370000D03*
Y420000D03*
Y410000D03*
Y400000D03*
Y390000D03*
X700000Y370000D03*
Y380000D03*
Y390000D03*
Y400000D03*
Y410000D03*
Y420000D03*
X670000Y380000D03*
Y370000D03*
Y420000D03*
Y410000D03*
Y400000D03*
Y390000D03*
X700000Y430000D03*
Y440000D03*
Y450000D03*
Y460000D03*
G54D11*G36*
X422000Y563000D02*Y557000D01*
X428000D01*
Y563000D01*
X422000D01*
G37*
G54D17*X462500Y610000D03*
G54D18*X441600D03*
X483400D03*
G54D14*X470000Y570000D03*
X460000D03*
X425000Y580000D03*
X450000Y570000D03*
G54D18*X462500Y630000D03*
G54D11*G36*
X457000Y543000D02*Y537000D01*
X463000D01*
Y543000D01*
X457000D01*
G37*
G36*
Y523000D02*Y517000D01*
X463000D01*
Y523000D01*
X457000D01*
G37*
G54D14*X490000Y540000D03*
X430000Y520000D03*
Y530000D03*
G54D11*G36*
X447000Y543000D02*Y537000D01*
X453000D01*
Y543000D01*
X447000D01*
G37*
G36*
X477000D02*Y537000D01*
X483000D01*
Y543000D01*
X477000D01*
G37*
G36*
X467000D02*Y537000D01*
X473000D01*
Y543000D01*
X467000D01*
G37*
G36*
X477000Y533000D02*Y527000D01*
X483000D01*
Y533000D01*
X477000D01*
G37*
G54D14*X470000Y520000D03*
X480000D03*
G54D11*G36*
X357000Y363000D02*Y357000D01*
X363000D01*
Y363000D01*
X357000D01*
G37*
G54D14*X350000Y360000D03*
X340000Y370000D03*
X370000D03*
X310000D03*
Y380000D03*
Y390000D03*
Y400000D03*
Y410000D03*
Y420000D03*
X340000Y470000D03*
G54D11*G36*
X337000Y443000D02*Y437000D01*
X343000D01*
Y443000D01*
X337000D01*
G37*
G54D14*X340000Y430000D03*
X310000Y450000D03*
Y460000D03*
Y470000D03*
Y430000D03*
Y440000D03*
X370000Y380000D03*
Y390000D03*
Y400000D03*
X340000Y390000D03*
Y380000D03*
Y410000D03*
Y400000D03*
X370000Y470000D03*
X340000Y420000D03*
X370000Y410000D03*
Y420000D03*
Y430000D03*
Y440000D03*
G54D11*G36*
X357000Y463000D02*Y457000D01*
X363000D01*
Y463000D01*
X357000D01*
G37*
G54D14*X370000Y510000D03*
Y520000D03*
Y530000D03*
G54D11*G36*
X367000Y553000D02*Y547000D01*
X373000D01*
Y553000D01*
X367000D01*
G37*
G36*
Y543000D02*Y537000D01*
X373000D01*
Y543000D01*
X367000D01*
G37*
G54D14*X370000Y560000D03*
Y480000D03*
Y490000D03*
Y500000D03*
G54D11*G36*
X357000Y553000D02*Y547000D01*
X363000D01*
Y553000D01*
X357000D01*
G37*
G54D14*X360000Y560000D03*
X400000Y500000D03*
Y490000D03*
Y480000D03*
Y470000D03*
G54D11*G36*
X397000Y533000D02*Y527000D01*
X403000D01*
Y533000D01*
X397000D01*
G37*
G54D14*X400000Y550000D03*
Y520000D03*
Y510000D03*
G54D11*G36*
X397000Y563000D02*Y557000D01*
X403000D01*
Y563000D01*
X397000D01*
G37*
G54D18*X362500Y630000D03*
G54D17*Y610000D03*
G54D18*X341600D03*
X383400D03*
G54D19*X282382Y615472D03*
X292618D03*
X300886D03*
G54D20*X314075Y627283D03*
G54D19*X300886Y605630D03*
G54D14*X350000Y460000D03*
G54D11*G36*
X337000Y533000D02*Y527000D01*
X343000D01*
Y533000D01*
X337000D01*
G37*
G54D14*X340000Y520000D03*
Y510000D03*
X310000Y520000D03*
Y530000D03*
Y540000D03*
Y550000D03*
Y560000D03*
Y510000D03*
X340000Y540000D03*
Y500000D03*
Y490000D03*
Y480000D03*
X310000D03*
Y490000D03*
Y500000D03*
X410000Y360000D03*
X400000Y370000D03*
X430000D03*
G54D11*G36*
X477000Y423000D02*Y417000D01*
X483000D01*
Y423000D01*
X477000D01*
G37*
G54D14*X470000Y420000D03*
X500000Y400000D03*
X490000D03*
X480000D03*
X470000D03*
X460000D03*
X480000Y370000D03*
X490000D03*
X500000D03*
G54D11*G36*
X457000Y373000D02*Y367000D01*
X463000D01*
Y373000D01*
X457000D01*
G37*
G54D14*X470000Y370000D03*
X430000Y380000D03*
Y390000D03*
Y400000D03*
Y410000D03*
Y420000D03*
X400000D03*
Y410000D03*
Y400000D03*
Y390000D03*
Y380000D03*
G54D11*G36*
X417000Y463000D02*Y457000D01*
X423000D01*
Y463000D01*
X417000D01*
G37*
G54D14*X410000Y460000D03*
X430000Y470000D03*
Y480000D03*
Y490000D03*
Y500000D03*
Y510000D03*
X460000Y440000D03*
Y430000D03*
X490000D03*
Y440000D03*
X430000Y430000D03*
Y440000D03*
X490000Y450000D03*
Y460000D03*
Y470000D03*
Y480000D03*
Y490000D03*
G54D11*G36*
X457000Y493000D02*Y487000D01*
X463000D01*
Y493000D01*
X457000D01*
G37*
G54D14*X460000Y480000D03*
Y470000D03*
Y460000D03*
Y450000D03*
G54D11*G36*
X397000Y443000D02*Y437000D01*
X403000D01*
Y443000D01*
X397000D01*
G37*
G54D14*X400000Y430000D03*
X760000Y580000D03*
Y570000D03*
Y560000D03*
Y550000D03*
Y540000D03*
Y530000D03*
G54D11*G36*
X757000Y623000D02*Y617000D01*
X763000D01*
Y623000D01*
X757000D01*
G37*
G54D14*X760000Y610000D03*
Y600000D03*
Y590000D03*
G54D11*G36*
X757000Y503000D02*Y497000D01*
X763000D01*
Y503000D01*
X757000D01*
G37*
G54D14*X670000Y570000D03*
Y560000D03*
Y550000D03*
G54D11*G36*
X667000Y623000D02*Y617000D01*
X673000D01*
Y623000D01*
X667000D01*
G37*
G54D14*X670000Y610000D03*
Y600000D03*
Y590000D03*
Y580000D03*
X730000Y550000D03*
Y560000D03*
Y570000D03*
Y500000D03*
Y510000D03*
Y520000D03*
Y530000D03*
Y540000D03*
X670000D03*
Y530000D03*
Y520000D03*
Y510000D03*
Y500000D03*
X730000Y580000D03*
Y590000D03*
Y600000D03*
Y610000D03*
Y620000D03*
G54D11*G36*
X777000Y523000D02*Y517000D01*
X783000D01*
Y523000D01*
X777000D01*
G37*
G54D14*X770000Y520000D03*
X790000Y530000D03*
Y540000D03*
Y550000D03*
Y560000D03*
Y570000D03*
Y500000D03*
G54D11*G36*
X517000Y623000D02*Y617000D01*
X523000D01*
Y623000D01*
X517000D01*
G37*
G54D14*X520000Y610000D03*
Y600000D03*
Y590000D03*
Y580000D03*
Y570000D03*
G54D11*G36*
X477000Y563000D02*Y557000D01*
X483000D01*
Y563000D01*
X477000D01*
G37*
G54D14*X490000Y560000D03*
G54D11*G36*
X507000Y503000D02*Y497000D01*
X513000D01*
Y503000D01*
X507000D01*
G37*
G54D14*X510000Y510000D03*
Y530000D03*
X520000Y540000D03*
Y530000D03*
Y520000D03*
Y510000D03*
Y500000D03*
Y560000D03*
Y550000D03*
X580000D03*
Y560000D03*
Y570000D03*
Y580000D03*
Y590000D03*
Y500000D03*
Y510000D03*
Y520000D03*
Y530000D03*
Y540000D03*
G54D11*G36*
X627000Y603000D02*Y597000D01*
X633000D01*
Y603000D01*
X627000D01*
G37*
G54D14*X620000Y600000D03*
X600000D03*
G54D11*G36*
X627000Y623000D02*Y617000D01*
X633000D01*
Y623000D01*
X627000D01*
G37*
G54D14*X620000Y620000D03*
G54D11*G36*
X597000Y623000D02*Y617000D01*
X603000D01*
Y623000D01*
X597000D01*
G37*
G54D14*X580000Y600000D03*
Y610000D03*
Y620000D03*
X640000Y530000D03*
Y540000D03*
Y550000D03*
Y560000D03*
Y570000D03*
Y580000D03*
X610000Y540000D03*
Y530000D03*
G54D11*G36*
X607000Y583000D02*Y577000D01*
X613000D01*
Y583000D01*
X607000D01*
G37*
G54D14*X610000Y570000D03*
Y560000D03*
Y550000D03*
Y520000D03*
Y510000D03*
Y500000D03*
X640000D03*
Y510000D03*
Y520000D03*
X540000Y400000D03*
X550000D03*
X510000Y370000D03*
X520000D03*
Y400000D03*
X510000D03*
G54D11*G36*
X537000Y373000D02*Y367000D01*
X543000D01*
Y373000D01*
X537000D01*
G37*
G36*
X547000D02*Y367000D01*
X553000D01*
Y373000D01*
X547000D01*
G37*
G36*
X627000Y483000D02*Y477000D01*
X633000D01*
Y483000D01*
X627000D01*
G37*
G54D14*X620000Y480000D03*
X520000Y440000D03*
Y430000D03*
Y490000D03*
Y480000D03*
Y470000D03*
Y460000D03*
Y450000D03*
X580000Y480000D03*
Y490000D03*
Y430000D03*
Y440000D03*
Y450000D03*
Y460000D03*
Y470000D03*
G54D11*G36*
X687000Y363000D02*Y357000D01*
X693000D01*
Y363000D01*
X687000D01*
G37*
G54D14*X680000Y360000D03*
G54D11*G36*
X697000Y483000D02*Y477000D01*
X703000D01*
Y483000D01*
X697000D01*
G37*
G54D14*X690000Y480000D03*
X790000Y580000D03*
Y590000D03*
Y600000D03*
Y610000D03*
Y620000D03*
G54D15*X860000Y480000D03*
Y470000D03*
Y460000D03*
Y450000D03*
Y440000D03*
Y430000D03*
Y600000D03*
Y590000D03*
X850000Y600000D03*
Y590000D03*
G54D11*G36*
X846600Y623400D02*Y616600D01*
X853400D01*
Y623400D01*
X846600D01*
G37*
G54D15*X860000Y620000D03*
X850000Y610000D03*
X860000D03*
X850000Y560000D03*
Y550000D03*
Y540000D03*
Y530000D03*
Y520000D03*
X860000Y560000D03*
Y550000D03*
Y540000D03*
Y530000D03*
Y520000D03*
X850000Y580000D03*
X860000D03*
X850000Y570000D03*
X860000D03*
X850000Y510000D03*
X860000D03*
X850000Y500000D03*
X860000D03*
X850000Y490000D03*
X860000D03*
G54D11*G36*
X627000Y303000D02*Y297000D01*
X633000D01*
Y303000D01*
X627000D01*
G37*
G54D14*X630000Y290000D03*
X580000Y310000D03*
Y300000D03*
Y290000D03*
Y280000D03*
Y270000D03*
Y330000D03*
Y320000D03*
G54D11*G36*
X597000Y353000D02*Y347000D01*
X603000D01*
Y353000D01*
X597000D01*
G37*
G54D14*X590000Y350000D03*
X620000Y360000D03*
X550000Y340000D03*
G54D11*G36*
X577000Y343000D02*Y337000D01*
X583000D01*
Y343000D01*
X577000D01*
G37*
G36*
X527000Y353000D02*Y347000D01*
X533000D01*
Y353000D01*
X527000D01*
G37*
G54D14*X540000Y350000D03*
X520000Y320000D03*
Y310000D03*
Y300000D03*
Y290000D03*
Y280000D03*
G54D11*G36*
X517000Y343000D02*Y337000D01*
X523000D01*
Y343000D01*
X517000D01*
G37*
G54D14*X520000Y330000D03*
X550000Y280000D03*
Y290000D03*
Y300000D03*
Y310000D03*
Y320000D03*
Y330000D03*
G54D11*G36*
X417000Y363000D02*Y357000D01*
X423000D01*
Y363000D01*
X417000D01*
G37*
G36*
X627000D02*Y357000D01*
X633000D01*
Y363000D01*
X627000D01*
G37*
G54D14*X550000Y220000D03*
Y230000D03*
Y240000D03*
G54D11*G36*
X517000Y243000D02*Y237000D01*
X523000D01*
Y243000D01*
X517000D01*
G37*
G54D14*X520000Y230000D03*
Y220000D03*
X580000Y230000D03*
Y220000D03*
G54D11*G36*
X577000Y243000D02*Y237000D01*
X583000D01*
Y243000D01*
X577000D01*
G37*
G36*
X597000Y173000D02*Y167000D01*
X603000D01*
Y173000D01*
X597000D01*
G37*
G54D14*X590000Y170000D03*
X580000Y210000D03*
Y200000D03*
Y190000D03*
Y180000D03*
G54D11*G36*
X537000Y173000D02*Y167000D01*
X543000D01*
Y173000D01*
X537000D01*
G37*
G54D14*X530000Y170000D03*
X550000Y180000D03*
Y190000D03*
Y200000D03*
Y210000D03*
X520000D03*
Y200000D03*
Y190000D03*
Y180000D03*
X310000Y240000D03*
Y250000D03*
Y260000D03*
Y190000D03*
Y200000D03*
Y210000D03*
Y220000D03*
Y230000D03*
G54D11*G36*
X287000Y53000D02*Y47000D01*
X293000D01*
Y53000D01*
X287000D01*
G37*
G54D14*X290000Y80000D03*
G54D11*G36*
X297000Y53000D02*Y47000D01*
X303000D01*
Y53000D01*
X297000D01*
G37*
G54D14*X300000Y80000D03*
X280000Y30000D03*
G54D11*G36*
X307000Y33000D02*Y27000D01*
X313000D01*
Y33000D01*
X307000D01*
G37*
G54D14*X320000Y30000D03*
G54D11*G36*
X356000Y41500D02*Y33500D01*
X364000D01*
Y41500D01*
X356000D01*
G37*
G54D21*X360000Y47500D03*
G54D11*G36*
X291000Y114000D02*Y106000D01*
X299000D01*
Y114000D01*
X291000D01*
G37*
G54D21*X305000Y110000D03*
X285000D03*
G54D11*G36*
X417000Y283000D02*Y277000D01*
X423000D01*
Y283000D01*
X417000D01*
G37*
G54D14*X420000Y290000D03*
G54D21*X404409Y45217D03*
X430000D03*
G54D11*G36*
X427000Y343000D02*Y337000D01*
X433000D01*
Y343000D01*
X427000D01*
G37*
G54D14*X430000Y330000D03*
Y320000D03*
Y310000D03*
Y300000D03*
Y290000D03*
Y280000D03*
Y250000D03*
Y240000D03*
Y230000D03*
Y220000D03*
Y210000D03*
Y200000D03*
Y190000D03*
Y180000D03*
Y170000D03*
Y160000D03*
Y150000D03*
X490000Y200000D03*
Y210000D03*
Y220000D03*
Y150000D03*
G54D21*X502500Y27500D03*
X476909D03*
Y45217D03*
X502500D03*
G54D14*X490000Y160000D03*
Y170000D03*
Y180000D03*
Y190000D03*
X430000Y270000D03*
Y260000D03*
X490000Y320000D03*
Y330000D03*
Y340000D03*
Y270000D03*
Y280000D03*
Y290000D03*
Y300000D03*
Y310000D03*
Y230000D03*
Y240000D03*
Y250000D03*
Y260000D03*
X310000Y310000D03*
Y320000D03*
Y330000D03*
Y340000D03*
Y270000D03*
Y280000D03*
Y290000D03*
Y300000D03*
G54D11*G36*
X336600Y343400D02*Y336600D01*
X343400D01*
Y343400D01*
X336600D01*
G37*
G54D15*X340000Y330000D03*
Y320000D03*
X350000Y340000D03*
Y330000D03*
Y320000D03*
Y310000D03*
Y300000D03*
Y290000D03*
X340000Y310000D03*
Y300000D03*
Y290000D03*
Y280000D03*
X350000D03*
X340000Y270000D03*
Y260000D03*
Y250000D03*
X350000Y270000D03*
Y260000D03*
Y250000D03*
Y240000D03*
Y230000D03*
Y220000D03*
X340000Y240000D03*
Y230000D03*
Y220000D03*
Y210000D03*
X350000D03*
Y200000D03*
Y190000D03*
Y180000D03*
X340000Y200000D03*
Y190000D03*
Y180000D03*
G54D14*X70000Y320000D03*
Y330000D03*
Y340000D03*
G54D11*G36*
X7000Y343000D02*Y337000D01*
X13000D01*
Y343000D01*
X7000D01*
G37*
G54D14*X10000Y330000D03*
Y320000D03*
Y310000D03*
X70000D03*
X130000Y300000D03*
Y310000D03*
Y320000D03*
Y330000D03*
Y340000D03*
G54D11*G36*
X97000Y343000D02*Y337000D01*
X103000D01*
Y343000D01*
X97000D01*
G37*
G54D14*X100000Y330000D03*
Y320000D03*
Y310000D03*
Y300000D03*
G54D11*G36*
X117000Y263000D02*Y257000D01*
X123000D01*
Y263000D01*
X117000D01*
G37*
G54D14*X110000Y260000D03*
X130000Y280000D03*
Y290000D03*
X100000D03*
Y280000D03*
Y270000D03*
X130000D03*
X70000Y260000D03*
Y270000D03*
Y280000D03*
Y290000D03*
Y300000D03*
X10000D03*
Y290000D03*
Y280000D03*
Y270000D03*
Y260000D03*
G54D11*G36*
X17000Y143000D02*Y137000D01*
X23000D01*
Y143000D01*
X17000D01*
G37*
G54D14*X30000Y140000D03*
G54D11*G36*
X47000Y103000D02*Y97000D01*
X53000D01*
Y103000D01*
X47000D01*
G37*
G54D14*X50000Y120000D03*
G54D11*G36*
X77000Y103000D02*Y97000D01*
X83000D01*
Y103000D01*
X77000D01*
G37*
G54D14*X70000Y100000D03*
G54D11*G36*
X77000Y123000D02*Y117000D01*
X83000D01*
Y123000D01*
X77000D01*
G37*
G54D14*X70000Y120000D03*
G54D11*G36*
X7000Y103000D02*Y97000D01*
X13000D01*
Y103000D01*
X7000D01*
G37*
G54D14*X40000Y100000D03*
Y120000D03*
G54D11*G36*
X7000Y123000D02*Y117000D01*
X13000D01*
Y123000D01*
X7000D01*
G37*
G54D22*X132363Y21653D03*
G54D23*X227637D03*
G54D14*X60000Y70000D03*
G54D11*G36*
X77000Y73000D02*Y67000D01*
X83000D01*
Y73000D01*
X77000D01*
G37*
G36*
X57000Y43000D02*Y37000D01*
X63000D01*
Y43000D01*
X57000D01*
G37*
G54D14*X80000Y40000D03*
G54D11*G36*
X37000Y33000D02*Y27000D01*
X43000D01*
Y33000D01*
X37000D01*
G37*
G54D14*X50000Y30000D03*
G54D11*G36*
X79000Y33000D02*Y27000D01*
X85000D01*
Y33000D01*
X79000D01*
G37*
G54D14*X90000Y30000D03*
X98000D03*
G54D11*G36*
X97000Y73000D02*Y67000D01*
X103000D01*
Y73000D01*
X97000D01*
G37*
G54D14*X100000Y40000D03*
G54D15*X180000Y140000D03*
X170000D03*
X160000D03*
X150000D03*
X140000D03*
X130000D03*
G54D11*G36*
X226600Y143400D02*Y136600D01*
X233400D01*
Y143400D01*
X226600D01*
G37*
G54D15*X220000Y140000D03*
X210000D03*
X200000D03*
X190000D03*
G54D14*X220000Y260000D03*
Y270000D03*
Y280000D03*
Y290000D03*
X250000Y280000D03*
Y270000D03*
Y260000D03*
Y290000D03*
X160000Y270000D03*
Y260000D03*
G54D11*G36*
X157000Y323000D02*Y317000D01*
X163000D01*
Y323000D01*
X157000D01*
G37*
G54D14*X160000Y310000D03*
Y300000D03*
Y290000D03*
Y280000D03*
X220000Y300000D03*
Y310000D03*
Y320000D03*
X250000D03*
Y310000D03*
Y300000D03*
X10000Y200000D03*
Y190000D03*
Y180000D03*
Y170000D03*
Y160000D03*
Y150000D03*
Y250000D03*
Y240000D03*
Y230000D03*
Y220000D03*
Y210000D03*
X70000Y150000D03*
Y160000D03*
Y170000D03*
Y180000D03*
X100000Y240000D03*
Y230000D03*
Y220000D03*
Y210000D03*
Y200000D03*
Y190000D03*
G54D11*G36*
X97000Y253000D02*Y247000D01*
X103000D01*
Y253000D01*
X97000D01*
G37*
G54D14*X70000Y220000D03*
Y230000D03*
Y240000D03*
Y250000D03*
Y190000D03*
Y200000D03*
Y210000D03*
G54D11*G36*
X187000Y183000D02*Y177000D01*
X193000D01*
Y183000D01*
X187000D01*
G37*
G54D14*X180000Y180000D03*
X130000Y190000D03*
X160000D03*
G54D11*G36*
X117000Y183000D02*Y177000D01*
X123000D01*
Y183000D01*
X117000D01*
G37*
G54D14*X110000Y180000D03*
X130000Y200000D03*
X160000D03*
X130000Y210000D03*
X160000D03*
X130000Y220000D03*
X160000D03*
X130000Y230000D03*
X160000D03*
X130000Y240000D03*
Y250000D03*
X160000D03*
Y240000D03*
X220000Y230000D03*
Y240000D03*
Y250000D03*
Y190000D03*
Y200000D03*
Y210000D03*
Y220000D03*
X250000D03*
Y210000D03*
Y200000D03*
Y190000D03*
G54D11*G36*
X247000Y343000D02*Y337000D01*
X253000D01*
Y343000D01*
X247000D01*
G37*
G54D14*X250000Y330000D03*
Y250000D03*
Y240000D03*
Y230000D03*
G54D11*G36*
X97000Y483000D02*Y477000D01*
X103000D01*
Y483000D01*
X97000D01*
G37*
G54D14*X20000Y480000D03*
G54D11*G36*
X226600Y613400D02*Y606600D01*
X233400D01*
Y613400D01*
X226600D01*
G37*
G54D15*X220000Y610000D03*
G54D19*X274114Y615472D03*
Y605630D03*
G54D20*X260925Y627283D03*
X287500Y630433D03*
G54D11*G36*
X137000Y553000D02*Y547000D01*
X143000D01*
Y553000D01*
X137000D01*
G37*
G54D14*X150000Y550000D03*
G54D24*X120000Y590000D03*
Y575000D03*
Y560000D03*
X130000Y640000D03*
X110000D03*
G54D25*X41000Y608000D03*
X60000Y620000D03*
G54D26*Y596000D03*
G54D11*G36*
X27000Y553000D02*Y547000D01*
X33000D01*
Y553000D01*
X27000D01*
G37*
G54D14*X40000Y550000D03*
G54D11*G36*
X27000Y573000D02*Y567000D01*
X33000D01*
Y573000D01*
X27000D01*
G37*
G54D14*X40000Y570000D03*
G54D11*G36*
X186600Y553400D02*Y546600D01*
X193400D01*
Y553400D01*
X186600D01*
G37*
G54D15*X200000Y550000D03*
X210000D03*
G54D11*G36*
X56600Y553400D02*Y546600D01*
X63400D01*
Y553400D01*
X56600D01*
G37*
G54D15*X70000Y550000D03*
X80000D03*
G54D11*G36*
X137000Y573000D02*Y567000D01*
X143000D01*
Y573000D01*
X137000D01*
G37*
G54D14*X150000Y570000D03*
G54D15*X210000Y610000D03*
X200000D03*
X190000D03*
X180000D03*
G54D11*G36*
X16600Y593400D02*Y586600D01*
X23400D01*
Y593400D01*
X16600D01*
G37*
G54D15*X20000Y550000D03*
G54D14*X230000Y480000D03*
X190000D03*
Y490000D03*
Y500000D03*
G54D11*G36*
X157000Y503000D02*Y497000D01*
X163000D01*
Y503000D01*
X157000D01*
G37*
G54D15*X130000Y500000D03*
G54D14*X160000Y490000D03*
G54D15*X130000D03*
G54D14*X160000Y480000D03*
G54D11*G36*
X126600Y473400D02*Y466600D01*
X133400D01*
Y473400D01*
X126600D01*
G37*
G54D15*X130000Y480000D03*
G54D11*G36*
X197000Y503000D02*Y497000D01*
X203000D01*
Y503000D01*
X197000D01*
G37*
G54D14*X200000Y470000D03*
G54D11*G36*
X207000Y503000D02*Y497000D01*
X213000D01*
Y503000D01*
X207000D01*
G37*
G54D14*X210000Y470000D03*
G54D11*G36*
X147000Y493000D02*Y487000D01*
X153000D01*
Y493000D01*
X147000D01*
G37*
G54D14*X150000Y500000D03*
G54D11*G36*
X197000Y523000D02*Y517000D01*
X203000D01*
Y523000D01*
X197000D01*
G37*
G36*
X177000Y463000D02*Y457000D01*
X183000D01*
Y463000D01*
X177000D01*
G37*
G54D14*X190000Y520000D03*
Y470000D03*
X170000Y460000D03*
X210000D03*
X160000Y470000D03*
G54D11*G36*
X247000Y563000D02*Y557000D01*
X253000D01*
Y563000D01*
X247000D01*
G37*
G54D14*X250000Y550000D03*
Y540000D03*
Y530000D03*
Y520000D03*
G54D11*G36*
X227000Y513000D02*Y507000D01*
X233000D01*
Y513000D01*
X227000D01*
G37*
G54D14*X230000Y500000D03*
Y490000D03*
X250000Y480000D03*
Y470000D03*
Y460000D03*
Y510000D03*
Y500000D03*
Y490000D03*
G54D11*G36*
X207000Y393000D02*Y387000D01*
X213000D01*
Y393000D01*
X207000D01*
G37*
G54D14*X210000Y420000D03*
G54D11*G36*
X207000Y433000D02*Y427000D01*
X213000D01*
Y433000D01*
X207000D01*
G37*
G36*
X237000Y373000D02*Y367000D01*
X243000D01*
Y373000D01*
X237000D01*
G37*
G54D14*X240000Y380000D03*
X230000Y470000D03*
Y460000D03*
G54D11*G36*
X227000Y443000D02*Y437000D01*
X233000D01*
Y443000D01*
X227000D01*
G37*
G54D14*X230000Y430000D03*
Y420000D03*
Y410000D03*
Y400000D03*
Y390000D03*
X250000Y400000D03*
Y390000D03*
Y380000D03*
Y370000D03*
Y450000D03*
Y440000D03*
Y430000D03*
Y420000D03*
Y410000D03*
G54D11*G36*
X177000Y363000D02*Y357000D01*
X183000D01*
Y363000D01*
X177000D01*
G37*
G54D14*X170000Y360000D03*
X160000Y390000D03*
Y380000D03*
Y370000D03*
G54D11*G36*
X157000Y443000D02*Y437000D01*
X163000D01*
Y443000D01*
X157000D01*
G37*
G54D14*X160000Y430000D03*
Y420000D03*
Y410000D03*
Y400000D03*
X190000Y420000D03*
Y430000D03*
Y440000D03*
Y370000D03*
Y380000D03*
Y390000D03*
Y400000D03*
Y410000D03*
G54D21*X360000Y27500D03*
X430000D03*
X404409D03*
G54D14*X270000Y180000D03*
G54D11*G36*
X267000Y33000D02*Y27000D01*
X273000D01*
Y33000D01*
X267000D01*
G37*
G36*
X277000Y183000D02*Y177000D01*
X283000D01*
Y183000D01*
X277000D01*
G37*
G36*
X377000Y313000D02*Y307000D01*
X383000D01*
Y313000D01*
X377000D01*
G37*
G54D14*X380000Y320000D03*
G54D11*G36*
X397000Y343000D02*Y337000D01*
X403000D01*
Y343000D01*
X397000D01*
G37*
G54D14*X400000Y330000D03*
Y320000D03*
Y310000D03*
Y300000D03*
Y290000D03*
G54D27*X480000Y500000D03*
G54D13*X465000Y475000D03*
X475000Y495000D03*
X462500Y497500D03*
G54D27*X592500Y590000D03*
G54D13*X550000Y560000D03*
G54D27*X620000Y575000D03*
G54D13*X555000Y555000D03*
X422500Y525000D03*
X219500D03*
X420000Y480000D03*
X405000Y450000D03*
X445000Y472500D03*
X400000Y460000D03*
X340000Y570000D03*
X320000Y565000D03*
X340000D03*
G54D20*X12500Y637500D03*
X412500Y625000D03*
G54D13*X352500Y540000D03*
X360000Y495000D03*
Y475000D03*
X322500Y500000D03*
X327500Y460000D03*
X677500D03*
X682500Y475000D03*
X725000Y455000D03*
X682500D03*
X695000Y445000D03*
X710000Y502500D03*
X722500Y450000D03*
X600000Y400000D03*
X597500Y410000D03*
X605000Y325000D03*
X595000Y300000D03*
X602500Y375000D03*
X597500Y372500D03*
X587500Y450000D03*
X585000Y395000D03*
X582500Y390000D03*
X580000Y397500D03*
X602500Y390000D03*
X600000Y367500D03*
X602500Y370000D03*
X505000Y375000D03*
X585000Y382500D03*
Y365000D03*
X590000Y440000D03*
X592500Y430000D03*
X595000Y420000D03*
X575000D03*
X572500Y417500D03*
X570000Y420000D03*
X567500Y447500D03*
X577500Y410000D03*
X602500Y290000D03*
X600000Y280000D03*
G54D27*X562500Y235000D03*
G54D13*X565000Y265000D03*
X562500Y262500D03*
X560000Y260000D03*
X555000Y277500D03*
X585000Y325000D03*
G54D27*X537500Y290000D03*
G54D13*X557500Y257500D03*
X567500Y247500D03*
X590000Y235000D03*
X570000Y250000D03*
X572500Y252500D03*
X575000Y255000D03*
X732500Y430000D03*
X727500D03*
X747500Y335000D03*
X745000Y325000D03*
X742500Y315000D03*
X740000Y305000D03*
X745000Y355000D03*
Y345000D03*
X742500Y380000D03*
X697500Y150000D03*
G54D27*X693000Y170000D03*
G54D13*X742500Y160000D03*
X775000Y170000D03*
G54D20*X887500Y12500D03*
G54D13*X692500Y590000D03*
X717500Y550000D03*
X700000Y540000D03*
X695000Y580000D03*
X720000Y570000D03*
G54D27*X867500Y630000D03*
X872500Y625000D03*
G54D13*X680000Y515000D03*
Y535000D03*
Y525000D03*
X660000Y550000D03*
X650000Y552500D03*
X587500Y592500D03*
G54D20*X887500Y637500D03*
G54D13*X87500Y210000D03*
X112500Y170000D03*
X115000Y287500D03*
X87500Y255000D03*
X57500Y210000D03*
X135000Y167500D03*
X57500Y165000D03*
X112500Y70000D03*
Y115000D03*
G54D27*X100000Y125000D03*
G54D20*X12500Y12500D03*
G54D27*X105000Y305000D03*
X121500Y315000D03*
X145000D03*
G54D13*X120000Y322500D03*
X35000Y340000D03*
X80000Y347500D03*
X150000Y160000D03*
X152500Y162500D03*
X155000Y165000D03*
G54D27*X160000Y180000D03*
G54D13*X140000Y147500D03*
X147500Y320000D03*
X305000Y302500D03*
X227500Y300000D03*
X232500Y310000D03*
X152500Y332500D03*
X155000Y340000D03*
Y345000D03*
Y350000D03*
X157500Y342500D03*
Y347500D03*
Y352500D03*
X212500Y365000D03*
X195000D03*
X200000D03*
X205000D03*
X325000Y262500D03*
X210000Y240000D03*
X357500Y255000D03*
X280000D03*
X277500Y245000D03*
X297500Y220000D03*
X275000Y235000D03*
X272500Y225000D03*
X300000Y230000D03*
X295000Y210000D03*
X287500Y195000D03*
X285000Y205000D03*
X282500Y215000D03*
X300000Y340000D03*
X295000D03*
X290000D03*
X285000D03*
X280000D03*
X275000D03*
X297500Y337500D03*
X292500D03*
X287500D03*
X282500D03*
X277500D03*
X272500D03*
X330000Y407500D03*
X305000Y350000D03*
X302500Y377500D03*
X352500Y370000D03*
X317500Y385000D03*
X327500D03*
X300000Y386000D03*
X297500Y395000D03*
X292500Y415000D03*
X290000Y425000D03*
X285000Y435000D03*
X287500Y445000D03*
X295000Y410000D03*
X205000D03*
X202500Y390000D03*
G54D27*X197500Y375000D03*
G54D13*Y370000D03*
X202500Y367500D03*
X216500Y455000D03*
X215000Y465000D03*
X192500Y450000D03*
X187500D03*
X185000Y447500D03*
X120000Y442500D03*
Y437500D03*
G54D27*X110000Y387500D03*
G54D13*X182500Y445000D03*
X217500Y430000D03*
X220000Y420000D03*
X222500Y390000D03*
X292500Y200000D03*
X290000Y190000D03*
G54D27*X240000Y180000D03*
G54D13*X207500Y157500D03*
X205000Y160000D03*
X202500Y152500D03*
X197500D03*
X195000Y150000D03*
X285000Y160000D03*
X372500Y305000D03*
X360000Y267500D03*
X372500Y242500D03*
X367500Y245000D03*
X362500Y260000D03*
X375000Y247500D03*
X365000Y325000D03*
X362500Y395000D03*
X370000Y315000D03*
X412500Y297500D03*
Y287500D03*
X402500Y282500D03*
X387500Y357500D03*
X397500D03*
X400000Y360000D03*
X397500Y362500D03*
X385000Y360000D03*
X377500Y432500D03*
G54D27*X380000Y355000D03*
G54D13*X382500Y365000D03*
X357500Y225000D03*
X362500Y235000D03*
Y230000D03*
X367500Y235000D03*
X360000Y227500D03*
X365000Y237500D03*
X370000Y222500D03*
X380000Y225000D03*
X377500Y220000D03*
X380000Y245000D03*
X385000Y240000D03*
X390000Y235000D03*
X385000Y230000D03*
X360000Y205000D03*
X390000Y215000D03*
X392500Y210000D03*
X390000Y207500D03*
X387500Y205000D03*
X362500Y195000D03*
X445000Y227500D03*
X442500Y415000D03*
X437500Y317500D03*
X445000Y315000D03*
Y302500D03*
X475000Y300000D03*
X477500Y297500D03*
X480000Y362500D03*
X465000Y332500D03*
G54D27*X455000Y360000D03*
G54D13*X452500Y355000D03*
X465000Y362500D03*
X447500Y265000D03*
X467500Y285000D03*
X470000Y290000D03*
X502500Y267500D03*
X567500Y220000D03*
X455000Y247500D03*
X460000Y275000D03*
Y202500D03*
X505000Y275000D03*
X507500Y272500D03*
X452500Y260000D03*
Y237500D03*
X420000Y255000D03*
X440000D03*
X437500Y230000D03*
X432500Y117500D03*
X435000Y120000D03*
X437500Y122500D03*
X440000Y120000D03*
X442500Y117500D03*
X445000Y115000D03*
X447500Y112500D03*
X450000Y110000D03*
X480000Y107500D03*
X475000Y105000D03*
X477500Y102500D03*
G54D20*X450000Y12500D03*
G54D13*X470000Y140000D03*
X480000D03*
X475000D03*
X477500Y142500D03*
X467500D03*
X437500D03*
X440000Y145000D03*
X442500Y142500D03*
X445000Y145000D03*
X447500Y142500D03*
X450000Y145000D03*
X410000Y165000D03*
X380000Y157500D03*
X472500Y160000D03*
X465000Y140000D03*
X462500Y142500D03*
G54D28*X186968Y118602D02*Y116594D01*
X177126Y118602D02*Y116594D01*
X167284Y118602D02*Y116594D01*
X157441Y118602D02*Y116594D01*
X216496Y118602D02*Y116594D01*
X206653Y118602D02*Y116594D01*
X196811Y118602D02*Y116594D01*
X147914Y118602D02*Y116594D01*
X141221Y118602D02*Y116594D01*
G54D29*X131752Y116692D02*X132737D01*
G54D11*G36*
X117717Y101771D02*Y94291D01*
X125197D01*
Y101771D01*
X117717D01*
G37*
G54D29*X121733Y76771D02*X123701D01*
G54D11*G36*
X119371Y41849D02*Y35550D01*
X125670D01*
Y41849D01*
X119371D01*
G37*
G36*
X234330Y101771D02*Y94291D01*
X241810D01*
Y101771D01*
X234330D01*
G37*
G36*
Y40944D02*Y33464D01*
X241810D01*
Y40944D01*
X234330D01*
G37*
G54D30*G54D31*G54D30*G54D31*G54D30*G54D31*G54D30*G54D31*G54D32*G54D33*G54D32*G54D30*G54D33*G54D32*G54D33*G54D30*G54D14*G54D34*G54D30*G54D34*G54D30*G54D34*G54D14*G54D34*G54D32*G54D35*G54D32*G54D30*G54D31*G54D30*G54D14*G54D30*G54D31*G54D30*G54D31*G54D30*G54D31*G54D30*G54D36*G54D37*G54D30*G54D31*G54D30*G54D31*G54D32*G54D35*G54D30*G54D14*G54D17*G54D24*G54D30*G54D31*G54D30*G54D31*G54D30*G54D31*G54D30*G54D31*G54D30*G54D31*G54D30*G54D14*G54D31*G54D30*G54D11*G54D38*G54D11*G54D38*G54D11*G54D38*G54D33*G54D38*G54D11*G54D38*G54D11*G54D38*G54D11*G54D38*G54D33*G54D38*G54D11*G54D38*G54D33*G54D38*G54D11*G54D33*G54D11*G54D38*G54D11*G54D38*G54D11*G54D38*G54D11*G54D38*G54D11*G54D38*G54D11*G54D38*G54D11*G54D38*G54D33*G54D38*M02*
